<?xml version="1.0" encoding="UTF-8" standalone="no"?>
<svg xmlns="http://www.w3.org/2000/svg" xmlns:cc="http://web.resource.org/cc/" xmlns:svg="http://www.w3.org/2000/svg" xmlns:xlink="http://www.w3.org/1999/xlink" width="84mm" height="100mm" version="1.0">
  <defs>
    <linearGradient id="a">
      <stop offset="0" style="stop-color:#000;stop-opacity:1"/>
      <stop offset="1" style="stop-color:#fff;stop-opacity:1"/>
    </linearGradient>
    <linearGradient xlink:href="#a"/>
  </defs>
  <g transform="translate(-3481.634 -1177.063) scale(3.51139)">
    <path d="M1035.089 435.19518c35.3918-18.44134 44.0639-58.28831 38.5528-98.5625h-79.68755c-5.5113 40.27419 10.39915 80.12116 41.13475 98.5625z" style="fill:#dadd47;fill-rule:evenodd;stroke:#000000;stroke-width:0.5;stroke-linejoin:bevel"/>
    <g style="fill:#0071c8" transform="matrix(.09682 0 0 .11187 976.1543 326.4891)">
      <path d="M981.125 357.0625 881 357.5l-.75 1.625c8.92916 4.45763 15.12501 13.56633 15.125 24.21875 0 15.00587-12.18162 27.18751-27.1875 27.1875-.30041 0-.57693-.08406-.875-.09375C873.76743 415.40922 878 423.13463 878 431.90625c0 14.98466-12.14836 27.15313-27.125 27.1875 7.11771 4.90373 11.78124 13.1154 11.78125 22.40625 0 13.81204-10.344 25.08332-23.6875 26.8125 3.58549 4.6059 5.8125 10.34028 5.8125 16.625 0 15.00587-12.18163 27.18748-27.1875 27.1875-5.0586 0-9.72348-1.49649-13.78125-3.90625-4.063 2.41842-8.7441 3.90625-13.8125 3.90625-15.00587-.00002-27.1875-12.18163-27.1875-27.1875 0-6.28472 2.22701-12.0191 5.8125-16.625-13.34891-1.72425-23.6875-12.9966-23.6875-26.8125 0-9.29125 4.66302-17.50259 11.78125-22.40625-14.97666-.03437-27.125-12.20284-27.125-27.1875 0-8.77162 4.23257-16.49703 10.6875-21.46875-.29807.00969-.57459.09375-.875.09375-15.00588.00001-27.1875-12.18163-27.1875-27.1875.00001-10.65242 6.19584-19.76112 15.125-24.21875l-.46875-1-93.4375.40625L806.90625 684.875 981.125 357.0625z" style="fill:#0071c8;fill-opacity:1;fill-rule:evenodd;stroke:#000000;stroke-width:2.5"/>
      <g style="fill:#0071c8;fill-opacity:1" transform="translate(377.6458)">
        <path d="M431.78125 637.71875 419.8125 614.3125l-34.15625-279.96875 83.09375.125-36.96875 303.25z" style="fill:#0071c8;fill-opacity:1;fill-rule:evenodd;stroke:none;stroke-width:2.5"/>
        <path d="m468.76322 334.45752-36.98717 303.25611" style="fill:#0071c8;fill-opacity:1;fill-rule:evenodd;stroke:#000000;stroke-width:2.5"/>
        <path d="m385.65844 334.35348 34.14515 279.95451" style="fill:#0071c8;fill-opacity:1;fill-rule:evenodd;stroke:#000000;stroke-width:2.5"/>
        <path d="m455.51039 330.38514-18.10893 205.09623" style="fill:#0071c8;fill-opacity:1;fill-rule:evenodd;stroke:#000000;stroke-width:2.5"/>
        <g style="fill:#0071c8;fill-opacity:1">
          <g style="fill:#0071c8;fill-opacity:1">
            <path d="M458.99974 281.75645c9.79144 3.34877 6.46816 12.18797 6.46816 14.58181 0 4.78767-18.45681 8.67331-41.19825 8.67331-22.74143 0-41.19824-3.88564-41.19824-8.67331 0-2.39384-2.38946-15.23557 5.53433-15.02654" style="fill:#0071c8;fill-opacity:1;fill-rule:evenodd;stroke:#000000;stroke-width:2.5" transform="matrix(1.0946 0 0 1.1492 -38.87064 -2.835735)"/>
            <path d="M477.0625 295.78125c0 6.28566-6.43749 17.998-6.4375 23.5-.00001 5.502-20.201 9.96875-45.09375 9.96875-24.89274-.00001-45.09375-4.46674-45.09375-9.96875s-6.40625-17.21434-6.40625-23.5 23.06179-11.375 51.5-11.375c28.4382-.00001 51.53125 5.08934 51.53125 11.375z" style="fill:#0071c8;fill-opacity:1;fill-rule:evenodd;stroke:#000000;stroke-width:2.5;stroke-dasharray:none;stroke-opacity:1"/>
            <path d="M460.59692 397.91412c9.37686 3.36697 6.1943 12.25419 6.1943 14.66104 0 4.81368-17.67534 8.72043-39.4539 8.72043-21.77854 0-39.45388-3.90675-39.45388-8.72043 0-2.40685-2.28829-15.31835 5.29999-15.10819" style="fill:#0071c8;fill-opacity:1;fill-rule:evenodd;stroke:#000000;stroke-width:2.45313907"/>
            <path d="M461.16934 396.2206c0 4.81368-12.05346 5.14287-33.83202 5.14287-21.77854 0-34.34308-1.35135-34.34308-6.16503" style="fill:#0071c8;fill-opacity:1;fill-rule:evenodd;stroke:#000000;stroke-width:2.45313907"/>
          </g>
          <path d="M451.64285 291.471c6.68404 1.47738 10.82002 3.51793 10.82002 5.7707 0 4.50555-16.54391 8.16222-36.92839 8.16222-20.38446 0-36.92837-3.65667-36.92837-8.16222 0-2.25277 4.13598-4.29332 10.82001-5.7707" style="fill:#0071c8;fill-opacity:1;fill-rule:evenodd;stroke:#000000;stroke-width:2.29610848"/>
        </g>
      </g>
    </g>
    <g>
      <path d="M1035.0889 435.19516c0-39.14443-.2378-71.26438-.2378-98.5625h-40.89687c-5.5112 40.27419 10.39917 80.12116 41.13467 98.5625z" style="fill:#ffffff;fill-rule:evenodd;stroke:#000000;stroke-width:0.5;stroke-linecap:square;stroke-linejoin:bevel"/>
      <path d="M993.03125 349.71875c-.10381 4.43856.07005 8.81337.46875 13.15625.77873.47844 1.54755 1.05996 2.21875 1.875 2.1226 2.57746 2.51347 5.73889.90625 7.0625 1.60721-1.32361 4.6585-.2963 6.7812 2.28125 2.1228 2.57752 2.5445 5.73879.9376 7.0625 1.607-1.3237 4.6271-.29627 6.75 2.28125 2.1225 2.57755 2.5134 5.73886.9062 7.0625.0052-.00541.0254.00484.0312 0 1.6074-1.32355 4.6274-.2963 6.75 2.28125 2.1226 2.57746 2.5449 5.73885.9376 7.0625 1.6073-1.32365 4.6274-.29619 6.75 2.28125 2.1227 2.57761 2.5447 5.73893.9374 7.0625 1.6074-1.32356 4.6274-.32752 6.75 2.25.3642.44215.6128.91044.875 1.375-.0108-4.71156-.0169-8.38119-.0312-12.875-.9343-.48645-1.8549-1.15193-2.6562-2.125-2.1228-2.57753-2.5448-5.77018-.9376-7.09375-1.6071 1.32358-4.6271.32752-6.75-2.25-2.1225-2.57752-2.5447-5.73886-.9374-7.0625-1.6073 1.32356-4.6275.29621-6.75-2.28125-2.1226-2.57755-2.5449-5.73888-.9376-7.0625-1.6072 1.32362-4.6273.2962-6.75-2.28125-2.1226-2.57762-2.5447-5.73875-.9374-7.0625-1.6073 1.32365-4.6272.29631-6.75-2.28125-2.12265-2.57749-2.54486-5.73888-.9376-7.0625-1.60726 1.32363-4.62734.29622-6.74995-2.28125-.36414-.44217-.61312-.91083-.875-1.375zm7.62495 3.65625c.0352-.02901.0883-.03572.125-.0625l-.0312-.03125c-.0333.03079-.0585.06476-.0938.09375zm7.6876 9.34375c.0352-.02899.0884-.03575.125-.0625l-.0313-.03125c-.0333.03074-.0585.0648-.0937.09375zm7.6874 9.34375c.0352-.02908.0883-.06704.125-.09375l-.0312-.03125c-.0335.03064-.0586.09597-.0938.125zm7.6876 9.34375c.0352-.02899.0884-.03576.125-.0625l-.0313-.0625c-.0333.03073-.0584.09594-.0937.125zm7.6874 9.3125c.0354-.02905.0885-.03571.125-.0625l-.0312-.03125c-.0333.03068-.0584.06472-.0938.09375zm-4 18.46875c-.0351.02908-.0884.03567-.125.0625l.0313.03125c.0332-.03075.0585-.06471.0937-.09375zm-7.6874-9.34375c-.0353.02899-.0883.0357-.125.0625l.0312.03125c.0333-.03074.0585-.06479.0938-.09375zM1012 390.5c-.0353.02901-.0571.03564-.0938.0625l.0313.03125c.0278-.02568.0366-.0667.0625-.09375zm-7.6562-9.34375c-.0354.02892-.0885.03576-.125.0625l.0312.03125c.0332-.03073.0583-.06487.0938-.09375zm-7.7188-9.34375c-.03527.02903-.05725.03566-.09375.0625l.03125.0625c.03319-.03084.02724-.09598.0625-.125zm38.4375 46.71875c-.0282.0159-.0674.04323-.0937.0625l.0312.03125c.0186-.01725.047-.04269.0625-.0625v-.03125z" style="fill:#000000;fill-opacity:1;fill-rule:evenodd;stroke:none;stroke-width:1pt"/>
    </g>
  </g>
</svg>