<?xml version="1.0" encoding="utf-8"?>
<!-- Generator: Adobe Illustrator 16.0.3, SVG Export Plug-In . SVG Version: 6.00 Build 0)  -->
<svg version="1.1" id="Jesus_College_Cambridge_shield"
	 xmlns="http://www.w3.org/2000/svg" xmlns:xlink="http://www.w3.org/1999/xlink" x="0px" y="0px" width="301.17px"
	 height="353.59px" viewBox="-1.49 -1 301.17 353.59" enable-background="new -1.49 -1 301.17 353.59" xml:space="preserve">
<path fill="#B61511" stroke="#000" stroke-width="2" d="M146.423,348.482C312.619,271.788,294.793,141.008,294.699,4.185
	c0.161-0.396,0.331-0.789,0.492-1.185c-0.164,0-0.329,0-0.492,0C197.633,3,100.56,3,3.495,3C3.33,3,3.166,3,3.001,3
	c0.162,0.396,0.332,0.789,0.494,1.185C3.401,141.008-10.272,271.788,146.423,348.482z"/>
<g>
	<g transform="translate(-0.327778,0.000)">
		<path fill="#FFD700" d="M273.695,40.257l-16.614,0.029c-2.732,0.004-4.926,1.248-4.899,2.776l0,0
			c0.026,1.529,2.264,2.765,4.995,2.76l16.614-0.029c2.731-0.005,4.925-1.248,4.898-2.777l0,0
			C278.663,41.487,276.426,40.252,273.695,40.257z"/>
		<path fill="#FFD700" d="M260.621,32.794c-2.171-1.025-3.243-2.61-3.365-4.867c-0.078-1.356,1.018-2.965,2.193-3.019
			c3.679-0.176,4.934,7.196,4.918,9c-0.155,0.002-0.921-0.006-1.11,0.006c-0.172-1.137-0.032-2.534-1.212-3.694
			c-1.18-1.16-1.696-0.255-1.841,0.471C260.058,31.417,260.753,32.866,260.621,32.794L260.621,32.794L260.621,32.794L260.621,32.794
			L260.621,32.794L260.621,32.794z"/>
		<path fill="#FFD700" d="M270.447,32.651c2.164-1.088,3.227-2.704,3.333-4.964c0.068-1.359-1.036-2.935-2.214-2.955
			c-3.681-0.069-4.886,7.338-4.856,9.142c0.155-0.003,0.921-0.033,1.11-0.026c0.164-1.142,0.015-2.535,1.187-3.729
			c1.172-1.194,1.694-0.305,1.845,0.417C270.999,31.258,270.315,32.727,270.447,32.651L270.447,32.651L270.447,32.651
			L270.447,32.651L270.447,32.651L270.447,32.651z"/>
		<path fill="#FFD700" d="M265.448,16.202c-2.489,3.239-3.149,6.505-1.465,11.699c0.577,1.734,0.825,3.822,0.811,5.996
			c0.242,0.003,1.271-0.026,1.517-0.051c-0.028-2.146,0.253-4.41,0.815-6.19c1.912-5.356,0.509-8.95-1.611-11.454h-0.032H265.448
			L265.448,16.202z"/>
		<polygon fill="#FFD700" points="268.533,33.892 262.609,33.978 262.613,35.063 268.536,34.977 		"/>
		<path fill="#FFD700" d="M255.729,33.608c1.245-1.792,1.53-3.618,0.925-5.639c-0.36-1.216-1.644-2.168-2.506-1.729
			c-2.7,1.366-1.338,8.319-0.771,9.887c0.112-0.063,0.66-0.386,0.801-0.454c-0.226-1.063-0.756-2.226-0.264-3.725
			s1.142-0.924,1.469-0.35C255.71,32.172,255.655,33.726,255.729,33.608L255.729,33.608L255.729,33.608L255.729,33.608
			L255.729,33.608L255.729,33.608z"/>
		<path fill="#FFD700" d="M247.112,21.143c-0.832,3.801,4.229,13.837,4.876,15.747c0.178-0.091,0.918-0.516,1.089-0.632
			c-0.671-1.869-1.15-3.96-1.278-5.737c-0.228-5.431-2.337-8.034-4.638-9.404l-0.024,0.014L247.112,21.143L247.112,21.143
			L247.112,21.143z"/>
		<path fill="#FFD700" d="M275.72,34.04c-1.33-1.646-1.704-3.435-1.197-5.519c0.3-1.254,1.531-2.348,2.415-2.007
			c2.76,1.057,1.739,8.145,1.253,9.773c-0.115-0.05-0.679-0.31-0.821-0.362c0.174-1.085,0.645-2.304,0.081-3.744
			c-0.564-1.44-1.185-0.792-1.482-0.183C275.669,32.607,275.799,34.148,275.72,34.04L275.72,34.04L275.72,34.04L275.72,34.04
			L275.72,34.04L275.72,34.04z"/>
		<path fill="#FFD700" d="M283.704,20.635c1.017,3.697-3.541,14.277-4.092,16.255c-0.183-0.071-0.941-0.411-1.116-0.508
			c0.576-1.939,0.953-4.079,0.993-5.865c-0.038-5.442,1.938-8.276,4.165-9.903l0.024,0.011L283.704,20.635L283.704,20.635
			L283.704,20.635z"/>
		<path fill="#FFD700" d="M262.755,34.984l5.579-0.133c2.589,2.155,6.347,2.202,9.177,0.498c0.25,0.414,1.571,0.897,1.964,1.122
			l-1,1.7L252.581,38.4l-0.789-1.546c0.536,0.035,1.661-1.084,2.41-1.333C256.604,37.366,260.433,37.317,262.755,34.984
			L262.755,34.984L262.755,34.984z"/>
	</g>
	<g transform="translate(-0.327778,0.000)">
		<path fill="#FFD700" d="M159.177,40.257l-16.613,0.029c-2.732,0.004-4.927,1.248-4.898,2.776l0,0
			c0.026,1.529,2.262,2.765,4.994,2.76l16.614-0.029c2.731-0.005,4.925-1.248,4.897-2.777l0,0
			C164.145,41.487,161.909,40.252,159.177,40.257z"/>
		<path fill="#FFD700" d="M146.104,32.794c-2.172-1.025-3.243-2.61-3.365-4.867c-0.078-1.356,1.017-2.965,2.193-3.019
			c3.679-0.176,4.935,7.196,4.917,9c-0.154,0.002-0.921-0.006-1.109,0.006c-0.172-1.137-0.032-2.534-1.212-3.694
			c-1.181-1.16-1.696-0.255-1.841,0.471C145.541,31.417,146.237,32.866,146.104,32.794L146.104,32.794L146.104,32.794
			L146.104,32.794L146.104,32.794L146.104,32.794z"/>
		<path fill="#FFD700" d="M155.93,32.651c2.164-1.088,3.227-2.704,3.332-4.964c0.069-1.359-1.035-2.935-2.214-2.955
			c-3.68-0.069-4.885,7.338-4.855,9.142c0.154-0.003,0.921-0.033,1.109-0.026c0.164-1.142,0.017-2.535,1.188-3.729
			c1.172-1.194,1.693-0.305,1.844,0.417C156.482,31.258,155.797,32.727,155.93,32.651L155.93,32.651L155.93,32.651L155.93,32.651
			L155.93,32.651L155.93,32.651z"/>
		<path fill="#FFD700" d="M150.93,16.202c-2.488,3.239-3.148,6.505-1.465,11.699c0.577,1.734,0.826,3.822,0.812,5.996
			c0.242,0.003,1.271-0.026,1.515-0.051c-0.028-2.146,0.253-4.41,0.816-6.19c1.912-5.356,0.509-8.95-1.611-11.454h-0.033H150.93
			L150.93,16.202z"/>
		<polygon fill="#FFD700" points="154.015,33.892 148.091,33.978 148.095,35.063 154.019,34.977 		"/>
		<path fill="#FFD700" d="M141.211,33.608c1.246-1.792,1.531-3.618,0.925-5.639c-0.359-1.216-1.643-2.168-2.506-1.729
			c-2.7,1.366-1.337,8.319-0.771,9.887c0.111-0.063,0.661-0.386,0.801-0.454c-0.226-1.063-0.756-2.226-0.264-3.725
			c0.491-1.499,1.142-0.924,1.469-0.35C141.193,32.172,141.138,33.726,141.211,33.608L141.211,33.608L141.211,33.608L141.211,33.608
			L141.211,33.608L141.211,33.608z"/>
		<path fill="#FFD700" d="M132.595,21.143c-0.833,3.801,4.229,13.837,4.875,15.747c0.179-0.091,0.919-0.516,1.09-0.632
			c-0.671-1.869-1.15-3.96-1.278-5.737c-0.229-5.431-2.337-8.034-4.638-9.404l-0.024,0.014L132.595,21.143L132.595,21.143
			L132.595,21.143z"/>
		<path fill="#FFD700" d="M161.204,34.04c-1.331-1.646-1.704-3.435-1.199-5.519c0.301-1.254,1.532-2.348,2.415-2.007
			c2.76,1.057,1.74,8.145,1.253,9.773c-0.115-0.05-0.678-0.31-0.82-0.362c0.174-1.085,0.646-2.304,0.08-3.744
			c-0.564-1.44-1.184-0.792-1.481-0.183C161.152,32.607,161.282,34.148,161.204,34.04L161.204,34.04L161.204,34.04L161.204,34.04
			L161.204,34.04L161.204,34.04z"/>
		<path fill="#FFD700" d="M169.186,20.635c1.017,3.697-3.541,14.277-4.093,16.255c-0.182-0.071-0.94-0.411-1.115-0.508
			c0.576-1.939,0.952-4.079,0.992-5.865c-0.038-5.442,1.938-8.276,4.166-9.903l0.024,0.011L169.186,20.635L169.186,20.635
			L169.186,20.635z"/>
		<path fill="#FFD700" d="M148.239,34.984l5.579-0.133c2.589,2.155,6.348,2.202,9.178,0.498c0.25,0.414,1.57,0.897,1.964,1.122
			l-1,1.7L138.066,38.4l-0.79-1.546c0.536,0.035,1.661-1.084,2.41-1.333C142.086,37.366,145.916,37.317,148.239,34.984
			L148.239,34.984L148.239,34.984z"/>
	</g>
	<g transform="translate(-0.327778,0.000)">
		<path fill="#FFD700" d="M41.777,40.257l-16.614,0.029c-2.731,0.004-4.925,1.248-4.898,2.776l0,0
			c0.026,1.529,2.264,2.765,4.994,2.76l16.614-0.029c2.732-0.005,4.926-1.248,4.899-2.777l0,0
			C46.745,41.487,44.509,40.252,41.777,40.257z"/>
		<path fill="#FFD700" d="M28.704,32.794c-2.171-1.025-3.244-2.61-3.366-4.867c-0.078-1.356,1.018-2.965,2.194-3.019
			c3.679-0.176,4.934,7.196,4.917,9c-0.155,0.002-0.92-0.006-1.11,0.006c-0.171-1.137-0.032-2.534-1.212-3.694
			c-1.18-1.16-1.696-0.255-1.841,0.471S28.836,32.866,28.704,32.794L28.704,32.794L28.704,32.794L28.704,32.794L28.704,32.794
			L28.704,32.794z"/>
		<path fill="#FFD700" d="M38.53,32.651c2.164-1.088,3.226-2.704,3.333-4.964c0.067-1.359-1.037-2.935-2.215-2.955
			c-3.681-0.069-4.886,7.338-4.856,9.142c0.155-0.003,0.921-0.033,1.111-0.026c0.163-1.142,0.015-2.535,1.187-3.729
			c1.171-1.194,1.694-0.305,1.844,0.417C39.082,31.258,38.398,32.727,38.53,32.651L38.53,32.651L38.53,32.651L38.53,32.651
			L38.53,32.651L38.53,32.651z"/>
		<path fill="#FFD700" d="M33.53,16.202c-2.488,3.239-3.149,6.505-1.465,11.699c0.577,1.734,0.826,3.822,0.811,5.996
			c0.242,0.003,1.272-0.026,1.517-0.051c-0.028-2.146,0.253-4.41,0.816-6.19c1.912-5.356,0.509-8.95-1.612-11.454h-0.032H33.53
			L33.53,16.202z"/>
		<polygon fill="#FFD700" points="36.615,33.892 30.692,33.978 30.695,35.063 36.619,34.977 		"/>
		<path fill="#FFD700" d="M23.811,33.608c1.246-1.792,1.53-3.618,0.926-5.639c-0.361-1.216-1.644-2.168-2.507-1.729
			c-2.7,1.366-1.337,8.319-0.771,9.887c0.112-0.063,0.66-0.386,0.8-0.454c-0.226-1.063-0.755-2.226-0.264-3.725
			c0.492-1.5,1.143-0.924,1.47-0.35C23.791,32.172,23.738,33.726,23.811,33.608L23.811,33.608L23.811,33.608L23.811,33.608
			L23.811,33.608L23.811,33.608z"/>
		<path fill="#FFD700" d="M15.195,21.143c-0.833,3.801,4.229,13.837,4.876,15.747c0.177-0.091,0.918-0.516,1.088-0.632
			c-0.67-1.869-1.149-3.96-1.277-5.737c-0.228-5.431-2.337-8.034-4.639-9.404l-0.023,0.014L15.195,21.143L15.195,21.143
			L15.195,21.143z"/>
		<path fill="#FFD700" d="M43.803,34.04c-1.331-1.646-1.704-3.435-1.198-5.519c0.301-1.254,1.531-2.348,2.415-2.007
			c2.76,1.057,1.74,8.145,1.253,9.773c-0.115-0.05-0.679-0.31-0.82-0.362c0.173-1.085,0.645-2.304,0.08-3.744
			c-0.563-1.44-1.185-0.792-1.481-0.183C43.751,32.607,43.882,34.148,43.803,34.04L43.803,34.04L43.803,34.04L43.803,34.04
			L43.803,34.04L43.803,34.04z"/>
		<path fill="#FFD700" d="M51.786,20.635c1.017,3.697-3.541,14.277-4.092,16.255c-0.182-0.071-0.94-0.411-1.116-0.508
			c0.577-1.939,0.953-4.079,0.994-5.865c-0.039-5.442,1.937-8.276,4.165-9.903l0.023,0.011L51.786,20.635L51.786,20.635
			L51.786,20.635z"/>
		<path fill="#FFD700" d="M30.837,34.984l5.58-0.133c2.588,2.155,6.347,2.202,9.177,0.498c0.25,0.414,1.571,0.897,1.964,1.122
			l-1,1.7L20.664,38.4l-0.79-1.546c0.536,0.035,1.661-1.084,2.411-1.333C24.687,37.366,28.516,37.317,30.837,34.984L30.837,34.984
			L30.837,34.984z"/>
	</g>
	<g transform="translate(-0.327778,0.000)">
		<path fill="#FFD700" d="M273.695,149.419l-16.614,0.029c-2.732,0.005-4.926,1.248-4.899,2.776l0,0
			c0.026,1.529,2.264,2.765,4.995,2.76l16.614-0.029c2.731-0.004,4.925-1.248,4.898-2.776l0,0
			C278.663,150.65,276.426,149.414,273.695,149.419z"/>
		<path fill="#FFD700" d="M260.621,141.957c-2.171-1.026-3.243-2.61-3.365-4.867c-0.078-1.357,1.018-2.965,2.193-3.019
			c3.679-0.176,4.934,7.196,4.918,9c-0.155,0.002-0.921-0.006-1.11,0.006c-0.172-1.137-0.032-2.534-1.212-3.694
			c-1.18-1.16-1.696-0.255-1.841,0.471C260.058,140.58,260.753,142.028,260.621,141.957L260.621,141.957L260.621,141.957
			L260.621,141.957L260.621,141.957L260.621,141.957z"/>
		<path fill="#FFD700" d="M270.447,141.814c2.164-1.089,3.227-2.704,3.333-4.964c0.068-1.359-1.036-2.936-2.214-2.955
			c-3.681-0.069-4.886,7.337-4.856,9.141c0.155-0.003,0.921-0.032,1.11-0.026c0.164-1.141,0.015-2.535,1.187-3.729
			c1.172-1.193,1.694-0.305,1.845,0.417C271.001,140.42,270.315,141.89,270.447,141.814L270.447,141.814L270.447,141.814
			L270.447,141.814L270.447,141.814L270.447,141.814z"/>
		<path fill="#FFD700" d="M265.448,125.364c-2.489,3.238-3.149,6.505-1.465,11.698c0.577,1.734,0.825,3.822,0.811,5.996
			c0.242,0.003,1.271-0.026,1.517-0.051c-0.028-2.146,0.253-4.411,0.815-6.191c1.912-5.356,0.509-8.95-1.611-11.454h-0.032
			L265.448,125.364L265.448,125.364z"/>
		<polygon fill="#FFD700" points="268.533,143.055 262.609,143.141 262.613,144.226 268.536,144.14 		"/>
		<path fill="#FFD700" d="M255.729,142.771c1.245-1.792,1.53-3.618,0.925-5.639c-0.36-1.216-1.644-2.168-2.506-1.729
			c-2.7,1.366-1.338,8.32-0.771,9.887c0.112-0.063,0.66-0.386,0.801-0.454c-0.226-1.063-0.756-2.225-0.264-3.725
			c0.492-1.499,1.142-0.924,1.469-0.349C255.709,141.336,255.655,142.888,255.729,142.771L255.729,142.771L255.729,142.771
			L255.729,142.771L255.729,142.771L255.729,142.771z"/>
		<path fill="#FFD700" d="M247.112,130.306c-0.832,3.801,4.229,13.837,4.876,15.747c0.178-0.092,0.918-0.516,1.089-0.633
			c-0.671-1.869-1.15-3.96-1.278-5.737c-0.228-5.431-2.337-8.034-4.638-9.404l-0.024,0.013L247.112,130.306L247.112,130.306
			L247.112,130.306z"/>
		<path fill="#FFD700" d="M275.72,143.202c-1.33-1.646-1.704-3.436-1.197-5.519c0.3-1.254,1.531-2.348,2.415-2.007
			c2.76,1.057,1.739,8.145,1.253,9.773c-0.115-0.05-0.679-0.311-0.821-0.362c0.174-1.085,0.645-2.305,0.081-3.745
			c-0.564-1.439-1.185-0.792-1.482-0.182C275.669,141.77,275.799,143.311,275.72,143.202L275.72,143.202L275.72,143.202
			L275.72,143.202L275.72,143.202L275.72,143.202z"/>
		<path fill="#FFD700" d="M283.704,129.797c1.017,3.696-3.541,14.277-4.092,16.254c-0.183-0.07-0.941-0.411-1.116-0.507
			c0.576-1.939,0.953-4.08,0.993-5.866c-0.038-5.442,1.938-8.275,4.165-9.902l0.024,0.011L283.704,129.797L283.704,129.797
			L283.704,129.797z"/>
		<path fill="#FFD700" d="M262.755,144.146l5.579-0.133c2.589,2.155,6.347,2.201,9.177,0.498c0.25,0.414,1.571,0.896,1.964,1.121
			l-1,1.7l-25.894,0.229l-0.789-1.547c0.536,0.035,1.661-1.084,2.41-1.333C256.604,146.527,260.433,146.479,262.755,144.146
			L262.755,144.146L262.755,144.146z"/>
	</g>
	<g transform="translate(-0.327778,0.000)">
		<path fill="#FFD700" d="M41.777,149.419l-16.614,0.029c-2.731,0.005-4.925,1.248-4.898,2.776l0,0
			c0.026,1.529,2.264,2.765,4.994,2.76l16.614-0.029c2.732-0.004,4.926-1.248,4.899-2.776l0,0
			C46.745,150.65,44.509,149.414,41.777,149.419z"/>
		<path fill="#FFD700" d="M28.704,141.957c-2.171-1.026-3.244-2.61-3.366-4.867c-0.078-1.357,1.018-2.965,2.194-3.019
			c3.679-0.176,4.934,7.196,4.917,9c-0.155,0.002-0.92-0.006-1.11,0.006c-0.171-1.137-0.032-2.534-1.212-3.694
			c-1.18-1.16-1.696-0.255-1.841,0.471S28.836,142.028,28.704,141.957L28.704,141.957L28.704,141.957L28.704,141.957L28.704,141.957
			L28.704,141.957z"/>
		<path fill="#FFD700" d="M38.53,141.814c2.164-1.089,3.226-2.704,3.333-4.964c0.067-1.359-1.037-2.936-2.215-2.955
			c-3.681-0.069-4.886,7.337-4.856,9.141c0.155-0.003,0.921-0.032,1.111-0.026c0.163-1.141,0.015-2.535,1.187-3.729
			c1.171-1.193,1.694-0.305,1.844,0.417C39.083,140.42,38.398,141.89,38.53,141.814L38.53,141.814L38.53,141.814L38.53,141.814
			L38.53,141.814L38.53,141.814z"/>
		<path fill="#FFD700" d="M33.53,125.364c-2.488,3.238-3.149,6.505-1.465,11.698c0.577,1.734,0.826,3.822,0.811,5.996
			c0.242,0.003,1.272-0.026,1.517-0.051c-0.028-2.146,0.253-4.411,0.816-6.191c1.912-5.356,0.509-8.95-1.612-11.454h-0.032
			L33.53,125.364L33.53,125.364z"/>
		<polygon fill="#FFD700" points="36.615,143.055 30.692,143.141 30.695,144.226 36.619,144.14 		"/>
		<path fill="#FFD700" d="M23.811,142.771c1.246-1.792,1.53-3.618,0.926-5.639c-0.361-1.216-1.644-2.168-2.507-1.729
			c-2.7,1.366-1.337,8.32-0.771,9.887c0.112-0.063,0.66-0.386,0.8-0.454c-0.226-1.063-0.755-2.225-0.264-3.725
			c0.492-1.499,1.143-0.924,1.47-0.349C23.792,141.336,23.738,142.888,23.811,142.771L23.811,142.771L23.811,142.771L23.811,142.771
			L23.811,142.771L23.811,142.771z"/>
		<path fill="#FFD700" d="M15.195,130.306c-0.833,3.801,4.229,13.837,4.876,15.747c0.177-0.092,0.918-0.516,1.088-0.633
			c-0.67-1.869-1.149-3.96-1.277-5.737c-0.228-5.431-2.337-8.034-4.639-9.404l-0.023,0.013L15.195,130.306L15.195,130.306
			L15.195,130.306z"/>
		<path fill="#FFD700" d="M43.803,143.202c-1.331-1.646-1.704-3.436-1.198-5.519c0.301-1.254,1.531-2.348,2.415-2.007
			c2.76,1.057,1.74,8.145,1.253,9.773c-0.115-0.05-0.679-0.311-0.82-0.362c0.173-1.085,0.645-2.305,0.08-3.745
			c-0.563-1.439-1.185-0.792-1.481-0.182C43.751,141.77,43.882,143.311,43.803,143.202L43.803,143.202L43.803,143.202
			L43.803,143.202L43.803,143.202L43.803,143.202z"/>
		<path fill="#FFD700" d="M51.786,129.797c1.017,3.696-3.541,14.277-4.092,16.254c-0.182-0.07-0.94-0.411-1.116-0.507
			c0.577-1.939,0.953-4.08,0.994-5.866c-0.039-5.442,1.937-8.275,4.165-9.902l0.023,0.011L51.786,129.797L51.786,129.797
			L51.786,129.797z"/>
		<path fill="#FFD700" d="M30.837,144.146l5.58-0.133c2.588,2.155,6.347,2.201,9.177,0.498c0.25,0.414,1.571,0.896,1.964,1.121
			l-1,1.7l-25.894,0.229l-0.79-1.547c0.536,0.035,1.661-1.084,2.411-1.333C24.687,146.527,28.516,146.479,30.837,144.146
			L30.837,144.146L30.837,144.146z"/>
	</g>
	<g transform="translate(-0.327778,0.000)">
		<path fill="#FFD700" d="M157.735,322.432l-16.614,0.029c-2.731,0.004-4.925,1.248-4.898,2.775l0,0
			c0.026,1.529,2.264,2.766,4.995,2.76l16.614-0.029c2.731-0.004,4.925-1.248,4.898-2.775l0,0
			C162.704,323.662,160.467,322.426,157.735,322.432z"/>
		<path fill="#FFD700" d="M144.662,314.969c-2.171-1.025-3.244-2.609-3.366-4.867c-0.078-1.355,1.018-2.965,2.194-3.019
			c3.679-0.177,4.934,7.194,4.918,8.999c-0.155,0.002-0.921-0.006-1.11,0.006c-0.172-1.137-0.032-2.533-1.212-3.693
			s-1.696-0.256-1.841,0.472C144.1,313.593,144.794,315.04,144.662,314.969L144.662,314.969L144.662,314.969L144.662,314.969
			L144.662,314.969L144.662,314.969z"/>
		<path fill="#FFD700" d="M154.488,314.826c2.164-1.088,3.226-2.704,3.333-4.965c0.067-1.357-1.037-2.936-2.215-2.954
			c-3.68-0.069-4.884,7.338-4.855,9.142c0.155-0.004,0.919-0.033,1.11-0.027c0.164-1.141,0.015-2.533,1.187-3.729
			c1.172-1.193,1.694-0.305,1.844,0.418C155.04,313.434,154.356,314.9,154.488,314.826L154.488,314.826L154.488,314.826
			L154.488,314.826L154.488,314.826L154.488,314.826z"/>
		<path fill="#FFD700" d="M149.49,298.376c-2.489,3.239-3.149,6.506-1.465,11.698c0.577,1.734,0.825,3.822,0.811,5.996
			c0.241,0.004,1.271-0.025,1.517-0.051c-0.028-2.146,0.253-4.41,0.815-6.19c1.912-5.356,0.508-8.95-1.611-11.454l-0.032,0.001
			H149.49L149.49,298.376z"/>
		<polygon fill="#FFD700" points="152.573,316.066 146.651,316.152 146.655,317.236 152.577,317.15 		"/>
		<path fill="#FFD700" d="M139.77,315.783c1.246-1.793,1.53-3.619,0.926-5.639c-0.36-1.218-1.644-2.17-2.506-1.729
			c-2.701,1.366-1.338,8.319-0.771,9.888c0.112-0.063,0.66-0.387,0.801-0.453c-0.227-1.063-0.756-2.227-0.264-3.727
			c0.492-1.499,1.142-0.924,1.469-0.35C139.75,314.35,139.697,315.9,139.77,315.783L139.77,315.783L139.77,315.783L139.77,315.783
			L139.77,315.783L139.77,315.783z"/>
		<path fill="#FFD700" d="M131.154,303.316c-0.833,3.803,4.229,13.838,4.876,15.748c0.177-0.092,0.918-0.517,1.088-0.633
			c-0.67-1.869-1.149-3.959-1.277-5.736c-0.228-5.432-2.337-8.034-4.639-9.404l-0.023,0.014L131.154,303.316L131.154,303.316
			L131.154,303.316z"/>
		<path fill="#FFD700" d="M159.761,316.214c-1.331-1.646-1.704-3.435-1.197-5.519c0.3-1.254,1.531-2.348,2.414-2.008
			c2.76,1.058,1.74,8.146,1.253,9.772c-0.114-0.05-0.678-0.312-0.82-0.36c0.174-1.086,0.645-2.306,0.081-3.746
			c-0.564-1.439-1.186-0.791-1.482-0.183S159.84,316.322,159.761,316.214L159.761,316.214L159.761,316.214L159.761,316.214
			L159.761,316.214L159.761,316.214z"/>
		<path fill="#FFD700" d="M167.744,302.811c1.018,3.695-3.541,14.276-4.091,16.254c-0.183-0.07-0.941-0.41-1.117-0.508
			c0.577-1.938,0.953-4.078,0.994-5.865c-0.039-5.441,1.938-8.275,4.165-9.902l0.023,0.011L167.744,302.811L167.744,302.811
			L167.744,302.811z"/>
		<path fill="#FFD700" d="M146.795,317.158l5.58-0.133c2.589,2.156,6.347,2.201,9.177,0.498c0.25,0.414,1.571,0.896,1.964,1.121
			l-1,1.7l-25.893,0.229l-0.789-1.547c0.535,0.035,1.66-1.084,2.41-1.334C140.646,319.54,144.474,319.491,146.795,317.158
			L146.795,317.158L146.795,317.158z"/>
	</g>
	<g transform="translate(-0.327778,0.000)">
		<path fill="#FFD700" d="M235.761,253.952l-12.813-10.577c-2.107-1.738-4.589-2.182-5.544-0.986l0,0
			c-0.955,1.193-0.021,3.572,2.086,5.312l12.813,10.577c2.106,1.738,4.589,2.181,5.544,0.986l0,0
			C238.802,258.068,237.868,255.691,235.761,253.952z"/>
		<path fill="#FFD700" d="M230.454,239.865c-1.018-2.176-0.833-4.08,0.513-5.896c0.807-1.095,2.675-1.635,3.615-0.925
			c2.945,2.211-0.791,8.688-1.954,10.067c-0.121-0.098-0.705-0.592-0.858-0.704c0.594-0.984,1.592-1.974,1.424-3.617
			c-0.169-1.646-1.145-1.279-1.719-0.813C230.9,238.445,230.511,240.004,230.454,239.865L230.454,239.865L230.454,239.865
			L230.454,239.865L230.454,239.865L230.454,239.865z"/>
		<path fill="#FFD700" d="M238.113,246.023c2.359,0.543,4.208-0.023,5.731-1.695c0.92-1.003,1.074-2.922,0.182-3.689
			c-2.79-2.399-8.443,2.535-9.572,3.941c0.122,0.098,0.729,0.563,0.872,0.688c0.854-0.773,1.629-1.941,3.293-2.113
			s1.499,0.847,1.153,1.498C239.426,245.303,237.962,245.998,238.113,246.023L238.113,246.023L238.113,246.023L238.113,246.023
			L238.113,246.023L238.113,246.023z"/>
		<path fill="#FFD700" d="M244.756,230.167c-3.981,0.905-6.575,3-8.591,8.074c-0.662,1.704-1.802,3.47-3.201,5.134
			c0.186,0.157,0.996,0.791,1.2,0.928c1.348-1.671,3.008-3.234,4.578-4.246c4.889-2.904,6.102-6.566,6.064-9.848l-0.024-0.021
			L244.756,230.167L244.756,230.167z"/>
		<polygon fill="#FFD700" points="235.846,245.758 231.23,242.045 230.54,242.883 235.157,246.596 		"/>
		<path fill="#FFD700" d="M226.167,237.371c2.104-0.585,3.487-1.811,4.312-3.752c0.498-1.167,0.117-2.719-0.827-2.932
			c-2.951-0.67-6.338,5.555-6.902,7.123c0.127,0.022,0.755,0.125,0.906,0.16c0.504-0.963,0.838-2.195,2.174-3.035
			c1.335-0.843,1.469,0.017,1.354,0.668C227.068,236.254,226.037,237.414,226.167,237.371L226.167,237.371L226.167,237.371
			L226.167,237.371L226.167,237.371L226.167,237.371z"/>
		<path fill="#FFD700" d="M227.485,222.275c-3.066,2.395-5.57,13.354-6.291,15.235c0.193,0.043,1.036,0.188,1.241,0.207
			c0.676-1.866,1.641-3.782,2.676-5.231c3.29-4.328,3.326-7.678,2.428-10.201l-0.026-0.006L227.485,222.275L227.485,222.275
			L227.485,222.275z"/>
		<path fill="#FFD700" d="M241.288,250.457c0.025-2.117,0.879-3.732,2.598-5.016c1.031-0.773,2.679-0.83,3.141-0.004
			c1.451,2.573-3.855,7.383-5.271,8.323c-0.057-0.11-0.324-0.67-0.4-0.802c0.825-0.727,1.967-1.363,2.45-2.832
			c0.484-1.469-0.405-1.365-1.023-1.086C242.162,249.32,241.279,250.592,241.288,250.457L241.288,250.457L241.288,250.457
			L241.288,250.457L241.288,250.457L241.288,250.457z"/>
		<path fill="#FFD700" d="M255.987,245.229c-1.575,3.494-11.836,8.734-13.521,9.905c-0.095-0.17-0.463-0.917-0.536-1.103
			c1.683-1.125,3.336-2.533,4.508-3.883c3.441-4.217,6.771-5.139,9.524-4.969l0.012,0.022L255.987,245.229L255.987,245.229
			L255.987,245.229z"/>
		<path fill="#FFD700" d="M230.701,242.913l4.382,3.457c0.618,3.312,3.482,5.744,6.749,6.237c-0.071,0.479,0.638,1.692,0.797,2.117
			l-1.854,0.67l-20.086-16.343l0.378-1.694c0.391,0.369,1.971,0.227,2.707,0.512C224.445,240.822,227.425,243.229,230.701,242.913
			L230.701,242.913L230.701,242.913z"/>
	</g>
	<g transform="translate(-0.327778,0.000)">
		<path fill="#FFD700" d="M63.192,253.952l12.813-10.577c2.107-1.738,4.59-2.182,5.544-0.986l0,0
			c0.955,1.193,0.021,3.572-2.086,5.312L66.65,258.277c-2.106,1.738-4.589,2.181-5.544,0.986l0,0
			C60.151,258.068,61.085,255.691,63.192,253.952z"/>
		<path fill="#FFD700" d="M68.498,239.865c1.018-2.176,0.833-4.08-0.513-5.896c-0.807-1.095-2.675-1.635-3.615-0.925
			c-2.945,2.211,0.791,8.688,1.954,10.067c0.121-0.098,0.705-0.592,0.858-0.704c-0.594-0.984-1.592-1.974-1.424-3.617
			c0.169-1.646,1.145-1.279,1.719-0.813C68.053,238.445,68.442,240.004,68.498,239.865L68.498,239.865L68.498,239.865
			L68.498,239.865L68.498,239.865L68.498,239.865z"/>
		<path fill="#FFD700" d="M60.841,246.023c-2.36,0.543-4.209-0.023-5.732-1.695c-0.92-1.003-1.074-2.922-0.182-3.689
			c2.79-2.399,8.443,2.535,9.572,3.941c-0.122,0.098-0.729,0.563-0.872,0.688c-0.854-0.773-1.629-1.941-3.293-2.113
			s-1.499,0.847-1.153,1.498C59.528,245.303,60.991,245.998,60.841,246.023L60.841,246.023L60.841,246.023L60.841,246.023
			L60.841,246.023L60.841,246.023z"/>
		<path fill="#FFD700" d="M54.197,230.167c3.981,0.905,6.575,3,8.591,8.074c0.662,1.704,1.802,3.47,3.201,5.134
			c-0.186,0.157-0.996,0.791-1.2,0.928c-1.348-1.671-3.008-3.234-4.577-4.246c-4.89-2.904-6.103-6.566-6.065-9.848l0.024-0.021
			L54.197,230.167L54.197,230.167z"/>
		<polygon fill="#FFD700" points="63.107,245.758 67.723,242.045 68.412,242.883 63.796,246.596 		"/>
		<path fill="#FFD700" d="M72.786,237.371c-2.104-0.585-3.487-1.811-4.312-3.752c-0.497-1.167-0.117-2.719,0.827-2.932
			c2.951-0.67,6.338,5.555,6.902,7.123c-0.127,0.022-0.755,0.125-0.906,0.16c-0.504-0.963-0.838-2.195-2.174-3.035
			c-1.335-0.843-1.468,0.017-1.354,0.668C71.885,236.254,72.916,237.414,72.786,237.371L72.786,237.371L72.786,237.371
			L72.786,237.371L72.786,237.371L72.786,237.371z"/>
		<path fill="#FFD700" d="M71.468,222.275c3.066,2.395,5.57,13.354,6.292,15.235c-0.194,0.043-1.037,0.188-1.241,0.207
			c-0.677-1.866-1.642-3.782-2.677-5.231c-3.29-4.328-3.326-7.678-2.428-10.201l0.026-0.006L71.468,222.275L71.468,222.275
			L71.468,222.275z"/>
		<path fill="#FFD700" d="M57.665,250.457c-0.025-2.117-0.879-3.732-2.598-5.016c-1.031-0.773-2.679-0.83-3.141-0.004
			c-1.45,2.573,3.855,7.383,5.271,8.323c0.057-0.11,0.324-0.67,0.4-0.802c-0.825-0.727-1.967-1.363-2.45-2.832
			c-0.484-1.469,0.405-1.365,1.023-1.086C56.791,249.32,57.674,250.592,57.665,250.457L57.665,250.457L57.665,250.457
			L57.665,250.457L57.665,250.457L57.665,250.457z"/>
		<path fill="#FFD700" d="M42.966,245.229c1.576,3.494,11.836,8.734,13.521,9.905c0.094-0.17,0.462-0.917,0.535-1.103
			c-1.682-1.125-3.336-2.533-4.508-3.883c-3.441-4.217-6.771-5.139-9.524-4.969l-0.012,0.022L42.966,245.229L42.966,245.229
			L42.966,245.229z"/>
		<path fill="#FFD700" d="M68.252,242.913l-4.382,3.457c-0.618,3.312-3.482,5.744-6.749,6.237c0.071,0.479-0.638,1.692-0.797,2.117
			l1.854,0.67l20.086-16.343l-0.378-1.694c-0.391,0.369-1.971,0.227-2.707,0.512C74.508,240.822,71.528,243.229,68.252,242.913
			L68.252,242.913L68.252,242.913z"/>
	</g>
</g>
<path fill="#FFF" stroke="#000" d="M146.985,283.809c35.657-15.688,66.873-44.117,79.984-81.453
	c13.272-37.669,12.443-94.328,12.443-142.091c-56.954,0-127.458-0.739-180.032-0.739c0,47.596-4.179,99.188,11.421,142.831
	C83.408,238.951,112.315,267.52,146.985,283.809z"/>
<path stroke="#000" stroke-width="0.6125" d="M59.881,143.149c0.956,14.901,2.783,29.548,6.271,43.551h165.292
	c3.104-13.274,4.938-28.102,6.097-43.551H59.881z"/>
<g>
	<g transform="matrix(0.921674,0.000,0.000,0.921674,-140.3548,33.97492)">
		<path d="M341.097,205.477c-2.722-0.907-5.444-1.814-8.165-2.721c-3.175,10.341-3.245,15.658-1.363,22.861
			c3.741,14.298,17.057,12.791,28.851,4.899c-4.627,10.16-7.894,9.708-12.247,10.886c-0.635,1.814-0.452,4.037,2.45,4.764
			c-2.631,2.992-7.71,0.271-16.33,5.58c-1.542-1.906-2.949-2.859-4.627-2.45c-8.208,12.654-12.61,13.88-25.037,13.062
			c7.211-3.401,10.206-7.211,9.798-12.246c-4.264-0.77-5.806,0.636-8.711,2.176c1.136-1.633,0.908-3.266,0.546-4.897
			c-8.708,5.851-12.929,6.26-17.146,5.715c1.951-2.043,2.132-4.219,2.176-5.715c-5.852,1.723-11.021,3.447-14.697,0.271
			c3.766-0.998,5.761-1.587,6.804-3.81c-5.989-0.954-9.117-2.994-11.433-6.531c16.51,6.304,30.164-6.171,29.938-9.254
			c-0.362-3.675-11.884-7.756-13.337-11.432c0.636-14.197,6.17-15.332,10.887-20.956c-4.265-6.578-9.616-3.493-14.425-3.811
			c5.942-8.799,13.789-9.025,21.5-8.436C335.199,172.001,358.152,210.647,341.097,205.477z"/>
		<g>
			<path fill="#DA251C" stroke="#000" stroke-width="0.375" d="M308.134,183.993c-4.509-2.168-3.166-8.01-1.689-11.812
				c2.56,5.198,4.845,3.596,10.126-2.363c1.179,9.004,3.857,4.674,8.437-0.339c0.292,6.758,1.537,5.485,9.451,0.676
				c-2.88,9.969,2.27,5.925,8.1,3.376c-2.868,10.184-3.423,9.074,4.05,8.099c-2.308,3.073-1.35,3.151-2.025,4.726
				c10.366-1.822,15.288,17.991-0.337,20.252C337.789,206.554,318.402,180.374,308.134,183.993z"/>
			<path fill="#FFF" d="M321.122,195.941c-0.635,1.026-2.473,1.042-4.107,0.034c-1.632-1.008-2.442-2.655-1.808-3.683
				c0.001-0.002,0.002-0.002,0.003-0.004c0.635-1.028,2.472-1.043,4.106-0.036c1.634,1.009,2.443,2.657,1.809,3.683
				C321.125,195.936,321.124,195.939,321.122,195.941z"/>
		</g>
		<g>
			<path fill="#DA251C" stroke="#000" stroke-width="0.375" d="M305.41,216.75c-5.007,4.681-13.544,5.416-17.508,1.638
				c-3.965-3.776-1.727-10.498,3.145-15.321c6.27-6.101,10.408-10.982,13.379-10.157c2.881,0.665,2.174,6.063,3.599,8.4
				C311.707,206.977,310.417,212.07,305.41,216.75z"/>
			<path fill="#6A6A6A" d="M299.456,195.679c-2.086-3.584-9.617-3.493-14.425-3.811c5.942-8.799,13.789-9.025,21.5-8.436
				C317.237,193.229,303.992,194.226,299.456,195.679z"/>
			<path fill="#DA251C" stroke="#000" stroke-width="0.375" d="M312.581,216.172c-3.871,5.658-12.043,8.233-16.732,5.408
				c-4.692-2.825-3.97-9.873-0.264-15.639c4.792-7.319,7.77-12.984,10.849-12.825c2.957,0.024,3.441,5.445,5.34,7.417
				C316.6,205.263,316.45,210.514,312.581,216.172z"/>
			
				<linearGradient id="SVGID_1_" gradientUnits="userSpaceOnUse" x1="154.6667" y1="1234.575" x2="159.0438" y2="1234.9899" gradientTransform="matrix(2.3057 0 0 1.1011 -64.3382 -1170.2307)">
				<stop  offset="0" style="stop-color:#000;stop-opacity:0"/>
				<stop  offset="1" style="stop-color:#FFF"/>
			</linearGradient>
			<path fill="url(#SVGID_1_)" d="M301.855,193.94c-1.107-2.691-6.354-3.346-9.667-4.026c4.971-5.554,10.451-4.963,15.76-3.817
				C314.457,193.934,305.149,193.364,301.855,193.94z"/>
		</g>
		<path fill="none" stroke="#000" stroke-width="0.625" d="M298.913,189.147c2.91-0.006,7.112-0.299,8.981,2.45"/>
	</g>
	<g transform="translate(-165.8829,0.000)">
		<g transform="matrix(0.941267,-2.978780e-2,2.978780e-2,0.941267,28.69401,-30.51633)">
			<path d="M372.897,147.783c-2.723-0.907-5.443-1.815-8.165-2.722c-3.175,10.342-7.717,15.814-7.564,20.491
				c0.153,4.678,29.942,23.555,28.917,23.007c-11.603-6.416-1.641,7.686-12.391-2.15c-0.935,12.067-8.483-1.342-8.936-1.37
				c-0.853,9.364-5.368,5.144-11.606-1.205c-2.037-0.184-1.624,7.756-18.591,9.136c16.095-19.349-0.722-6.7-3.306-6.208
				c1.428-10.012-4.315,1.285-8.108,2.438c-0.637-4.881-3.956-2.778-7.86-0.219c-0.09-0.918-0.847-3.164-6.804,0.164
				c0.736-7.808,4.816-11.919,9.755-15.184c26.275-11.995,2.495-14.102,2.133-15.02c0.635-14.198,6.17-15.332,10.887-20.956
				c-4.263-6.577-9.616-3.493-14.424-3.81c5.942-8.8,13.79-9.027,21.499-8.437C367,114.308,389.953,152.955,372.897,147.783z"/>
			<g>
				<path fill="#DA251C" stroke="#000" stroke-width="0.375" d="M339.933,126.301c-4.509-2.168-3.166-8.011-1.689-11.813
					c2.56,5.2,4.845,3.596,10.126-2.363c1.18,9.005,3.857,4.674,8.438-0.338c0.292,6.757,1.537,5.485,9.45,0.675
					c-2.879,9.971,2.27,5.924,8.101,3.375c-2.867,10.185-3.424,9.075,4.05,8.1c-2.308,3.072-2.533,3.981-3.208,5.555
					c10.978,6.293,8.246,21.238-1.258,21.957C367.483,151.396,350.202,122.68,339.933,126.301z"/>
				<path fill="#FFF" d="M352.924,138.247c-0.635,1.026-2.473,1.042-4.109,0.034c-1.633-1.007-2.442-2.656-1.808-3.683
					c0.001-0.002,0.002-0.003,0.003-0.005c0.634-1.026,2.473-1.042,4.105-0.034c1.633,1.007,2.443,2.656,1.808,3.683
					C352.924,138.243,352.925,138.245,352.924,138.247z"/>
			</g>
			<g>
				<path fill="#DA251C" stroke="#000" stroke-width="0.375" d="M337.209,159.058c-5.008,4.681-13.545,5.415-17.509,1.638
					c-3.964-3.776-1.727-10.499,3.146-15.321c6.27-6.102,10.407-10.983,13.378-10.158c2.881,0.667,2.175,6.064,3.599,8.401
					C343.506,149.284,342.218,154.377,337.209,159.058z"/>
				<path fill="#6A6A6A" d="M331.256,137.986c-2.086-3.584-9.616-3.493-14.424-3.81c5.942-8.8,13.79-9.027,21.499-8.437
					C349.037,135.536,335.792,136.534,331.256,137.986z"/>
				<path fill="#DA251C" stroke="#000" stroke-width="0.375" d="M344.38,158.479c-3.869,5.658-12.042,8.232-16.734,5.408
					c-4.69-2.824-3.968-9.872-0.262-15.639c4.794-7.32,7.77-12.984,10.848-12.825c2.956,0.025,3.441,5.446,5.341,7.417
					C348.399,147.569,348.25,152.82,344.38,158.479z"/>
				
					<linearGradient id="SVGID_2_" gradientUnits="userSpaceOnUse" x1="107.9989" y1="1185.1057" x2="112.3751" y2="1185.5205" gradientTransform="matrix(2.4072 -7.940090e-006 -4.635769e-005 1.1495 64.182 -1230.9286)">
					<stop  offset="0" style="stop-color:#000;stop-opacity:0"/>
					<stop  offset="1" style="stop-color:#FFF"/>
				</linearGradient>
				<path fill="url(#SVGID_2_)" d="M333.655,136.248c-1.109-2.692-6.355-3.347-9.669-4.027c4.973-5.554,10.453-4.962,15.76-3.816
					C346.257,136.242,336.949,135.671,333.655,136.248z"/>
			</g>
			<path fill="none" stroke="#000" stroke-width="0.625" d="M330.711,131.453c2.909-0.007,7.112-0.298,8.982,2.45"/>
		</g>
		<g transform="matrix(0.941267,-2.978780e-2,2.978780e-2,0.941267,-18.50288,-30.51633)">
			<path d="M329.033,146.395c-2.722-0.907-5.443-1.815-8.165-2.722c-3.175,10.342-8.231,13.391-7.986,20.887
				c0.06,1.86,30.363,23.159,29.339,22.611c-11.602-6.416-1.641,7.686-12.391-2.15c-0.936,12.067-8.483-1.342-8.936-1.37
				c-0.853,9.364-5.367,5.144-11.605-1.205c-2.037-0.184,0.762,9.876-25.128,8.929c29.804-13.191,5.816-6.493,3.231-6.001
				c1.428-10.012-4.315,1.285-8.108,2.438c-0.637-4.881-3.956-2.778-7.859-0.219c-0.091-0.918-0.848-3.164-6.804,0.164
				c0.735-7.808,4.815-11.919,9.754-15.184c26.276-11.995,2.496-14.102,2.133-15.02c0.635-14.198,6.17-15.332,10.887-20.956
				c-4.262-6.577-9.616-3.493-14.424-3.81c5.942-8.8,13.789-9.027,21.5-8.437C323.136,112.92,346.088,151.566,329.033,146.395z"/>
			<g>
				<path fill="#DA251C" stroke="#000" stroke-width="0.375" d="M296.07,124.912c-4.509-2.168-3.166-8.011-1.688-11.813
					c2.559,5.2,4.844,3.596,10.126-2.363c1.179,9.005,3.856,4.674,8.437-0.338c0.291,6.757,1.537,5.485,9.45,0.675
					c-2.879,9.971,2.269,5.924,8.101,3.375c-2.869,10.185-3.425,9.075,4.048,8.1c-2.306,3.072-2.533,3.981-3.206,5.555
					c10.976,6.293,8.246,21.238-1.259,21.957C323.622,150.008,306.34,121.292,296.07,124.912z"/>
				<path fill="#FFF" d="M309.06,136.858c-0.634,1.026-2.473,1.042-4.106,0.034c-1.632-1.007-2.442-2.656-1.808-3.683
					c0.001-0.002,0.002-0.003,0.002-0.005c0.635-1.026,2.473-1.042,4.109-0.034c1.632,1.007,2.441,2.656,1.808,3.683
					C309.063,136.855,309.062,136.856,309.06,136.858z"/>
			</g>
			<g>
				<path fill="#DA251C" stroke="#000" stroke-width="0.375" d="M293.347,157.67c-5.008,4.681-13.546,5.415-17.509,1.638
					c-3.964-3.776-1.727-10.499,3.146-15.321c6.27-6.102,10.406-10.983,13.377-10.158c2.881,0.667,2.175,6.064,3.599,8.401
					C299.643,147.896,298.354,152.989,293.347,157.67z"/>
				<path fill="#6A6A6A" d="M287.393,136.598c-2.086-3.584-9.616-3.493-14.424-3.81c5.942-8.8,13.79-9.027,21.5-8.437
					C305.175,134.148,291.93,135.146,287.393,136.598z"/>
				<path fill="#DA251C" stroke="#000" stroke-width="0.375" d="M300.518,157.091c-3.869,5.658-12.042,8.232-16.733,5.408
					c-4.691-2.824-3.97-9.872-0.264-15.639c4.794-7.32,7.77-12.984,10.848-12.825c2.957,0.025,3.441,5.446,5.341,7.417
					C304.538,146.181,304.386,151.432,300.518,157.091z"/>
				
					<linearGradient id="SVGID_3_" gradientUnits="userSpaceOnUse" x1="211.3075" y1="1186.6892" x2="215.6834" y2="1187.1041" gradientTransform="matrix(2.4072 -7.940090e-006 -4.635769e-005 1.1495 -228.3661 -1234.1392)">
					<stop  offset="0" style="stop-color:#000;stop-opacity:0"/>
					<stop  offset="1" style="stop-color:#FFF"/>
				</linearGradient>
				<path fill="url(#SVGID_3_)" d="M289.793,134.859c-1.109-2.692-6.355-3.347-9.669-4.027c4.973-5.554,10.452-4.962,15.76-3.816
					C302.395,134.854,293.087,134.283,289.793,134.859z"/>
			</g>
			<path fill="none" stroke="#000" stroke-width="0.625" d="M286.849,130.065c2.908-0.008,7.111-0.298,8.982,2.45"/>
		</g>
	</g>
</g>
</svg>
