<?xml version="1.0" encoding="UTF-8" standalone="no"?>
<svg xmlns="http://www.w3.org/2000/svg" xmlns:cc="http://web.resource.org/cc/" xmlns:svg="http://www.w3.org/2000/svg" width="300.40094" height="350.4072" version="1.0">
  <defs/>
  <g transform="translate(-1368.9629 -418.14687) scale(3.53396)">
    <path d="M7.625 3.15625C-11.849167 145.46734 44.343576 286.2568 152.9375 351.4375 261.53144 286.25679 317.75542 145.46733 298.28125 3.15625c0 0-145.34375 1e-7-145.34375 0 .00001 1e-7-145.3125 0-145.3125 0z" style="fill:#ffffff;fill-opacity:1;fill-rule:evenodd;stroke:none;stroke-width:2.12598467;stroke-linejoin:miter;stroke-miterlimit:4;stroke-dasharray:none;stroke-opacity:1" transform="translate(386.59514 117.73021) scale(.28297)"/>
    <path d="M152.9375 351.4375C261.53144 286.25679 317.75542 145.46733 298.28125 3.15625c0 0-145.34375 1e-7-145.34375 0V351.4375z" style="fill:#c71818;fill-opacity:1;fill-rule:evenodd;stroke:none;stroke-width:2.12598467;stroke-linejoin:miter;stroke-miterlimit:4;stroke-dasharray:none;stroke-opacity:1" transform="translate(386.59514 117.73021) scale(.28297)"/>
    <g transform="translate(-55.44432 78.01364) scale(.93266)"/>
    <path d="M5.1875 36.96875c-.6273483 11.716483-.8078941 23.301888-.4375 34.875h148.1875v-34.875H5.1875zm1.53125 70c1.4303344 11.9557 4.052143 23.51923 6.53125 35.125h139.6875v-35.125H6.71875zm15.90625 70.25c3.751896 11.84184 7.41658 23.65786 12.28125 34.875H152.9375v-34.875H22.625zm29.8125 70c.023257.0402.039225.08482.0625.125 7.130538 12.31031 15.113585 23.92221 23.6875 35h76.75v-35.125h-100.5zm55.78125 70.25c8.596 7.99156 17.6304 15.5051 27.125 22.375 1.56593 1.13304 3.15774 2.21467 4.75 3.3125.33859.23345.66021.48693 1 .71875 3.88176 2.62129 7.81673 5.14538 11.84375 7.5625v-33.96875h-44.71875z" style="fill:#0067ff;fill-opacity:1;fill-rule:evenodd;stroke:none;stroke-width:2.12598467;stroke-linejoin:miter;stroke-miterlimit:4;stroke-dasharray:none;stroke-opacity:1" transform="translate(386.59514 117.73021) scale(.28297)"/>
    <g>
      <g transform="translate(-1.79862 1.19908)">
        <g transform="translate(290.7743 112.8489) scale(.21111)">
          <path d="M517.2928 97.76803c-1.84143 5.22964 7.58667 7.36569 7.07107 17.01475.81023-10.31197 5.8189-5.37696 5.08233-16.351837-3.90382 1.915077-3.53554-.441942-12.1534-.662913z" style="fill:#c71818;fill-rule:evenodd;stroke:#000000;stroke-width:0.5;stroke-linejoin:bevel"/>
          <path d="M498.02712 54.71875c-6.34399-.109488-4.07124 6.874017-10.87618 9.039208 10.27359 6.670601 7.14817 16.974114 13.65124 27.43073 6.50307 10.456612 29.90817 12.730142 30.82282 12.717562 2.15531 2.45249 5.04581 2.17337 6.65625 12.875-.63557-10.34244 2.38157-11.07997 3.96875-14.59375.63354-.18444 1.29609-.30269 1.9375-.5 4.56758-1.40503 9.52419-3.042077 17.75-3.625 15.89646-2.24899 25.37401-.386928 39-4.78125-12.68079-2.66361-25.92203-.263391-29.25-3.3125 4.70944.80712 14.5458-1.010757 18.125-2.625-11.47888-2.084648-15.27907 1.628274-28.21875-4.34375-8.24991-2.864883-42.04832-7.105079-50.21875-15.84375-7.53452-8.95064-7.00388-12.328012-13.34788-12.4375z" style="fill:#c71818;fill-rule:evenodd;stroke:#000000;stroke-width:0.5;stroke-linejoin:bevel"/>
          <g transform="translate(0 -12.5)">
            <path d="M576.14699 247.81772a.76344562.89068657 0 1 1-1.52689 0 .76344562.89068657 0 1 1 1.52689 0z" style="fill-rule:evenodd;stroke-width:1pt" transform="matrix(-1.14403 0 0 1.14282 1155.851 -209.1565)"/>
            <path d="M519.06364 85.156305c-7.65048 8.353435-5.59389 16.383165-2.74248 18.784545 15.86992 13.36511 56.94312 1.91719 67.3984-1.1288-29.16547-11.478241-63.05341-19.509139-64.65592-17.655745z" style="fill:#c71818;fill-rule:evenodd;stroke:#000000;stroke-width:0.5;stroke-linejoin:bevel"/>
          </g>
        </g>
        <g transform="translate(314.7559 112.8489) scale(.21111)">
          <path d="M517.2928 97.76803c-1.84143 5.22964 7.58667 7.36569 7.07107 17.01475.81023-10.31197 5.8189-5.37696 5.08233-16.351837-3.90382 1.915077-3.53554-.441942-12.1534-.662913z" style="fill:#c71818;fill-rule:evenodd;stroke:#000000;stroke-width:0.5;stroke-linejoin:bevel"/>
          <path d="M498.02712 54.71875c-6.34399-.109488-4.07124 6.874017-10.87618 9.039208 10.27359 6.670601 7.14817 16.974114 13.65124 27.43073 6.50307 10.456612 29.90817 12.730142 30.82282 12.717562 2.15531 2.45249 5.04581 2.17337 6.65625 12.875-.63557-10.34244 2.38157-11.07997 3.96875-14.59375.63354-.18444 1.29609-.30269 1.9375-.5 4.56758-1.40503 9.52419-3.042077 17.75-3.625 15.89646-2.24899 25.37401-.386928 39-4.78125-12.68079-2.66361-25.92203-.263391-29.25-3.3125 4.70944.80712 14.5458-1.010757 18.125-2.625-11.47888-2.084648-15.27907 1.628274-28.21875-4.34375-8.24991-2.864883-42.04832-7.105079-50.21875-15.84375-7.53452-8.95064-7.00388-12.328012-13.34788-12.4375z" style="fill:#c71818;fill-rule:evenodd;stroke:#000000;stroke-width:0.5;stroke-linejoin:bevel"/>
          <g transform="translate(0 -12.5)">
            <path d="M576.14699 247.81772a.76344562.89068657 0 1 1-1.52689 0 .76344562.89068657 0 1 1 1.52689 0z" style="fill-rule:evenodd;stroke-width:1pt" transform="matrix(-1.14403 0 0 1.14282 1155.851 -209.1565)"/>
            <path d="M519.06364 85.156305c-7.65048 8.353435-5.59389 16.383165-2.74248 18.784545 15.86992 13.36511 56.94312 1.91719 67.3984-1.1288-29.16547-11.478241-63.05341-19.509139-64.65592-17.655745z" style="fill:#c71818;fill-rule:evenodd;stroke:#000000;stroke-width:0.5;stroke-linejoin:bevel"/>
          </g>
        </g>
      </g>
      <g transform="translate(290.7743 135.0319) scale(.21111)">
        <path d="M517.2928 97.76803c-1.84143 5.22964 7.58667 7.36569 7.07107 17.01475.81023-10.31197 5.8189-5.37696 5.08233-16.351837-3.90382 1.915077-3.53554-.441942-12.1534-.662913z" style="fill:#c71818;fill-rule:evenodd;stroke:#000000;stroke-width:0.5;stroke-linejoin:bevel"/>
        <path d="M498.02712 54.71875c-6.34399-.109488-4.07124 6.874017-10.87618 9.039208 10.27359 6.670601 7.14817 16.974114 13.65124 27.43073 6.50307 10.456612 29.90817 12.730142 30.82282 12.717562 2.15531 2.45249 5.04581 2.17337 6.65625 12.875-.63557-10.34244 2.38157-11.07997 3.96875-14.59375.63354-.18444 1.29609-.30269 1.9375-.5 4.56758-1.40503 9.52419-3.042077 17.75-3.625 15.89646-2.24899 25.37401-.386928 39-4.78125-12.68079-2.66361-25.92203-.263391-29.25-3.3125 4.70944.80712 14.5458-1.010757 18.125-2.625-11.47888-2.084648-15.27907 1.628274-28.21875-4.34375-8.24991-2.864883-42.04832-7.105079-50.21875-15.84375-7.53452-8.95064-7.00388-12.328012-13.34788-12.4375z" style="fill:#c71818;fill-rule:evenodd;stroke:#000000;stroke-width:0.5;stroke-linejoin:bevel"/>
        <g transform="translate(0 -12.5)">
          <path d="M576.14699 247.81772a.76344562.89068657 0 1 1-1.52689 0 .76344562.89068657 0 1 1 1.52689 0z" style="fill-rule:evenodd;stroke-width:1pt" transform="matrix(-1.14403 0 0 1.14282 1155.851 -209.1565)"/>
          <path d="M519.06364 85.156305c-7.65048 8.353435-5.59389 16.383165-2.74248 18.784545 15.86992 13.36511 56.94312 1.91719 67.3984-1.1288-29.16547-11.478241-63.05341-19.509139-64.65592-17.655745z" style="fill:#c71818;fill-rule:evenodd;stroke:#000000;stroke-width:0.5;stroke-linejoin:bevel"/>
        </g>
      </g>
      <g transform="translate(296.1702 157.2148) scale(.21111)">
        <path d="M517.2928 97.76803c-1.84143 5.22964 7.58667 7.36569 7.07107 17.01475.81023-10.31197 5.8189-5.37696 5.08233-16.351837-3.90382 1.915077-3.53554-.441942-12.1534-.662913z" style="fill:#c71818;fill-rule:evenodd;stroke:#000000;stroke-width:0.5;stroke-linejoin:bevel"/>
        <path d="M498.02712 54.71875c-6.34399-.109488-4.07124 6.874017-10.87618 9.039208 10.27359 6.670601 7.14817 16.974114 13.65124 27.43073 6.50307 10.456612 29.90817 12.730142 30.82282 12.717562 2.15531 2.45249 5.04581 2.17337 6.65625 12.875-.63557-10.34244 2.38157-11.07997 3.96875-14.59375.63354-.18444 1.29609-.30269 1.9375-.5 4.56758-1.40503 9.52419-3.042077 17.75-3.625 15.89646-2.24899 25.37401-.386928 39-4.78125-12.68079-2.66361-25.92203-.263391-29.25-3.3125 4.70944.80712 14.5458-1.010757 18.125-2.625-11.47888-2.084648-15.27907 1.628274-28.21875-4.34375-8.24991-2.864883-42.04832-7.105079-50.21875-15.84375-7.53452-8.95064-7.00388-12.328012-13.34788-12.4375z" style="fill:#c71818;fill-rule:evenodd;stroke:#000000;stroke-width:0.5;stroke-linejoin:bevel"/>
        <g transform="translate(0 -12.5)">
          <path d="M576.14699 247.81772a.76344562.89068657 0 1 1-1.52689 0 .76344562.89068657 0 1 1 1.52689 0z" style="fill-rule:evenodd;stroke-width:1pt" transform="matrix(-1.14403 0 0 1.14282 1155.851 -209.1565)"/>
          <path d="M519.06364 85.156305c-7.65048 8.353435-5.59389 16.383165-2.74248 18.784545 15.86992 13.36511 56.94312 1.91719 67.3984-1.1288-29.16547-11.478241-63.05341-19.509139-64.65592-17.655745z" style="fill:#c71818;fill-rule:evenodd;stroke:#000000;stroke-width:0.5;stroke-linejoin:bevel"/>
        </g>
      </g>
      <g transform="translate(305.7628 178.1987) scale(.21111)">
        <path d="M517.2928 97.76803c-1.84143 5.22964 7.58667 7.36569 7.07107 17.01475.81023-10.31197 5.8189-5.37696 5.08233-16.351837-3.90382 1.915077-3.53554-.441942-12.1534-.662913z" style="fill:#c71818;fill-rule:evenodd;stroke:#000000;stroke-width:0.5;stroke-linejoin:bevel"/>
        <path d="M498.02712 54.71875c-6.34399-.109488-4.07124 6.874017-10.87618 9.039208 10.27359 6.670601 7.14817 16.974114 13.65124 27.43073 6.50307 10.456612 29.90817 12.730142 30.82282 12.717562 2.15531 2.45249 5.04581 2.17337 6.65625 12.875-.63557-10.34244 2.38157-11.07997 3.96875-14.59375.63354-.18444 1.29609-.30269 1.9375-.5 4.56758-1.40503 9.52419-3.042077 17.75-3.625 15.89646-2.24899 25.37401-.386928 39-4.78125-12.68079-2.66361-25.92203-.263391-29.25-3.3125 4.70944.80712 14.5458-1.010757 18.125-2.625-11.47888-2.084648-15.27907 1.628274-28.21875-4.34375-8.24991-2.864883-42.04832-7.105079-50.21875-15.84375-7.53452-8.95064-7.00388-12.328012-13.34788-12.4375z" style="fill:#c71818;fill-rule:evenodd;stroke:#000000;stroke-width:0.5;stroke-linejoin:bevel"/>
        <g transform="translate(0 -12.5)">
          <path d="M576.14699 247.81772a.76344562.89068657 0 1 1-1.52689 0 .76344562.89068657 0 1 1 1.52689 0z" style="fill-rule:evenodd;stroke-width:1pt" transform="matrix(-1.14403 0 0 1.14282 1155.851 -209.1565)"/>
          <path d="M519.06364 85.156305c-7.65048 8.353435-5.59389 16.383165-2.74248 18.784545 15.86992 13.36511 56.94312 1.91719 67.3984-1.1288-29.16547-11.478241-63.05341-19.509139-64.65592-17.655745z" style="fill:#c71818;fill-rule:evenodd;stroke:#000000;stroke-width:0.5;stroke-linejoin:bevel"/>
        </g>
      </g>
    </g>
    <g transform="translate(-55.326069 39.074132) scale(.93266)"/>
    <path d="M152.9375 3.15625v113.1875H298c5.27968-36.656823 5.52566-74.863015.28125-113.1875H152.9375z" style="fill:#eed74f;fill-rule:evenodd;stroke:none;stroke-width:0.5" transform="translate(386.59514 117.73021) scale(.28297)"/>
    <path d="M429.88504 150.787h10.026455v15.771472H429.88504z" style="fill:#ffffff;fill-rule:evenodd;stroke:#00ff00;stroke-width:0"/>
    <path d="m429.88504 150.78693 1.89121 1.85375v11.76987l2.19142 2.14799h1.86119l2.1614-2.11858V152.6701l1.92124-1.88317h-10.02646z" style="fill:#0067ff;fill-rule:evenodd;stroke-width:0.12288552"/>
    <path d="M429.88504-182.33008h10.026455v15.771472H429.88504z" style="fill:#0067ff;fill-opacity:1;fill-rule:evenodd;stroke:#00ff00;stroke-width:0" transform="scale(1 -1)"/>
    <path d="m429.88504 182.33015 1.89121-1.85375v-11.76987l2.19142-2.14799h1.86119l2.1614 2.11858v11.76986l1.92124 1.88317h-10.02646z" style="fill:#ffffff;fill-rule:evenodd;stroke-width:0.12288552"/>
    <path d="M429.88504 182.33015h10.026455v15.771472H429.88504z" style="fill:#ffffff;fill-rule:evenodd;stroke:#00ff00;stroke-width:0"/>
    <path d="m429.88504 182.33008 1.89121 1.85375v11.76987l2.19142 2.14799h1.86119l2.1614-2.11858v-11.76986l1.92124-1.88317h-10.02646z" style="fill:#0067ff;fill-rule:evenodd;stroke-width:0.12288552"/>
    <path d="M153 284.03125V339.75h17.71875c6.09215-4.35836 11.97842-8.96622 17.6875-13.8125v-41.90625H153z" style="fill:#0067ff;fill-opacity:1;fill-rule:evenodd;stroke:#00ff00;stroke-width:0" transform="translate(386.59514 117.73021) scale(.28297)"/>
    <path d="m167.40625 284.03125-7.75 7.59375v41.59375L153 339.78125h17.6875c3.71354-2.65577 7.36555-5.37946 10.9375-8.21875v-40.03125l-7.625-7.5h-6.59375z" style="fill:#ffffff;fill-rule:evenodd;stroke-width:0.12288552" transform="translate(386.59514 117.73021) scale(.28297)"/>
    <path d="M153 339.78125v11.625c6.05956-3.63928 11.95826-7.52768 17.6875-11.625H153z" style="fill:#ffffff;fill-rule:evenodd;stroke:#00ff00;stroke-width:0" transform="translate(386.59514 117.73021) scale(.28297)"/>
    <path d="m153 339.78125 6.65625 6.53125v.9375c3.74267-2.4023 7.42038-4.8864 11.03125-7.46875H153z" style="fill:#0067ff;fill-rule:evenodd;stroke-width:0.12288552" transform="translate(386.59514 117.73021) scale(.28297)"/>
    <path d="M449.97583 150.787h10.026455v15.771472H449.97583z" style="fill:#ffffff;fill-rule:evenodd;stroke:#00ff00;stroke-width:0"/>
    <path d="m449.97583 150.78693 1.89121 1.85375v11.76987l2.19142 2.14799h1.86119l2.1614-2.11858V152.6701l1.92124-1.88317h-10.02646z" style="fill:#0067ff;fill-rule:evenodd;stroke-width:0.12288552"/>
    <path d="M449.97583-182.33008h10.026455v15.771472H449.97583z" style="fill:#0067ff;fill-opacity:1;fill-rule:evenodd;stroke:#00ff00;stroke-width:0" transform="scale(1 -1)"/>
    <path d="m449.97583 182.33015 1.89121-1.85375v-11.76987l2.19142-2.14799h1.86119l2.1614 2.11858v11.76986l1.92124 1.88317h-10.02646z" style="fill:#ffffff;fill-rule:evenodd;stroke-width:0.12288552"/>
    <path d="M224 228.28125v55.75h4.59375c11.55855-14.73165 21.85059-30.66683 30.8125-47.5625v-8.1875H224z" style="fill:#ffffff;fill-rule:evenodd;stroke:#00ff00;stroke-width:0" transform="translate(386.59514 117.73021) scale(.28297)"/>
    <path d="m224 228.28125 6.65625 6.5625v41.59375l2.15625 2.125c7.12334-9.51435 13.72712-19.51255 19.8125-29.90625V234.9375l6.78125-6.65625H224z" style="fill:#0067ff;fill-rule:evenodd;stroke-width:0.12288552" transform="translate(386.59514 117.73021) scale(.28297)"/>
    <path d="M224 284.03125V289.75c1.5536-1.8839 3.08309-3.79337 4.59375-5.71875H224z" style="fill:#0067ff;fill-opacity:1;fill-rule:evenodd;stroke:#00ff00;stroke-width:0" transform="translate(386.59514 117.73021) scale(.28297)"/>
    <g transform="matrix(1.10286 0 0 .6805 -44.030656 43.02097)">
      <path d="M152.9375 29.3125v13.75h17.875v47.15625h22.3125V43.0625h24.78125v47.15625h22.3125V43.0625H265v47.15625h22.3125V43.0625H301.75c-.17756-4.571534-.41788-9.16317-.75-13.75H152.9375z" style="fill:#0067ff;fill-rule:evenodd;stroke-width:0.63749999" transform="matrix(.25658 0 0 .41582 390.46131 109.78531)"/>
      <path d="M152.5 350.83072V3.3307203" style="fill:none;fill-rule:evenodd;stroke:#000000;stroke-width:1.77165353;stroke-linecap:butt;stroke-linejoin:miter;stroke-miterlimit:4;stroke-dasharray:none;stroke-opacity:1" transform="matrix(.25658 0 0 .41582 390.46131 109.78531)"/>
      <path d="M152 116.33072h145.5" style="fill:none;fill-rule:evenodd;stroke:#000000;stroke-width:1.77165353;stroke-linecap:butt;stroke-linejoin:miter;stroke-miterlimit:4;stroke-dasharray:none;stroke-opacity:1" transform="matrix(.25658 0 0 .41582 390.46131 109.78531)"/>
    </g>
    <path d="M7.625 3.15625C-11.849167 145.46734 44.343576 286.2568 152.9375 351.4375 261.53144 286.25679 317.75542 145.46733 298.28125 3.15625c0 0-145.34375 1e-7-145.34375 0 .00001 1e-7-145.3125 0-145.3125 0z" style="fill:none;fill-opacity:1;fill-rule:evenodd;stroke:#000000;stroke-width:2.12598467;stroke-linejoin:miter;stroke-miterlimit:4;stroke-dasharray:none;stroke-opacity:1" transform="translate(386.59514 117.73021) scale(.28297)"/>
  </g>
</svg>