<?xml version="1.0" encoding="utf-8"?>
<!-- Generator: Adobe Illustrator 19.2.0, SVG Export Plug-In . SVG Version: 6.00 Build 0)  -->
<svg version="1.1"
	 id="svg2" inkscape:export-filename="/Users/olivier/Desktop/Blason Rouge/Blason_Vide_3D.png" inkscape:export-xdpi="144" inkscape:export-ydpi="144" inkscape:output_extension="org.inkscape.output.svg.inkscape" inkscape:version="0.91 r13725" sodipodi:docname="Template.svg" sodipodi:version="0.32" xmlns:cc="http://creativecommons.org/ns#" xmlns:dc="http://purl.org/dc/elements/1.1/" xmlns:inkscape="http://www.inkscape.org/namespaces/inkscape" xmlns:rdf="http://www.w3.org/1999/02/22-rdf-syntax-ns#" xmlns:sodipodi="http://sodipodi.sourceforge.net/DTD/sodipodi-0.dtd" xmlns:svg="http://www.w3.org/2000/svg"
	 xmlns="http://www.w3.org/2000/svg" xmlns:xlink="http://www.w3.org/1999/xlink" x="0px" y="0px" viewBox="0 0 296.5 350.5"
	 style="enable-background:new 0 0 296.5 350.5;" xml:space="preserve">
<style type="text/css">
	.st0{fill:#B61511;}
	.st1{fill:#FFD700;}
	.st2{fill:#F8E801;}
</style>
<path class="st0" d="M0.6,0C0.4,0,0.2,0,0.1,0c0,0,0,0,0,0c0,0,0,0,0,0v75h0.1C1,185.9,15,286.7,145.5,350.5
	C283.9,286.7,296.6,185.9,296.6,75h0V0C296.6,0,99,0,0.6,0z"/>
<sodipodi:namedview  bordercolor="#666666" borderopacity="1.0" gridtolerance="10.0" guidetolerance="10.0" height="660px" id="base" inkscape:current-layer="svg2" inkscape:cx="300" inkscape:cy="329.99986" inkscape:guide-bbox="true" inkscape:pageopacity="0.0" inkscape:pageshadow="2" inkscape:window-height="856" inkscape:window-maximized="0" inkscape:window-width="1280" inkscape:window-x="-4" inkscape:window-y="0" inkscape:zoom="1.1560601" objecttolerance="10.0" pagecolor="#ffffff" showgrid="false" showguides="true">
	</sodipodi:namedview>
<desc  id="desc4">SVG coat of arms</desc>
<g id="g9370" transform="matrix(0.6072994,0,0,0.6935206,-525.20603,251.96104)">
</g>
<g>
	<g>
		<g id="g1215" transform="matrix(0.80253,0,0,1,-156.3343,-302.1088)">
			<path id="rect1216" class="st1" d="M539.5,339.9h-26.6c-1.9,0-3.4,0.9-3.4,2.1v1.6c0,1.1,1.6,2.1,3.5,2.1h26.6
				c1.9,0,3.4-0.9,3.4-2.1V342C542.9,340.8,541.4,339.9,539.5,339.9z"/>
			<g id="g1217" transform="translate(-0.327778,0)">
				<path id="path1218" inkscape:connector-curvature="0" sodipodi:nodetypes="cssccssccccc" class="st1" d="M520.5,332.4
					c-2.8-1-4.1-2.7-4.3-5c-0.1-1.3,1.3-3,2.8-3.1c4.7-0.2,6.2,7.3,6.2,9.2c-0.2,0-1.2,0-1.4,0c-0.2-1.2-0.1-2.6-1.5-3.7
					c-1.5-1.2-2.1-0.2-2.3,0.5C519.8,330.9,520.7,332.4,520.5,332.4L520.5,332.4L520.5,332.4L520.5,332.4L520.5,332.4L520.5,332.4
					L520.5,332.4z"/>
				<path id="path1219" inkscape:connector-curvature="0" sodipodi:nodetypes="cssccssccccc" class="st1" d="M532.9,332.2
					c2.8-1.1,4.1-2.8,4.2-5.1c0.1-1.3-1.3-3-2.8-3c-4.7-0.1-6.2,7.4-6.2,9.2c0.2,0,1.2,0,1.4,0c0.2-1.2,0-2.6,1.5-3.8
					c1.5-1.2,2.1-0.3,2.4,0.4C533.6,330.8,532.7,332.3,532.9,332.2L532.9,332.2L532.9,332.2L532.9,332.2L532.9,332.2L532.9,332.2
					L532.9,332.2z"/>
				<path id="path1220" inkscape:connector-curvature="0" sodipodi:nodetypes="cccccccc" class="st1" d="M526.6,315.5
					c-3.2,3.3-4,6.6-1.8,11.9c0.7,1.7,1,3.9,1,6.1c0.3,0,1.6,0,1.9-0.1c0-2.2,0.3-4.5,1-6.3C531.2,321.6,529.3,318,526.6,315.5
					L526.6,315.5L526.6,315.5L526.6,315.5L526.6,315.5z"/>
				<polygon id="rect1221" class="st1" points="530.4,333.5 523,333.5 523,334.7 530.5,334.6 				"/>
				<g id="g1222" transform="matrix(1.418582,-1.509307,1.267023,1.683285,-394.7497,800.4985)">
					<path id="path1223" inkscape:connector-curvature="0" sodipodi:nodetypes="cssccssccccc" class="st1" d="M493.5,164.9
						c1.2-0.1,1.8-0.6,2.1-1.5c0.2-0.6-0.2-1.4-0.7-1.7c-1.7-0.7-3.2,2.2-3.3,3c0.1,0,0.5,0.2,0.6,0.2c0.2-0.5,0.3-1.1,0.9-1.3
						c0.7-0.3,0.9,0.2,0.9,0.6C494,164.4,493.4,164.9,493.5,164.9L493.5,164.9L493.5,164.9L493.5,164.9L493.5,164.9L493.5,164.9
						L493.5,164.9z"/>
					<path id="path1224" inkscape:connector-curvature="0" sodipodi:nodetypes="cccccccc" class="st1" d="M493,156.9
						c-1.6,0.9-2.1,6.5-2.3,7.4c0.1,0.1,0.6,0.2,0.7,0.2c0.2-0.9,0.6-1.8,1.1-2.4C494.1,160.2,493.7,158.4,493,156.9L493,156.9
						L493,156.9L493,156.9L493,156.9L493,156.9z"/>
				</g>
				<g id="g1225" transform="matrix(-1.506659,-1.376448,-1.160906,1.793558,-209.6214,794.0978)">
					<path id="path1226" inkscape:connector-curvature="0" sodipodi:nodetypes="cssccssccccc" class="st1" d="M-188.2-401.1
						c1.2-0.1,1.8-0.6,2.1-1.5c0.2-0.6-0.2-1.4-0.7-1.7c-1.7-0.7-3.2,2.2-3.3,3c0.1,0,0.5,0.2,0.6,0.2c0.2-0.5,0.3-1.1,0.9-1.3
						c0.7-0.3,0.9,0.2,0.9,0.6C-187.8-401.6-188.3-401.1-188.2-401.1L-188.2-401.1L-188.2-401.1L-188.2-401.1L-188.2-401.1
						L-188.2-401.1L-188.2-401.1z"/>
					<path id="path1227" inkscape:connector-curvature="0" sodipodi:nodetypes="cccccccc" class="st1" d="M-188.7-409.1
						c-1.6,0.9-2.1,6.5-2.3,7.4c0.1,0.1,0.6,0.2,0.7,0.2c0.2-0.9,0.6-1.8,1.1-2.4C-187.7-405.8-187.9-407.6-188.7-409.1
						L-188.7-409.1L-188.7-409.1L-188.7-409.1L-188.7-409.1L-188.7-409.1z"/>
				</g>
				<path id="path1228" inkscape:connector-curvature="0" sodipodi:nodetypes="cccccccccc" class="st1" d="M523.2,334.6l7-0.2
					c3.2,2.2,8.1,2.2,11.6,0.5c0.3,0.4,2,0.9,2.4,1.1l-1.3,1.7l-32.7,0.2l-1-1.6c0.7,0,2.1-1.1,3.1-1.3
					C515.4,337,520.3,336.9,523.2,334.6L523.2,334.6L523.2,334.6L523.2,334.6z"/>
			</g>
		</g>
		<g id="g1229" transform="matrix(0.80253,0,0,1,-303.4205,-302.1088)">
			<path id="rect1230" class="st1" d="M576.1,339.9h-26.6c-1.9,0-3.4,0.9-3.4,2.1v1.6c0,1.1,1.6,2.1,3.5,2.1h26.6
				c1.9,0,3.4-0.9,3.4-2.1V342C579.6,340.8,578,339.9,576.1,339.9z"/>
			<g id="g1231" transform="translate(-0.327778,0)">
				<path id="path1232" inkscape:connector-curvature="0" sodipodi:nodetypes="cssccssccccc" class="st1" d="M557.2,332.4
					c-2.8-1-4.1-2.7-4.3-5c-0.1-1.3,1.3-3,2.8-3.1c4.7-0.2,6.2,7.3,6.2,9.2c-0.2,0-1.2,0-1.4,0c-0.2-1.2-0.1-2.6-1.5-3.7
					c-1.5-1.2-2.1-0.2-2.3,0.5C556.4,330.9,557.3,332.4,557.2,332.4L557.2,332.4L557.2,332.4L557.2,332.4L557.2,332.4L557.2,332.4
					L557.2,332.4z"/>
				<path id="path1233" inkscape:connector-curvature="0" sodipodi:nodetypes="cssccssccccc" class="st1" d="M569.6,332.2
					c2.8-1.1,4.1-2.8,4.2-5.1c0.1-1.3-1.3-3-2.8-3c-4.7-0.1-6.2,7.4-6.2,9.2c0.2,0,1.2,0,1.4,0c0.2-1.2,0-2.6,1.5-3.8
					c1.5-1.2,2.1-0.3,2.4,0.4C570.3,330.8,569.4,332.3,569.6,332.2L569.6,332.2L569.6,332.2L569.6,332.2L569.6,332.2L569.6,332.2
					L569.6,332.2z"/>
				<path id="path1234" inkscape:connector-curvature="0" sodipodi:nodetypes="cccccccc" class="st1" d="M563.2,315.5
					c-3.2,3.3-4,6.6-1.8,11.9c0.7,1.7,1,3.9,1,6.1c0.3,0,1.6,0,1.9-0.1c0-2.2,0.3-4.5,1-6.3C567.8,321.6,566,318,563.2,315.5
					L563.2,315.5L563.2,315.5L563.2,315.5L563.2,315.5z"/>
				<polygon id="rect1235" class="st1" points="567.1,333.5 559.7,333.5 559.7,334.7 567.2,334.6 				"/>
				<g id="g1236" transform="matrix(1.418582,-1.509307,1.267023,1.683285,-394.7497,800.4985)">
					<path id="path1237" inkscape:connector-curvature="0" sodipodi:nodetypes="cssccssccccc" class="st1" d="M507.9,177.7
						c1.2-0.1,1.8-0.6,2.1-1.5c0.2-0.6-0.2-1.4-0.7-1.7c-1.7-0.7-3.2,2.2-3.3,3c0.1,0,0.5,0.2,0.6,0.2c0.2-0.5,0.3-1.1,0.9-1.3
						c0.7-0.3,0.9,0.2,0.9,0.6C508.3,177.3,507.8,177.8,507.9,177.7L507.9,177.7L507.9,177.7L507.9,177.7L507.9,177.7L507.9,177.7
						L507.9,177.7z"/>
					<path id="path1238" inkscape:connector-curvature="0" sodipodi:nodetypes="cccccccc" class="st1" d="M507.4,169.7
						c-1.6,0.9-2.1,6.5-2.3,7.4c0.1,0.1,0.6,0.2,0.7,0.2c0.2-0.9,0.6-1.8,1.1-2.4C508.4,173.1,508.1,171.3,507.4,169.7L507.4,169.7
						L507.4,169.7L507.4,169.7L507.4,169.7L507.4,169.7z"/>
				</g>
				<g id="g1239" transform="matrix(-1.506659,-1.376448,-1.160906,1.793558,-209.6214,794.0978)">
					<path id="path1240" inkscape:connector-curvature="0" sodipodi:nodetypes="cssccssccccc" class="st1" d="M-203.5-412.9
						c1.2-0.1,1.8-0.6,2.1-1.5c0.2-0.6-0.2-1.4-0.7-1.7c-1.7-0.7-3.2,2.2-3.3,3c0.1,0,0.5,0.2,0.6,0.2c0.2-0.5,0.3-1.1,0.9-1.3
						c0.7-0.3,0.9,0.2,0.9,0.6C-203.1-413.4-203.5-412.9-203.5-412.9L-203.5-412.9L-203.5-412.9L-203.5-412.9L-203.5-412.9
						L-203.5-412.9L-203.5-412.9z"/>
					<path id="path1241" inkscape:connector-curvature="0" sodipodi:nodetypes="cccccccc" class="st1" d="M-204-420.9
						c-1.6,0.9-2.1,6.5-2.3,7.4c0.1,0.1,0.6,0.2,0.7,0.2c0.2-0.9,0.6-1.8,1.1-2.4C-203-417.5-203.2-419.4-204-420.9L-204-420.9
						L-204-420.9L-204-420.9L-204-420.9L-204-420.9z"/>
				</g>
				<path id="path1242" inkscape:connector-curvature="0" sodipodi:nodetypes="cccccccccc" class="st1" d="M559.8,334.6l7-0.2
					c3.2,2.2,8.1,2.2,11.6,0.5c0.3,0.4,2,0.9,2.4,1.1l-1.3,1.7L547,338l-1-1.6c0.7,0,2.1-1.1,3.1-1.3
					C552.1,337,556.9,336.9,559.8,334.6L559.8,334.6L559.8,334.6L559.8,334.6z"/>
			</g>
		</g>
		<g id="g1243" transform="matrix(0.80253,0,0,1,-454.2103,-302.1088)">
			<path id="rect1244" class="st1" d="M617.4,339.9h-26.6c-1.9,0-3.4,0.9-3.4,2.1v1.6c0,1.1,1.6,2.1,3.5,2.1h26.6
				c1.9,0,3.4-0.9,3.4-2.1V342C620.9,340.8,619.3,339.9,617.4,339.9z"/>
			<g id="g1245" transform="translate(-0.327778,0)">
				<path id="path1246" inkscape:connector-curvature="0" sodipodi:nodetypes="cssccssccccc" class="st1" d="M598.4,332.4
					c-2.8-1-4.1-2.7-4.3-5c-0.1-1.3,1.3-3,2.8-3.1c4.7-0.2,6.2,7.3,6.2,9.2c-0.2,0-1.2,0-1.4,0c-0.2-1.2-0.1-2.6-1.5-3.7
					c-1.5-1.2-2.1-0.2-2.3,0.5C597.7,330.9,598.6,332.4,598.4,332.4L598.4,332.4L598.4,332.4L598.4,332.4L598.4,332.4L598.4,332.4
					L598.4,332.4z"/>
				<path id="path1247" inkscape:connector-curvature="0" sodipodi:nodetypes="cssccssccccc" class="st1" d="M610.8,332.2
					c2.8-1.1,4.1-2.8,4.2-5.1c0.1-1.3-1.3-3-2.8-3c-4.7-0.1-6.2,7.4-6.2,9.2c0.2,0,1.2,0,1.4,0c0.2-1.2,0-2.6,1.5-3.8
					c1.5-1.2,2.1-0.3,2.4,0.4C611.6,330.8,610.7,332.3,610.8,332.2L610.8,332.2L610.8,332.2L610.8,332.2L610.8,332.2L610.8,332.2
					L610.8,332.2z"/>
				<path id="path1248" inkscape:connector-curvature="0" sodipodi:nodetypes="cccccccc" class="st1" d="M604.5,315.5
					c-3.2,3.3-4,6.6-1.8,11.9c0.7,1.7,1,3.9,1,6.1c0.3,0,1.6,0,1.9-0.1c0-2.2,0.3-4.5,1-6.3C609.1,321.6,607.3,318,604.5,315.5
					L604.5,315.5L604.5,315.5L604.5,315.5L604.5,315.5z"/>
				<polygon id="rect1249" class="st1" points="608.4,333.5 601,333.5 601,334.7 608.5,334.6 				"/>
				<g id="g1250" transform="matrix(1.418582,-1.509307,1.267023,1.683285,-394.7497,800.4985)">
					<path id="path1251" inkscape:connector-curvature="0" sodipodi:nodetypes="cssccssccccc" class="st1" d="M524,192.2
						c1.2-0.1,1.8-0.6,2.1-1.5c0.2-0.6-0.2-1.4-0.7-1.7c-1.7-0.7-3.2,2.2-3.3,3c0.1,0,0.5,0.2,0.6,0.2c0.2-0.5,0.3-1.1,0.9-1.3
						c0.7-0.3,0.9,0.2,0.9,0.6C524.5,191.7,523.9,192.3,524,192.2L524,192.2L524,192.2L524,192.2L524,192.2L524,192.2L524,192.2z"/>
					<path id="path1252" inkscape:connector-curvature="0" sodipodi:nodetypes="cccccccc" class="st1" d="M523.5,184.2
						c-1.6,0.9-2.1,6.5-2.3,7.4c0.1,0.1,0.6,0.2,0.7,0.2c0.2-0.9,0.6-1.8,1.1-2.4C524.6,187.6,524.3,185.7,523.5,184.2L523.5,184.2
						L523.5,184.2L523.5,184.2L523.5,184.2L523.5,184.2z"/>
				</g>
				<g id="g1253" transform="matrix(-1.506659,-1.376448,-1.160906,1.793558,-209.6214,794.0978)">
					<path id="path1254" inkscape:connector-curvature="0" sodipodi:nodetypes="cssccssccccc" class="st1" d="M-220.7-426.1
						c1.2-0.1,1.8-0.6,2.1-1.5c0.2-0.6-0.2-1.4-0.7-1.7c-1.7-0.7-3.2,2.2-3.3,3c0.1,0,0.5,0.2,0.6,0.2c0.2-0.5,0.3-1.1,0.9-1.3
						c0.7-0.3,0.9,0.2,0.9,0.6C-220.3-426.6-220.8-426.1-220.7-426.1L-220.7-426.1L-220.7-426.1L-220.7-426.1L-220.7-426.1
						L-220.7-426.1L-220.7-426.1z"/>
					<path id="path1255" inkscape:connector-curvature="0" sodipodi:nodetypes="cccccccc" class="st1" d="M-221.2-434.1
						c-1.6,0.9-2.1,6.5-2.3,7.4c0.1,0.1,0.6,0.2,0.7,0.2c0.2-0.9,0.6-1.8,1.1-2.4C-220.2-430.8-220.4-432.6-221.2-434.1
						L-221.2-434.1L-221.2-434.1L-221.2-434.1L-221.2-434.1L-221.2-434.1z"/>
				</g>
				<path id="path1256" inkscape:connector-curvature="0" sodipodi:nodetypes="cccccccccc" class="st1" d="M601.1,334.6l7-0.2
					c3.2,2.2,8.1,2.2,11.6,0.5c0.3,0.4,2,0.9,2.4,1.1l-1.3,1.7l-32.7,0.2l-1-1.6c0.7,0,2.1-1.1,3.1-1.3
					C593.4,337,598.2,336.9,601.1,334.6L601.1,334.6L601.1,334.6L601.1,334.6z"/>
			</g>
		</g>
	</g>
	<g id="g1285" transform="translate(1.907349e-5,-2.116348)">
		<g id="g1201" transform="matrix(0.80253,0,0,1,-156.3343,-159.7843)">
			<path id="rect1202" class="st1" d="M539.5,310.5h-26.6c-1.9,0-3.4,0.9-3.4,2.1v1.6c0,1.1,1.6,2.1,3.5,2.1h26.6
				c1.9,0,3.4-0.9,3.4-2.1v-1.6C542.9,311.4,541.4,310.5,539.5,310.5z"/>
			<g id="g1203" transform="translate(-0.327778,0)">
				<path id="path1204" inkscape:connector-curvature="0" sodipodi:nodetypes="cssccssccccc" class="st1" d="M520.5,302.9
					c-2.8-1-4.1-2.7-4.3-5c-0.1-1.3,1.3-3,2.8-3.1c4.7-0.2,6.2,7.3,6.2,9.2c-0.2,0-1.2,0-1.4,0c-0.2-1.2-0.1-2.6-1.5-3.7
					c-1.5-1.2-2.1-0.2-2.3,0.5C519.8,301.5,520.7,303,520.5,302.9L520.5,302.9L520.5,302.9L520.5,302.9L520.5,302.9L520.5,302.9
					L520.5,302.9z"/>
				<path id="path1205" inkscape:connector-curvature="0" sodipodi:nodetypes="cssccssccccc" class="st1" d="M532.9,302.8
					c2.8-1.1,4.1-2.8,4.2-5.1c0.1-1.3-1.3-3-2.8-3c-4.7-0.1-6.2,7.4-6.2,9.2c0.2,0,1.2,0,1.4,0c0.2-1.2,0-2.6,1.5-3.8
					c1.5-1.2,2.1-0.3,2.4,0.4C533.6,301.3,532.7,302.8,532.9,302.8L532.9,302.8L532.9,302.8L532.9,302.8L532.9,302.8L532.9,302.8
					L532.9,302.8z"/>
				<path id="path1206" inkscape:connector-curvature="0" sodipodi:nodetypes="cccccccc" class="st1" d="M526.6,286.1
					c-3.2,3.3-4,6.6-1.8,11.9c0.7,1.7,1,3.9,1,6.1c0.3,0,1.6,0,1.9-0.1c0-2.2,0.3-4.5,1-6.3C531.2,292.2,529.3,288.5,526.6,286.1
					L526.6,286.1L526.6,286.1L526.6,286.1L526.6,286.1z"/>
				<polygon id="rect1207" class="st1" points="530.4,304 523,304.1 523,305.2 530.5,305.1 				"/>
				<g id="g1208" transform="matrix(1.418582,-1.509307,1.267023,1.683285,-394.7497,800.4985)">
					<path id="path1209" inkscape:connector-curvature="0" sodipodi:nodetypes="cssccssccccc" class="st1" d="M502.2,155.1
						c1.2-0.1,1.8-0.6,2.1-1.5c0.2-0.6-0.2-1.4-0.7-1.7c-1.7-0.7-3.2,2.2-3.3,3c0.1,0,0.5,0.2,0.6,0.2c0.2-0.5,0.3-1.1,0.9-1.3
						c0.7-0.3,0.9,0.2,0.9,0.6C502.7,154.7,502.1,155.2,502.2,155.1L502.2,155.1L502.2,155.1L502.2,155.1L502.2,155.1L502.2,155.1
						L502.2,155.1z"/>
					<path id="path1210" inkscape:connector-curvature="0" sodipodi:nodetypes="cccccccc" class="st1" d="M501.7,147.2
						c-1.6,0.9-2.1,6.5-2.3,7.4c0.1,0.1,0.6,0.2,0.7,0.2c0.2-0.9,0.6-1.8,1.1-2.4C502.7,150.5,502.4,148.7,501.7,147.2L501.7,147.2
						L501.7,147.2L501.7,147.2L501.7,147.2L501.7,147.2z"/>
				</g>
				<g id="g1211" transform="matrix(-1.506659,-1.376448,-1.160906,1.793558,-209.6214,794.0978)">
					<path id="path1212" inkscape:connector-curvature="0" sodipodi:nodetypes="cssccssccccc" class="st1" d="M-180.2-411.5
						c1.2-0.1,1.8-0.6,2.1-1.5c0.2-0.6-0.2-1.4-0.7-1.7c-1.7-0.7-3.2,2.2-3.3,3c0.1,0,0.5,0.2,0.6,0.2c0.2-0.5,0.3-1.1,0.9-1.3
						c0.7-0.3,0.9,0.2,0.9,0.6C-179.8-411.9-180.3-411.5-180.2-411.5L-180.2-411.5L-180.2-411.5L-180.2-411.5L-180.2-411.5
						L-180.2-411.5L-180.2-411.5z"/>
					<path id="path1213" inkscape:connector-curvature="0" sodipodi:nodetypes="cccccccc" class="st1" d="M-180.8-419.4
						c-1.6,0.9-2.1,6.5-2.3,7.4c0.1,0.1,0.6,0.2,0.7,0.2c0.2-0.9,0.6-1.8,1.1-2.4C-179.8-416.1-180-417.9-180.8-419.4L-180.8-419.4
						L-180.8-419.4L-180.8-419.4L-180.8-419.4L-180.8-419.4z"/>
				</g>
				<path id="path1214" inkscape:connector-curvature="0" sodipodi:nodetypes="cccccccccc" class="st1" d="M523.2,305.1l7-0.2
					c3.2,2.2,8.1,2.2,11.6,0.5c0.3,0.4,2,0.9,2.4,1.1l-1.3,1.7l-32.7,0.2l-1-1.6c0.7,0,2.1-1.1,3.1-1.3
					C515.4,307.6,520.3,307.5,523.2,305.1L523.2,305.1L523.2,305.1L523.2,305.1z"/>
			</g>
		</g>
		<g id="g1257" transform="matrix(0.80253,0,0,1,-454.2103,-159.7843)">
			<path id="rect1258" class="st1" d="M617.4,310.5h-26.6c-1.9,0-3.4,0.9-3.4,2.1v1.6c0,1.1,1.6,2.1,3.5,2.1h26.6
				c1.9,0,3.4-0.9,3.4-2.1v-1.6C620.9,311.4,619.3,310.5,617.4,310.5z"/>
			<g id="g1259" transform="translate(-0.327778,0)">
				<path id="path1260" inkscape:connector-curvature="0" sodipodi:nodetypes="cssccssccccc" class="st1" d="M598.4,302.9
					c-2.8-1-4.1-2.7-4.3-5c-0.1-1.3,1.3-3,2.8-3.1c4.7-0.2,6.2,7.3,6.2,9.2c-0.2,0-1.2,0-1.4,0c-0.2-1.2-0.1-2.6-1.5-3.7
					c-1.5-1.2-2.1-0.2-2.3,0.5C597.7,301.5,598.6,303,598.4,302.9L598.4,302.9L598.4,302.9L598.4,302.9L598.4,302.9L598.4,302.9
					L598.4,302.9z"/>
				<path id="path1261" inkscape:connector-curvature="0" sodipodi:nodetypes="cssccssccccc" class="st1" d="M610.8,302.8
					c2.8-1.1,4.1-2.8,4.2-5.1c0.1-1.3-1.3-3-2.8-3c-4.7-0.1-6.2,7.4-6.2,9.2c0.2,0,1.2,0,1.4,0c0.2-1.2,0-2.6,1.5-3.8
					c1.5-1.2,2.1-0.3,2.4,0.4C611.6,301.3,610.7,302.8,610.8,302.8L610.8,302.8L610.8,302.8L610.8,302.8L610.8,302.8L610.8,302.8
					L610.8,302.8z"/>
				<path id="path1262" inkscape:connector-curvature="0" sodipodi:nodetypes="cccccccc" class="st1" d="M604.5,286.1
					c-3.2,3.3-4,6.6-1.8,11.9c0.7,1.7,1,3.9,1,6.1c0.3,0,1.6,0,1.9-0.1c0-2.2,0.3-4.5,1-6.3C609.1,292.2,607.3,288.5,604.5,286.1
					L604.5,286.1L604.5,286.1L604.5,286.1L604.5,286.1z"/>
				<polygon id="rect1263" class="st1" points="608.4,304 601,304.1 601,305.2 608.5,305.1 				"/>
				<g id="g1264" transform="matrix(1.418582,-1.509307,1.267023,1.683285,-394.7497,800.4985)">
					<path id="path1265" inkscape:connector-curvature="0" sodipodi:nodetypes="cssccssccccc" class="st1" d="M532.7,182.5
						c1.2-0.1,1.8-0.6,2.1-1.5c0.2-0.6-0.2-1.4-0.7-1.7c-1.7-0.7-3.2,2.2-3.3,3c0.1,0,0.5,0.2,0.6,0.2c0.2-0.5,0.3-1.1,0.9-1.3
						c0.7-0.3,0.9,0.2,0.9,0.6C533.2,182,532.6,182.6,532.7,182.5L532.7,182.5L532.7,182.5L532.7,182.5L532.7,182.5L532.7,182.5
						L532.7,182.5z"/>
					<path id="path1266" inkscape:connector-curvature="0" sodipodi:nodetypes="cccccccc" class="st1" d="M532.2,174.5
						c-1.6,0.9-2.1,6.5-2.3,7.4c0.1,0.1,0.6,0.2,0.7,0.2c0.2-0.9,0.6-1.8,1.1-2.4C533.2,177.8,532.9,176,532.2,174.5L532.2,174.5
						L532.2,174.5L532.2,174.5L532.2,174.5L532.2,174.5z"/>
				</g>
				<g id="g1267" transform="matrix(-1.506659,-1.376448,-1.160906,1.793558,-209.6214,794.0978)">
					<path id="path1268" inkscape:connector-curvature="0" sodipodi:nodetypes="cssccssccccc" class="st1" d="M-212.7-436.4
						c1.2-0.1,1.8-0.6,2.1-1.5c0.2-0.6-0.2-1.4-0.7-1.7c-1.7-0.7-3.2,2.2-3.3,3c0.1,0,0.5,0.2,0.6,0.2c0.2-0.5,0.3-1.1,0.9-1.3
						c0.7-0.3,0.9,0.2,0.9,0.6C-212.3-436.9-212.8-436.4-212.7-436.4L-212.7-436.4L-212.7-436.4L-212.7-436.4L-212.7-436.4
						L-212.7-436.4L-212.7-436.4z"/>
					<path id="path1269" inkscape:connector-curvature="0" sodipodi:nodetypes="cccccccc" class="st1" d="M-213.3-444.4
						c-1.6,0.9-2.1,6.5-2.3,7.4c0.1,0.1,0.6,0.2,0.7,0.2c0.2-0.9,0.6-1.8,1.1-2.4C-212.3-441.1-212.5-442.9-213.3-444.4
						L-213.3-444.4L-213.3-444.4L-213.3-444.4L-213.3-444.4L-213.3-444.4z"/>
				</g>
				<path id="path1270" inkscape:connector-curvature="0" sodipodi:nodetypes="cccccccccc" class="st1" d="M601.1,305.1l7-0.2
					c3.2,2.2,8.1,2.2,11.6,0.5c0.3,0.4,2,0.9,2.4,1.1l-1.3,1.7l-32.7,0.2l-1-1.6c0.7,0,2.1-1.1,3.1-1.3
					C593.4,307.6,598.2,307.5,601.1,305.1L601.1,305.1L601.1,305.1L601.1,305.1z"/>
			</g>
		</g>
	</g>
	<g id="g1271" transform="matrix(0.80253,0,0,1,-305.2723,60.31597)">
		<path id="rect1272" class="st1" d="M578.4,263.8h-26.6c-1.9,0-3.4,0.9-3.4,2.1v1.6c0,1.1,1.6,2.1,3.5,2.1h26.6
			c1.9,0,3.4-0.9,3.4-2.1v-1.6C581.9,264.7,580.3,263.8,578.4,263.8z"/>
		<g id="g1273" transform="translate(-0.327778,0)">
			<path id="path1274" inkscape:connector-curvature="0" sodipodi:nodetypes="cssccssccccc" class="st1" d="M559.5,256.3
				c-2.8-1-4.1-2.7-4.3-5c-0.1-1.3,1.3-3,2.8-3.1c4.7-0.2,6.2,7.3,6.2,9.2c-0.2,0-1.2,0-1.4,0c-0.2-1.2-0.1-2.6-1.5-3.7
				c-1.5-1.2-2.1-0.2-2.3,0.5C558.8,254.8,559.6,256.3,559.5,256.3L559.5,256.3L559.5,256.3L559.5,256.3L559.5,256.3L559.5,256.3
				L559.5,256.3z"/>
			<path id="path1275" inkscape:connector-curvature="0" sodipodi:nodetypes="cssccssccccc" class="st1" d="M571.9,256.1
				c2.8-1.1,4.1-2.8,4.2-5.1c0.1-1.3-1.3-3-2.8-3c-4.7-0.1-6.2,7.4-6.2,9.2c0.2,0,1.2,0,1.4,0c0.2-1.2,0-2.6,1.5-3.8
				c1.5-1.2,2.1-0.3,2.4,0.4C572.6,254.7,571.7,256.2,571.9,256.1L571.9,256.1L571.9,256.1L571.9,256.1L571.9,256.1L571.9,256.1
				L571.9,256.1z"/>
			<path id="path1276" inkscape:connector-curvature="0" sodipodi:nodetypes="cccccccc" class="st1" d="M565.5,239.4
				c-3.2,3.3-4,6.6-1.8,11.9c0.7,1.7,1,3.9,1,6.1c0.3,0,1.6,0,1.9-0.1c0-2.2,0.3-4.5,1-6.3C570.1,245.5,568.3,241.9,565.5,239.4
				L565.5,239.4L565.5,239.4L565.5,239.4L565.5,239.4z"/>
			<polygon id="rect1277" class="st1" points="569.4,257.4 562,257.4 562,258.5 569.5,258.5 			"/>
			<g id="g1278" transform="matrix(1.418582,-1.509307,1.267023,1.683285,-394.7497,800.4985)">
				<path id="path1279" inkscape:connector-curvature="0" sodipodi:nodetypes="cssccssccccc" class="st1" d="M531.2,153.4
					c1.2-0.1,1.8-0.6,2.1-1.5c0.2-0.6-0.2-1.4-0.7-1.7c-1.7-0.7-3.2,2.2-3.3,3c0.1,0,0.5,0.2,0.6,0.2c0.2-0.5,0.3-1.1,0.9-1.3
					c0.7-0.3,0.9,0.2,0.9,0.6C531.7,153,531.1,153.5,531.2,153.4L531.2,153.4L531.2,153.4L531.2,153.4L531.2,153.4L531.2,153.4
					L531.2,153.4z"/>
				<path id="path1280" inkscape:connector-curvature="0" sodipodi:nodetypes="cccccccc" class="st1" d="M530.7,145.5
					c-1.6,0.9-2.1,6.5-2.3,7.4c0.1,0.1,0.6,0.2,0.7,0.2c0.2-0.9,0.6-1.8,1.1-2.4C531.7,148.8,531.4,147,530.7,145.5L530.7,145.5
					L530.7,145.5L530.7,145.5L530.7,145.5L530.7,145.5z"/>
			</g>
			<g id="g1281" transform="matrix(-1.506659,-1.376448,-1.160906,1.793558,-209.6214,794.0978)">
				<path id="path1282" inkscape:connector-curvature="0" sodipodi:nodetypes="cssccssccccc" class="st1" d="M-183.9-440.3
					c1.2-0.1,1.8-0.6,2.1-1.5c0.2-0.6-0.2-1.4-0.7-1.7c-1.7-0.7-3.2,2.2-3.3,3c0.1,0,0.5,0.2,0.6,0.2c0.2-0.5,0.3-1.1,0.9-1.3
					c0.7-0.3,0.9,0.2,0.9,0.6C-183.5-440.8-184-440.3-183.9-440.3L-183.9-440.3L-183.9-440.3L-183.9-440.3L-183.9-440.3
					L-183.9-440.3L-183.9-440.3z"/>
				<path id="path1283" inkscape:connector-curvature="0" sodipodi:nodetypes="cccccccc" class="st1" d="M-184.4-448.3
					c-1.6,0.9-2.1,6.5-2.3,7.4c0.1,0.1,0.6,0.2,0.7,0.2c0.2-0.9,0.6-1.8,1.1-2.4C-183.4-444.9-183.6-446.8-184.4-448.3L-184.4-448.3
					L-184.4-448.3L-184.4-448.3L-184.4-448.3L-184.4-448.3z"/>
			</g>
			<path id="path1284" inkscape:connector-curvature="0" sodipodi:nodetypes="cccccccccc" class="st1" d="M562.2,258.5l7-0.2
				c3.2,2.2,8.1,2.2,11.6,0.5c0.3,0.4,2,0.9,2.4,1.1l-1.3,1.7l-32.7,0.2l-1-1.6c0.7,0,2.1-1.1,3.1-1.3
				C554.4,260.9,559.2,260.8,562.2,258.5L562.2,258.5L562.2,258.5L562.2,258.5z"/>
		</g>
	</g>
	<g id="g1389" transform="translate(-0.933189,0)">
		<g id="g1314" transform="matrix(0.618003,0.511982,-0.637961,0.770069,7.728107,223.1574)">
			<path id="rect1315" class="st1" d="M247.7-121.9h-26.6c-1.9,0-3.4,0.9-3.4,2.1v1.6c0,1.1,1.6,2.1,3.5,2.1h26.6
				c1.9,0,3.4-0.9,3.4-2.1v-1.6C251.1-121.1,249.6-121.9,247.7-121.9z"/>
			<g id="g1316" transform="translate(-0.327778,0)">
				<path id="path1317" inkscape:connector-curvature="0" sodipodi:nodetypes="cssccssccccc" class="st1" d="M228.7-129.5
					c-2.8-1-4.1-2.7-4.3-5c-0.1-1.3,1.3-3,2.8-3.1c4.7-0.2,6.2,7.3,6.2,9.2c-0.2,0-1.2,0-1.4,0c-0.2-1.2-0.1-2.6-1.5-3.7
					c-1.5-1.2-2.1-0.2-2.3,0.5C228-130.9,228.8-129.4,228.7-129.5L228.7-129.5L228.7-129.5L228.7-129.5L228.7-129.5L228.7-129.5
					L228.7-129.5z"/>
				<path id="path1318" inkscape:connector-curvature="0" sodipodi:nodetypes="cssccssccccc" class="st1" d="M241.1-129.7
					c2.8-1.1,4.1-2.8,4.2-5.1c0.1-1.3-1.3-3-2.8-3c-4.7-0.1-6.2,7.4-6.2,9.2c0.2,0,1.2,0,1.4,0c0.2-1.2,0-2.6,1.5-3.8
					c1.5-1.2,2.1-0.3,2.4,0.4C241.8-131.1,240.9-129.6,241.1-129.7L241.1-129.7L241.1-129.7L241.1-129.7L241.1-129.7L241.1-129.7
					L241.1-129.7z"/>
				<path id="path1319" inkscape:connector-curvature="0" sodipodi:nodetypes="cccccccc" class="st1" d="M234.8-146.3
					c-3.2,3.3-4,6.6-1.8,11.9c0.7,1.7,1,3.9,1,6.1c0.3,0,1.6,0,1.9-0.1c0-2.2,0.3-4.5,1-6.3C239.3-140.3,237.5-143.9,234.8-146.3
					L234.8-146.3L234.8-146.3L234.8-146.3L234.8-146.3z"/>
				<polygon id="rect1320" class="st1" points="238.7,-128.4 231.2,-128.3 231.2,-127.2 238.7,-127.3 				"/>
				<g id="g1321" transform="matrix(1.418582,-1.509307,1.267023,1.683285,-394.7497,800.4985)">
					<path id="path1322" inkscape:connector-curvature="0" sodipodi:nodetypes="cssccssccccc" class="st1" d="M515.4-89.9
						c1.2-0.1,1.8-0.6,2.1-1.5c0.2-0.6-0.2-1.4-0.7-1.7c-1.7-0.7-3.2,2.2-3.3,3c0.1,0,0.5,0.2,0.6,0.2c0.2-0.5,0.3-1.1,0.9-1.3
						c0.7-0.3,0.9,0.2,0.9,0.6C515.8-90.3,515.4-89.9,515.4-89.9L515.4-89.9L515.4-89.9L515.4-89.9L515.4-89.9L515.4-89.9
						L515.4-89.9z"/>
					<path id="path1323" inkscape:connector-curvature="0" sodipodi:nodetypes="cccccccc" class="st1" d="M514.9-97.8
						c-1.6,0.9-2.1,6.5-2.3,7.4c0.1,0.1,0.6,0.2,0.7,0.2c0.2-0.9,0.6-1.8,1.1-2.4C515.9-94.6,515.6-96.4,514.9-97.8L514.9-97.8
						L514.9-97.8L514.9-97.8L514.9-97.8L514.9-97.8z"/>
				</g>
				<g id="g1324" transform="matrix(-1.506659,-1.376448,-1.160906,1.793558,-209.6214,794.0978)">
					<path id="path1325" inkscape:connector-curvature="0" sodipodi:nodetypes="cssccssccccc" class="st1" d="M58.2-469.6
						c1.2-0.1,1.8-0.6,2.1-1.5c0.2-0.6-0.2-1.4-0.7-1.7c-1.7-0.7-3.2,2.2-3.3,3c0.1,0,0.5,0.2,0.6,0.2c0.2-0.5,0.3-1.1,0.9-1.3
						c0.7-0.3,0.9,0.2,0.9,0.6C58.7-470,58.1-469.6,58.2-469.6L58.2-469.6L58.2-469.6L58.2-469.6L58.2-469.6L58.2-469.6L58.2-469.6z
						"/>
					<path id="path1326" inkscape:connector-curvature="0" sodipodi:nodetypes="cccccccc" class="st1" d="M57.7-477.6
						c-1.6,0.9-2.1,6.5-2.3,7.4c0.1,0.1,0.6,0.2,0.7,0.2c0.2-0.9,0.6-1.8,1.1-2.4C58.7-474.2,58.4-476.1,57.7-477.6L57.7-477.6
						L57.7-477.6L57.7-477.6L57.7-477.6L57.7-477.6z"/>
				</g>
				<path id="path1327" inkscape:connector-curvature="0" sodipodi:nodetypes="cccccccccc" class="st1" d="M231.4-127.3l7-0.2
					c3.2,2.2,8.1,2.2,11.6,0.5c0.3,0.4,2,0.9,2.4,1.1l-1.3,1.7l-32.7,0.2l-1-1.6c0.7,0,2.1-1.1,3.1-1.3
					C223.6-124.8,228.4-124.9,231.4-127.3L231.4-127.3L231.4-127.3L231.4-127.3z"/>
			</g>
		</g>
		<g id="g1328" transform="matrix(-0.618003,0.511982,0.637961,0.770069,-1121.624,223.1574)">
			<path id="rect1329" class="st1" d="M-1107.7,779.2h-26.6c-1.9,0-3.4,0.9-3.4,2.1v1.6c0,1.1,1.6,2.1,3.5,2.1h26.6
				c1.9,0,3.4-0.9,3.4-2.1v-1.6C-1104.2,780.1-1105.8,779.2-1107.7,779.2z"/>
			<g id="g1330" transform="translate(-0.327778,0)">
				<path id="path1331" inkscape:connector-curvature="0" sodipodi:nodetypes="cssccssccccc" class="st1" d="M-1126.7,771.6
					c-2.8-1-4.1-2.7-4.3-5c-0.1-1.3,1.3-3,2.8-3.1c4.7-0.2,6.2,7.3,6.2,9.2c-0.2,0-1.2,0-1.4,0c-0.2-1.2-0.1-2.6-1.5-3.7
					c-1.5-1.2-2.1-0.2-2.3,0.5C-1127.4,770.2-1126.5,771.7-1126.7,771.6L-1126.7,771.6L-1126.7,771.6L-1126.7,771.6L-1126.7,771.6
					L-1126.7,771.6L-1126.7,771.6z"/>
				<path id="path1332" inkscape:connector-curvature="0" sodipodi:nodetypes="cssccssccccc" class="st1" d="M-1114.3,771.4
					c2.8-1.1,4.1-2.8,4.2-5.1c0.1-1.3-1.3-3-2.8-3c-4.7-0.1-6.2,7.4-6.2,9.2c0.2,0,1.2,0,1.4,0c0.2-1.2,0-2.6,1.5-3.8
					c1.5-1.2,2.1-0.3,2.4,0.4C-1113.6,770-1114.4,771.5-1114.3,771.4L-1114.3,771.4L-1114.3,771.4L-1114.3,771.4L-1114.3,771.4
					L-1114.3,771.4L-1114.3,771.4z"/>
				<path id="path1333" inkscape:connector-curvature="0" sodipodi:nodetypes="cccccccc" class="st1" d="M-1120.6,754.8
					c-3.2,3.3-4,6.6-1.8,11.9c0.7,1.7,1,3.9,1,6.1c0.3,0,1.6,0,1.9-0.1c0-2.2,0.3-4.5,1-6.3C-1116,760.9-1117.8,757.2-1120.6,754.8
					L-1120.6,754.8L-1120.6,754.8L-1120.6,754.8L-1120.6,754.8z"/>
				<polygon id="rect1334" class="st1" points="-1116.7,772.7 -1124.1,772.8 -1124.1,773.9 -1116.6,773.8 				"/>
				<g id="g1335" transform="matrix(1.418582,-1.509307,1.267023,1.683285,-394.7497,800.4985)">
					<path id="path1336" inkscape:connector-curvature="0" sodipodi:nodetypes="cssccssccccc" class="st1" d="M-280.7-268.3
						c1.2-0.1,1.8-0.6,2.1-1.5c0.2-0.6-0.2-1.4-0.7-1.7c-1.7-0.7-3.2,2.2-3.3,3c0.1,0,0.5,0.2,0.6,0.2c0.2-0.5,0.3-1.1,0.9-1.3
						c0.7-0.3,0.9,0.2,0.9,0.6C-280.3-268.8-280.7-268.3-280.7-268.3L-280.7-268.3L-280.7-268.3L-280.7-268.3L-280.7-268.3
						L-280.7-268.3L-280.7-268.3z"/>
					<path id="path1337" inkscape:connector-curvature="0" sodipodi:nodetypes="cccccccc" class="st1" d="M-281.2-276.4
						c-1.6,0.9-2.1,6.5-2.3,7.4c0.1,0.1,0.6,0.2,0.7,0.2c0.2-0.9,0.6-1.8,1.1-2.4C-280.2-273-280.4-274.8-281.2-276.4L-281.2-276.4
						L-281.2-276.4L-281.2-276.4L-281.2-276.4L-281.2-276.4z"/>
				</g>
				<g id="g1338" transform="matrix(-1.506659,-1.376448,-1.160906,1.793558,-209.6214,794.0978)">
					<path id="path1339" inkscape:connector-curvature="0" sodipodi:nodetypes="cssccssccccc" class="st1" d="M380.3,280
						c1.2-0.1,1.8-0.6,2.1-1.5c0.2-0.6-0.2-1.4-0.7-1.7c-1.7-0.7-3.2,2.2-3.3,3c0.1,0,0.5,0.2,0.6,0.2c0.2-0.5,0.3-1.1,0.9-1.3
						c0.7-0.3,0.9,0.2,0.9,0.6C380.7,279.5,380.2,280,380.3,280L380.3,280L380.3,280L380.3,280L380.3,280L380.3,280L380.3,280z"/>
					<path id="path1340" inkscape:connector-curvature="0" sodipodi:nodetypes="cccccccc" class="st1" d="M379.7,272
						c-1.6,0.9-2.1,6.5-2.3,7.4c0.1,0.1,0.6,0.2,0.7,0.2c0.2-0.9,0.6-1.8,1.1-2.4C380.8,275.3,380.5,273.5,379.7,272L379.7,272
						L379.7,272L379.7,272L379.7,272L379.7,272z"/>
				</g>
				<path id="path1341" inkscape:connector-curvature="0" sodipodi:nodetypes="cccccccccc" class="st1" d="M-1124,773.8l7-0.2
					c3.2,2.2,8.1,2.2,11.6,0.5c0.3,0.4,2,0.9,2.4,1.1l-1.3,1.7l-32.7,0.2l-1-1.6c0.7,0,2.1-1.1,3.1-1.3
					C-1131.7,776.3-1126.9,776.2-1124,773.8L-1124,773.8L-1124,773.8L-1124,773.8z"/>
			</g>
		</g>
	</g>
</g>
<path id="path1129" inkscape:connector-curvature="0" class="st2" d="M58.4,59.1c0,51-0.8,106.8,12.4,145.1
	c2.1,6.1,4.7,11.8,7.6,17.4V59.1C71.7,59.1,65.1,59.1,58.4,59.1L58.4,59.1z M98.4,59.1v191.5c6.1,6.7,12.8,12.9,20,18.3V59.1
	C111.7,59.1,105.1,59.1,98.4,59.1z M138.4,59.1v222.8c3.2,1.7,6.6,3.5,10,5.1c3.4-1.6,6.7-3.4,10-5.3V59.1
	C151.7,59.1,145,59.1,138.4,59.1L138.4,59.1z M178.4,59.1v209.3c7.2-5.5,13.9-11.5,20-18.2V59C191.6,59.1,185,59.1,178.4,59.1z
	 M218.3,59.1v163.3c3.2-5.8,6-11.9,8.1-18.2c8.7-24.7,11.2-51.3,11.9-78.6V59.2C231.7,59.1,225,59.1,218.3,59.1z"/>
</svg>
