<?xml version="1.0" encoding="utf-8"?>
<svg version="1.1" xmlns="http://www.w3.org/2000/svg" width="501.333px" height="615.334px">
<path fill="#E61022" stroke="#000" stroke-width="3" d="M485.661,231.33V11.83H11.52v219.5c0,0-4.185,226,237.07,375
	C487.331,459.33,485.661,231.33,485.661,231.33z"/>
<path fill="#FFAF2B" d="M241.95,87.973c0,0,0.896-20.237,34.873-28.676c-16.727,14.936-18.07,29.349-18.07,29.349L241.95,87.973z
	 M308.06,98.498c0,0,8.575-18.353,43.194-13.139c-21.17,7.393-27.93,20.191-27.93,20.191L308.06,98.498z M365.11,133.53
	c0,0,14.949-13.67,44.936,4.401c-22.389-1.276-33.533,7.96-33.533,7.96L365.11,133.53z M404.4,187.74
	c0,0,19.044-6.905,39.825,21.271c-20.193-9.75-34.025-5.486-34.025-5.486L404.4,187.74L404.4,187.74z M419.93,252.86
	c0,0,20.236,0.913,28.646,34.896c-14.922-16.738-29.332-18.095-29.332-18.095L419.93,252.86z M409.35,318.961
	c0,0,18.346,8.591,13.104,43.205c-7.375-21.177-20.17-27.946-20.17-27.946L409.35,318.961z M374.27,375.98
	c0,0,13.658,14.96-4.438,44.931c1.295-22.387-7.933-33.54-7.933-33.54L374.27,375.98z M320.03,415.22c0,0,6.891,19.05-21.303,39.808
	c9.768-20.185,5.516-34.021,5.516-34.021L320.03,415.22L320.03,415.22z M254.9,430.711c0,0-0.929,20.235-34.921,28.617
	c16.751-14.906,18.12-29.315,18.12-29.315L254.9,430.711L254.9,430.711z M188.8,420.07c0,0-8.606,18.339-43.217,13.066
	c21.183-7.357,27.964-20.146,27.964-20.146L188.8,420.07L188.8,420.07z M131.81,384.94c0,0-14.972,13.646-44.927-4.477
	c22.385,1.313,33.545-7.902,33.545-7.902L131.81,384.94z M92.618,330.671c0,0-19.056,6.875-39.79-21.336
	c20.177,9.783,34.015,5.543,34.015,5.543L92.618,330.671z M77.188,265.53c0,0-20.236-0.945-28.589-34.945
	C63.492,247.349,77.9,248.729,77.9,248.729L77.188,265.53z M87.875,199.44c0,0-18.332-8.62-13.031-43.229
	c7.339,21.188,20.121,27.98,20.121,27.98L87.875,199.44z M123.05,142.48c0,0-13.635-14.982,4.513-44.923
	c-1.333,22.384,7.875,33.552,7.875,33.552L123.05,142.48z M177.36,103.33c0,0-6.859-19.061,21.368-39.771
	c-9.801,20.168-5.571,34.01-5.571,34.01L177.36,103.33z"/>
<path fill="none" stroke="#000" stroke-width="3" d="M241.95,87.973c0,0,0.896-20.237,34.873-28.676
	c-16.727,14.936-18.07,29.349-18.07,29.349L241.95,87.973z M308.06,98.498c0,0,8.575-18.353,43.194-13.139
	c-21.17,7.393-27.93,20.191-27.93,20.191L308.06,98.498z M365.11,133.53c0,0,14.949-13.67,44.936,4.401
	c-22.389-1.276-33.533,7.96-33.533,7.96L365.11,133.53z M404.4,187.74c0,0,19.044-6.905,39.825,21.271
	c-20.193-9.75-34.025-5.486-34.025-5.486L404.4,187.74L404.4,187.74z M419.93,252.86c0,0,20.236,0.913,28.646,34.896
	c-14.922-16.738-29.332-18.095-29.332-18.095L419.93,252.86z M409.35,318.961c0,0,18.346,8.591,13.104,43.205
	c-7.375-21.177-20.17-27.946-20.17-27.946L409.35,318.961z M374.27,375.98c0,0,13.658,14.96-4.438,44.931
	c1.295-22.387-7.933-33.54-7.933-33.54L374.27,375.98z M320.03,415.22c0,0,6.891,19.05-21.303,39.808
	c9.768-20.185,5.516-34.021,5.516-34.021L320.03,415.22L320.03,415.22z M254.9,430.711c0,0-0.929,20.235-34.921,28.617
	c16.751-14.906,18.12-29.315,18.12-29.315L254.9,430.711L254.9,430.711z M188.8,420.07c0,0-8.606,18.339-43.217,13.066
	c21.183-7.357,27.964-20.146,27.964-20.146L188.8,420.07L188.8,420.07z M131.81,384.94c0,0-14.972,13.646-44.927-4.477
	c22.385,1.313,33.545-7.902,33.545-7.902L131.81,384.94z M92.618,330.671c0,0-19.056,6.875-39.79-21.336
	c20.177,9.783,34.015,5.543,34.015,5.543L92.618,330.671z M77.188,265.53c0,0-20.236-0.945-28.589-34.945
	C63.492,247.349,77.9,248.729,77.9,248.729L77.188,265.53z M87.875,199.44c0,0-18.332-8.62-13.031-43.229
	c7.339,21.188,20.121,27.98,20.121,27.98L87.875,199.44z M123.05,142.48c0,0-13.635-14.982,4.513-44.923
	c-1.333,22.384,7.875,33.552,7.875,33.552L123.05,142.48z M177.36,103.33c0,0-6.859-19.061,21.368-39.771
	c-9.801,20.168-5.571,34.01-5.571,34.01L177.36,103.33z"/>
<path fill="#FFAF2B" d="M104.06,249.33h289v20h-289V249.33z M139.312,354.44l204.353-204.352l14.142,14.142L153.454,368.583
	L139.312,354.44z M238.56,114.83h20v289h-20V114.83z M343.67,368.574L139.318,164.221l14.142-14.141l204.351,204.352L343.67,368.574
	z"/>
<path fill="none" stroke="#000" stroke-width="3" d="M104.06,249.33h289v20h-289V249.33z M139.312,354.44l204.353-204.352
	l14.142,14.142L153.454,368.583L139.312,354.44z M238.56,114.83h20v289h-20V114.83z M343.67,368.574L139.318,164.221l14.142-14.141
	l204.351,204.352L343.67,368.574z"/>
<path fill="#FFAF2B" stroke="#000" stroke-width="3" d="M248.56,85.333c-96.099,0-174,77.901-174,174
	c0,96.1,77.901,174.001,174,174.001c96.099,0,173.999-77.901,173.999-174.001C422.559,163.234,344.659,85.333,248.56,85.333z
	 M248.56,399.334c-77.321,0-140-62.681-140-140.001s62.679-140,140-140c77.319,0,140,62.68,140,140
	C388.56,336.654,325.879,399.334,248.56,399.334z"/>
<circle fill="#634E32" stroke="#000" stroke-width="3" cx="248.56" cy="259.33" r="33"/>
<circle fill="#FECC72" stroke="#000" stroke-width="3" cx="248.56" cy="259.33" r="20"/>
<path fill="#FFAF2B" stroke="#000" stroke-width="3" d="M248.56,110.33c-82.292,0-149,66.708-149,149
	c0,82.291,66.708,149,149,149c82.291,0,149-66.709,149-149S330.851,110.33,248.56,110.33z M248.56,399.33
	c-77.321,0-140-62.68-140-140s62.679-140,140-140c77.319,0,140,62.68,140,140C388.56,336.651,325.879,399.33,248.56,399.33z"/>
<circle fill="none" stroke="#000" stroke-width="3" cx="248.56" cy="259.33" r="140"/>
</svg>
