<?xml version="1.0" encoding="UTF-8" standalone="no"?>
<svg xmlns="http://www.w3.org/2000/svg" xmlns:cc="http://web.resource.org/cc/" xmlns:svg="http://www.w3.org/2000/svg" width="84.5mm" height="100mm" version="1.0">
  <defs/>
  <g transform="translate(-318.322 -303.7389) scale(1.21378)">
    <path d="M288.92234 277.65881c-.00001 44.12359-4.7369 107.25182 10.58095 145.38034 16.29888 39.06591 39.48878 65.00603 86.09046 88.6184 46.60168-23.61237 69.79159-49.55249 86.09046-88.6184 15.31786-38.12852 10.58096-101.25675 10.58095-145.38034H288.92234z" style="fill:#ffffff;fill-rule:evenodd;stroke:#000000;stroke-width:1.83461356"/>
    <g>
      <g transform="translate(-3.482039 175)">
        <path d="M348.08972 83.27536h81.831207v124.45182H348.08972z" style="font-size:12px;fill:#000099;fill-rule:evenodd"/>
        <g transform="translate(214.8635 189.582) scale(.45987)">
          <path d="M208.8044 151.695c11.1976-4.432 16.7101-11.1405 17.302-20.6111.3796-5.6934-5.3032-12.3713-11.3869-12.5256-19.0054-.514-25.3594 30.4721-25.2448 38.0353.8024-.0023 4.7559-.0812 5.7367-.0432.8662-4.7764.1223-10.6278 6.1953-15.5622 6.073-4.9343 8.758-1.1743 9.5172 1.8622.7592 3.0365-2.8031 9.1533-2.1195 8.8446z" style="font-size:12px;fill:#ffd700;fill-rule:evenodd;stroke:#ffd700;stroke-width:1.28750002;stroke-opacity:1" transform="matrix(.36 0 0 .36 247.6064 -88.3608)"/>
          <path d="M158.0432 151.695c-11.1976-4.4321-16.7101-11.1405-17.302-20.6111-.3796-5.6935 5.3032-12.3714 11.3869-12.5256 19.0054-.5141 25.3594 30.4721 25.2448 38.0353-.8024-.0024-4.7559-.0813-5.7367-.0433-.8662-4.7764-.1223-10.6278-6.1953-15.5621-6.073-4.9343-8.758-1.1744-9.5172 1.8622-.7592 3.0364 2.8031 9.1533 2.1195 8.8446z" style="font-size:12px;fill:#ffd700;fill-rule:evenodd;stroke:#ffd700;stroke-width:1.28750002;stroke-opacity:1" transform="matrix(.36 0 0 .36 247.6064 -88.3608)"/>
          <path d="M183.5818 82.41585c12.9141 13.42836 16.3819 27.08585 7.7716 48.96375-2.9536 7.3074-4.2036 16.0757-4.0823 25.1897-1.25.0289-6.5716-.0318-7.8321-.1213.1107-9.0033-1.382-18.4784-4.325-25.9072-9.9711-22.342-2.785-37.49707 8.125-48.12495h.3428z" style="font-size:12px;fill:#ffd700;fill-rule:evenodd;stroke:#ffd700;stroke-width:1.28750002;stroke-opacity:1" transform="matrix(.36 0 0 .36 247.6064 -88.3608)"/>
          <path d="M190.3665 161.7291c2.644 7.0568 7.3107 9.7239 11.1253 11.5928-5.8141 2.7527-12.534-.2369-13.7986-1.6602.1538 1.9898.3113 7.3668-.415 10.9984-.4919 2.9284-1.737 4.6154-3.8391 6.9518-2.1789-2.2827-3.5265-4.1222-4.2528-6.7162-.8825-3.7658.0513-9.1075-.0268-11.1021-1.0083 1.2402-9.0502 4.2248-14.3418 1.6308 4.9266-2.1472 9.7007-4.6472 11.2547-11.8272.5761.0355 12.8415.0281 14.2941.0281v.1038z" style="font-size:12px;fill:#ffd700;fill-rule:evenodd;stroke:#ffd700;stroke-width:1.28750002;stroke-opacity:1" transform="matrix(.36 0 0 .36 247.6064 -88.3608)"/>
          <path d="M167.96109 156.78056h30.59967v4.5517678h-30.59967z" style="font-size:12px;fill:#ffd700;fill-rule:evenodd;stroke:#ffd700;stroke-width:1.17855096;stroke-opacity:1" transform="matrix(.36 0 0 .36 247.6064 -88.3608)"/>
        </g>
        <g transform="translate(239.2526 189.582) scale(.45987)">
          <path d="M208.8044 151.695c11.1976-4.432 16.7101-11.1405 17.302-20.6111.3796-5.6934-5.3032-12.3713-11.3869-12.5256-19.0054-.514-25.3594 30.4721-25.2448 38.0353.8024-.0023 4.7559-.0812 5.7367-.0432.8662-4.7764.1223-10.6278 6.1953-15.5622 6.073-4.9343 8.758-1.1743 9.5172 1.8622.7592 3.0365-2.8031 9.1533-2.1195 8.8446z" style="font-size:12px;fill:#ffd700;fill-rule:evenodd;stroke:#ffd700;stroke-width:1.28750002;stroke-opacity:1" transform="matrix(.36 0 0 .36 247.6064 -88.3608)"/>
          <path d="M158.0432 151.695c-11.1976-4.4321-16.7101-11.1405-17.302-20.6111-.3796-5.6935 5.3032-12.3714 11.3869-12.5256 19.0054-.5141 25.3594 30.4721 25.2448 38.0353-.8024-.0024-4.7559-.0813-5.7367-.0433-.8662-4.7764-.1223-10.6278-6.1953-15.5621-6.073-4.9343-8.758-1.1744-9.5172 1.8622-.7592 3.0364 2.8031 9.1533 2.1195 8.8446z" style="font-size:12px;fill:#ffd700;fill-rule:evenodd;stroke:#ffd700;stroke-width:1.28750002;stroke-opacity:1" transform="matrix(.36 0 0 .36 247.6064 -88.3608)"/>
          <path d="M183.5818 82.41585c12.9141 13.42836 16.3819 27.08585 7.7716 48.96375-2.9536 7.3074-4.2036 16.0757-4.0823 25.1897-1.25.0289-6.5716-.0318-7.8321-.1213.1107-9.0033-1.382-18.4784-4.325-25.9072-9.9711-22.342-2.785-37.49707 8.125-48.12495h.3428z" style="font-size:12px;fill:#ffd700;fill-rule:evenodd;stroke:#ffd700;stroke-width:1.28750002;stroke-opacity:1" transform="matrix(.36 0 0 .36 247.6064 -88.3608)"/>
          <path d="M190.3665 161.7291c2.644 7.0568 7.3107 9.7239 11.1253 11.5928-5.8141 2.7527-12.534-.2369-13.7986-1.6602.1538 1.9898.3113 7.3668-.415 10.9984-.4919 2.9284-1.737 4.6154-3.8391 6.9518-2.1789-2.2827-3.5265-4.1222-4.2528-6.7162-.8825-3.7658.0513-9.1075-.0268-11.1021-1.0083 1.2402-9.0502 4.2248-14.3418 1.6308 4.9266-2.1472 9.7007-4.6472 11.2547-11.8272.5761.0355 12.8415.0281 14.2941.0281v.1038z" style="font-size:12px;fill:#ffd700;fill-rule:evenodd;stroke:#ffd700;stroke-width:1.28750002;stroke-opacity:1" transform="matrix(.36 0 0 .36 247.6064 -88.3608)"/>
          <path d="M167.96109 156.78056h30.59967v4.5517678h-30.59967z" style="font-size:12px;fill:#ffd700;fill-rule:evenodd;stroke:#ffd700;stroke-width:1.17855096;stroke-opacity:1" transform="matrix(.36 0 0 .36 247.6064 -88.3608)"/>
        </g>
        <g transform="translate(262.91 189.582) scale(.45987)">
          <path d="M208.8044 151.695c11.1976-4.432 16.7101-11.1405 17.302-20.6111.3796-5.6934-5.3032-12.3713-11.3869-12.5256-19.0054-.514-25.3594 30.4721-25.2448 38.0353.8024-.0023 4.7559-.0812 5.7367-.0432.8662-4.7764.1223-10.6278 6.1953-15.5622 6.073-4.9343 8.758-1.1743 9.5172 1.8622.7592 3.0365-2.8031 9.1533-2.1195 8.8446z" style="font-size:12px;fill:#ffd700;fill-rule:evenodd;stroke:#ffd700;stroke-width:1.28750002;stroke-opacity:1" transform="matrix(.36 0 0 .36 247.6064 -88.3608)"/>
          <path d="M158.0432 151.695c-11.1976-4.4321-16.7101-11.1405-17.302-20.6111-.3796-5.6935 5.3032-12.3714 11.3869-12.5256 19.0054-.5141 25.3594 30.4721 25.2448 38.0353-.8024-.0024-4.7559-.0813-5.7367-.0433-.8662-4.7764-.1223-10.6278-6.1953-15.5621-6.073-4.9343-8.758-1.1744-9.5172 1.8622-.7592 3.0364 2.8031 9.1533 2.1195 8.8446z" style="font-size:12px;fill:#ffd700;fill-rule:evenodd;stroke:#ffd700;stroke-width:1.28750002;stroke-opacity:1" transform="matrix(.36 0 0 .36 247.6064 -88.3608)"/>
          <path d="M183.5818 82.41585c12.9141 13.42836 16.3819 27.08585 7.7716 48.96375-2.9536 7.3074-4.2036 16.0757-4.0823 25.1897-1.25.0289-6.5716-.0318-7.8321-.1213.1107-9.0033-1.382-18.4784-4.325-25.9072-9.9711-22.342-2.785-37.49707 8.125-48.12495h.3428z" style="font-size:12px;fill:#ffd700;fill-rule:evenodd;stroke:#ffd700;stroke-width:1.28750002;stroke-opacity:1" transform="matrix(.36 0 0 .36 247.6064 -88.3608)"/>
          <path d="M190.3665 161.7291c2.644 7.0568 7.3107 9.7239 11.1253 11.5928-5.8141 2.7527-12.534-.2369-13.7986-1.6602.1538 1.9898.3113 7.3668-.415 10.9984-.4919 2.9284-1.737 4.6154-3.8391 6.9518-2.1789-2.2827-3.5265-4.1222-4.2528-6.7162-.8825-3.7658.0513-9.1075-.0268-11.1021-1.0083 1.2402-9.0502 4.2248-14.3418 1.6308 4.9266-2.1472 9.7007-4.6472 11.2547-11.8272.5761.0355 12.8415.0281 14.2941.0281v.1038z" style="font-size:12px;fill:#ffd700;fill-rule:evenodd;stroke:#ffd700;stroke-width:1.28750002;stroke-opacity:1" transform="matrix(.36 0 0 .36 247.6064 -88.3608)"/>
          <path d="M167.96109 156.78056h30.59967v4.5517678h-30.59967z" style="font-size:12px;fill:#ffd700;fill-rule:evenodd;stroke:#ffd700;stroke-width:1.17855096;stroke-opacity:1" transform="matrix(.36 0 0 .36 247.6064 -88.3608)"/>
        </g>
        <g style="font-size:12px" transform="translate(226.5703 170.5586) scale(.45987)">
          <path d="M208.8044 151.695c11.1976-4.432 16.7101-11.1405 17.302-20.6111.3796-5.6934-5.3032-12.3713-11.3869-12.5256-19.0054-.514-25.3594 30.4721-25.2448 38.0353.8024-.0023 4.7559-.0812 5.7367-.0432.8662-4.7764.1223-10.6278 6.1953-15.5622 6.073-4.9343 8.758-1.1743 9.5172 1.8622.7592 3.0365-2.8031 9.1533-2.1195 8.8446z" style="font-size:12px;fill:#ffd700;fill-rule:evenodd;stroke:#ffd700;stroke-width:1.28750002;stroke-opacity:1" transform="matrix(.36 0 0 .36 247.6064 -88.3608)"/>
          <path d="M158.0432 151.695c-11.1976-4.4321-16.7101-11.1405-17.302-20.6111-.3796-5.6935 5.3032-12.3714 11.3869-12.5256 19.0054-.5141 25.3594 30.4721 25.2448 38.0353-.8024-.0024-4.7559-.0813-5.7367-.0433-.8662-4.7764-.1223-10.6278-6.1953-15.5621-6.073-4.9343-8.758-1.1744-9.5172 1.8622-.7592 3.0364 2.8031 9.1533 2.1195 8.8446z" style="font-size:12px;fill:#ffd700;fill-rule:evenodd;stroke:#ffd700;stroke-width:1.28750002;stroke-opacity:1" transform="matrix(.36 0 0 .36 247.6064 -88.3608)"/>
          <path d="M183.5818 82.41585c12.9141 13.42836 16.3819 27.08585 7.7716 48.96375-2.9536 7.3074-4.2036 16.0757-4.0823 25.1897-1.25.0289-6.5716-.0318-7.8321-.1213.1107-9.0033-1.382-18.4784-4.325-25.9072-9.9711-22.342-2.785-37.49707 8.125-48.12495h.3428z" style="font-size:12px;fill:#ffd700;fill-rule:evenodd;stroke:#ffd700;stroke-width:1.28750002;stroke-opacity:1" transform="matrix(.36 0 0 .36 247.6064 -88.3608)"/>
          <path d="M190.3665 161.7291c2.644 7.0568 7.3107 9.7239 11.1253 11.5928-5.8141 2.7527-12.534-.2369-13.7986-1.6602.1538 1.9898.3113 7.3668-.415 10.9984-.4919 2.9284-1.737 4.6154-3.8391 6.9518-2.1789-2.2827-3.5265-4.1222-4.2528-6.7162-.8825-3.7658.0513-9.1075-.0268-11.1021-1.0083 1.2402-9.0502 4.2248-14.3418 1.6308 4.9266-2.1472 9.7007-4.6472 11.2547-11.8272.5761.0355 12.8415.0281 14.2941.0281v.1038z" style="font-size:12px;fill:#ffd700;fill-rule:evenodd;stroke:#ffd700;stroke-width:1.28750002;stroke-opacity:1" transform="matrix(.36 0 0 .36 247.6064 -88.3608)"/>
          <path d="M167.96109 156.78056h30.59967v4.5517678h-30.59967z" style="font-size:12px;fill:#ffd700;fill-rule:evenodd;stroke:#ffd700;stroke-width:1.17855096;stroke-opacity:1" transform="matrix(.36 0 0 .36 247.6064 -88.3608)"/>
        </g>
        <g style="font-size:12px" transform="translate(250.9593 170.5586) scale(.45987)">
          <path d="M208.8044 151.695c11.1976-4.432 16.7101-11.1405 17.302-20.6111.3796-5.6934-5.3032-12.3713-11.3869-12.5256-19.0054-.514-25.3594 30.4721-25.2448 38.0353.8024-.0023 4.7559-.0812 5.7367-.0432.8662-4.7764.1223-10.6278 6.1953-15.5622 6.073-4.9343 8.758-1.1743 9.5172 1.8622.7592 3.0365-2.8031 9.1533-2.1195 8.8446z" style="font-size:12px;fill:#ffd700;fill-rule:evenodd;stroke:#ffd700;stroke-width:1.28750002;stroke-opacity:1" transform="matrix(.36 0 0 .36 247.6064 -88.3608)"/>
          <path d="M158.0432 151.695c-11.1976-4.4321-16.7101-11.1405-17.302-20.6111-.3796-5.6935 5.3032-12.3714 11.3869-12.5256 19.0054-.5141 25.3594 30.4721 25.2448 38.0353-.8024-.0024-4.7559-.0813-5.7367-.0433-.8662-4.7764-.1223-10.6278-6.1953-15.5621-6.073-4.9343-8.758-1.1744-9.5172 1.8622-.7592 3.0364 2.8031 9.1533 2.1195 8.8446z" style="font-size:12px;fill:#ffd700;fill-rule:evenodd;stroke:#ffd700;stroke-width:1.28750002;stroke-opacity:1" transform="matrix(.36 0 0 .36 247.6064 -88.3608)"/>
          <path d="M183.5818 82.41585c12.9141 13.42836 16.3819 27.08585 7.7716 48.96375-2.9536 7.3074-4.2036 16.0757-4.0823 25.1897-1.25.0289-6.5716-.0318-7.8321-.1213.1107-9.0033-1.382-18.4784-4.325-25.9072-9.9711-22.342-2.785-37.49707 8.125-48.12495h.3428z" style="font-size:12px;fill:#ffd700;fill-rule:evenodd;stroke:#ffd700;stroke-width:1.28750002;stroke-opacity:1" transform="matrix(.36 0 0 .36 247.6064 -88.3608)"/>
          <path d="M190.3665 161.7291c2.644 7.0568 7.3107 9.7239 11.1253 11.5928-5.8141 2.7527-12.534-.2369-13.7986-1.6602.1538 1.9898.3113 7.3668-.415 10.9984-.4919 2.9284-1.737 4.6154-3.8391 6.9518-2.1789-2.2827-3.5265-4.1222-4.2528-6.7162-.8825-3.7658.0513-9.1075-.0268-11.1021-1.0083 1.2402-9.0502 4.2248-14.3418 1.6308 4.9266-2.1472 9.7007-4.6472 11.2547-11.8272.5761.0355 12.8415.0281 14.2941.0281v.1038z" style="font-size:12px;fill:#ffd700;fill-rule:evenodd;stroke:#ffd700;stroke-width:1.28750002;stroke-opacity:1" transform="matrix(.36 0 0 .36 247.6064 -88.3608)"/>
          <path d="M167.96109 156.78056h30.59967v4.5517678h-30.59967z" style="font-size:12px;fill:#ffd700;fill-rule:evenodd;stroke:#ffd700;stroke-width:1.17855096;stroke-opacity:1" transform="matrix(.36 0 0 .36 247.6064 -88.3608)"/>
        </g>
        <path d="M158.0432 151.695c-11.1976-4.4321-16.7101-11.1405-17.302-20.6111-.3796-5.6935 5.3032-12.3714 11.3869-12.5256 19.0054-.5141 25.3594 30.4721 25.2448 38.0353-.8024-.0024-4.7559-.0813-5.7367-.0433-.8662-4.7764-.1223-10.6278-6.1953-15.5621-6.073-4.9343-8.758-1.1744-9.5172 1.8622-.7592 3.0364 2.8031 9.1533 2.1195 8.8446z" style="font-size:12px;fill:#ffd700;fill-rule:evenodd;stroke:#ffd700;stroke-width:1.28750002" transform="translate(388.4822 129.9246) scale(.16555)"/>
        <path d="M183.5818 82.41585c12.9141 13.42836 16.3819 27.08585 7.7716 48.96375-2.9536 7.3074-4.2036 16.0757-4.0823 25.1897-1.25.0289-6.5716-.0318-7.8321-.1213.1107-9.0033-1.382-18.4784-4.325-25.9072-9.9711-22.342-2.785-37.49707 8.125-48.12495h.3428z" style="font-size:12px;fill:#ffd700;fill-rule:evenodd;stroke:#ffd700;stroke-width:1.28750002" transform="translate(388.4822 129.9246) scale(.16555)"/>
        <path d="M208.8044 151.695c11.1976-4.432 16.7101-11.1405 17.302-20.6111.3796-5.6934-5.3032-12.3713-11.3869-12.5256-19.0054-.514-25.3594 30.4721-25.2448 38.0353.8024-.0023 4.7559-.0812 5.7367-.0432.8662-4.7764.1223-10.6278 6.1953-15.5622 6.073-4.9343 8.758-1.1743 9.5172 1.8622.7592 3.0365-2.8031 9.1533-2.1195 8.8446z" style="font-size:12px;fill:#ffd700;fill-rule:evenodd;stroke:#ffd700;stroke-width:1.28750002" transform="translate(388.4822 129.9246) scale(.16555)"/>
        <path d="M190.3665 161.7291c2.644 7.0568 7.3107 9.7239 11.1253 11.5928-5.8141 2.7527-12.534-.2369-13.7986-1.6602.1538 1.9898.3113 7.3668-.415 10.9984-.4919 2.9284-1.737 4.6154-3.8391 6.9518-2.1789-2.2827-3.5265-4.1222-4.2528-6.7162-.8825-3.7658.0513-9.1075-.0268-11.1021-1.0083 1.2402-9.0502 4.2248-14.3418 1.6308 4.9266-2.1472 9.7007-4.6472 11.2547-11.8272.5761.0355 12.8415.0281 14.2941.0281v.1038z" style="font-size:12px;fill:#ffd700;fill-rule:evenodd;stroke:#ffd700;stroke-width:1.28750002" transform="translate(388.4822 129.9246) scale(.16555)"/>
        <path d="M167.96109 156.78056h30.59967v4.5517678h-30.59967z" style="font-size:12px;fill:#ffd700;fill-rule:evenodd;stroke:#ffd700;stroke-width:1.17855096" transform="translate(388.4822 129.9246) scale(.16555)"/>
        <g transform="translate(214.7765 151.1607) scale(.45987)">
          <path d="M208.8044 151.695c11.1976-4.432 16.7101-11.1405 17.302-20.6111.3796-5.6934-5.3032-12.3713-11.3869-12.5256-19.0054-.514-25.3594 30.4721-25.2448 38.0353.8024-.0023 4.7559-.0812 5.7367-.0432.8662-4.7764.1223-10.6278 6.1953-15.5622 6.073-4.9343 8.758-1.1743 9.5172 1.8622.7592 3.0365-2.8031 9.1533-2.1195 8.8446z" style="font-size:12px;fill:#ffd700;fill-rule:evenodd;stroke:#ffd700;stroke-width:1.28750002;stroke-opacity:1" transform="matrix(.36 0 0 .36 247.6064 -88.3608)"/>
          <path d="M158.0432 151.695c-11.1976-4.4321-16.7101-11.1405-17.302-20.6111-.3796-5.6935 5.3032-12.3714 11.3869-12.5256 19.0054-.5141 25.3594 30.4721 25.2448 38.0353-.8024-.0024-4.7559-.0813-5.7367-.0433-.8662-4.7764-.1223-10.6278-6.1953-15.5621-6.073-4.9343-8.758-1.1744-9.5172 1.8622-.7592 3.0364 2.8031 9.1533 2.1195 8.8446z" style="font-size:12px;fill:#ffd700;fill-rule:evenodd;stroke:#ffd700;stroke-width:1.28750002;stroke-opacity:1" transform="matrix(.36 0 0 .36 247.6064 -88.3608)"/>
          <path d="M183.5818 82.41585c12.9141 13.42836 16.3819 27.08585 7.7716 48.96375-2.9536 7.3074-4.2036 16.0757-4.0823 25.1897-1.25.0289-6.5716-.0318-7.8321-.1213.1107-9.0033-1.382-18.4784-4.325-25.9072-9.9711-22.342-2.785-37.49707 8.125-48.12495h.3428z" style="font-size:12px;fill:#ffd700;fill-rule:evenodd;stroke:#ffd700;stroke-width:1.28750002;stroke-opacity:1" transform="matrix(.36 0 0 .36 247.6064 -88.3608)"/>
          <path d="M190.3665 161.7291c2.644 7.0568 7.3107 9.7239 11.1253 11.5928-5.8141 2.7527-12.534-.2369-13.7986-1.6602.1538 1.9898.3113 7.3668-.415 10.9984-.4919 2.9284-1.737 4.6154-3.8391 6.9518-2.1789-2.2827-3.5265-4.1222-4.2528-6.7162-.8825-3.7658.0513-9.1075-.0268-11.1021-1.0083 1.2402-9.0502 4.2248-14.3418 1.6308 4.9266-2.1472 9.7007-4.6472 11.2547-11.8272.5761.0355 12.8415.0281 14.2941.0281v.1038z" style="font-size:12px;fill:#ffd700;fill-rule:evenodd;stroke:#ffd700;stroke-width:1.28750002;stroke-opacity:1" transform="matrix(.36 0 0 .36 247.6064 -88.3608)"/>
          <path d="M167.96109 156.78056h30.59967v4.5517678h-30.59967z" style="font-size:12px;fill:#ffd700;fill-rule:evenodd;stroke:#ffd700;stroke-width:1.17855096;stroke-opacity:1" transform="matrix(.36 0 0 .36 247.6064 -88.3608)"/>
        </g>
        <g transform="translate(239.1655 151.1607) scale(.45987)">
          <path d="M208.8044 151.695c11.1976-4.432 16.7101-11.1405 17.302-20.6111.3796-5.6934-5.3032-12.3713-11.3869-12.5256-19.0054-.514-25.3594 30.4721-25.2448 38.0353.8024-.0023 4.7559-.0812 5.7367-.0432.8662-4.7764.1223-10.6278 6.1953-15.5622 6.073-4.9343 8.758-1.1743 9.5172 1.8622.7592 3.0365-2.8031 9.1533-2.1195 8.8446z" style="font-size:12px;fill:#ffd700;fill-rule:evenodd;stroke:#ffd700;stroke-width:1.28750002;stroke-opacity:1" transform="matrix(.36 0 0 .36 247.6064 -88.3608)"/>
          <path d="M158.0432 151.695c-11.1976-4.4321-16.7101-11.1405-17.302-20.6111-.3796-5.6935 5.3032-12.3714 11.3869-12.5256 19.0054-.5141 25.3594 30.4721 25.2448 38.0353-.8024-.0024-4.7559-.0813-5.7367-.0433-.8662-4.7764-.1223-10.6278-6.1953-15.5621-6.073-4.9343-8.758-1.1744-9.5172 1.8622-.7592 3.0364 2.8031 9.1533 2.1195 8.8446z" style="font-size:12px;fill:#ffd700;fill-rule:evenodd;stroke:#ffd700;stroke-width:1.28750002;stroke-opacity:1" transform="matrix(.36 0 0 .36 247.6064 -88.3608)"/>
          <path d="M183.5818 82.41585c12.9141 13.42836 16.3819 27.08585 7.7716 48.96375-2.9536 7.3074-4.2036 16.0757-4.0823 25.1897-1.25.0289-6.5716-.0318-7.8321-.1213.1107-9.0033-1.382-18.4784-4.325-25.9072-9.9711-22.342-2.785-37.49707 8.125-48.12495h.3428z" style="font-size:12px;fill:#ffd700;fill-rule:evenodd;stroke:#ffd700;stroke-width:1.28750002;stroke-opacity:1" transform="matrix(.36 0 0 .36 247.6064 -88.3608)"/>
          <path d="M190.3665 161.7291c2.644 7.0568 7.3107 9.7239 11.1253 11.5928-5.8141 2.7527-12.534-.2369-13.7986-1.6602.1538 1.9898.3113 7.3668-.415 10.9984-.4919 2.9284-1.737 4.6154-3.8391 6.9518-2.1789-2.2827-3.5265-4.1222-4.2528-6.7162-.8825-3.7658.0513-9.1075-.0268-11.1021-1.0083 1.2402-9.0502 4.2248-14.3418 1.6308 4.9266-2.1472 9.7007-4.6472 11.2547-11.8272.5761.0355 12.8415.0281 14.2941.0281v.1038z" style="font-size:12px;fill:#ffd700;fill-rule:evenodd;stroke:#ffd700;stroke-width:1.28750002;stroke-opacity:1" transform="matrix(.36 0 0 .36 247.6064 -88.3608)"/>
          <path d="M167.96109 156.78056h30.59967v4.5517678h-30.59967z" style="font-size:12px;fill:#ffd700;fill-rule:evenodd;stroke:#ffd700;stroke-width:1.17855096;stroke-opacity:1" transform="matrix(.36 0 0 .36 247.6064 -88.3608)"/>
        </g>
        <g transform="translate(262.8229 151.1607) scale(.45987)">
          <path d="M208.8044 151.695c11.1976-4.432 16.7101-11.1405 17.302-20.6111.3796-5.6934-5.3032-12.3713-11.3869-12.5256-19.0054-.514-25.3594 30.4721-25.2448 38.0353.8024-.0023 4.7559-.0812 5.7367-.0432.8662-4.7764.1223-10.6278 6.1953-15.5622 6.073-4.9343 8.758-1.1743 9.5172 1.8622.7592 3.0365-2.8031 9.1533-2.1195 8.8446z" style="font-size:12px;fill:#ffd700;fill-rule:evenodd;stroke:#ffd700;stroke-width:1.28750002;stroke-opacity:1" transform="matrix(.36 0 0 .36 247.6064 -88.3608)"/>
          <path d="M158.0432 151.695c-11.1976-4.4321-16.7101-11.1405-17.302-20.6111-.3796-5.6935 5.3032-12.3714 11.3869-12.5256 19.0054-.5141 25.3594 30.4721 25.2448 38.0353-.8024-.0024-4.7559-.0813-5.7367-.0433-.8662-4.7764-.1223-10.6278-6.1953-15.5621-6.073-4.9343-8.758-1.1744-9.5172 1.8622-.7592 3.0364 2.8031 9.1533 2.1195 8.8446z" style="font-size:12px;fill:#ffd700;fill-rule:evenodd;stroke:#ffd700;stroke-width:1.28750002;stroke-opacity:1" transform="matrix(.36 0 0 .36 247.6064 -88.3608)"/>
          <path d="M183.5818 82.41585c12.9141 13.42836 16.3819 27.08585 7.7716 48.96375-2.9536 7.3074-4.2036 16.0757-4.0823 25.1897-1.25.0289-6.5716-.0318-7.8321-.1213.1107-9.0033-1.382-18.4784-4.325-25.9072-9.9711-22.342-2.785-37.49707 8.125-48.12495h.3428z" style="font-size:12px;fill:#ffd700;fill-rule:evenodd;stroke:#ffd700;stroke-width:1.28750002;stroke-opacity:1" transform="matrix(.36 0 0 .36 247.6064 -88.3608)"/>
          <path d="M190.3665 161.7291c2.644 7.0568 7.3107 9.7239 11.1253 11.5928-5.8141 2.7527-12.534-.2369-13.7986-1.6602.1538 1.9898.3113 7.3668-.415 10.9984-.4919 2.9284-1.737 4.6154-3.8391 6.9518-2.1789-2.2827-3.5265-4.1222-4.2528-6.7162-.8825-3.7658.0513-9.1075-.0268-11.1021-1.0083 1.2402-9.0502 4.2248-14.3418 1.6308 4.9266-2.1472 9.7007-4.6472 11.2547-11.8272.5761.0355 12.8415.0281 14.2941.0281v.1038z" style="font-size:12px;fill:#ffd700;fill-rule:evenodd;stroke:#ffd700;stroke-width:1.28750002;stroke-opacity:1" transform="matrix(.36 0 0 .36 247.6064 -88.3608)"/>
          <path d="M167.96109 156.78056h30.59967v4.5517678h-30.59967z" style="font-size:12px;fill:#ffd700;fill-rule:evenodd;stroke:#ffd700;stroke-width:1.17855096;stroke-opacity:1" transform="matrix(.36 0 0 .36 247.6064 -88.3608)"/>
        </g>
        <g style="font-size:12px" transform="translate(226.6573 131.6494) scale(.45987)">
          <path d="M208.8044 151.695c11.1976-4.432 16.7101-11.1405 17.302-20.6111.3796-5.6934-5.3032-12.3713-11.3869-12.5256-19.0054-.514-25.3594 30.4721-25.2448 38.0353.8024-.0023 4.7559-.0812 5.7367-.0432.8662-4.7764.1223-10.6278 6.1953-15.5622 6.073-4.9343 8.758-1.1743 9.5172 1.8622.7592 3.0365-2.8031 9.1533-2.1195 8.8446z" style="font-size:12px;fill:#ffd700;fill-rule:evenodd;stroke:#ffd700;stroke-width:1.28750002;stroke-opacity:1" transform="matrix(.36 0 0 .36 247.6064 -88.3608)"/>
          <path d="M158.0432 151.695c-11.1976-4.4321-16.7101-11.1405-17.302-20.6111-.3796-5.6935 5.3032-12.3714 11.3869-12.5256 19.0054-.5141 25.3594 30.4721 25.2448 38.0353-.8024-.0024-4.7559-.0813-5.7367-.0433-.8662-4.7764-.1223-10.6278-6.1953-15.5621-6.073-4.9343-8.758-1.1744-9.5172 1.8622-.7592 3.0364 2.8031 9.1533 2.1195 8.8446z" style="font-size:12px;fill:#ffd700;fill-rule:evenodd;stroke:#ffd700;stroke-width:1.28750002;stroke-opacity:1" transform="matrix(.36 0 0 .36 247.6064 -88.3608)"/>
          <path d="M183.5818 82.41585c12.9141 13.42836 16.3819 27.08585 7.7716 48.96375-2.9536 7.3074-4.2036 16.0757-4.0823 25.1897-1.25.0289-6.5716-.0318-7.8321-.1213.1107-9.0033-1.382-18.4784-4.325-25.9072-9.9711-22.342-2.785-37.49707 8.125-48.12495h.3428z" style="font-size:12px;fill:#ffd700;fill-rule:evenodd;stroke:#ffd700;stroke-width:1.28750002;stroke-opacity:1" transform="matrix(.36 0 0 .36 247.6064 -88.3608)"/>
          <path d="M190.3665 161.7291c2.644 7.0568 7.3107 9.7239 11.1253 11.5928-5.8141 2.7527-12.534-.2369-13.7986-1.6602.1538 1.9898.3113 7.3668-.415 10.9984-.4919 2.9284-1.737 4.6154-3.8391 6.9518-2.1789-2.2827-3.5265-4.1222-4.2528-6.7162-.8825-3.7658.0513-9.1075-.0268-11.1021-1.0083 1.2402-9.0502 4.2248-14.3418 1.6308 4.9266-2.1472 9.7007-4.6472 11.2547-11.8272.5761.0355 12.8415.0281 14.2941.0281v.1038z" style="font-size:12px;fill:#ffd700;fill-rule:evenodd;stroke:#ffd700;stroke-width:1.28750002;stroke-opacity:1" transform="matrix(.36 0 0 .36 247.6064 -88.3608)"/>
          <path d="M167.96109 156.78056h30.59967v4.5517678h-30.59967z" style="font-size:12px;fill:#ffd700;fill-rule:evenodd;stroke:#ffd700;stroke-width:1.17855096;stroke-opacity:1" transform="matrix(.36 0 0 .36 247.6064 -88.3608)"/>
        </g>
        <g style="font-size:12px" transform="translate(251.0464 131.6494) scale(.45987)">
          <path d="M208.8044 151.695c11.1976-4.432 16.7101-11.1405 17.302-20.6111.3796-5.6934-5.3032-12.3713-11.3869-12.5256-19.0054-.514-25.3594 30.4721-25.2448 38.0353.8024-.0023 4.7559-.0812 5.7367-.0432.8662-4.7764.1223-10.6278 6.1953-15.5622 6.073-4.9343 8.758-1.1743 9.5172 1.8622.7592 3.0365-2.8031 9.1533-2.1195 8.8446z" style="font-size:12px;fill:#ffd700;fill-rule:evenodd;stroke:#ffd700;stroke-width:1.28750002;stroke-opacity:1" transform="matrix(.36 0 0 .36 247.6064 -88.3608)"/>
          <path d="M158.0432 151.695c-11.1976-4.4321-16.7101-11.1405-17.302-20.6111-.3796-5.6935 5.3032-12.3714 11.3869-12.5256 19.0054-.5141 25.3594 30.4721 25.2448 38.0353-.8024-.0024-4.7559-.0813-5.7367-.0433-.8662-4.7764-.1223-10.6278-6.1953-15.5621-6.073-4.9343-8.758-1.1744-9.5172 1.8622-.7592 3.0364 2.8031 9.1533 2.1195 8.8446z" style="font-size:12px;fill:#ffd700;fill-rule:evenodd;stroke:#ffd700;stroke-width:1.28750002;stroke-opacity:1" transform="matrix(.36 0 0 .36 247.6064 -88.3608)"/>
          <path d="M183.5818 82.41585c12.9141 13.42836 16.3819 27.08585 7.7716 48.96375-2.9536 7.3074-4.2036 16.0757-4.0823 25.1897-1.25.0289-6.5716-.0318-7.8321-.1213.1107-9.0033-1.382-18.4784-4.325-25.9072-9.9711-22.342-2.785-37.49707 8.125-48.12495h.3428z" style="font-size:12px;fill:#ffd700;fill-rule:evenodd;stroke:#ffd700;stroke-width:1.28750002;stroke-opacity:1" transform="matrix(.36 0 0 .36 247.6064 -88.3608)"/>
          <path d="M190.3665 161.7291c2.644 7.0568 7.3107 9.7239 11.1253 11.5928-5.8141 2.7527-12.534-.2369-13.7986-1.6602.1538 1.9898.3113 7.3668-.415 10.9984-.4919 2.9284-1.737 4.6154-3.8391 6.9518-2.1789-2.2827-3.5265-4.1222-4.2528-6.7162-.8825-3.7658.0513-9.1075-.0268-11.1021-1.0083 1.2402-9.0502 4.2248-14.3418 1.6308 4.9266-2.1472 9.7007-4.6472 11.2547-11.8272.5761.0355 12.8415.0281 14.2941.0281v.1038z" style="font-size:12px;fill:#ffd700;fill-rule:evenodd;stroke:#ffd700;stroke-width:1.28750002;stroke-opacity:1" transform="matrix(.36 0 0 .36 247.6064 -88.3608)"/>
          <path d="M167.96109 156.78056h30.59967v4.5517678h-30.59967z" style="font-size:12px;fill:#ffd700;fill-rule:evenodd;stroke:#ffd700;stroke-width:1.17855096;stroke-opacity:1" transform="matrix(.36 0 0 .36 247.6064 -88.3608)"/>
        </g>
        <g style="font-size:12px" transform="translate(274.7038 131.6494) scale(.45987)">
          <path d="M208.8044 151.695c11.1976-4.432 16.7101-11.1405 17.302-20.6111.3796-5.6934-5.3032-12.3713-11.3869-12.5256-19.0054-.514-25.3594 30.4721-25.2448 38.0353.8024-.0023 4.7559-.0812 5.7367-.0432.8662-4.7764.1223-10.6278 6.1953-15.5622 6.073-4.9343 8.758-1.1743 9.5172 1.8622.7592 3.0365-2.8031 9.1533-2.1195 8.8446z" style="font-size:12px;fill:#ffd700;fill-rule:evenodd;stroke:#ffd700;stroke-width:1.28750002;stroke-opacity:1" transform="matrix(.36 0 0 .36 247.6064 -88.3608)"/>
          <path d="M158.0432 151.695c-11.1976-4.4321-16.7101-11.1405-17.302-20.6111-.3796-5.6935 5.3032-12.3714 11.3869-12.5256 19.0054-.5141 25.3594 30.4721 25.2448 38.0353-.8024-.0024-4.7559-.0813-5.7367-.0433-.8662-4.7764-.1223-10.6278-6.1953-15.5621-6.073-4.9343-8.758-1.1744-9.5172 1.8622-.7592 3.0364 2.8031 9.1533 2.1195 8.8446z" style="font-size:12px;fill:#ffd700;fill-rule:evenodd;stroke:#ffd700;stroke-width:1.28750002;stroke-opacity:1" transform="matrix(.36 0 0 .36 247.6064 -88.3608)"/>
          <path d="M183.5818 82.41585c12.9141 13.42836 16.3819 27.08585 7.7716 48.96375-2.9536 7.3074-4.2036 16.0757-4.0823 25.1897-1.25.0289-6.5716-.0318-7.8321-.1213.1107-9.0033-1.382-18.4784-4.325-25.9072-9.9711-22.342-2.785-37.49707 8.125-48.12495h.3428z" style="font-size:12px;fill:#ffd700;fill-rule:evenodd;stroke:#ffd700;stroke-width:1.28750002;stroke-opacity:1" transform="matrix(.36 0 0 .36 247.6064 -88.3608)"/>
          <path d="M190.3665 161.7291c2.644 7.0568 7.3107 9.7239 11.1253 11.5928-5.8141 2.7527-12.534-.2369-13.7986-1.6602.1538 1.9898.3113 7.3668-.415 10.9984-.4919 2.9284-1.737 4.6154-3.8391 6.9518-2.1789-2.2827-3.5265-4.1222-4.2528-6.7162-.8825-3.7658.0513-9.1075-.0268-11.1021-1.0083 1.2402-9.0502 4.2248-14.3418 1.6308 4.9266-2.1472 9.7007-4.6472 11.2547-11.8272.5761.0355 12.8415.0281 14.2941.0281v.1038z" style="font-size:12px;fill:#ffd700;fill-rule:evenodd;stroke:#ffd700;stroke-width:1.28750002;stroke-opacity:1" transform="matrix(.36 0 0 .36 247.6064 -88.3608)"/>
          <path d="M167.96109 156.78056h30.59967v4.5517678h-30.59967z" style="font-size:12px;fill:#ffd700;fill-rule:evenodd;stroke:#ffd700;stroke-width:1.17855096;stroke-opacity:1" transform="matrix(.36 0 0 .36 247.6064 -88.3608)"/>
        </g>
        <g transform="translate(214.9686 111.6999) scale(.45987)">
          <path d="M208.8044 151.695c11.1976-4.432 16.7101-11.1405 17.302-20.6111.3796-5.6934-5.3032-12.3713-11.3869-12.5256-19.0054-.514-25.3594 30.4721-25.2448 38.0353.8024-.0023 4.7559-.0812 5.7367-.0432.8662-4.7764.1223-10.6278 6.1953-15.5622 6.073-4.9343 8.758-1.1743 9.5172 1.8622.7592 3.0365-2.8031 9.1533-2.1195 8.8446z" style="font-size:12px;fill:#ffd700;fill-rule:evenodd;stroke:#ffd700;stroke-width:1.28750002;stroke-opacity:1" transform="matrix(.36 0 0 .36 247.6064 -88.3608)"/>
          <path d="M158.0432 151.695c-11.1976-4.4321-16.7101-11.1405-17.302-20.6111-.3796-5.6935 5.3032-12.3714 11.3869-12.5256 19.0054-.5141 25.3594 30.4721 25.2448 38.0353-.8024-.0024-4.7559-.0813-5.7367-.0433-.8662-4.7764-.1223-10.6278-6.1953-15.5621-6.073-4.9343-8.758-1.1744-9.5172 1.8622-.7592 3.0364 2.8031 9.1533 2.1195 8.8446z" style="font-size:12px;fill:#ffd700;fill-rule:evenodd;stroke:#ffd700;stroke-width:1.28750002;stroke-opacity:1" transform="matrix(.36 0 0 .36 247.6064 -88.3608)"/>
          <path d="M183.5818 82.41585c12.9141 13.42836 16.3819 27.08585 7.7716 48.96375-2.9536 7.3074-4.2036 16.0757-4.0823 25.1897-1.25.0289-6.5716-.0318-7.8321-.1213.1107-9.0033-1.382-18.4784-4.325-25.9072-9.9711-22.342-2.785-37.49707 8.125-48.12495h.3428z" style="font-size:12px;fill:#ffd700;fill-rule:evenodd;stroke:#ffd700;stroke-width:1.28750002;stroke-opacity:1" transform="matrix(.36 0 0 .36 247.6064 -88.3608)"/>
          <path d="M190.3665 161.7291c2.644 7.0568 7.3107 9.7239 11.1253 11.5928-5.8141 2.7527-12.534-.2369-13.7986-1.6602.1538 1.9898.3113 7.3668-.415 10.9984-.4919 2.9284-1.737 4.6154-3.8391 6.9518-2.1789-2.2827-3.5265-4.1222-4.2528-6.7162-.8825-3.7658.0513-9.1075-.0268-11.1021-1.0083 1.2402-9.0502 4.2248-14.3418 1.6308 4.9266-2.1472 9.7007-4.6472 11.2547-11.8272.5761.0355 12.8415.0281 14.2941.0281v.1038z" style="font-size:12px;fill:#ffd700;fill-rule:evenodd;stroke:#ffd700;stroke-width:1.28750002;stroke-opacity:1" transform="matrix(.36 0 0 .36 247.6064 -88.3608)"/>
          <path d="M167.96109 156.78056h30.59967v4.5517678h-30.59967z" style="font-size:12px;fill:#ffd700;fill-rule:evenodd;stroke:#ffd700;stroke-width:1.17855096;stroke-opacity:1" transform="matrix(.36 0 0 .36 247.6064 -88.3608)"/>
        </g>
        <g transform="translate(239.3576 111.6999) scale(.45987)">
          <path d="M208.8044 151.695c11.1976-4.432 16.7101-11.1405 17.302-20.6111.3796-5.6934-5.3032-12.3713-11.3869-12.5256-19.0054-.514-25.3594 30.4721-25.2448 38.0353.8024-.0023 4.7559-.0812 5.7367-.0432.8662-4.7764.1223-10.6278 6.1953-15.5622 6.073-4.9343 8.758-1.1743 9.5172 1.8622.7592 3.0365-2.8031 9.1533-2.1195 8.8446z" style="font-size:12px;fill:#ffd700;fill-rule:evenodd;stroke:#ffd700;stroke-width:1.28750002;stroke-opacity:1" transform="matrix(.36 0 0 .36 247.6064 -88.3608)"/>
          <path d="M158.0432 151.695c-11.1976-4.4321-16.7101-11.1405-17.302-20.6111-.3796-5.6935 5.3032-12.3714 11.3869-12.5256 19.0054-.5141 25.3594 30.4721 25.2448 38.0353-.8024-.0024-4.7559-.0813-5.7367-.0433-.8662-4.7764-.1223-10.6278-6.1953-15.5621-6.073-4.9343-8.758-1.1744-9.5172 1.8622-.7592 3.0364 2.8031 9.1533 2.1195 8.8446z" style="font-size:12px;fill:#ffd700;fill-rule:evenodd;stroke:#ffd700;stroke-width:1.28750002;stroke-opacity:1" transform="matrix(.36 0 0 .36 247.6064 -88.3608)"/>
          <path d="M183.5818 82.41585c12.9141 13.42836 16.3819 27.08585 7.7716 48.96375-2.9536 7.3074-4.2036 16.0757-4.0823 25.1897-1.25.0289-6.5716-.0318-7.8321-.1213.1107-9.0033-1.382-18.4784-4.325-25.9072-9.9711-22.342-2.785-37.49707 8.125-48.12495h.3428z" style="font-size:12px;fill:#ffd700;fill-rule:evenodd;stroke:#ffd700;stroke-width:1.28750002;stroke-opacity:1" transform="matrix(.36 0 0 .36 247.6064 -88.3608)"/>
          <path d="M190.3665 161.7291c2.644 7.0568 7.3107 9.7239 11.1253 11.5928-5.8141 2.7527-12.534-.2369-13.7986-1.6602.1538 1.9898.3113 7.3668-.415 10.9984-.4919 2.9284-1.737 4.6154-3.8391 6.9518-2.1789-2.2827-3.5265-4.1222-4.2528-6.7162-.8825-3.7658.0513-9.1075-.0268-11.1021-1.0083 1.2402-9.0502 4.2248-14.3418 1.6308 4.9266-2.1472 9.7007-4.6472 11.2547-11.8272.5761.0355 12.8415.0281 14.2941.0281v.1038z" style="font-size:12px;fill:#ffd700;fill-rule:evenodd;stroke:#ffd700;stroke-width:1.28750002;stroke-opacity:1" transform="matrix(.36 0 0 .36 247.6064 -88.3608)"/>
          <path d="M167.96109 156.78056h30.59967v4.5517678h-30.59967z" style="font-size:12px;fill:#ffd700;fill-rule:evenodd;stroke:#ffd700;stroke-width:1.17855096;stroke-opacity:1" transform="matrix(.36 0 0 .36 247.6064 -88.3608)"/>
        </g>
        <g transform="translate(263.015 111.6999) scale(.45987)">
          <path d="M208.8044 151.695c11.1976-4.432 16.7101-11.1405 17.302-20.6111.3796-5.6934-5.3032-12.3713-11.3869-12.5256-19.0054-.514-25.3594 30.4721-25.2448 38.0353.8024-.0023 4.7559-.0812 5.7367-.0432.8662-4.7764.1223-10.6278 6.1953-15.5622 6.073-4.9343 8.758-1.1743 9.5172 1.8622.7592 3.0365-2.8031 9.1533-2.1195 8.8446z" style="font-size:12px;fill:#ffd700;fill-rule:evenodd;stroke:#ffd700;stroke-width:1.28750002;stroke-opacity:1" transform="matrix(.36 0 0 .36 247.6064 -88.3608)"/>
          <path d="M158.0432 151.695c-11.1976-4.4321-16.7101-11.1405-17.302-20.6111-.3796-5.6935 5.3032-12.3714 11.3869-12.5256 19.0054-.5141 25.3594 30.4721 25.2448 38.0353-.8024-.0024-4.7559-.0813-5.7367-.0433-.8662-4.7764-.1223-10.6278-6.1953-15.5621-6.073-4.9343-8.758-1.1744-9.5172 1.8622-.7592 3.0364 2.8031 9.1533 2.1195 8.8446z" style="font-size:12px;fill:#ffd700;fill-rule:evenodd;stroke:#ffd700;stroke-width:1.28750002;stroke-opacity:1" transform="matrix(.36 0 0 .36 247.6064 -88.3608)"/>
          <path d="M183.5818 82.41585c12.9141 13.42836 16.3819 27.08585 7.7716 48.96375-2.9536 7.3074-4.2036 16.0757-4.0823 25.1897-1.25.0289-6.5716-.0318-7.8321-.1213.1107-9.0033-1.382-18.4784-4.325-25.9072-9.9711-22.342-2.785-37.49707 8.125-48.12495h.3428z" style="font-size:12px;fill:#ffd700;fill-rule:evenodd;stroke:#ffd700;stroke-width:1.28750002;stroke-opacity:1" transform="matrix(.36 0 0 .36 247.6064 -88.3608)"/>
          <path d="M190.3665 161.7291c2.644 7.0568 7.3107 9.7239 11.1253 11.5928-5.8141 2.7527-12.534-.2369-13.7986-1.6602.1538 1.9898.3113 7.3668-.415 10.9984-.4919 2.9284-1.737 4.6154-3.8391 6.9518-2.1789-2.2827-3.5265-4.1222-4.2528-6.7162-.8825-3.7658.0513-9.1075-.0268-11.1021-1.0083 1.2402-9.0502 4.2248-14.3418 1.6308 4.9266-2.1472 9.7007-4.6472 11.2547-11.8272.5761.0355 12.8415.0281 14.2941.0281v.1038z" style="font-size:12px;fill:#ffd700;fill-rule:evenodd;stroke:#ffd700;stroke-width:1.28750002;stroke-opacity:1" transform="matrix(.36 0 0 .36 247.6064 -88.3608)"/>
          <path d="M167.96109 156.78056h30.59967v4.5517678h-30.59967z" style="font-size:12px;fill:#ffd700;fill-rule:evenodd;stroke:#ffd700;stroke-width:1.17855096;stroke-opacity:1" transform="matrix(.36 0 0 .36 247.6064 -88.3608)"/>
        </g>
        <g transform="translate(227.1476 210.516) scale(.45987)">
          <path d="M208.8044 151.695c11.1976-4.432 16.7101-11.1405 17.302-20.6111.3796-5.6934-5.3032-12.3713-11.3869-12.5256-19.0054-.514-25.3594 30.4721-25.2448 38.0353.8024-.0023 4.7559-.0812 5.7367-.0432.8662-4.7764.1223-10.6278 6.1953-15.5622 6.073-4.9343 8.758-1.1743 9.5172 1.8622.7592 3.0365-2.8031 9.1533-2.1195 8.8446z" style="font-size:12px;fill:#ffd700;fill-rule:evenodd;stroke:#ffd700;stroke-width:1.28750002;stroke-opacity:1" transform="matrix(.36 0 0 .36 247.6064 -88.3608)"/>
          <path d="M158.0432 151.695c-11.1976-4.4321-16.7101-11.1405-17.302-20.6111-.3796-5.6935 5.3032-12.3714 11.3869-12.5256 19.0054-.5141 25.3594 30.4721 25.2448 38.0353-.8024-.0024-4.7559-.0813-5.7367-.0433-.8662-4.7764-.1223-10.6278-6.1953-15.5621-6.073-4.9343-8.758-1.1744-9.5172 1.8622-.7592 3.0364 2.8031 9.1533 2.1195 8.8446z" style="font-size:12px;fill:#ffd700;fill-rule:evenodd;stroke:#ffd700;stroke-width:1.28750002;stroke-opacity:1" transform="matrix(.36 0 0 .36 247.6064 -88.3608)"/>
          <path d="M183.5818 82.41585c12.9141 13.42836 16.3819 27.08585 7.7716 48.96375-2.9536 7.3074-4.2036 16.0757-4.0823 25.1897-1.25.0289-6.5716-.0318-7.8321-.1213.1107-9.0033-1.382-18.4784-4.325-25.9072-9.9711-22.342-2.785-37.49707 8.125-48.12495h.3428z" style="font-size:12px;fill:#ffd700;fill-rule:evenodd;stroke:#ffd700;stroke-width:1.28750002;stroke-opacity:1" transform="matrix(.36 0 0 .36 247.6064 -88.3608)"/>
          <path d="M190.3665 161.7291c2.644 7.0568 7.3107 9.7239 11.1253 11.5928-5.8141 2.7527-12.534-.2369-13.7986-1.6602.1538 1.9898.3113 7.3668-.415 10.9984-.4919 2.9284-1.737 4.6154-3.8391 6.9518-2.1789-2.2827-3.5265-4.1222-4.2528-6.7162-.8825-3.7658.0513-9.1075-.0268-11.1021-1.0083 1.2402-9.0502 4.2248-14.3418 1.6308 4.9266-2.1472 9.7007-4.6472 11.2547-11.8272.5761.0355 12.8415.0281 14.2941.0281v.1038z" style="font-size:12px;fill:#ffd700;fill-rule:evenodd;stroke:#ffd700;stroke-width:1.28750002;stroke-opacity:1" transform="matrix(.36 0 0 .36 247.6064 -88.3608)"/>
          <path d="M167.96109 156.78056h30.59967v4.5517678h-30.59967z" style="font-size:12px;fill:#ffd700;fill-rule:evenodd;stroke:#ffd700;stroke-width:1.17855096;stroke-opacity:1" transform="matrix(.36 0 0 .36 247.6064 -88.3608)"/>
        </g>
        <g transform="translate(250.805 210.516) scale(.45987)">
          <path d="M208.8044 151.695c11.1976-4.432 16.7101-11.1405 17.302-20.6111.3796-5.6934-5.3032-12.3713-11.3869-12.5256-19.0054-.514-25.3594 30.4721-25.2448 38.0353.8024-.0023 4.7559-.0812 5.7367-.0432.8662-4.7764.1223-10.6278 6.1953-15.5622 6.073-4.9343 8.758-1.1743 9.5172 1.8622.7592 3.0365-2.8031 9.1533-2.1195 8.8446z" style="font-size:12px;fill:#ffd700;fill-rule:evenodd;stroke:#ffd700;stroke-width:1.28750002;stroke-opacity:1" transform="matrix(.36 0 0 .36 247.6064 -88.3608)"/>
          <path d="M158.0432 151.695c-11.1976-4.4321-16.7101-11.1405-17.302-20.6111-.3796-5.6935 5.3032-12.3714 11.3869-12.5256 19.0054-.5141 25.3594 30.4721 25.2448 38.0353-.8024-.0024-4.7559-.0813-5.7367-.0433-.8662-4.7764-.1223-10.6278-6.1953-15.5621-6.073-4.9343-8.758-1.1744-9.5172 1.8622-.7592 3.0364 2.8031 9.1533 2.1195 8.8446z" style="font-size:12px;fill:#ffd700;fill-rule:evenodd;stroke:#ffd700;stroke-width:1.28750002;stroke-opacity:1" transform="matrix(.36 0 0 .36 247.6064 -88.3608)"/>
          <path d="M183.5818 82.41585c12.9141 13.42836 16.3819 27.08585 7.7716 48.96375-2.9536 7.3074-4.2036 16.0757-4.0823 25.1897-1.25.0289-6.5716-.0318-7.8321-.1213.1107-9.0033-1.382-18.4784-4.325-25.9072-9.9711-22.342-2.785-37.49707 8.125-48.12495h.3428z" style="font-size:12px;fill:#ffd700;fill-rule:evenodd;stroke:#ffd700;stroke-width:1.28750002;stroke-opacity:1" transform="matrix(.36 0 0 .36 247.6064 -88.3608)"/>
          <path d="M190.3665 161.7291c2.644 7.0568 7.3107 9.7239 11.1253 11.5928-5.8141 2.7527-12.534-.2369-13.7986-1.6602.1538 1.9898.3113 7.3668-.415 10.9984-.4919 2.9284-1.737 4.6154-3.8391 6.9518-2.1789-2.2827-3.5265-4.1222-4.2528-6.7162-.8825-3.7658.0513-9.1075-.0268-11.1021-1.0083 1.2402-9.0502 4.2248-14.3418 1.6308 4.9266-2.1472 9.7007-4.6472 11.2547-11.8272.5761.0355 12.8415.0281 14.2941.0281v.1038z" style="font-size:12px;fill:#ffd700;fill-rule:evenodd;stroke:#ffd700;stroke-width:1.28750002;stroke-opacity:1" transform="matrix(.36 0 0 .36 247.6064 -88.3608)"/>
          <path d="M167.96109 156.78056h30.59967v4.5517678h-30.59967z" style="font-size:12px;fill:#ffd700;fill-rule:evenodd;stroke:#ffd700;stroke-width:1.17855096;stroke-opacity:1" transform="matrix(.36 0 0 .36 247.6064 -88.3608)"/>
        </g>
        <g transform="translate(274.7062 210.516) scale(.45987)">
          <path d="M208.8044 151.695c11.1976-4.432 16.7101-11.1405 17.302-20.6111.3796-5.6934-5.3032-12.3713-11.3869-12.5256-19.0054-.514-25.3594 30.4721-25.2448 38.0353.8024-.0023 4.7559-.0812 5.7367-.0432.8662-4.7764.1223-10.6278 6.1953-15.5622 6.073-4.9343 8.758-1.1743 9.5172 1.8622.7592 3.0365-2.8031 9.1533-2.1195 8.8446z" style="font-size:12px;fill:#ffd700;fill-rule:evenodd;stroke:#ffd700;stroke-width:1.28750002;stroke-opacity:1" transform="matrix(.36 0 0 .36 247.6064 -88.3608)"/>
          <path d="M158.0432 151.695c-11.1976-4.4321-16.7101-11.1405-17.302-20.6111-.3796-5.6935 5.3032-12.3714 11.3869-12.5256 19.0054-.5141 25.3594 30.4721 25.2448 38.0353-.8024-.0024-4.7559-.0813-5.7367-.0433-.8662-4.7764-.1223-10.6278-6.1953-15.5621-6.073-4.9343-8.758-1.1744-9.5172 1.8622-.7592 3.0364 2.8031 9.1533 2.1195 8.8446z" style="font-size:12px;fill:#ffd700;fill-rule:evenodd;stroke:#ffd700;stroke-width:1.28750002;stroke-opacity:1" transform="matrix(.36 0 0 .36 247.6064 -88.3608)"/>
          <path d="M183.5818 82.41585c12.9141 13.42836 16.3819 27.08585 7.7716 48.96375-2.9536 7.3074-4.2036 16.0757-4.0823 25.1897-1.25.0289-6.5716-.0318-7.8321-.1213.1107-9.0033-1.382-18.4784-4.325-25.9072-9.9711-22.342-2.785-37.49707 8.125-48.12495h.3428z" style="font-size:12px;fill:#ffd700;fill-rule:evenodd;stroke:#ffd700;stroke-width:1.28750002;stroke-opacity:1" transform="matrix(.36 0 0 .36 247.6064 -88.3608)"/>
          <path d="M190.3665 161.7291c2.644 7.0568 7.3107 9.7239 11.1253 11.5928-5.8141 2.7527-12.534-.2369-13.7986-1.6602.1538 1.9898.3113 7.3668-.415 10.9984-.4919 2.9284-1.737 4.6154-3.8391 6.9518-2.1789-2.2827-3.5265-4.1222-4.2528-6.7162-.8825-3.7658.0513-9.1075-.0268-11.1021-1.0083 1.2402-9.0502 4.2248-14.3418 1.6308 4.9266-2.1472 9.7007-4.6472 11.2547-11.8272.5761.0355 12.8415.0281 14.2941.0281v.1038z" style="font-size:12px;fill:#ffd700;fill-rule:evenodd;stroke:#ffd700;stroke-width:1.28750002;stroke-opacity:1" transform="matrix(.36 0 0 .36 247.6064 -88.3608)"/>
          <path d="M167.96109 156.78056h30.59967v4.5517678h-30.59967z" style="font-size:12px;fill:#ffd700;fill-rule:evenodd;stroke:#ffd700;stroke-width:1.17855096;stroke-opacity:1" transform="matrix(.36 0 0 .36 247.6064 -88.3608)"/>
        </g>
      </g>
      <path d="M353.59375 287.03125v5.625h10.8125v12.15625h7v-12.15625h10.0625v12.15625h7v-12.15625H399.375v12.15625h7.03125v-12.15625h11.79418v-5.625h-64.60668z" style="fill:#ff0000;fill-rule:evenodd;stroke-width:1.22500002"/>
    </g>
    <path d="M288.9375 277.65625c0 44.12359-4.75535 107.24648 10.5625 145.375 16.29887 39.06591 39.49207 65.01263 86.09375 88.625 46.60168-23.61238 69.79488-49.55909 86.09375-88.625 15.31787-38.12852 10.56251-101.25141 10.5625-145.375h-63.90625v97.25h-65v-97.25H288.9375z" style="fill:#ffffff;fill-rule:evenodd;stroke:#000000;stroke-width:0.59933991pt"/>
    <g>
      <path d="M353.21875 374.6875V492.125c9.38145 6.79977 20.00267 13.26238 32.375 19.53125 11.85311-6.0058 22.15391-12.17096 31.25-18.65625V374.90625h-63.5v-.21875h-.125z" style="fill:#000099;fill-opacity:1;fill-rule:evenodd;stroke:none;stroke-width:1pt"/>
      <g>
        <g transform="translate(0 -91.03075)">
          <path d="M384.53125 479.75v3.375h-3.25v1.84375h3.25v4.5h-4.1875v-3.25H378.5v3.25h-3.375v1.875h3.375v3.25h1.84375v-3.25h4.1875V507h1.875v-15.65625h4.1875v3.25h1.84375v-3.25h3.375v-1.875h-3.375v-3.25h-1.84375v3.25h-4.1875v-4.5h3.25V483.125h-3.25v-3.375h-1.875z" style="fill:#fbfb30;fill-opacity:1;fill-rule:evenodd;stroke:#000000;stroke-width:0.18808268;stroke-opacity:1"/>
          <g transform="translate(.657902)">
            <path d="M400.79956 467.42915v3.375h-3.25v1.84375h3.25v4.5h-4.1875v-3.25h-1.84375v3.25h-3.375v1.875h3.375v3.25h1.84375v-3.25h4.1875v15.65625h1.875V479.0229h4.1875v3.25h1.84375v-3.25h3.375v-1.875h-3.375v-3.25h-1.84375v3.25h-4.1875v-4.5h3.25v-1.84375h-3.25v-3.375h-1.875z" style="fill:#fbfb30;fill-opacity:1;fill-rule:evenodd;stroke:#000000;stroke-width:0.18808268;stroke-opacity:1"/>
            <path d="M366.94713 467.42915v3.375h-3.25v1.84375h3.25v4.5h-4.1875v-3.25h-1.84375v3.25h-3.375v1.875h3.375v3.25h1.84375v-3.25h4.1875v15.65625h1.875V479.0229h4.1875v3.25h1.84375v-3.25h3.375v-1.875h-3.375v-3.25h-1.84375v3.25h-4.1875v-4.5h3.25v-1.84375h-3.25v-3.375h-1.875z" style="fill:#fbfb30;fill-opacity:1;fill-rule:evenodd;stroke:#000000;stroke-width:0.18808268;stroke-opacity:1"/>
          </g>
        </g>
        <g>
          <path d="M384.53125 479.75v3.375h-3.25v1.84375h3.25v4.5h-4.1875v-3.25H378.5v3.25h-3.375v1.875h3.375v3.25h1.84375v-3.25h4.1875V507h1.875v-15.65625h4.1875v3.25h1.84375v-3.25h3.375v-1.875h-3.375v-3.25h-1.84375v3.25h-4.1875v-4.5h3.25V483.125h-3.25v-3.375h-1.875z" style="fill:#fbfb30;fill-opacity:1;fill-rule:evenodd;stroke:#000000;stroke-width:0.18808268;stroke-opacity:1"/>
          <g transform="translate(.657902)">
            <path d="M400.79956 467.42915v3.375h-3.25v1.84375h3.25v4.5h-4.1875v-3.25h-1.84375v3.25h-3.375v1.875h3.375v3.25h1.84375v-3.25h4.1875v15.65625h1.875V479.0229h4.1875v3.25h1.84375v-3.25h3.375v-1.875h-3.375v-3.25h-1.84375v3.25h-4.1875v-4.5h3.25v-1.84375h-3.25v-3.375h-1.875z" style="fill:#fbfb30;fill-opacity:1;fill-rule:evenodd;stroke:#000000;stroke-width:0.18808268;stroke-opacity:1"/>
            <path d="M366.94713 467.42915v3.375h-3.25v1.84375h3.25v4.5h-4.1875v-3.25h-1.84375v3.25h-3.375v1.875h3.375v3.25h1.84375v-3.25h4.1875v15.65625h1.875V479.0229h4.1875v3.25h1.84375v-3.25h3.375v-1.875h-3.375v-3.25h-1.84375v3.25h-4.1875v-4.5h3.25v-1.84375h-3.25v-3.375h-1.875z" style="fill:#fbfb30;fill-opacity:1;fill-rule:evenodd;stroke:#000000;stroke-width:0.18808268;stroke-opacity:1"/>
          </g>
        </g>
        <g>
          <path d="M384.53125 479.75v3.375h-3.25v1.84375h3.25v4.5h-4.1875v-3.25H378.5v3.25h-3.375v1.875h3.375v3.25h1.84375v-3.25h4.1875V507h1.875v-15.65625h4.1875v3.25h1.84375v-3.25h3.375v-1.875h-3.375v-3.25h-1.84375v3.25h-4.1875v-4.5h3.25V483.125h-3.25v-3.375h-1.875z" style="fill:#fbfb30;fill-rule:evenodd;stroke:#000000;stroke-width:0.18808268" transform="translate(0 -38.75685)"/>
          <g transform="translate(.657902 -38.75685)">
            <path d="M404.38816 467.42915v3.375h-3.25v1.84375h3.25v4.5h-4.1875v-3.25h-1.84375v3.25h-3.375v1.875h3.375v3.25h1.84375v-3.25h4.1875v15.65625h1.875V479.0229h4.1875v3.25h1.84375v-3.25h3.375v-1.875h-3.375v-3.25h-1.84375v3.25h-4.1875v-4.5h3.25v-1.84375h-3.25v-3.375h-1.875z" style="fill:#fbfb30;fill-opacity:1;fill-rule:evenodd;stroke:#000000;stroke-width:0.18808268;stroke-opacity:1"/>
            <path d="M363.47815 467.42915v3.375h-3.25v1.84375h3.25v4.5h-4.1875v-3.25h-1.84375v3.25h-3.375v1.875h3.375v3.25h1.84375v-3.25h4.1875v15.65625h1.875V479.0229h4.1875v3.25h1.84375v-3.25h3.375v-1.875h-3.375v-3.25h-1.84375v3.25h-4.1875v-4.5h3.25v-1.84375h-3.25v-3.375h-1.875z" style="fill:#fbfb30;fill-opacity:1;fill-rule:evenodd;stroke:#000000;stroke-width:0.18808268;stroke-opacity:1"/>
          </g>
        </g>
      </g>
      <g>
        <path d="M358.5 398.15625c-1.07658 1.1962 3.35657 6.45777 5.03125 9.6875-2.23291-3.18986-3.88569-6.26091-5.28125-4.1875.11962 1.43544 3.35656 6.93728 5.03125 10.40625 1.03671 2.11328-1.6402 6.28325-.125 8.875 1.43544-.87721 3.35555-.94171 4.3125-2.65625.75759 1.59493.56671 3.54518 2.28125 4.78125 0 0 .47309 4.56456-.125 6 .95696.23924 3.35759.81766 5.75 4.40625-.07975 3.14999-.17024 6.31876-.25 9.46875-1.59493 1.1962-2.34898 2.75641-4.78125 3.59375.95696 1.83417.70365 3.66584 1.0625 5.5-2.59176 3.11012-5.0599 5.49976-11.71875 8.96875 3.4291 2.43227 7.58705 1.0421 11.375.125 1.55506 3.78796-.34648 5.17438 8.625 8.125-1.31582-13.99553 3.92136-32.29259 3.5625-40.1875.31667-2.01611-.1953-5.22512-1.375-8.8125.8451.34599 1.59011.70704 4.375 1.28125-1.42838-4.64222-4.28159-9.74702-8.90625-11.09375-4.38224-7.20147-10.92808-13.63672-18.84375-14.28125z" style="fill:#f3f421;fill-rule:evenodd;stroke:#000000;stroke-width:0.18808268"/>
        <path d="M413.27335 398.15625c1.07658 1.1962-3.35657 6.45777-5.03125 9.6875 2.23291-3.18986 3.88569-6.26091 5.28125-4.1875-.11962 1.43544-3.35656 6.93728-5.03125 10.40625-1.03671 2.11328 1.6402 6.28325.125 8.875-1.43544-.87721-3.35555-.94171-4.3125-2.65625-.75759 1.59493-.56671 3.54518-2.28125 4.78125 0 0-.47309 4.56456.125 6-.95696.23924-3.35759.81766-5.75 4.40625.07975 3.14999.17024 6.31876.25 9.46875 1.59493 1.1962 2.34898 2.75641 4.78125 3.59375-.95696 1.83417-.70365 3.66584-1.0625 5.5 2.59176 3.11012 5.0599 5.49976 11.71875 8.96875-3.4291 2.43227-7.58705 1.0421-11.375.125-1.55506 3.78796.34648 5.17438-8.625 8.125 1.31582-13.99553-3.92136-32.29259-3.5625-40.1875-.31667-2.01611.1953-5.22512 1.375-8.8125-.8451.34599-1.59011.70704-4.375 1.28125 1.42838-4.64222 4.28159-9.74702 8.90625-11.09375 4.38224-7.20147 10.92808-13.63672 18.84375-14.28125z" style="fill:#f3f421;fill-rule:evenodd;stroke:#000000;stroke-width:0.18808268"/>
      </g>
    </g>
    <g>
      <g>
        <path d="M417.46875 376.15625v116.375c26.27271-18.90056 42.16528-40.60967 54.21875-69.5 5.30514-13.20532 8.10105-29.50035 9.625-46.875h-63.84375z" style="fill:#ffff00;fill-opacity:1;fill-rule:evenodd;stroke:none;stroke-width:1pt"/>
        <path d="M417.46875 376.15625v23.3125l40.8125 49.75c5.01089-8.08569 9.45241-16.71075 13.40625-26.1875.33782-.84089.58846-1.79083.90625-2.65625l-35.0625-44.21875h-20.0625z" style="fill:#ff0000;fill-rule:evenodd;stroke-width:1pt"/>
      </g>
      <g>
        <path d="M424.90173 384.34897c2.55889-.52862 2.04535.9858 2.71998 1.55038 2.7703 2.36139 4.88171.27428 3.76276-1.36423-.86591-1.41654 2.04937-3.89978 3.10591-2.87145 1.11393 1.23898 5.05646 1.06754 6.44228.31182-1.65959 2.57265-4.62311 3.06757-5.67468 2.46343-.01072 1.64516 2.02223 1.45977 4.14633.6689-1.24486 2.25218-5.06805 3.15945-5.70493 2.23494-.27373 1.8169 2.40623 2.20184 4.26738 1.58263-2.4179 2.02518-5.78588 2.48636-6.68574 1.73348-.08148 1.54243.63585 3.50655 2.36571 2.32771-1.12324 1.87496.76267 1.33259 1.8969.71202-.82597 1.08496-1.63356 2.49161-1.29892 3.59142-1.04295-.30386-2.00538.00084-3.38849 1.16118.95371-1.5916.96307-2.92464-.71799-1.97432 1.13796-1.75701-.09227-2.629-1.47758-3.16426.2826 1.70192.21083 4.18118-1.62052 6.31986.00045-1.29098.39568-3.48501-.98967-4.02023.07029 1.39376-.35521 3.35933-2.47984 5.44121.18257-1.21128 1.15456-4.22854.29519-5.10716-.19272 1.56543-.84076 3.57694-2.66184 5.36145.23319-1.6911 1.26577-4.25159-.0889-5.84924-.96465-1.25727 1.03541-3.71781 2.83321-3.63663 3.41281.18226 2.19583-3.27016 1.43751-3.81755-.64708-.57043-2.00218-.87721-.52456-3.52962l.0405-.12574z" style="font-size:12px;fill:#ffffff;fill-opacity:1;fill-rule:evenodd;stroke:#000000;stroke-width:0.30307174"/>
        <path d="M437.00467 399.38387c2.55888-.52863 2.04536.98579 2.71997 1.55038 2.77031 2.36139 4.88171.27427 3.76277-1.36424-.86592-1.41654 2.04937-3.89978 3.10591-2.87144 1.11394 1.23896 5.05646 1.06753 6.44227.31182-1.65958 2.57263-4.6231 3.06755-5.67466 2.46342-.01074 1.64517 2.02221 1.45976 4.14633.66889-1.24488 2.2522-5.06807 3.15947-5.70494 2.23496-.27373 1.81691 2.40622 2.20185 4.26739 1.58259-2.41792 2.02523-5.78591 2.48641-6.68575 1.73353-.08149 1.54243.63584 3.50655 2.36569 2.32771-1.12324 1.87495.7627 1.33257 1.89691.71202-.82596 1.08494-1.63357 2.49158-1.29891 3.5914-1.04294-.30386-2.00538.00084-3.38848 1.16118.95368-1.5916.96306-2.92464-.71802-1.97433 1.13797-1.757-.09226-2.62898-1.47758-3.16423.28263 1.70189.21084 4.18118-1.6205 6.31986.00045-1.29098.39568-3.48501-.98968-4.02024.07029 1.39377-.35522 3.35934-2.47986 5.44121.1826-1.21128 1.15458-4.22853.2952-5.10715-.19271 1.56544-.84077 3.57694-2.66184 5.36144.23322-1.69113 1.26579-4.25157-.0889-5.84924-.96465-1.25725 1.03541-3.71781 2.8332-3.63662 3.41285.18222 2.19585-3.2702 1.43752-3.81756-.64707-.57044-2.00216-.87723-.52456-3.52964l.04052-.12572z" style="font-size:12px;fill:#ffffff;fill-opacity:1;fill-rule:evenodd;stroke:#000000;stroke-width:0.30307174"/>
        <path d="M448.88042 414.88203c2.55888-.52861 2.04535.98579 2.71996 1.55038 2.77031 2.3614 4.88171.27427 3.76276-1.36422-.8659-1.41657 2.04938-3.89979 3.10593-2.87146 1.11392 1.23898 5.05645 1.06754 6.44227.31183-1.65958 2.57262-4.62311 3.06756-5.67468 2.46342-.01073 1.64516 2.02224 1.45975 4.14634.66889-1.24487 2.2522-5.06806 3.15946-5.70494 2.23495-.27373 1.81691 2.40622 2.20187 4.26739 1.58261-2.41792 2.02522-5.7859 2.48639-6.68575 1.73352-.08149 1.54243.63584 3.50655 2.36569 2.32772-1.12324 1.87494.7627 1.33256 1.8969.71202-.82596 1.08492-1.63355 2.49158-1.2989 3.5914-1.04293-.30388-2.00538.00082-3.38848 1.16117.95368-1.59159.96305-2.92464-.71803-1.97433 1.13798-1.75699-.09225-2.62897-1.47756-3.16424.28261 1.70189.21083 4.1812-1.62052 6.31987.00046-1.29099.39568-3.485-.98968-4.02023.07029 1.39375-.35522 3.35934-2.47984 5.44121.18259-1.21128 1.15457-4.22854.29519-5.10715-.1927 1.56542-.84077 3.57694-2.66184 5.36144.23322-1.69114 1.26579-4.25159-.0889-5.84925-.96465-1.25725 1.0354-3.71781 2.8332-3.63662 3.41284.18223 2.19584-3.27019 1.43752-3.81755-.64707-.57045-2.00215-.87724-.52454-3.52967l.04051-.12571z" style="font-size:12px;fill:#ffffff;fill-opacity:1;fill-rule:evenodd;stroke:#000000;stroke-width:0.30307174"/>
      </g>
    </g>
    <g>
      <path d="M435.53125 283.03125V290.75h10.03125v32.34375h-17.25v-9.28125h-7.75v25.96875h7.75v-8.96875h17.25V363h-10.03125v7.71875h27.78125V363h-10.03125v-32.1875h17.25v9.28125H478.25V314.125h-7.71875v8.96875h-17.25V290.75h10.03125v-7.71875h-27.78125z" style="fill:#ffff00;fill-rule:evenodd;stroke:#000000;stroke-width:1.00347853pt"/>
      <g transform="translate(-.113697 .07164001)">
        <g>
          <path d="M430.58038 292.73249v1.73489h2.98984v7.26956h-5.14137v-2.08604h-2.30988v5.83671h2.30988v-2.01578h5.14137v7.23443h-2.98984v1.73489h8.2802v-1.73489h-2.98983v-7.23443h5.14136v2.08605h2.30058v-5.83676h-2.30058v2.01582h-5.14136v-7.26956h2.98983v-1.73489h-8.2802z" style="fill:#ffff00;fill-rule:evenodd;stroke:#000000;stroke-width:0.25972366pt"/>
          <path d="M460.18864 292.73249v1.73489h2.98984v7.26956h-5.14137v-2.08604h-2.30988v5.83671h2.30988v-2.01578h5.14137v7.23443h-2.98984v1.73489h8.2802v-1.73489h-2.98983v-7.23443h5.14136v2.08605h2.30058v-5.83676h-2.30058v2.01582h-5.14136v-7.26956h2.98983v-1.73489h-8.2802z" style="fill:#ffff00;fill-rule:evenodd;stroke:#000000;stroke-width:0.25972366pt"/>
        </g>
        <g transform="translate(0 48.43304)">
          <path d="M430.58038 292.73249v1.73489h2.98984v7.26956h-5.14137v-2.08604h-2.30988v5.83671h2.30988v-2.01578h5.14137v7.23443h-2.98984v1.73489h8.2802v-1.73489h-2.98983v-7.23443h5.14136v2.08605h2.30058v-5.83676h-2.30058v2.01582h-5.14136v-7.26956h2.98983v-1.73489h-8.2802z" style="fill:#ffff00;fill-rule:evenodd;stroke:#000000;stroke-width:0.25972366pt"/>
          <path d="M460.18864 292.73249v1.73489h2.98984v7.26956h-5.14137v-2.08604h-2.30988v5.83671h2.30988v-2.01578h5.14137v7.23443h-2.98984v1.73489h8.2802v-1.73489h-2.98983v-7.23443h5.14136v2.08605h2.30058v-5.83676h-2.30058v2.01582h-5.14136v-7.26956h2.98983v-1.73489h-8.2802z" style="fill:#ffff00;fill-rule:evenodd;stroke:#000000;stroke-width:0.25972366pt"/>
        </g>
      </g>
    </g>
    <g>
      <g>
        <path d="M289.59229 361.651h63.227863v12.761861H289.59229z" style="fill:#ff0000;fill-rule:evenodd;stroke-width:1.25"/>
        <path d="M289.59229 337.50162h63.227863v12.761861H289.59229z" style="fill:#ff0000;fill-rule:evenodd;stroke-width:1.25"/>
        <path d="M289.59229 313.54858h63.227863v12.761861H289.59229z" style="fill:#ff0000;fill-rule:evenodd;stroke-width:1.25"/>
        <path d="M289.59229 290.57724h63.227863v12.761861H289.59229z" style="fill:#ff0000;fill-rule:evenodd;stroke-width:1.25"/>
      </g>
      <g>
        <g transform="translate(-275)">
          <path d="m544.78996 382.79705 29.66573 73.81056 49.54407 25.35942v-99.16998h-79.2098z" style="font-size:12px;fill:#000099;fill-rule:evenodd"/>
          <g transform="matrix(.31664 0 0 .45987 502.5972 489.1037)">
            <path d="M208.8044 151.695c11.1976-4.432 16.7101-11.1405 17.302-20.6111.3796-5.6934-5.3032-12.3713-11.3869-12.5256-19.0054-.514-25.3594 30.4721-25.2448 38.0353.8024-.0023 4.7559-.0812 5.7367-.0432.8662-4.7764.1223-10.6278 6.1953-15.5622 6.073-4.9343 8.758-1.1743 9.5172 1.8622.7592 3.0365-2.8031 9.1533-2.1195 8.8446z" style="font-size:12px;fill:#ffd700;fill-rule:evenodd;stroke:#ffd700;stroke-width:1.28750002;stroke-opacity:1" transform="matrix(.36 0 0 .36 247.6064 -88.3608)"/>
            <path d="M158.0432 151.695c-11.1976-4.4321-16.7101-11.1405-17.302-20.6111-.3796-5.6935 5.3032-12.3714 11.3869-12.5256 19.0054-.5141 25.3594 30.4721 25.2448 38.0353-.8024-.0024-4.7559-.0813-5.7367-.0433-.8662-4.7764-.1223-10.6278-6.1953-15.5621-6.073-4.9343-8.758-1.1744-9.5172 1.8622-.7592 3.0364 2.8031 9.1533 2.1195 8.8446z" style="font-size:12px;fill:#ffd700;fill-rule:evenodd;stroke:#ffd700;stroke-width:1.28750002;stroke-opacity:1" transform="matrix(.36 0 0 .36 247.6064 -88.3608)"/>
            <path d="M183.5818 82.41585c12.9141 13.42836 16.3819 27.08585 7.7716 48.96375-2.9536 7.3074-4.2036 16.0757-4.0823 25.1897-1.25.0289-6.5716-.0318-7.8321-.1213.1107-9.0033-1.382-18.4784-4.325-25.9072-9.9711-22.342-2.785-37.49707 8.125-48.12495h.3428z" style="font-size:12px;fill:#ffd700;fill-rule:evenodd;stroke:#ffd700;stroke-width:1.28750002;stroke-opacity:1" transform="matrix(.36 0 0 .36 247.6064 -88.3608)"/>
            <path d="M190.3665 161.7291c2.644 7.0568 7.3107 9.7239 11.1253 11.5928-5.8141 2.7527-12.534-.2369-13.7986-1.6602.1538 1.9898.3113 7.3668-.415 10.9984-.4919 2.9284-1.737 4.6154-3.8391 6.9518-2.1789-2.2827-3.5265-4.1222-4.2528-6.7162-.8825-3.7658.0513-9.1075-.0268-11.1021-1.0083 1.2402-9.0502 4.2248-14.3418 1.6308 4.9266-2.1472 9.7007-4.6472 11.2547-11.8272.5761.0355 12.8415.0281 14.2941.0281v.1038z" style="font-size:12px;fill:#ffd700;fill-rule:evenodd;stroke:#ffd700;stroke-width:1.28750002;stroke-opacity:1" transform="matrix(.36 0 0 .36 247.6064 -88.3608)"/>
            <path d="M167.96109 156.78056h30.59967v4.5517678h-30.59967z" style="font-size:12px;fill:#ffd700;fill-rule:evenodd;stroke:#ffd700;stroke-width:1.17855096;stroke-opacity:1" transform="matrix(.36 0 0 .36 247.6064 -88.3608)"/>
          </g>
          <g transform="matrix(.31664 0 0 .45987 519.2222 489.1037)">
            <path d="M208.8044 151.695c11.1976-4.432 16.7101-11.1405 17.302-20.6111.3796-5.6934-5.3032-12.3713-11.3869-12.5256-19.0054-.514-25.3594 30.4721-25.2448 38.0353.8024-.0023 4.7559-.0812 5.7367-.0432.8662-4.7764.1223-10.6278 6.1953-15.5622 6.073-4.9343 8.758-1.1743 9.5172 1.8622.7592 3.0365-2.8031 9.1533-2.1195 8.8446z" style="font-size:12px;fill:#ffd700;fill-rule:evenodd;stroke:#ffd700;stroke-width:1.28750002;stroke-opacity:1" transform="matrix(.36 0 0 .36 247.6064 -88.3608)"/>
            <path d="M158.0432 151.695c-11.1976-4.4321-16.7101-11.1405-17.302-20.6111-.3796-5.6935 5.3032-12.3714 11.3869-12.5256 19.0054-.5141 25.3594 30.4721 25.2448 38.0353-.8024-.0024-4.7559-.0813-5.7367-.0433-.8662-4.7764-.1223-10.6278-6.1953-15.5621-6.073-4.9343-8.758-1.1744-9.5172 1.8622-.7592 3.0364 2.8031 9.1533 2.1195 8.8446z" style="font-size:12px;fill:#ffd700;fill-rule:evenodd;stroke:#ffd700;stroke-width:1.28750002;stroke-opacity:1" transform="matrix(.36 0 0 .36 247.6064 -88.3608)"/>
            <path d="M183.5818 82.41585c12.9141 13.42836 16.3819 27.08585 7.7716 48.96375-2.9536 7.3074-4.2036 16.0757-4.0823 25.1897-1.25.0289-6.5716-.0318-7.8321-.1213.1107-9.0033-1.382-18.4784-4.325-25.9072-9.9711-22.342-2.785-37.49707 8.125-48.12495h.3428z" style="font-size:12px;fill:#ffd700;fill-rule:evenodd;stroke:#ffd700;stroke-width:1.28750002;stroke-opacity:1" transform="matrix(.36 0 0 .36 247.6064 -88.3608)"/>
            <path d="M190.3665 161.7291c2.644 7.0568 7.3107 9.7239 11.1253 11.5928-5.8141 2.7527-12.534-.2369-13.7986-1.6602.1538 1.9898.3113 7.3668-.415 10.9984-.4919 2.9284-1.737 4.6154-3.8391 6.9518-2.1789-2.2827-3.5265-4.1222-4.2528-6.7162-.8825-3.7658.0513-9.1075-.0268-11.1021-1.0083 1.2402-9.0502 4.2248-14.3418 1.6308 4.9266-2.1472 9.7007-4.6472 11.2547-11.8272.5761.0355 12.8415.0281 14.2941.0281v.1038z" style="font-size:12px;fill:#ffd700;fill-rule:evenodd;stroke:#ffd700;stroke-width:1.28750002;stroke-opacity:1" transform="matrix(.36 0 0 .36 247.6064 -88.3608)"/>
            <path d="M167.96109 156.78056h30.59967v4.5517678h-30.59967z" style="font-size:12px;fill:#ffd700;fill-rule:evenodd;stroke:#ffd700;stroke-width:1.17855096;stroke-opacity:1" transform="matrix(.36 0 0 .36 247.6064 -88.3608)"/>
          </g>
          <g style="font-size:12px" transform="matrix(.31664 0 0 .45987 477.9117 470.0803)">
            <path d="M208.8044 151.695c11.1976-4.432 16.7101-11.1405 17.302-20.6111.3796-5.6934-5.3032-12.3713-11.3869-12.5256-19.0054-.514-25.3594 30.4721-25.2448 38.0353.8024-.0023 4.7559-.0812 5.7367-.0432.8662-4.7764.1223-10.6278 6.1953-15.5622 6.073-4.9343 8.758-1.1743 9.5172 1.8622.7592 3.0365-2.8031 9.1533-2.1195 8.8446z" style="font-size:12px;fill:#ffd700;fill-rule:evenodd;stroke:#ffd700;stroke-width:1.28750002;stroke-opacity:1" transform="matrix(.36 0 0 .36 247.6064 -88.3608)"/>
            <path d="M158.0432 151.695c-11.1976-4.4321-16.7101-11.1405-17.302-20.6111-.3796-5.6935 5.3032-12.3714 11.3869-12.5256 19.0054-.5141 25.3594 30.4721 25.2448 38.0353-.8024-.0024-4.7559-.0813-5.7367-.0433-.8662-4.7764-.1223-10.6278-6.1953-15.5621-6.073-4.9343-8.758-1.1744-9.5172 1.8622-.7592 3.0364 2.8031 9.1533 2.1195 8.8446z" style="font-size:12px;fill:#ffd700;fill-rule:evenodd;stroke:#ffd700;stroke-width:1.28750002;stroke-opacity:1" transform="matrix(.36 0 0 .36 247.6064 -88.3608)"/>
            <path d="M183.5818 82.41585c12.9141 13.42836 16.3819 27.08585 7.7716 48.96375-2.9536 7.3074-4.2036 16.0757-4.0823 25.1897-1.25.0289-6.5716-.0318-7.8321-.1213.1107-9.0033-1.382-18.4784-4.325-25.9072-9.9711-22.342-2.785-37.49707 8.125-48.12495h.3428z" style="font-size:12px;fill:#ffd700;fill-rule:evenodd;stroke:#ffd700;stroke-width:1.28750002;stroke-opacity:1" transform="matrix(.36 0 0 .36 247.6064 -88.3608)"/>
            <path d="M190.3665 161.7291c2.644 7.0568 7.3107 9.7239 11.1253 11.5928-5.8141 2.7527-12.534-.2369-13.7986-1.6602.1538 1.9898.3113 7.3668-.415 10.9984-.4919 2.9284-1.737 4.6154-3.8391 6.9518-2.1789-2.2827-3.5265-4.1222-4.2528-6.7162-.8825-3.7658.0513-9.1075-.0268-11.1021-1.0083 1.2402-9.0502 4.2248-14.3418 1.6308 4.9266-2.1472 9.7007-4.6472 11.2547-11.8272.5761.0355 12.8415.0281 14.2941.0281v.1038z" style="font-size:12px;fill:#ffd700;fill-rule:evenodd;stroke:#ffd700;stroke-width:1.28750002;stroke-opacity:1" transform="matrix(.36 0 0 .36 247.6064 -88.3608)"/>
            <path d="M167.96109 156.78056h30.59967v4.5517678h-30.59967z" style="font-size:12px;fill:#ffd700;fill-rule:evenodd;stroke:#ffd700;stroke-width:1.17855096;stroke-opacity:1" transform="matrix(.36 0 0 .36 247.6064 -88.3608)"/>
          </g>
          <g style="font-size:12px" transform="matrix(.31664 0 0 .45987 494.2008 470.0803)">
            <path d="M208.8044 151.695c11.1976-4.432 16.7101-11.1405 17.302-20.6111.3796-5.6934-5.3032-12.3713-11.3869-12.5256-19.0054-.514-25.3594 30.4721-25.2448 38.0353.8024-.0023 4.7559-.0812 5.7367-.0432.8662-4.7764.1223-10.6278 6.1953-15.5622 6.073-4.9343 8.758-1.1743 9.5172 1.8622.7592 3.0365-2.8031 9.1533-2.1195 8.8446z" style="font-size:12px;fill:#ffd700;fill-rule:evenodd;stroke:#ffd700;stroke-width:1.28750002;stroke-opacity:1" transform="matrix(.36 0 0 .36 247.6064 -88.3608)"/>
            <path d="M158.0432 151.695c-11.1976-4.4321-16.7101-11.1405-17.302-20.6111-.3796-5.6935 5.3032-12.3714 11.3869-12.5256 19.0054-.5141 25.3594 30.4721 25.2448 38.0353-.8024-.0024-4.7559-.0813-5.7367-.0433-.8662-4.7764-.1223-10.6278-6.1953-15.5621-6.073-4.9343-8.758-1.1744-9.5172 1.8622-.7592 3.0364 2.8031 9.1533 2.1195 8.8446z" style="font-size:12px;fill:#ffd700;fill-rule:evenodd;stroke:#ffd700;stroke-width:1.28750002;stroke-opacity:1" transform="matrix(.36 0 0 .36 247.6064 -88.3608)"/>
            <path d="M183.5818 82.41585c12.9141 13.42836 16.3819 27.08585 7.7716 48.96375-2.9536 7.3074-4.2036 16.0757-4.0823 25.1897-1.25.0289-6.5716-.0318-7.8321-.1213.1107-9.0033-1.382-18.4784-4.325-25.9072-9.9711-22.342-2.785-37.49707 8.125-48.12495h.3428z" style="font-size:12px;fill:#ffd700;fill-rule:evenodd;stroke:#ffd700;stroke-width:1.28750002;stroke-opacity:1" transform="matrix(.36 0 0 .36 247.6064 -88.3608)"/>
            <path d="M190.3665 161.7291c2.644 7.0568 7.3107 9.7239 11.1253 11.5928-5.8141 2.7527-12.534-.2369-13.7986-1.6602.1538 1.9898.3113 7.3668-.415 10.9984-.4919 2.9284-1.737 4.6154-3.8391 6.9518-2.1789-2.2827-3.5265-4.1222-4.2528-6.7162-.8825-3.7658.0513-9.1075-.0268-11.1021-1.0083 1.2402-9.0502 4.2248-14.3418 1.6308 4.9266-2.1472 9.7007-4.6472 11.2547-11.8272.5761.0355 12.8415.0281 14.2941.0281v.1038z" style="font-size:12px;fill:#ffd700;fill-rule:evenodd;stroke:#ffd700;stroke-width:1.28750002;stroke-opacity:1" transform="matrix(.36 0 0 .36 247.6064 -88.3608)"/>
            <path d="M167.96109 156.78056h30.59967v4.5517678h-30.59967z" style="font-size:12px;fill:#ffd700;fill-rule:evenodd;stroke:#ffd700;stroke-width:1.17855096;stroke-opacity:1" transform="matrix(.36 0 0 .36 247.6064 -88.3608)"/>
          </g>
          <g style="font-size:12px" transform="matrix(.31664 0 0 .45987 510.6578 470.0803)">
            <path d="M208.8044 151.695c11.1976-4.432 16.7101-11.1405 17.302-20.6111.3796-5.6934-5.3032-12.3713-11.3869-12.5256-19.0054-.514-25.3594 30.4721-25.2448 38.0353.8024-.0023 4.7559-.0812 5.7367-.0432.8662-4.7764.1223-10.6278 6.1953-15.5622 6.073-4.9343 8.758-1.1743 9.5172 1.8622.7592 3.0365-2.8031 9.1533-2.1195 8.8446z" style="font-size:12px;fill:#ffd700;fill-rule:evenodd;stroke:#ffd700;stroke-width:1.28750002;stroke-opacity:1" transform="matrix(.36 0 0 .36 247.6064 -88.3608)"/>
            <path d="M158.0432 151.695c-11.1976-4.4321-16.7101-11.1405-17.302-20.6111-.3796-5.6935 5.3032-12.3714 11.3869-12.5256 19.0054-.5141 25.3594 30.4721 25.2448 38.0353-.8024-.0024-4.7559-.0813-5.7367-.0433-.8662-4.7764-.1223-10.6278-6.1953-15.5621-6.073-4.9343-8.758-1.1744-9.5172 1.8622-.7592 3.0364 2.8031 9.1533 2.1195 8.8446z" style="font-size:12px;fill:#ffd700;fill-rule:evenodd;stroke:#ffd700;stroke-width:1.28750002;stroke-opacity:1" transform="matrix(.36 0 0 .36 247.6064 -88.3608)"/>
            <path d="M183.5818 82.41585c12.9141 13.42836 16.3819 27.08585 7.7716 48.96375-2.9536 7.3074-4.2036 16.0757-4.0823 25.1897-1.25.0289-6.5716-.0318-7.8321-.1213.1107-9.0033-1.382-18.4784-4.325-25.9072-9.9711-22.342-2.785-37.49707 8.125-48.12495h.3428z" style="font-size:12px;fill:#ffd700;fill-rule:evenodd;stroke:#ffd700;stroke-width:1.28750002;stroke-opacity:1" transform="matrix(.36 0 0 .36 247.6064 -88.3608)"/>
            <path d="M190.3665 161.7291c2.644 7.0568 7.3107 9.7239 11.1253 11.5928-5.8141 2.7527-12.534-.2369-13.7986-1.6602.1538 1.9898.3113 7.3668-.415 10.9984-.4919 2.9284-1.737 4.6154-3.8391 6.9518-2.1789-2.2827-3.5265-4.1222-4.2528-6.7162-.8825-3.7658.0513-9.1075-.0268-11.1021-1.0083 1.2402-9.0502 4.2248-14.3418 1.6308 4.9266-2.1472 9.7007-4.6472 11.2547-11.8272.5761.0355 12.8415.0281 14.2941.0281v.1038z" style="font-size:12px;fill:#ffd700;fill-rule:evenodd;stroke:#ffd700;stroke-width:1.28750002;stroke-opacity:1" transform="matrix(.36 0 0 .36 247.6064 -88.3608)"/>
            <path d="M167.96109 156.78056h30.59967v4.5517678h-30.59967z" style="font-size:12px;fill:#ffd700;fill-rule:evenodd;stroke:#ffd700;stroke-width:1.17855096;stroke-opacity:1" transform="matrix(.36 0 0 .36 247.6064 -88.3608)"/>
          </g>
          <g transform="matrix(.31664 0 0 .45987 469.7912 450.6824)">
            <path d="M208.8044 151.695c11.1976-4.432 16.7101-11.1405 17.302-20.6111.3796-5.6934-5.3032-12.3713-11.3869-12.5256-19.0054-.514-25.3594 30.4721-25.2448 38.0353.8024-.0023 4.7559-.0812 5.7367-.0432.8662-4.7764.1223-10.6278 6.1953-15.5622 6.073-4.9343 8.758-1.1743 9.5172 1.8622.7592 3.0365-2.8031 9.1533-2.1195 8.8446z" style="font-size:12px;fill:#ffd700;fill-rule:evenodd;stroke:#ffd700;stroke-width:1.28750002;stroke-opacity:1" transform="matrix(.36 0 0 .36 247.6064 -88.3608)"/>
            <path d="M158.0432 151.695c-11.1976-4.4321-16.7101-11.1405-17.302-20.6111-.3796-5.6935 5.3032-12.3714 11.3869-12.5256 19.0054-.5141 25.3594 30.4721 25.2448 38.0353-.8024-.0024-4.7559-.0813-5.7367-.0433-.8662-4.7764-.1223-10.6278-6.1953-15.5621-6.073-4.9343-8.758-1.1744-9.5172 1.8622-.7592 3.0364 2.8031 9.1533 2.1195 8.8446z" style="font-size:12px;fill:#ffd700;fill-rule:evenodd;stroke:#ffd700;stroke-width:1.28750002;stroke-opacity:1" transform="matrix(.36 0 0 .36 247.6064 -88.3608)"/>
            <path d="M183.5818 82.41585c12.9141 13.42836 16.3819 27.08585 7.7716 48.96375-2.9536 7.3074-4.2036 16.0757-4.0823 25.1897-1.25.0289-6.5716-.0318-7.8321-.1213.1107-9.0033-1.382-18.4784-4.325-25.9072-9.9711-22.342-2.785-37.49707 8.125-48.12495h.3428z" style="font-size:12px;fill:#ffd700;fill-rule:evenodd;stroke:#ffd700;stroke-width:1.28750002;stroke-opacity:1" transform="matrix(.36 0 0 .36 247.6064 -88.3608)"/>
            <path d="M190.3665 161.7291c2.644 7.0568 7.3107 9.7239 11.1253 11.5928-5.8141 2.7527-12.534-.2369-13.7986-1.6602.1538 1.9898.3113 7.3668-.415 10.9984-.4919 2.9284-1.737 4.6154-3.8391 6.9518-2.1789-2.2827-3.5265-4.1222-4.2528-6.7162-.8825-3.7658.0513-9.1075-.0268-11.1021-1.0083 1.2402-9.0502 4.2248-14.3418 1.6308 4.9266-2.1472 9.7007-4.6472 11.2547-11.8272.5761.0355 12.8415.0281 14.2941.0281v.1038z" style="font-size:12px;fill:#ffd700;fill-rule:evenodd;stroke:#ffd700;stroke-width:1.28750002;stroke-opacity:1" transform="matrix(.36 0 0 .36 247.6064 -88.3608)"/>
            <path d="M167.96109 156.78056h30.59967v4.5517678h-30.59967z" style="font-size:12px;fill:#ffd700;fill-rule:evenodd;stroke:#ffd700;stroke-width:1.17855096;stroke-opacity:1" transform="matrix(.36 0 0 .36 247.6064 -88.3608)"/>
          </g>
          <g transform="matrix(.31664 0 0 .45987 486.0803 450.6824)">
            <path d="M208.8044 151.695c11.1976-4.432 16.7101-11.1405 17.302-20.6111.3796-5.6934-5.3032-12.3713-11.3869-12.5256-19.0054-.514-25.3594 30.4721-25.2448 38.0353.8024-.0023 4.7559-.0812 5.7367-.0432.8662-4.7764.1223-10.6278 6.1953-15.5622 6.073-4.9343 8.758-1.1743 9.5172 1.8622.7592 3.0365-2.8031 9.1533-2.1195 8.8446z" style="font-size:12px;fill:#ffd700;fill-rule:evenodd;stroke:#ffd700;stroke-width:1.28750002;stroke-opacity:1" transform="matrix(.36 0 0 .36 247.6064 -88.3608)"/>
            <path d="M158.0432 151.695c-11.1976-4.4321-16.7101-11.1405-17.302-20.6111-.3796-5.6935 5.3032-12.3714 11.3869-12.5256 19.0054-.5141 25.3594 30.4721 25.2448 38.0353-.8024-.0024-4.7559-.0813-5.7367-.0433-.8662-4.7764-.1223-10.6278-6.1953-15.5621-6.073-4.9343-8.758-1.1744-9.5172 1.8622-.7592 3.0364 2.8031 9.1533 2.1195 8.8446z" style="font-size:12px;fill:#ffd700;fill-rule:evenodd;stroke:#ffd700;stroke-width:1.28750002;stroke-opacity:1" transform="matrix(.36 0 0 .36 247.6064 -88.3608)"/>
            <path d="M183.5818 82.41585c12.9141 13.42836 16.3819 27.08585 7.7716 48.96375-2.9536 7.3074-4.2036 16.0757-4.0823 25.1897-1.25.0289-6.5716-.0318-7.8321-.1213.1107-9.0033-1.382-18.4784-4.325-25.9072-9.9711-22.342-2.785-37.49707 8.125-48.12495h.3428z" style="font-size:12px;fill:#ffd700;fill-rule:evenodd;stroke:#ffd700;stroke-width:1.28750002;stroke-opacity:1" transform="matrix(.36 0 0 .36 247.6064 -88.3608)"/>
            <path d="M190.3665 161.7291c2.644 7.0568 7.3107 9.7239 11.1253 11.5928-5.8141 2.7527-12.534-.2369-13.7986-1.6602.1538 1.9898.3113 7.3668-.415 10.9984-.4919 2.9284-1.737 4.6154-3.8391 6.9518-2.1789-2.2827-3.5265-4.1222-4.2528-6.7162-.8825-3.7658.0513-9.1075-.0268-11.1021-1.0083 1.2402-9.0502 4.2248-14.3418 1.6308 4.9266-2.1472 9.7007-4.6472 11.2547-11.8272.5761.0355 12.8415.0281 14.2941.0281v.1038z" style="font-size:12px;fill:#ffd700;fill-rule:evenodd;stroke:#ffd700;stroke-width:1.28750002;stroke-opacity:1" transform="matrix(.36 0 0 .36 247.6064 -88.3608)"/>
            <path d="M167.96109 156.78056h30.59967v4.5517678h-30.59967z" style="font-size:12px;fill:#ffd700;fill-rule:evenodd;stroke:#ffd700;stroke-width:1.17855096;stroke-opacity:1" transform="matrix(.36 0 0 .36 247.6064 -88.3608)"/>
          </g>
          <g transform="matrix(.31664 0 0 .45987 502.5373 450.6824)">
            <path d="M208.8044 151.695c11.1976-4.432 16.7101-11.1405 17.302-20.6111.3796-5.6934-5.3032-12.3713-11.3869-12.5256-19.0054-.514-25.3594 30.4721-25.2448 38.0353.8024-.0023 4.7559-.0812 5.7367-.0432.8662-4.7764.1223-10.6278 6.1953-15.5622 6.073-4.9343 8.758-1.1743 9.5172 1.8622.7592 3.0365-2.8031 9.1533-2.1195 8.8446z" style="font-size:12px;fill:#ffd700;fill-rule:evenodd;stroke:#ffd700;stroke-width:1.28750002;stroke-opacity:1" transform="matrix(.36 0 0 .36 247.6064 -88.3608)"/>
            <path d="M158.0432 151.695c-11.1976-4.4321-16.7101-11.1405-17.302-20.6111-.3796-5.6935 5.3032-12.3714 11.3869-12.5256 19.0054-.5141 25.3594 30.4721 25.2448 38.0353-.8024-.0024-4.7559-.0813-5.7367-.0433-.8662-4.7764-.1223-10.6278-6.1953-15.5621-6.073-4.9343-8.758-1.1744-9.5172 1.8622-.7592 3.0364 2.8031 9.1533 2.1195 8.8446z" style="font-size:12px;fill:#ffd700;fill-rule:evenodd;stroke:#ffd700;stroke-width:1.28750002;stroke-opacity:1" transform="matrix(.36 0 0 .36 247.6064 -88.3608)"/>
            <path d="M183.5818 82.41585c12.9141 13.42836 16.3819 27.08585 7.7716 48.96375-2.9536 7.3074-4.2036 16.0757-4.0823 25.1897-1.25.0289-6.5716-.0318-7.8321-.1213.1107-9.0033-1.382-18.4784-4.325-25.9072-9.9711-22.342-2.785-37.49707 8.125-48.12495h.3428z" style="font-size:12px;fill:#ffd700;fill-rule:evenodd;stroke:#ffd700;stroke-width:1.28750002;stroke-opacity:1" transform="matrix(.36 0 0 .36 247.6064 -88.3608)"/>
            <path d="M190.3665 161.7291c2.644 7.0568 7.3107 9.7239 11.1253 11.5928-5.8141 2.7527-12.534-.2369-13.7986-1.6602.1538 1.9898.3113 7.3668-.415 10.9984-.4919 2.9284-1.737 4.6154-3.8391 6.9518-2.1789-2.2827-3.5265-4.1222-4.2528-6.7162-.8825-3.7658.0513-9.1075-.0268-11.1021-1.0083 1.2402-9.0502 4.2248-14.3418 1.6308 4.9266-2.1472 9.7007-4.6472 11.2547-11.8272.5761.0355 12.8415.0281 14.2941.0281v.1038z" style="font-size:12px;fill:#ffd700;fill-rule:evenodd;stroke:#ffd700;stroke-width:1.28750002;stroke-opacity:1" transform="matrix(.36 0 0 .36 247.6064 -88.3608)"/>
            <path d="M167.96109 156.78056h30.59967v4.5517678h-30.59967z" style="font-size:12px;fill:#ffd700;fill-rule:evenodd;stroke:#ffd700;stroke-width:1.17855096;stroke-opacity:1" transform="matrix(.36 0 0 .36 247.6064 -88.3608)"/>
          </g>
          <g transform="matrix(.31664 0 0 .45987 519.1623 450.6824)">
            <path d="M208.8044 151.695c11.1976-4.432 16.7101-11.1405 17.302-20.6111.3796-5.6934-5.3032-12.3713-11.3869-12.5256-19.0054-.514-25.3594 30.4721-25.2448 38.0353.8024-.0023 4.7559-.0812 5.7367-.0432.8662-4.7764.1223-10.6278 6.1953-15.5622 6.073-4.9343 8.758-1.1743 9.5172 1.8622.7592 3.0365-2.8031 9.1533-2.1195 8.8446z" style="font-size:12px;fill:#ffd700;fill-rule:evenodd;stroke:#ffd700;stroke-width:1.28750002;stroke-opacity:1" transform="matrix(.36 0 0 .36 247.6064 -88.3608)"/>
            <path d="M158.0432 151.695c-11.1976-4.4321-16.7101-11.1405-17.302-20.6111-.3796-5.6935 5.3032-12.3714 11.3869-12.5256 19.0054-.5141 25.3594 30.4721 25.2448 38.0353-.8024-.0024-4.7559-.0813-5.7367-.0433-.8662-4.7764-.1223-10.6278-6.1953-15.5621-6.073-4.9343-8.758-1.1744-9.5172 1.8622-.7592 3.0364 2.8031 9.1533 2.1195 8.8446z" style="font-size:12px;fill:#ffd700;fill-rule:evenodd;stroke:#ffd700;stroke-width:1.28750002;stroke-opacity:1" transform="matrix(.36 0 0 .36 247.6064 -88.3608)"/>
            <path d="M183.5818 82.41585c12.9141 13.42836 16.3819 27.08585 7.7716 48.96375-2.9536 7.3074-4.2036 16.0757-4.0823 25.1897-1.25.0289-6.5716-.0318-7.8321-.1213.1107-9.0033-1.382-18.4784-4.325-25.9072-9.9711-22.342-2.785-37.49707 8.125-48.12495h.3428z" style="font-size:12px;fill:#ffd700;fill-rule:evenodd;stroke:#ffd700;stroke-width:1.28750002;stroke-opacity:1" transform="matrix(.36 0 0 .36 247.6064 -88.3608)"/>
            <path d="M190.3665 161.7291c2.644 7.0568 7.3107 9.7239 11.1253 11.5928-5.8141 2.7527-12.534-.2369-13.7986-1.6602.1538 1.9898.3113 7.3668-.415 10.9984-.4919 2.9284-1.737 4.6154-3.8391 6.9518-2.1789-2.2827-3.5265-4.1222-4.2528-6.7162-.8825-3.7658.0513-9.1075-.0268-11.1021-1.0083 1.2402-9.0502 4.2248-14.3418 1.6308 4.9266-2.1472 9.7007-4.6472 11.2547-11.8272.5761.0355 12.8415.0281 14.2941.0281v.1038z" style="font-size:12px;fill:#ffd700;fill-rule:evenodd;stroke:#ffd700;stroke-width:1.28750002;stroke-opacity:1" transform="matrix(.36 0 0 .36 247.6064 -88.3608)"/>
            <path d="M167.96109 156.78056h30.59967v4.5517678h-30.59967z" style="font-size:12px;fill:#ffd700;fill-rule:evenodd;stroke:#ffd700;stroke-width:1.17855096;stroke-opacity:1" transform="matrix(.36 0 0 .36 247.6064 -88.3608)"/>
          </g>
          <g style="font-size:12px" transform="matrix(.31664 0 0 .45987 461.1788 431.1711)">
            <path d="M208.8044 151.695c11.1976-4.432 16.7101-11.1405 17.302-20.6111.3796-5.6934-5.3032-12.3713-11.3869-12.5256-19.0054-.514-25.3594 30.4721-25.2448 38.0353.8024-.0023 4.7559-.0812 5.7367-.0432.8662-4.7764.1223-10.6278 6.1953-15.5622 6.073-4.9343 8.758-1.1743 9.5172 1.8622.7592 3.0365-2.8031 9.1533-2.1195 8.8446z" style="font-size:12px;fill:#ffd700;fill-rule:evenodd;stroke:#ffd700;stroke-width:1.28750002;stroke-opacity:1" transform="matrix(.36 0 0 .36 247.6064 -88.3608)"/>
            <path d="M158.0432 151.695c-11.1976-4.4321-16.7101-11.1405-17.302-20.6111-.3796-5.6935 5.3032-12.3714 11.3869-12.5256 19.0054-.5141 25.3594 30.4721 25.2448 38.0353-.8024-.0024-4.7559-.0813-5.7367-.0433-.8662-4.7764-.1223-10.6278-6.1953-15.5621-6.073-4.9343-8.758-1.1744-9.5172 1.8622-.7592 3.0364 2.8031 9.1533 2.1195 8.8446z" style="font-size:12px;fill:#ffd700;fill-rule:evenodd;stroke:#ffd700;stroke-width:1.28750002;stroke-opacity:1" transform="matrix(.36 0 0 .36 247.6064 -88.3608)"/>
            <path d="M183.5818 82.41585c12.9141 13.42836 16.3819 27.08585 7.7716 48.96375-2.9536 7.3074-4.2036 16.0757-4.0823 25.1897-1.25.0289-6.5716-.0318-7.8321-.1213.1107-9.0033-1.382-18.4784-4.325-25.9072-9.9711-22.342-2.785-37.49707 8.125-48.12495h.3428z" style="font-size:12px;fill:#ffd700;fill-rule:evenodd;stroke:#ffd700;stroke-width:1.28750002;stroke-opacity:1" transform="matrix(.36 0 0 .36 247.6064 -88.3608)"/>
            <path d="M190.3665 161.7291c2.644 7.0568 7.3107 9.7239 11.1253 11.5928-5.8141 2.7527-12.534-.2369-13.7986-1.6602.1538 1.9898.3113 7.3668-.415 10.9984-.4919 2.9284-1.737 4.6154-3.8391 6.9518-2.1789-2.2827-3.5265-4.1222-4.2528-6.7162-.8825-3.7658.0513-9.1075-.0268-11.1021-1.0083 1.2402-9.0502 4.2248-14.3418 1.6308 4.9266-2.1472 9.7007-4.6472 11.2547-11.8272.5761.0355 12.8415.0281 14.2941.0281v.1038z" style="font-size:12px;fill:#ffd700;fill-rule:evenodd;stroke:#ffd700;stroke-width:1.28750002;stroke-opacity:1" transform="matrix(.36 0 0 .36 247.6064 -88.3608)"/>
            <path d="M167.96109 156.78056h30.59967v4.5517678h-30.59967z" style="font-size:12px;fill:#ffd700;fill-rule:evenodd;stroke:#ffd700;stroke-width:1.17855096;stroke-opacity:1" transform="matrix(.36 0 0 .36 247.6064 -88.3608)"/>
          </g>
          <g style="font-size:12px" transform="matrix(.31664 0 0 .45987 477.9717 431.1711)">
            <path d="M208.8044 151.695c11.1976-4.432 16.7101-11.1405 17.302-20.6111.3796-5.6934-5.3032-12.3713-11.3869-12.5256-19.0054-.514-25.3594 30.4721-25.2448 38.0353.8024-.0023 4.7559-.0812 5.7367-.0432.8662-4.7764.1223-10.6278 6.1953-15.5622 6.073-4.9343 8.758-1.1743 9.5172 1.8622.7592 3.0365-2.8031 9.1533-2.1195 8.8446z" style="font-size:12px;fill:#ffd700;fill-rule:evenodd;stroke:#ffd700;stroke-width:1.28750002;stroke-opacity:1" transform="matrix(.36 0 0 .36 247.6064 -88.3608)"/>
            <path d="M158.0432 151.695c-11.1976-4.4321-16.7101-11.1405-17.302-20.6111-.3796-5.6935 5.3032-12.3714 11.3869-12.5256 19.0054-.5141 25.3594 30.4721 25.2448 38.0353-.8024-.0024-4.7559-.0813-5.7367-.0433-.8662-4.7764-.1223-10.6278-6.1953-15.5621-6.073-4.9343-8.758-1.1744-9.5172 1.8622-.7592 3.0364 2.8031 9.1533 2.1195 8.8446z" style="font-size:12px;fill:#ffd700;fill-rule:evenodd;stroke:#ffd700;stroke-width:1.28750002;stroke-opacity:1" transform="matrix(.36 0 0 .36 247.6064 -88.3608)"/>
            <path d="M183.5818 82.41585c12.9141 13.42836 16.3819 27.08585 7.7716 48.96375-2.9536 7.3074-4.2036 16.0757-4.0823 25.1897-1.25.0289-6.5716-.0318-7.8321-.1213.1107-9.0033-1.382-18.4784-4.325-25.9072-9.9711-22.342-2.785-37.49707 8.125-48.12495h.3428z" style="font-size:12px;fill:#ffd700;fill-rule:evenodd;stroke:#ffd700;stroke-width:1.28750002;stroke-opacity:1" transform="matrix(.36 0 0 .36 247.6064 -88.3608)"/>
            <path d="M190.3665 161.7291c2.644 7.0568 7.3107 9.7239 11.1253 11.5928-5.8141 2.7527-12.534-.2369-13.7986-1.6602.1538 1.9898.3113 7.3668-.415 10.9984-.4919 2.9284-1.737 4.6154-3.8391 6.9518-2.1789-2.2827-3.5265-4.1222-4.2528-6.7162-.8825-3.7658.0513-9.1075-.0268-11.1021-1.0083 1.2402-9.0502 4.2248-14.3418 1.6308 4.9266-2.1472 9.7007-4.6472 11.2547-11.8272.5761.0355 12.8415.0281 14.2941.0281v.1038z" style="font-size:12px;fill:#ffd700;fill-rule:evenodd;stroke:#ffd700;stroke-width:1.28750002;stroke-opacity:1" transform="matrix(.36 0 0 .36 247.6064 -88.3608)"/>
            <path d="M167.96109 156.78056h30.59967v4.5517678h-30.59967z" style="font-size:12px;fill:#ffd700;fill-rule:evenodd;stroke:#ffd700;stroke-width:1.17855096;stroke-opacity:1" transform="matrix(.36 0 0 .36 247.6064 -88.3608)"/>
          </g>
          <g style="font-size:12px" transform="matrix(.31664 0 0 .45987 494.2608 431.1711)">
            <path d="M208.8044 151.695c11.1976-4.432 16.7101-11.1405 17.302-20.6111.3796-5.6934-5.3032-12.3713-11.3869-12.5256-19.0054-.514-25.3594 30.4721-25.2448 38.0353.8024-.0023 4.7559-.0812 5.7367-.0432.8662-4.7764.1223-10.6278 6.1953-15.5622 6.073-4.9343 8.758-1.1743 9.5172 1.8622.7592 3.0365-2.8031 9.1533-2.1195 8.8446z" style="font-size:12px;fill:#ffd700;fill-rule:evenodd;stroke:#ffd700;stroke-width:1.28750002;stroke-opacity:1" transform="matrix(.36 0 0 .36 247.6064 -88.3608)"/>
            <path d="M158.0432 151.695c-11.1976-4.4321-16.7101-11.1405-17.302-20.6111-.3796-5.6935 5.3032-12.3714 11.3869-12.5256 19.0054-.5141 25.3594 30.4721 25.2448 38.0353-.8024-.0024-4.7559-.0813-5.7367-.0433-.8662-4.7764-.1223-10.6278-6.1953-15.5621-6.073-4.9343-8.758-1.1744-9.5172 1.8622-.7592 3.0364 2.8031 9.1533 2.1195 8.8446z" style="font-size:12px;fill:#ffd700;fill-rule:evenodd;stroke:#ffd700;stroke-width:1.28750002;stroke-opacity:1" transform="matrix(.36 0 0 .36 247.6064 -88.3608)"/>
            <path d="M183.5818 82.41585c12.9141 13.42836 16.3819 27.08585 7.7716 48.96375-2.9536 7.3074-4.2036 16.0757-4.0823 25.1897-1.25.0289-6.5716-.0318-7.8321-.1213.1107-9.0033-1.382-18.4784-4.325-25.9072-9.9711-22.342-2.785-37.49707 8.125-48.12495h.3428z" style="font-size:12px;fill:#ffd700;fill-rule:evenodd;stroke:#ffd700;stroke-width:1.28750002;stroke-opacity:1" transform="matrix(.36 0 0 .36 247.6064 -88.3608)"/>
            <path d="M190.3665 161.7291c2.644 7.0568 7.3107 9.7239 11.1253 11.5928-5.8141 2.7527-12.534-.2369-13.7986-1.6602.1538 1.9898.3113 7.3668-.415 10.9984-.4919 2.9284-1.737 4.6154-3.8391 6.9518-2.1789-2.2827-3.5265-4.1222-4.2528-6.7162-.8825-3.7658.0513-9.1075-.0268-11.1021-1.0083 1.2402-9.0502 4.2248-14.3418 1.6308 4.9266-2.1472 9.7007-4.6472 11.2547-11.8272.5761.0355 12.8415.0281 14.2941.0281v.1038z" style="font-size:12px;fill:#ffd700;fill-rule:evenodd;stroke:#ffd700;stroke-width:1.28750002;stroke-opacity:1" transform="matrix(.36 0 0 .36 247.6064 -88.3608)"/>
            <path d="M167.96109 156.78056h30.59967v4.5517678h-30.59967z" style="font-size:12px;fill:#ffd700;fill-rule:evenodd;stroke:#ffd700;stroke-width:1.17855096;stroke-opacity:1" transform="matrix(.36 0 0 .36 247.6064 -88.3608)"/>
          </g>
          <g style="font-size:12px" transform="matrix(.31664 0 0 .45987 510.7177 431.1711)">
            <path d="M208.8044 151.695c11.1976-4.432 16.7101-11.1405 17.302-20.6111.3796-5.6934-5.3032-12.3713-11.3869-12.5256-19.0054-.514-25.3594 30.4721-25.2448 38.0353.8024-.0023 4.7559-.0812 5.7367-.0432.8662-4.7764.1223-10.6278 6.1953-15.5622 6.073-4.9343 8.758-1.1743 9.5172 1.8622.7592 3.0365-2.8031 9.1533-2.1195 8.8446z" style="font-size:12px;fill:#ffd700;fill-rule:evenodd;stroke:#ffd700;stroke-width:1.28750002;stroke-opacity:1" transform="matrix(.36 0 0 .36 247.6064 -88.3608)"/>
            <path d="M158.0432 151.695c-11.1976-4.4321-16.7101-11.1405-17.302-20.6111-.3796-5.6935 5.3032-12.3714 11.3869-12.5256 19.0054-.5141 25.3594 30.4721 25.2448 38.0353-.8024-.0024-4.7559-.0813-5.7367-.0433-.8662-4.7764-.1223-10.6278-6.1953-15.5621-6.073-4.9343-8.758-1.1744-9.5172 1.8622-.7592 3.0364 2.8031 9.1533 2.1195 8.8446z" style="font-size:12px;fill:#ffd700;fill-rule:evenodd;stroke:#ffd700;stroke-width:1.28750002;stroke-opacity:1" transform="matrix(.36 0 0 .36 247.6064 -88.3608)"/>
            <path d="M183.5818 82.41585c12.9141 13.42836 16.3819 27.08585 7.7716 48.96375-2.9536 7.3074-4.2036 16.0757-4.0823 25.1897-1.25.0289-6.5716-.0318-7.8321-.1213.1107-9.0033-1.382-18.4784-4.325-25.9072-9.9711-22.342-2.785-37.49707 8.125-48.12495h.3428z" style="font-size:12px;fill:#ffd700;fill-rule:evenodd;stroke:#ffd700;stroke-width:1.28750002;stroke-opacity:1" transform="matrix(.36 0 0 .36 247.6064 -88.3608)"/>
            <path d="M190.3665 161.7291c2.644 7.0568 7.3107 9.7239 11.1253 11.5928-5.8141 2.7527-12.534-.2369-13.7986-1.6602.1538 1.9898.3113 7.3668-.415 10.9984-.4919 2.9284-1.737 4.6154-3.8391 6.9518-2.1789-2.2827-3.5265-4.1222-4.2528-6.7162-.8825-3.7658.0513-9.1075-.0268-11.1021-1.0083 1.2402-9.0502 4.2248-14.3418 1.6308 4.9266-2.1472 9.7007-4.6472 11.2547-11.8272.5761.0355 12.8415.0281 14.2941.0281v.1038z" style="font-size:12px;fill:#ffd700;fill-rule:evenodd;stroke:#ffd700;stroke-width:1.28750002;stroke-opacity:1" transform="matrix(.36 0 0 .36 247.6064 -88.3608)"/>
            <path d="M167.96109 156.78056h30.59967v4.5517678h-30.59967z" style="font-size:12px;fill:#ffd700;fill-rule:evenodd;stroke:#ffd700;stroke-width:1.17855096;stroke-opacity:1" transform="matrix(.36 0 0 .36 247.6064 -88.3608)"/>
          </g>
          <g transform="matrix(.31664 0 0 .45987 453.1307 411.2216)">
            <path d="M208.8044 151.695c11.1976-4.432 16.7101-11.1405 17.302-20.6111.3796-5.6934-5.3032-12.3713-11.3869-12.5256-19.0054-.514-25.3594 30.4721-25.2448 38.0353.8024-.0023 4.7559-.0812 5.7367-.0432.8662-4.7764.1223-10.6278 6.1953-15.5622 6.073-4.9343 8.758-1.1743 9.5172 1.8622.7592 3.0365-2.8031 9.1533-2.1195 8.8446z" style="font-size:12px;fill:#ffd700;fill-rule:evenodd;stroke:#ffd700;stroke-width:1.28750002;stroke-opacity:1" transform="matrix(.36 0 0 .36 247.6064 -88.3608)"/>
            <path d="M158.0432 151.695c-11.1976-4.4321-16.7101-11.1405-17.302-20.6111-.3796-5.6935 5.3032-12.3714 11.3869-12.5256 19.0054-.5141 25.3594 30.4721 25.2448 38.0353-.8024-.0024-4.7559-.0813-5.7367-.0433-.8662-4.7764-.1223-10.6278-6.1953-15.5621-6.073-4.9343-8.758-1.1744-9.5172 1.8622-.7592 3.0364 2.8031 9.1533 2.1195 8.8446z" style="font-size:12px;fill:#ffd700;fill-rule:evenodd;stroke:#ffd700;stroke-width:1.28750002;stroke-opacity:1" transform="matrix(.36 0 0 .36 247.6064 -88.3608)"/>
            <path d="M183.5818 82.41585c12.9141 13.42836 16.3819 27.08585 7.7716 48.96375-2.9536 7.3074-4.2036 16.0757-4.0823 25.1897-1.25.0289-6.5716-.0318-7.8321-.1213.1107-9.0033-1.382-18.4784-4.325-25.9072-9.9711-22.342-2.785-37.49707 8.125-48.12495h.3428z" style="font-size:12px;fill:#ffd700;fill-rule:evenodd;stroke:#ffd700;stroke-width:1.28750002;stroke-opacity:1" transform="matrix(.36 0 0 .36 247.6064 -88.3608)"/>
            <path d="M190.3665 161.7291c2.644 7.0568 7.3107 9.7239 11.1253 11.5928-5.8141 2.7527-12.534-.2369-13.7986-1.6602.1538 1.9898.3113 7.3668-.415 10.9984-.4919 2.9284-1.737 4.6154-3.8391 6.9518-2.1789-2.2827-3.5265-4.1222-4.2528-6.7162-.8825-3.7658.0513-9.1075-.0268-11.1021-1.0083 1.2402-9.0502 4.2248-14.3418 1.6308 4.9266-2.1472 9.7007-4.6472 11.2547-11.8272.5761.0355 12.8415.0281 14.2941.0281v.1038z" style="font-size:12px;fill:#ffd700;fill-rule:evenodd;stroke:#ffd700;stroke-width:1.28750002;stroke-opacity:1" transform="matrix(.36 0 0 .36 247.6064 -88.3608)"/>
            <path d="M167.96109 156.78056h30.59967v4.5517678h-30.59967z" style="font-size:12px;fill:#ffd700;fill-rule:evenodd;stroke:#ffd700;stroke-width:1.17855096;stroke-opacity:1" transform="matrix(.36 0 0 .36 247.6064 -88.3608)"/>
          </g>
          <g transform="matrix(.31664 0 0 .45987 469.9235 411.2216)">
            <path d="M208.8044 151.695c11.1976-4.432 16.7101-11.1405 17.302-20.6111.3796-5.6934-5.3032-12.3713-11.3869-12.5256-19.0054-.514-25.3594 30.4721-25.2448 38.0353.8024-.0023 4.7559-.0812 5.7367-.0432.8662-4.7764.1223-10.6278 6.1953-15.5622 6.073-4.9343 8.758-1.1743 9.5172 1.8622.7592 3.0365-2.8031 9.1533-2.1195 8.8446z" style="font-size:12px;fill:#ffd700;fill-rule:evenodd;stroke:#ffd700;stroke-width:1.28750002;stroke-opacity:1" transform="matrix(.36 0 0 .36 247.6064 -88.3608)"/>
            <path d="M158.0432 151.695c-11.1976-4.4321-16.7101-11.1405-17.302-20.6111-.3796-5.6935 5.3032-12.3714 11.3869-12.5256 19.0054-.5141 25.3594 30.4721 25.2448 38.0353-.8024-.0024-4.7559-.0813-5.7367-.0433-.8662-4.7764-.1223-10.6278-6.1953-15.5621-6.073-4.9343-8.758-1.1744-9.5172 1.8622-.7592 3.0364 2.8031 9.1533 2.1195 8.8446z" style="font-size:12px;fill:#ffd700;fill-rule:evenodd;stroke:#ffd700;stroke-width:1.28750002;stroke-opacity:1" transform="matrix(.36 0 0 .36 247.6064 -88.3608)"/>
            <path d="M183.5818 82.41585c12.9141 13.42836 16.3819 27.08585 7.7716 48.96375-2.9536 7.3074-4.2036 16.0757-4.0823 25.1897-1.25.0289-6.5716-.0318-7.8321-.1213.1107-9.0033-1.382-18.4784-4.325-25.9072-9.9711-22.342-2.785-37.49707 8.125-48.12495h.3428z" style="font-size:12px;fill:#ffd700;fill-rule:evenodd;stroke:#ffd700;stroke-width:1.28750002;stroke-opacity:1" transform="matrix(.36 0 0 .36 247.6064 -88.3608)"/>
            <path d="M190.3665 161.7291c2.644 7.0568 7.3107 9.7239 11.1253 11.5928-5.8141 2.7527-12.534-.2369-13.7986-1.6602.1538 1.9898.3113 7.3668-.415 10.9984-.4919 2.9284-1.737 4.6154-3.8391 6.9518-2.1789-2.2827-3.5265-4.1222-4.2528-6.7162-.8825-3.7658.0513-9.1075-.0268-11.1021-1.0083 1.2402-9.0502 4.2248-14.3418 1.6308 4.9266-2.1472 9.7007-4.6472 11.2547-11.8272.5761.0355 12.8415.0281 14.2941.0281v.1038z" style="font-size:12px;fill:#ffd700;fill-rule:evenodd;stroke:#ffd700;stroke-width:1.28750002;stroke-opacity:1" transform="matrix(.36 0 0 .36 247.6064 -88.3608)"/>
            <path d="M167.96109 156.78056h30.59967v4.5517678h-30.59967z" style="font-size:12px;fill:#ffd700;fill-rule:evenodd;stroke:#ffd700;stroke-width:1.17855096;stroke-opacity:1" transform="matrix(.36 0 0 .36 247.6064 -88.3608)"/>
          </g>
          <g transform="matrix(.31664 0 0 .45987 486.2126 411.2216)">
            <path d="M208.8044 151.695c11.1976-4.432 16.7101-11.1405 17.302-20.6111.3796-5.6934-5.3032-12.3713-11.3869-12.5256-19.0054-.514-25.3594 30.4721-25.2448 38.0353.8024-.0023 4.7559-.0812 5.7367-.0432.8662-4.7764.1223-10.6278 6.1953-15.5622 6.073-4.9343 8.758-1.1743 9.5172 1.8622.7592 3.0365-2.8031 9.1533-2.1195 8.8446z" style="font-size:12px;fill:#ffd700;fill-rule:evenodd;stroke:#ffd700;stroke-width:1.28750002;stroke-opacity:1" transform="matrix(.36 0 0 .36 247.6064 -88.3608)"/>
            <path d="M158.0432 151.695c-11.1976-4.4321-16.7101-11.1405-17.302-20.6111-.3796-5.6935 5.3032-12.3714 11.3869-12.5256 19.0054-.5141 25.3594 30.4721 25.2448 38.0353-.8024-.0024-4.7559-.0813-5.7367-.0433-.8662-4.7764-.1223-10.6278-6.1953-15.5621-6.073-4.9343-8.758-1.1744-9.5172 1.8622-.7592 3.0364 2.8031 9.1533 2.1195 8.8446z" style="font-size:12px;fill:#ffd700;fill-rule:evenodd;stroke:#ffd700;stroke-width:1.28750002;stroke-opacity:1" transform="matrix(.36 0 0 .36 247.6064 -88.3608)"/>
            <path d="M183.5818 82.41585c12.9141 13.42836 16.3819 27.08585 7.7716 48.96375-2.9536 7.3074-4.2036 16.0757-4.0823 25.1897-1.25.0289-6.5716-.0318-7.8321-.1213.1107-9.0033-1.382-18.4784-4.325-25.9072-9.9711-22.342-2.785-37.49707 8.125-48.12495h.3428z" style="font-size:12px;fill:#ffd700;fill-rule:evenodd;stroke:#ffd700;stroke-width:1.28750002;stroke-opacity:1" transform="matrix(.36 0 0 .36 247.6064 -88.3608)"/>
            <path d="M190.3665 161.7291c2.644 7.0568 7.3107 9.7239 11.1253 11.5928-5.8141 2.7527-12.534-.2369-13.7986-1.6602.1538 1.9898.3113 7.3668-.415 10.9984-.4919 2.9284-1.737 4.6154-3.8391 6.9518-2.1789-2.2827-3.5265-4.1222-4.2528-6.7162-.8825-3.7658.0513-9.1075-.0268-11.1021-1.0083 1.2402-9.0502 4.2248-14.3418 1.6308 4.9266-2.1472 9.7007-4.6472 11.2547-11.8272.5761.0355 12.8415.0281 14.2941.0281v.1038z" style="font-size:12px;fill:#ffd700;fill-rule:evenodd;stroke:#ffd700;stroke-width:1.28750002;stroke-opacity:1" transform="matrix(.36 0 0 .36 247.6064 -88.3608)"/>
            <path d="M167.96109 156.78056h30.59967v4.5517678h-30.59967z" style="font-size:12px;fill:#ffd700;fill-rule:evenodd;stroke:#ffd700;stroke-width:1.17855096;stroke-opacity:1" transform="matrix(.36 0 0 .36 247.6064 -88.3608)"/>
          </g>
          <g transform="matrix(.31664 0 0 .45987 502.6696 411.2216)">
            <path d="M208.8044 151.695c11.1976-4.432 16.7101-11.1405 17.302-20.6111.3796-5.6934-5.3032-12.3713-11.3869-12.5256-19.0054-.514-25.3594 30.4721-25.2448 38.0353.8024-.0023 4.7559-.0812 5.7367-.0432.8662-4.7764.1223-10.6278 6.1953-15.5622 6.073-4.9343 8.758-1.1743 9.5172 1.8622.7592 3.0365-2.8031 9.1533-2.1195 8.8446z" style="font-size:12px;fill:#ffd700;fill-rule:evenodd;stroke:#ffd700;stroke-width:1.28750002;stroke-opacity:1" transform="matrix(.36 0 0 .36 247.6064 -88.3608)"/>
            <path d="M158.0432 151.695c-11.1976-4.4321-16.7101-11.1405-17.302-20.6111-.3796-5.6935 5.3032-12.3714 11.3869-12.5256 19.0054-.5141 25.3594 30.4721 25.2448 38.0353-.8024-.0024-4.7559-.0813-5.7367-.0433-.8662-4.7764-.1223-10.6278-6.1953-15.5621-6.073-4.9343-8.758-1.1744-9.5172 1.8622-.7592 3.0364 2.8031 9.1533 2.1195 8.8446z" style="font-size:12px;fill:#ffd700;fill-rule:evenodd;stroke:#ffd700;stroke-width:1.28750002;stroke-opacity:1" transform="matrix(.36 0 0 .36 247.6064 -88.3608)"/>
            <path d="M183.5818 82.41585c12.9141 13.42836 16.3819 27.08585 7.7716 48.96375-2.9536 7.3074-4.2036 16.0757-4.0823 25.1897-1.25.0289-6.5716-.0318-7.8321-.1213.1107-9.0033-1.382-18.4784-4.325-25.9072-9.9711-22.342-2.785-37.49707 8.125-48.12495h.3428z" style="font-size:12px;fill:#ffd700;fill-rule:evenodd;stroke:#ffd700;stroke-width:1.28750002;stroke-opacity:1" transform="matrix(.36 0 0 .36 247.6064 -88.3608)"/>
            <path d="M190.3665 161.7291c2.644 7.0568 7.3107 9.7239 11.1253 11.5928-5.8141 2.7527-12.534-.2369-13.7986-1.6602.1538 1.9898.3113 7.3668-.415 10.9984-.4919 2.9284-1.737 4.6154-3.8391 6.9518-2.1789-2.2827-3.5265-4.1222-4.2528-6.7162-.8825-3.7658.0513-9.1075-.0268-11.1021-1.0083 1.2402-9.0502 4.2248-14.3418 1.6308 4.9266-2.1472 9.7007-4.6472 11.2547-11.8272.5761.0355 12.8415.0281 14.2941.0281v.1038z" style="font-size:12px;fill:#ffd700;fill-rule:evenodd;stroke:#ffd700;stroke-width:1.28750002;stroke-opacity:1" transform="matrix(.36 0 0 .36 247.6064 -88.3608)"/>
            <path d="M167.96109 156.78056h30.59967v4.5517678h-30.59967z" style="font-size:12px;fill:#ffd700;fill-rule:evenodd;stroke:#ffd700;stroke-width:1.17855096;stroke-opacity:1" transform="matrix(.36 0 0 .36 247.6064 -88.3608)"/>
          </g>
          <g transform="matrix(.31664 0 0 .45987 519.2946 411.2216)">
            <path d="M208.8044 151.695c11.1976-4.432 16.7101-11.1405 17.302-20.6111.3796-5.6934-5.3032-12.3713-11.3869-12.5256-19.0054-.514-25.3594 30.4721-25.2448 38.0353.8024-.0023 4.7559-.0812 5.7367-.0432.8662-4.7764.1223-10.6278 6.1953-15.5622 6.073-4.9343 8.758-1.1743 9.5172 1.8622.7592 3.0365-2.8031 9.1533-2.1195 8.8446z" style="font-size:12px;fill:#ffd700;fill-rule:evenodd;stroke:#ffd700;stroke-width:1.28750002;stroke-opacity:1" transform="matrix(.36 0 0 .36 247.6064 -88.3608)"/>
            <path d="M158.0432 151.695c-11.1976-4.4321-16.7101-11.1405-17.302-20.6111-.3796-5.6935 5.3032-12.3714 11.3869-12.5256 19.0054-.5141 25.3594 30.4721 25.2448 38.0353-.8024-.0024-4.7559-.0813-5.7367-.0433-.8662-4.7764-.1223-10.6278-6.1953-15.5621-6.073-4.9343-8.758-1.1744-9.5172 1.8622-.7592 3.0364 2.8031 9.1533 2.1195 8.8446z" style="font-size:12px;fill:#ffd700;fill-rule:evenodd;stroke:#ffd700;stroke-width:1.28750002;stroke-opacity:1" transform="matrix(.36 0 0 .36 247.6064 -88.3608)"/>
            <path d="M183.5818 82.41585c12.9141 13.42836 16.3819 27.08585 7.7716 48.96375-2.9536 7.3074-4.2036 16.0757-4.0823 25.1897-1.25.0289-6.5716-.0318-7.8321-.1213.1107-9.0033-1.382-18.4784-4.325-25.9072-9.9711-22.342-2.785-37.49707 8.125-48.12495h.3428z" style="font-size:12px;fill:#ffd700;fill-rule:evenodd;stroke:#ffd700;stroke-width:1.28750002;stroke-opacity:1" transform="matrix(.36 0 0 .36 247.6064 -88.3608)"/>
            <path d="M190.3665 161.7291c2.644 7.0568 7.3107 9.7239 11.1253 11.5928-5.8141 2.7527-12.534-.2369-13.7986-1.6602.1538 1.9898.3113 7.3668-.415 10.9984-.4919 2.9284-1.737 4.6154-3.8391 6.9518-2.1789-2.2827-3.5265-4.1222-4.2528-6.7162-.8825-3.7658.0513-9.1075-.0268-11.1021-1.0083 1.2402-9.0502 4.2248-14.3418 1.6308 4.9266-2.1472 9.7007-4.6472 11.2547-11.8272.5761.0355 12.8415.0281 14.2941.0281v.1038z" style="font-size:12px;fill:#ffd700;fill-rule:evenodd;stroke:#ffd700;stroke-width:1.28750002;stroke-opacity:1" transform="matrix(.36 0 0 .36 247.6064 -88.3608)"/>
            <path d="M167.96109 156.78056h30.59967v4.5517678h-30.59967z" style="font-size:12px;fill:#ffd700;fill-rule:evenodd;stroke:#ffd700;stroke-width:1.17855096;stroke-opacity:1" transform="matrix(.36 0 0 .36 247.6064 -88.3608)"/>
          </g>
        </g>
        <path d="M289.8125 375.40625c1.41402 11.38245 2.51075 21.75086 5.34375 34 4.21052 16.42779 12.16105 31.69968 21.53125 45.75 9.72784 14.25273 22.17431 26.54581 36.125 36.65625V375.40625h-63zm8.46875 7.40625c11.9544 0 34.42059-.00001 46.375 0 0 22.08836-.00001 68.78663 0 90.875-7.94153-5.75544-20.43113-19.69903-25.96875-27.8125-5.33406-7.99824-11.91564-24.67961-14.3125-34.03125-1.61271-6.97292-5.28882-22.55172-6.09375-29.03125z" style="fill:#ff0000;fill-rule:evenodd;stroke-width:1.25"/>
      </g>
    </g>
    <path d="M266.25 253.65625c-.00001 53.75824-5.84785 130.67089 13.0625 177.125 20.12145 47.59618 48.75008 79.20048 106.28125 107.96875 57.53117-28.76827 86.1598-60.37257 106.28125-107.96875 18.91035-46.45411 13.06251-123.36676 13.0625-177.125H266.25zm22.6875 24H482.25c.00001 44.12359 4.75537 107.24648-10.5625 145.375-16.29887 39.06591-39.49207 65.01262-86.09375 88.625-46.60168-23.61237-69.79488-49.55909-86.09375-88.625-15.31785-38.12852-10.5625-101.25141-10.5625-145.375z" style="fill:#669933;fill-rule:evenodd;stroke:#000000;stroke-width:2.25"/>
    <path d="M288.92234 277.65881c-.00001 44.12359-4.7369 107.25182 10.58095 145.38034 16.29888 39.06591 39.48878 65.00603 86.09046 88.6184 46.60168-23.61237 69.79159-49.55249 86.09046-88.6184 15.31786-38.12852 10.58096-101.25675 10.58095-145.38034H288.92234z" style="fill:none;fill-rule:evenodd;stroke:#000000;stroke-width:1.83461356"/>
    <path d="M289.95409 375.01318h191.15993" style="fill:#669933;fill-rule:evenodd;stroke:#000000;stroke-width:2.25"/>
    <path d="M417.33764 277.54095v214.56794" style="fill:#669933;fill-rule:evenodd;stroke:#000000;stroke-width:2.38378191"/>
    <path d="M353.05377 277.54095v214.56794" style="fill:#669933;fill-rule:evenodd;stroke:#000000;stroke-width:2.38378191"/>
  </g>
</svg>