<?xml version="1.0" encoding="UTF-8" standalone="no"?>
<svg xmlns="http://www.w3.org/2000/svg" xmlns:cc="http://web.resource.org/cc/" xmlns:svg="http://www.w3.org/2000/svg" width="1075.5714" height="1325.1393" version="1.0">
  <defs/>
  <g style="display:inline">
    <path d="M10 15.125s-2 460 38 624 84 278 246 472c0 0 162.99197 151.5116 241.125 202.875l.98591.6027C614.2323 1263.2357 780.625 1111.125 780.625 1111.125c161.99997-194.00001 206.00003-308 246-472 40-164.00001 38-624 38-624H10z" style="fill:#0057d9;fill-opacity:1;fill-rule:evenodd;stroke:none;stroke-width:10;stroke-linecap:butt;stroke-linejoin:miter;stroke-miterlimit:4;stroke-dasharray:none;stroke-opacity:1"/>
    <path d="M92.630988 785.61681s77.074642-32.52691 152.027962 0 92.63098 43.84062 132.93607 31.1127c40.30509-12.72793 238.29499-26.87006 238.29499-26.87006l151.32085 94.75231 62.22539-33.94113 14.84925-47.37615s113.13708-35.35534 142.83557-32.52691c-1.41422 0-41.76956 101.23759-41.76956 101.23759s-43.08326-1.53554-72.07463 26.04163c-15.55635 0-153.44218 33.23401-153.44218 33.23401s-70.00357-36.76955-79.90306-48.79036c-9.8995-12.02082-75.66043-13.43503-75.66043-13.43503s-72.832 4.24264-112.42998 24.74874c-39.59798 20.50609-132.93607 22.62741-132.93607 22.62741l-63.63961-10.6066s-31.81981-36.76955-63.63961-36.76955c-31.81981 0-46.66905 2.82843-61.51829 7.77817.7071-.7071-38.183768-91.92388-37.476662-91.21677z" style="fill:white;fill-opacity:1;fill-rule:evenodd;stroke:black;stroke-width:5;stroke-linecap:butt;stroke-linejoin:miter;stroke-miterlimit:4;stroke-dasharray:none;stroke-opacity:1;display:inline"/>
    <path d="M189.76198 973.41432s39.34062 1 81.76703 22.2132c42.4264 21.21318 86.97413 49.49748 137.17871 24.04168 50.20458-25.45589 90.50967-58.68991 152.73506-59.39702 62.2254-.7071 128.69344 71.41782 183.84777 70.00362 55.15433-1.4143 84.85281-41.01224 128.69343-40.30513-2.82842.7071-44.54773 60.81123-44.54773 60.81123l-45.96193 57.2756s-9.1924 14.1422-36.06245 16.2635c-19.03266 1.5026-57.27565-7.7782-96.87363-24.7488-39.59798-16.9705-94.91977-39.3725-146.37111-21.2132-48.08325 16.9706-56.5756 32.4139-84.1457 45.2548-51.6188 24.0416-121.62237-10.6066-125.86501-12.7279-4.24264-2.1213-103.68734-136.76447-104.39444-137.47158z" style="fill:white;fill-opacity:1;fill-rule:evenodd;stroke:black;stroke-width:5;stroke-linecap:butt;stroke-linejoin:miter;stroke-miterlimit:4;stroke-dasharray:none;stroke-opacity:1;display:inline"/>
    <path d="M10 15.125s-2 460 38 624 84 278 246 472c0 0 162.99197 151.5116 241.125 202.875l.98591.6027C614.2323 1263.2357 780.625 1111.125 780.625 1111.125c161.99997-194.00001 206.00003-308 246-472 40-164.00001 38-624 38-624H10z" style="fill:none;fill-opacity:1;fill-rule:evenodd;stroke:black;stroke-width:10;stroke-linecap:butt;stroke-linejoin:miter;stroke-miterlimit:4;stroke-dasharray:none;stroke-opacity:1;display:inline"/>
  </g>
  <g style="opacity:1">
    <path d="m296.98485 207.55701-.70711 21.92031 24.39519-2.12132-1.76777-19.44543-21.92031-.35356z" style="fill:#c3c3c3;fill-rule:evenodd;stroke:black;stroke-width:3;stroke-linecap:butt;stroke-linejoin:miter;stroke-opacity:1;stroke-miterlimit:4;stroke-dasharray:none;fill-opacity:1"/>
    <path d="m320.31937 226.6489 19.09189.7071 5.3033-16.26345-8.48529-3.53554-17.32411.35356 1.41421 18.73833z" style="fill:#c5c5c5;fill-rule:evenodd;stroke:black;stroke-width:3;stroke-linecap:butt;stroke-linejoin:miter;stroke-opacity:1;stroke-miterlimit:4;stroke-dasharray:none;fill-opacity:1"/>
    <path d="M350.37141 227.356s-2.82843-11.31371-27.57716-4.94974c-24.74874 6.36396-37.47666 2.82842-43.84062-1.76777-6.36397-4.5962-19.79899-13.78858-19.79899-13.78858s4.24264 25.10229 20.85965 30.40559 30.75914-2.82843 38.53732-2.82843c7.77817 0 16.617 3.88909 16.617 3.88909l15.2028-10.96016z" style="fill:#8b0000;fill-rule:evenodd;stroke:black;stroke-width:3;stroke-linecap:butt;stroke-linejoin:miter;stroke-opacity:1;stroke-miterlimit:4;stroke-dasharray:none;fill-opacity:1"/>
  </g>
  <g style="opacity:1;display:inline">
    <path d="M255.71429 522.28214S230 497.99642 242.85714 446.56785c12.85715-51.42857 15.71429-65.71428 15.71429-65.71428s-4.28572-38.57143-25.71429-58.57143c-21.42857-20-39.28571-34.28572-39.28571-34.28572s-15.71429-6.42857-34.28572-.71428c-18.57142 5.71428-11.42857-22.85714-11.42857-22.85714L130 262.28214l-21.42857 17.85714-55.000001-36.42857 45-15.71429s18.571431-5.71428 37.857141-2.14285c19.28572 3.57143 46.42857 9.28571 46.42857 9.28571s27.85715 38.57143 39.28572 45.71429c11.42857 7.14285 25 12.85714 25 12.85714S265 300.13928 275 316.56785s17.85714 25 17.85714 25l-2.14285 25.71429s10 7.85714 14.28571 39.28571 7.14286 27.85715 7.14286 27.85715 16.42857-38.57143 54.28571-62.14286c1.42857-2.14286 52.14286-64.28572 52.14286-64.28572s24.28571-12.85714 30.71428-22.85714c6.42858-10 11.42858-25 11.42858-25s-35-15-75-20.71428c-5.71429-2.14286-18.57143 1.42857-30 7.14285-11.42858 5.71429-19.28572 11.42857-19.28572 11.42857s-7.85714 8.57143-22.85714-2.14285c-15-10.71429-11.42857-12.14286-11.42857-12.14286l21.42857-1.42857s10-1.42857 19.28571-7.85714c9.28572-6.42858 7.14286-14.28572 3.57143-20.71429-3.57143-6.42857-13.78571-2.42857-23.78571-1.71429-10 .71429-24.57143 3.35715-33.85715-4.5-9.28571-7.85714.5-20.92857.5-20.92857S296.42857 175.85357 300 167.99642c3.57143-7.85714 7.14286-11.42857 15-11.42857s32.14286.71429 42.85714-3.57143c10.71429-4.28571 37.09979-18.18198 37.09979-18.18198s-17.81407-13.24659-19.24264-25.38944C374.28571 97.282138 375 98.71071 375 98.71071s7.14286 11.42857 14.28571 12.85714c7.14286 1.42857 19.28572-2.14285 22.14286-3.57143 2.85714-1.42857-10-34.285711-5-37.142853 5-2.857143 25.71429 25.714285 25.71429 25.714285L450 92.282138s-4.28571-27.857143-1.42857-34.285714c2.85714-6.428572 20 11.428571 25.71428 17.142857C480 80.853567 493.57143 102.99642 493.57143 102.99642s13.57143-19.999996 42.14286 2.14286c10 5 33.57142 5 33.57142 5s8.57143 2.85714 10-9.28571c1.42858-12.142861 3.03572 22.14285 3.03572 22.14285s-.89286 15.71429-13.03571 20C557.14286 147.28214 540 148.35357 535 147.28214c-5-1.07143 13.57143 10.71428 13.57143 10.71428s13.57143-11.07143 35.71429-7.14285C606.42857 154.78214 630 199.42499 630 199.42499S731.78572 87.282137 734.64286 61.924995c-.35714-1.428572 17.5 32.142857 16.07143 48.928575-1.42857 16.78571-5.35715 22.14285-5.35715 22.14285l-18.57142-2.14285 17.5 11.42857s-18.21429 38.92857-30 49.28571c-.71429.35714-15.35715-12.14286-15.35715-12.14286l-5 3.57143 13.21429 15.71429-60.35714 64.28571S772.85714 164.425 785 121.56785c0 1.42857 14.28572 32.14286 12.85714 42.85715-1.42857 10.71428-15.71428 35-15.71428 35s157.5-106.78572 172.5-148.571434c.71428.357143 14.64286 36.785714 5.71428 61.785714-8.92857 25-33.57142 67.85714-73.57142 94.64286-40 26.78571-90.71429 57.85714-90.71429 57.85714s167.5-48.21429 189.28571-78.21429c-1.42857 2.14286 14.64286 19.28572-25.71428 83.92858-3.21429 4.64285-54.64286 31.07142-88.57143 38.57142-33.92857 7.5-80.71429 15.71429-80.71429 15.71429l-.71428 5.35714s156.42857-5 172.14286-12.85714c0 1.07143-16.42858 38.21429-25.35715 47.85714-8.92857 9.64286-27.14285 30.35715-66.78571 33.57143-12.5 1.07143-63.57143 2.85715-89.28572-7.85714-1.42857.71429-6.78571 10-6.78571 10s99.28571 36.42857 144.28571 29.64286c0-.71429-37.14285 65-129.28571 66.42857-2.85714.71428-25.35714-24.64286-25.35714-24.64286l3.57143 26.78572-28.57143-.71429s62.5 50.71429 28.21428 97.14286c-15.71428 12.85714-62.85714-5.71429-62.85714-5.71429s10 62.85714-29.28572 69.28572c-39.28571 6.42857-55-43.57143-55-43.57143S617.85714 642.99642 610 651.56785c0 .71429 97.14286 72.14286 109.28572 128.57143.71428 5 19.28571 79.28572 42.14285 85.71429 9.28572 0 32.85715 8.57143 45-24.28572 3.57143-19.28571 7.85715-50-22.85714-51.42857-29.28571-1.42857-22.85714 30.71429-22.85714 30.71429S735 801.56785 754.28572 767.28214c12.14285-10 40.71428-20 48.57142 10 0 1.42857-4.33155-21.11128-30.34298-35.50595-8.33376-10.10153-7.32361-76.51906 20.70813-106.06602 28.03173-29.54696 75.00382-35.35534 90.66119-37.37564 15.65736-2.02031 46.46701-7.07107 61.6193-30.30458 7.57615-12.12183-1.01015-36.87057-1.01015-36.87057s26.26397 24.74874 23.73859 45.45687c-2.52539 20.70812-21.15737 56.01778-41.8655 58.03808-3.03045 8.08122 31.25889 24.28935 25.19798 77.82743-6.06092 53.53809-41.41626 104.55079-52.02286 133.34014-10.6066 28.78935-20.70813 72.73098-2.52538 80.8122 18.18275 8.08122-10.6066 11.11168-14.64721 9.59645-4.04061-1.51523-23.23351-16.16244-23.23351-16.16244s-24.24366 28.28427-39.90103 35.35534c-15.65736 7.07107-55.55838 11.36422-71.34202-11.61675.37881 1.01015-4.41942 23.73858 9.21764 39.64848-.25253 2.14658-9.34391 6.18719-26.89531-7.44987s-40.78491-25.63262-31.69353-99.37376c-3.53554 1.01015-55.05332 54.04316-62.12439 71.72083-7.07106 17.67767 0 64.64972 12.62691 82.83252-.50508 8.5863 2.02031 9.0914-1.01015 11.6167-3.03046 2.5254-70.2056 55.0534-77.27667 68.1853-7.07107 13.132-10.6066 25.7589-11.11168 31.3148-.50508 5.5558-5.55584 15.1523-9.09137 16.6675-3.53554 1.5152-6.56599 7.5761-11.61676 5.5558-5.05076-2.0203-7.57614-8.5863-7.57614-8.5863s-12.12183 5.5559-13.63706 11.6168c-1.51523 6.0609-3.03046 19.1929-2.02031 24.7487 1.01016 5.5559 5.55584 15.6574 5.55584 15.6574s-35.86041 37.8807-61.11423 33.8401c-3.03045-1.0102-5.55583-50.5076-5.55583-50.5076s32.32488-41.4163 41.92133-67.1752c7.57614-7.5761 6.06091-12.1218 33.84011-21.7183 22.22335-18.1827 59.599-66.67 59.599-66.67s-42.93149-77.78177-42.93149-87.37822c0-9.59645-10.10152-21.2132-10.10152-21.2132l5.55584-65.65992s-75.25637-15.15228-88.89343-35.35534c1.01016 1.01016 2.52538 48.48733-4.04061 55.05332-.50507 8.08122-.50507 31.31473 3.53554 39.39595 4.04061 8.08122-5.55584 12.12183-5.55584 12.12183s-18.21187 7.8014-46.42615 3.15855c-28.21429-4.64286-75.35714-8.21429-75.35714-8.21429s-7.5 1.42857-22.5 10.71429c-15 9.28571-19.28572-4.64286-18.92858-7.14286.35715-2.5 5-7.85714 3.92858-11.07143-1.07143-3.21428-6.42858-2.85714-10.71429-1.07143-4.28571 1.78572-11.42857 5-12.85714 5-1.42857 0-5.35715 1.78572-7.85715 7.85715-2.5 6.07142-10.71428 17.14285-10.71428 17.14285s-46.42857 13.21429-64.64286-11.42857c-1.78571-3.57143 32.14286-37.85714 32.14286-37.85714l64.28571-19.64286s19.28572-2.85714 28.92857 1.78572c9.64286 4.64285 27.85715 17.85714 39.28572 18.92857 11.42857 1.07143 25.71428 1.42857 36.78571-2.14286 11.07143-3.57143 13.21429-5 13.21429-5s-15.71429-37.14286-16.78572-55.35714c-1.07142-18.21429-2.5-55-2.5-55s.35715-13.92857 9.64286-28.57143c9.28572-14.64286 6.78572-31.42857 6.78572-31.42857s.71428-12.85715 41.42857-11.42857c27.5 1.78571 42.85714 5.71428 42.85714 5.71428s-40-28.57143-56.42857-32.85714c-16.42857-4.28572-51.78572-11.78572-76.07143-37.14286-24.28571-25.35714-49.28571-56.07143-49.28571-56.07143s-5-11.78571-20-11.78571-25.35715-2.5-28.92858-3.57143c-3.57142-1.07143-20.35714 0-29.28571 3.57143s-25 13.92857-30.71429 32.14286c-5.71428 18.21428-8.21428 41.42857-6.42857 54.28571 1.78572 12.85714 5.71429 28.21429 5.71429 28.21429S187.5 702.99642 180 704.78214c-7.5 1.78571-7.5 9.64286-7.14286 13.21428.35715 3.57143 3.57143 2.5 7.14286 5.35715 3.57143 2.85714 8.21429 11.78571 8.21429 11.78571s9.28571-4.28571 13.57142.35714c4.28572 4.64286 12.5 11.07143 11.42858 19.64286-1.07143 8.57143-8.57143 32.14286-12.5 37.85714-3.92858 5.71429-9.64286 12.14286-9.64286 12.14286s-29.28572-20.35714-35-48.57143c-4.28572-14.64285-7.85714-30.35714-13.92857-38.57143-6.07143-8.21428-8.57143-17.5-5-30.71428 3.57143-13.21429 26.42857-65 27.14285-97.14286.71429-32.14286 8.57143-40.71428 8.57143-40.71428s16.42857-14.28572 25.71429-18.21429c9.28571-3.92857 18.92857-6.78571 21.78571 1.42857 1.07143-.35714 35.71429-10.71428 35.35715-10.35714z" style="fill:#ffea00;fill-opacity:1;fill-rule:evenodd;stroke:black;stroke-width:3;stroke-linecap:butt;stroke-linejoin:miter;stroke-miterlimit:4;stroke-dasharray:none;stroke-opacity:1"/>
    <path d="M549.42197 831.40197c.35355-1.06066 2.65165-16.79378-8.83883-20.15254-11.49049-3.35876-25.27907-6.71752-25.27907-6.71752s6.01041.35356 7.42462-2.47487c1.41421-2.82843 4.06586-14.67247 2.12132-25.27907s-14.14214-43.48706-27.57717-51.26524c-13.43502-7.77817-22.45064-9.01561-22.45064-9.01561" style="fill:none;fill-rule:evenodd;stroke:black;stroke-width:3;stroke-linecap:butt;stroke-linejoin:miter;stroke-miterlimit:4;stroke-dasharray:none;stroke-opacity:1;display:none"/>
  </g>
  <g style="display:inline">
    <path d="M367.34197 365.94893s-11.31371-11.31371-7.07106-19.44543c4.24264-8.13173 6.71751-9.54595 6.71751-9.54595s-3.53553-63.28605-9.19239-75.66042c-5.65685-12.37437 21.56676 60.81118 28.99138 67.88225 7.42462 7.07107 15.55635-9.54594 15.55635-9.54594s-3.88909-18.03122-1.41421-24.04163c2.47487-6.01041 12.72792-12.37437 14.84924-18.73833 2.12132-6.36396 4.24264-18.03123-.70711-20.15255-1.06066-.7071 9.54594.70711 10.96016 13.43503 1.41421 12.72793-3.53554 23.68808-2.47488 30.75915 1.06066 7.07107 7.77818 14.84924 7.77818 23.33452 0 8.48528-1.06066 10.25305-1.06066 10.25305s9.89949-.70711 12.37437-.35355c0-.70711 45.25483-67.88225 45.25483-67.88225s-9.19239 66.46803-7.07107 78.48885c2.47488 7.07107 4.5962 9.89949 5.3033 10.25305.70711.35355 8.48528 2.12132 13.78858-6.71752 5.30331-8.83883 4.5962-20.50609 4.5962-20.50609s1.41421-7.77818 9.89949-13.08148c8.48529-5.3033 12.37437-2.12132 16.97057-5.3033 4.59619-3.18198 10.96015-8.13173 8.83883-14.49569-2.12132-6.36396 4.24264.35355 3.88909 10.96016-.35355 10.6066-7.42462 20.85965-9.8995 23.68807-2.47487 2.82843-11.3137-2.12132-10.6066 12.37437.70711 14.49569-.50609 25.55638-3.62392 30.05204-1.62291 2.34012-20.34055 14.96182-29.96365 22.98097 0 0-27.57716-15.55635-53.03301-21.92031-25.45584-6.36396-69.65002-7.42462-69.65002-7.07107z" style="fill:#b00000;fill-opacity:1;fill-rule:evenodd;stroke:black;stroke-width:3;stroke-linecap:butt;stroke-linejoin:miter;stroke-miterlimit:4;stroke-dasharray:none;stroke-opacity:1"/>
  </g>
  <g style="display:inline">
    <path d="m92.807765 258.99903 12.197595 12.02082s14.84924-13.25826 20.32932-14.14214c5.48007-.88388 1.23743-3.18198-1.76777-3.53553-3.0052-.35356-10.78338-8.83884-10.78338-8.83884s-5.65685-3.88909-6.54074-.35355c-.88388 3.53553 9.36917 6.54074 7.6014 9.72272-1.76776 3.18198-5.12652 6.71751-7.77817 6.89429-2.65165.17677-6.363964-4.24264-8.131731-4.94975-1.767767-.70711-4.77297-.35355-4.949747 1.06066-.176777 1.41421-.176777 2.12132-.176777 2.12132z" style="fill:black;fill-opacity:1;fill-rule:evenodd;stroke:none;stroke-width:1px;stroke-linecap:butt;stroke-linejoin:miter;stroke-opacity:1"/>
    <path d="M542.70446 935.16989s7.42462 4.5962 8.83883-6.01041" style="fill:none;fill-rule:evenodd;stroke:black;stroke-width:3;stroke-linecap:butt;stroke-linejoin:miter;stroke-miterlimit:4;stroke-dasharray:none;stroke-opacity:1"/>
    <path d="M605.99051 929.15948s54.44722-3.88908 80.25662-88.7419" style="fill:none;fill-rule:evenodd;stroke:black;stroke-width:3;stroke-linecap:butt;stroke-linejoin:miter;stroke-miterlimit:4;stroke-dasharray:none;stroke-opacity:1"/>
    <path d="M617.30422 988.55645s-13.43503-23.68807 3.88909-54.09366" style="fill:none;fill-rule:evenodd;stroke:black;stroke-width:3;stroke-linecap:butt;stroke-linejoin:miter;stroke-miterlimit:4;stroke-dasharray:none;stroke-opacity:1"/>
    <path d="M626.14306 999.51661s0 8.48529 5.3033 14.49569c5.3033 6.0104 6.71751 12.3744 4.94974 16.617-1.76776 4.2426-4.24264 8.8388-4.24264 8.8388" style="fill:none;fill-rule:evenodd;stroke:black;stroke-width:3;stroke-linecap:butt;stroke-linejoin:miter;stroke-miterlimit:4;stroke-dasharray:none;stroke-opacity:1"/>
    <path d="M556.13948 1112.3001s-3.53553 12.3744-3.88908 17.3242c-.35356 4.9497-.70711 9.5459-3.53554 12.0208-2.82842 2.4748-8.13173 2.1213-11.31371-5.6569" style="fill:none;fill-rule:evenodd;stroke:black;stroke-width:3;stroke-linecap:butt;stroke-linejoin:miter;stroke-miterlimit:4;stroke-dasharray:none;stroke-opacity:1"/>
    <path d="M527.85521 1143.4128s-18.73833 2.8285-24.04163 35.0018" style="fill:none;fill-rule:evenodd;stroke:black;stroke-width:3;stroke-linecap:butt;stroke-linejoin:miter;stroke-miterlimit:4;stroke-dasharray:none;stroke-opacity:1"/>
    <path d="M475.88286 1191.8497s18.03123-2.8285 25.45585-10.6066c7.42462-7.7782 2.82843 6.3639 5.3033 14.4956 2.47487 8.1318-3.53553 15.9099-3.53553 15.9099l-20.5061 12.0209s-7.07107-2.8285-.70711-5.6569c6.36396-2.8284 16.26346-9.1924 16.26346-9.1924s3.88909-3.182 1.76776-10.9601c-2.12132-7.7782-1.76776-8.8389-1.76776-8.8389l-10.25305 4.9498s-5.65685 2.8284-11.31371 2.8284c-5.65685 0-.70711-4.9497-.70711-4.9497z" style="fill:black;fill-opacity:1;fill-rule:evenodd;stroke:none;stroke-width:1px;stroke-linecap:butt;stroke-linejoin:miter;stroke-opacity:1"/>
    <path d="M451.13413 255.99383s32.88046-1.76777 43.48706-16.97057c10.60661-15.20279 10.0729-22.38016 9.54595-27.66555-.91772-9.29333-10.25305-16.52862-10.25305-16.52862s-1.41422-6.36396 5.3033-1.41421c6.71751 4.94974 11.66726 14.84924 11.66726 22.27386 0 7.42462-3.18198 25.8094-15.2028 36.416-12.02081 10.6066-32.52691 15.9099-34.64823 14.84924-2.12132-1.06066-.35355-6.71751-.35355-6.71751l-9.54594-4.24264z" style="fill:black;fill-opacity:1;fill-rule:evenodd;stroke:none;stroke-width:1px;stroke-linecap:butt;stroke-linejoin:miter;stroke-opacity:1;display:inline"/>
    <path d="M372.29172 227.00245s36.06245-2.82843 50.55814 8.48528c0 0-10.25305-18.38478-13.78859-28.63782" style="fill:none;fill-rule:evenodd;stroke:black;stroke-width:3;stroke-linecap:butt;stroke-linejoin:miter;stroke-miterlimit:4;stroke-dasharray:none;stroke-opacity:1;display:inline"/>
    <path d="M364.15999 185.28315s8.83884-6.71751 33.58757-6.36396" style="fill:none;fill-rule:evenodd;stroke:black;stroke-width:3;stroke-linecap:butt;stroke-linejoin:miter;stroke-miterlimit:4;stroke-dasharray:none;stroke-opacity:1"/>
    <path d="M393.50492 133.3108s24.39519 1.41422 29.34494-1.41421c9.70725-5.547 32.88046-25.10229 32.88046-25.10229" style="fill:none;fill-rule:evenodd;stroke:black;stroke-width:3;stroke-linecap:butt;stroke-linejoin:miter;stroke-miterlimit:4;stroke-dasharray:none;stroke-opacity:1"/>
    <path d="M473.76154 136.13923s-14.58407-4.77297-24.13002-46.492273" style="fill:none;fill-rule:evenodd;stroke:black;stroke-width:3;stroke-linecap:butt;stroke-linejoin:miter;stroke-miterlimit:4;stroke-dasharray:none;stroke-opacity:1"/>
    <path d="M411.43259 108.0443s13.41911-6.5625 21.67031-11.711998" style="fill:none;fill-rule:evenodd;stroke:black;stroke-width:3;stroke-linecap:butt;stroke-linejoin:miter;stroke-miterlimit:4;stroke-dasharray:none;stroke-opacity:1"/>
    <path d="m320.67293 172.20167 6.18718 4.41942s4.41942 6.01041.17678 10.96016c-4.24264 4.94974-4.77297 9.01561-12.9047 8.13172-8.13173-.88388-4.77297-7.42462-3.18198-9.19238 1.59099-1.76777 7.95495-1.76777 7.95495-1.76777s6.01041-.88388 3.18198-3.53554c-2.82843-2.65165-8.13173-3.35875-9.72272-4.94974-1.59099-1.59099-1.94454-6.71752-.53033-7.6014 1.41421-.88388 4.5962.35355 6.18719 1.41421 1.59099 1.06066 3.0052 2.2981 2.65165 2.12132z" style="fill:black;fill-opacity:1;fill-rule:evenodd;stroke:none;stroke-width:1px;stroke-linecap:butt;stroke-linejoin:miter;stroke-opacity:1"/>
    <path d="M327.74399 156.64532s6.54074 12.9047 14.14214 16.08668" style="fill:none;fill-rule:evenodd;stroke:black;stroke-width:3;stroke-linecap:butt;stroke-linejoin:miter;stroke-miterlimit:4;stroke-dasharray:none;stroke-opacity:1"/>
    <path d="M404.46508 182.10117s.35355 2.82843 7.77817 2.65165c7.42463-.17678 38.36055-3.35876 38.36055-3.35876s-25.27907-13.08147-30.58237-18.73833" style="fill:none;fill-rule:evenodd;stroke:black;stroke-width:3;stroke-linecap:butt;stroke-linejoin:miter;stroke-miterlimit:4;stroke-dasharray:none;stroke-opacity:1"/>
    <path d="M421.43564 164.77705s5.3033 6.18719 3.53554 11.13693c-1.76777 4.94975-2.2981 8.66206-8.83884 7.24785-6.54074-1.41422-5.83363-11.13693-2.82843-15.02602 3.00521-3.88909 7.95496-3.18198 8.13173-3.35876z" style="fill:none;fill-rule:evenodd;stroke:black;stroke-width:3;stroke-linecap:butt;stroke-linejoin:miter;stroke-miterlimit:4;stroke-dasharray:none;stroke-opacity:1"/>
    <path d="M424.26407 163.89317s-2.47487-5.3033-2.65165-9.36917c-.17678-4.06586-6.36396-4.06586-8.48528-4.06586s-9.72272 2.12132-12.72792.70711c-3.00521-1.41422-2.65165-4.41942-1.76777-6.18719.88388-1.76776 2.47487-4.59619 2.47487-4.59619s-7.07107.7071-8.13173 5.48008c-1.06066 4.77297 1.23744 8.83883 4.41942 10.07627 3.18198 1.23743 8.83884 1.94454 8.83884 1.94454s-3.35876 3.71231-4.41942 7.42462c-1.06066 3.71231-.53033 7.95495-.53033 7.95495s3.88909-9.54594 6.71751-12.19759c2.82843-2.65165 7.07107-3.53553 7.6014-2.12132.53033 1.41421.35355 6.54074.35355 6.54074l8.30851-1.59099z" style="fill:black;fill-opacity:1;fill-rule:evenodd;stroke:none;stroke-width:1px;stroke-linecap:butt;stroke-linejoin:miter;stroke-opacity:1"/>
    <path d="M927 635.13928s-36.5-15-64.5-9.5-54.5 38-54.5 38" style="fill:none;fill-rule:evenodd;stroke:black;stroke-width:3;stroke-linecap:butt;stroke-linejoin:miter;stroke-miterlimit:4;stroke-dasharray:none;stroke-opacity:1"/>
    <path d="M851.71012 767.23203s29.69848-12.72792 31.46625-33.23402c1.76777-20.50609-1.06066-32.17336-8.48528-39.95153-7.42462-7.77818-13.43503-9.54594-19.09188-8.48528-5.65686 1.06066-18.38478 6.71751-24.39519 23.33452s.35356 37.47666 5.65686 45.96194c5.3033 8.48528 15.20279 12.72793 14.84924 12.37437z" style="fill:#0057d9;fill-opacity:1;fill-rule:evenodd;stroke:black;stroke-width:3;stroke-linecap:butt;stroke-linejoin:miter;stroke-miterlimit:4;stroke-dasharray:none;stroke-opacity:1"/>
    <path d="M866.91291 686.2683s-13.78858-10.96015-26.16295-10.96015c-12.37436 0-24.71681 8.72039-30.05203 21.92031-2.26971 5.61552-4.24264 21.92031-3.88909 24.74874.35355 2.82842 7.8033-21.71321 17.67767-26.87006 12.06042-6.29851 16.97056-1.41421 16.97056-1.41421l25.45584-7.42463z" style="fill:black;fill-opacity:1;fill-rule:evenodd;stroke:none;stroke-width:1px;stroke-linecap:butt;stroke-linejoin:miter;stroke-opacity:1"/>
    <path d="M858.42763 919.61354s-18.03122-7.77817-17.67767-60.45763c6.01041-36.76955 43.84062-64.34671 43.84062-64.34671s-24.95279 12.84188-42.77996 3.18198c-27.99213-15.16792-21.92031-43.48707-21.92031-43.48707s8.83884 13.78858 18.73833 13.78858c9.8995 0 12.59404-1.0026 12.59404-1.0026" style="fill:none;fill-rule:evenodd;stroke:black;stroke-width:3;stroke-linecap:butt;stroke-linejoin:miter;stroke-miterlimit:4;stroke-dasharray:none;stroke-opacity:1"/>
    <path d="M747.76542 943.65517s-7.77817-9.19238-14.14213-26.5165" style="fill:none;fill-rule:evenodd;stroke:black;stroke-width:3;stroke-linecap:butt;stroke-linejoin:miter;stroke-miterlimit:4;stroke-dasharray:none;stroke-opacity:1;display:inline"/>
    <path d="M840.74996 938.70543c-6.36396-.70711-37.47666 2.47487-54.80077-10.60661-17.32412-13.08147-19.44544-28.63782-19.44544-28.63782" style="fill:none;fill-rule:evenodd;stroke:black;stroke-width:3;stroke-linecap:butt;stroke-linejoin:miter;stroke-miterlimit:4;stroke-dasharray:none;stroke-opacity:1;display:inline"/>
    <path d="M842.16417 881.42978s-8.83883 9.19238-19.09188 9.54594c-10.25304.35355-16.617-9.19239-16.617-9.19239" style="fill:none;fill-rule:evenodd;stroke:black;stroke-width:3;stroke-linecap:butt;stroke-linejoin:miter;stroke-miterlimit:4;stroke-dasharray:none;stroke-opacity:1;display:inline"/>
    <path d="M681 892.63928s19.53815-33.30864 23-41.85355c7.65685-18.8995 6.37868-44.65686 5.5-52.64645-1.56521-14.23201-3.25-21.875 1.125-13.625s5.54289 48.31066 2.75 58.125c-3.12691 10.98809-15.625 49.875-15.625 49.875l1-16-17.75 16.125z" style="fill:black;fill-opacity:1;fill-rule:evenodd;stroke:none;stroke-width:1px;stroke-linecap:butt;stroke-linejoin:miter;stroke-opacity:1;display:inline"/>
    <path d="M542.52768 861.27723s9.01561-31.64303 9.01561-42.95673c0-11.31371 1.76777-22.45064-1.23744-29.34494-3.0052-6.89429-9.54594-15.20279-9.54594-15.20279" style="fill:none;fill-rule:evenodd;stroke:black;stroke-width:3;stroke-linecap:butt;stroke-linejoin:miter;stroke-miterlimit:4;stroke-dasharray:none;stroke-opacity:1;display:inline"/>
    <path d="M550.12908 828.75032s-3.94122-14.1239-13.43503-18.73833c-7.85359-3.81721-22.62742-4.59619-22.62742-4.59619s9.94856.74853 11.31371-14.4957c2.12132-23.68807-11.30674-48.79036-23.33453-57.98275-13.01304-9.94538-27.57716-16.97056-27.57716-16.97056" style="fill:none;fill-rule:evenodd;stroke:black;stroke-width:3;stroke-linecap:butt;stroke-linejoin:miter;stroke-miterlimit:4;stroke-dasharray:none;stroke-opacity:1"/>
    <path d="M443.70951 923.14908s-6.36397-8.48528-7.77818-34.29468" style="fill:none;fill-rule:evenodd;stroke:black;stroke-width:3;stroke-linecap:butt;stroke-linejoin:miter;stroke-miterlimit:4;stroke-dasharray:none;stroke-opacity:1;display:inline"/>
    <path d="M441.23463 859.86302s-9.54594-12.37437-6.01041-34.64823" style="fill:none;fill-rule:evenodd;stroke:black;stroke-width:3;stroke-linecap:butt;stroke-linejoin:miter;stroke-miterlimit:4;stroke-dasharray:none;stroke-opacity:1;display:inline"/>
    <path d="M207.25 933.38928s20.25 8.375 24 8.125 17-18.625 17-18.625.94388-.41582 2-2c.75-1.125-.375-2.5-2-2.75-2.81729-.43343-5 0-6.25-.75s-10.25-5.75-10.25-5.75-6.75 2.75-1.5 5.25 12 5 9.5 8-6.75 12.25-12.75 11.25-15.5-6.25-15.5-6.25-6.5-2-4.25 3.5z" style="fill:black;fill-opacity:1;fill-rule:evenodd;stroke:none;stroke-width:1px;stroke-linecap:butt;stroke-linejoin:miter;stroke-opacity:1;display:inline"/>
    <path d="M293.5 902.63928s-8.5 1-15.5 4-11.5 6.5-21.5 5" style="fill:none;fill-rule:evenodd;stroke:black;stroke-width:3;stroke-linecap:butt;stroke-linejoin:miter;stroke-miterlimit:4;stroke-dasharray:none;stroke-opacity:1;display:inline"/>
    <path d="M405 922.13928s-31 2.5-46-3-30-9-35.5-5-11.5 12-14.5 14-9 8.5-11 4-.5-12.5-.5-12.5" style="fill:none;fill-rule:evenodd;stroke:black;stroke-width:3;stroke-linecap:butt;stroke-linejoin:miter;stroke-miterlimit:4;stroke-dasharray:none;stroke-opacity:1;display:inline"/>
    <path d="M166.8772 697.93557s7.77818.7071 8.48528-7.42462" style="fill:none;fill-rule:evenodd;stroke:black;stroke-width:3;stroke-linecap:butt;stroke-linejoin:miter;stroke-miterlimit:4;stroke-dasharray:none;stroke-opacity:1;display:inline"/>
    <path d="M200.81833 747.78659s7.77817 3.18199 3.53553 15.55635c-4.24264 12.37437-11.31371 21.92031-11.31371 21.92031s-2.47487-4.59619-.35355-8.48528c2.12132-3.88908 8.48528-15.20279 6.01041-19.09188-2.47488-3.88909-6.71752-6.36396-8.13173-5.65685-1.41422.7071-3.53554 7.42462-5.3033 5.65685-1.76777-1.76777 3.53553-11.66726 3.53553-13.78858 0-2.12132 2.47487-2.47488 5.65686-.35356 3.18198 2.12132 7.07106 5.3033 6.36396 4.24264z" style="fill:black;fill-opacity:1;fill-rule:evenodd;stroke:none;stroke-width:1px;stroke-linecap:butt;stroke-linejoin:miter;stroke-opacity:1;display:inline"/>
    <path d="M190.21172 581.26295s10.60661-1.06066 13.78859-5.3033c3.18198-4.24264 6.71751-10.25305 12.72792-12.37437 6.01041-2.12132 23.68808-4.24264 31.1127-1.06066 7.42462 3.18198 13.43503 6.01041 24.74873 6.36396 11.31371.35355 31.46626-3.53554 31.46626-3.53554s-3.18198 1.06067 9.19238 3.53554c12.37437 2.47487 30.4056 4.94975 30.4056 4.94975" style="fill:none;fill-rule:evenodd;stroke:black;stroke-width:3;stroke-linecap:butt;stroke-linejoin:miter;stroke-miterlimit:4;stroke-dasharray:none;stroke-opacity:1"/>
    <path d="m255.97265 522.57308 62.93251-24.74873s9.89949-51.6188 46.66905-68.58936" style="fill:none;fill-rule:evenodd;stroke:black;stroke-width:3;stroke-linecap:butt;stroke-linejoin:miter;stroke-miterlimit:4;stroke-dasharray:none;stroke-opacity:1"/>
    <path d="M270.8219 385.39437s.7071-9.8995 2.82842-14.84924" style="fill:none;fill-rule:evenodd;stroke:black;stroke-width:3;stroke-linecap:butt;stroke-linejoin:miter;stroke-miterlimit:4;stroke-dasharray:none;stroke-opacity:1"/>
    <path d="M272.94322 363.47406s-13.43503-9.19239-16.97057-19.09188c-3.53553-9.8995-7.07106-13.43503-7.07106-13.43503" style="fill:none;fill-rule:evenodd;stroke:black;stroke-width:3;stroke-linecap:butt;stroke-linejoin:miter;stroke-miterlimit:4;stroke-dasharray:none;stroke-opacity:1"/>
    <path d="M312.5412 433.47763s-3.53554-1.41421-12.72792 38.89087" style="fill:none;fill-rule:evenodd;stroke:black;stroke-width:3;stroke-linecap:butt;stroke-linejoin:miter;stroke-miterlimit:4;stroke-dasharray:none;stroke-opacity:1"/>
    <path d="M270.11479 516.20912s-4.94975-71.41778 36.76955-70.71067" style="fill:none;fill-rule:evenodd;stroke:black;stroke-width:3;stroke-linecap:butt;stroke-linejoin:miter;stroke-miterlimit:4;stroke-dasharray:none;stroke-opacity:1"/>
    <path d="M188.79751 277.20703s-12.02081 2.12132-16.97056-2.12132c-4.94975-4.24264-9.19239-1.41421-14.14214 1.41421" style="fill:none;fill-rule:evenodd;stroke:black;stroke-width:3;stroke-linecap:butt;stroke-linejoin:miter;stroke-miterlimit:4;stroke-dasharray:none;stroke-opacity:1"/>
    <path d="M489.75 98.13928s8 6.5 4 33.5c0 3.25 39 31.25 52.25 69s15.25 42.75 14.75 66.75-2.25 37-10.5 54.25" style="fill:none;fill-rule:evenodd;stroke:black;stroke-width:3;stroke-linecap:butt;stroke-linejoin:miter;stroke-miterlimit:4;stroke-dasharray:none;stroke-opacity:1;display:inline"/>
    <path d="M364.75 339.88928c17.71875 4.78125 47.25.25 88.25 12.75s56.5 26.5 56.5 26.5" style="fill:none;fill-rule:evenodd;stroke:black;stroke-width:8;stroke-linecap:butt;stroke-linejoin:miter;stroke-miterlimit:4;stroke-dasharray:none;stroke-opacity:1"/>
    <path d="M578.5 238.13928s-10.5 23 8 35 22.5 11 28.5 20.5 5 10.5 5 10.5" style="fill:none;fill-rule:evenodd;stroke:black;stroke-width:3;stroke-linecap:butt;stroke-linejoin:miter;stroke-miterlimit:4;stroke-dasharray:none;stroke-opacity:1;display:inline"/>
    <path d="M559.5 184.63928s10.5 10 22.5 8.5 18.5-4 28 3.5" style="fill:none;fill-rule:evenodd;stroke:black;stroke-width:3;stroke-linecap:butt;stroke-linejoin:miter;stroke-miterlimit:4;stroke-dasharray:none;stroke-opacity:1;display:inline"/>
    <path d="M651.95245 427.82078s9.19239-20.5061 12.72792-33.23402c3.53554-12.72792-.7071-24.74874-2.82842-30.40559-2.12132-5.65686-3.53554-13.43503-1.41422-31.1127s25.45585-38.89088 36.76956-48.79037c11.31371-9.8995 42.4264-24.04163 64.34671-47.37615 21.92031-23.33453 7.77818-53.03301 7.77818-53.03301s-1.41422 16.97056-19.79899 32.52691c-18.38478 15.55635-72.12489 52.3259-72.12489 52.3259s-53.74012 32.52691-48.08326 89.09546c5.65685 56.56854 15.55634 79.19595-15.55635 98.99494-31.1127 19.79899-66.11448 16.61701-66.11448 16.61701s9.89948-21.92031 8.48528-28.28426c-1.95538-8.79924-10.25305-30.4056-13.08148-38.53733-2.82843-8.13173-1.76777-22.62741 3.88909-30.05204" style="fill:none;fill-rule:evenodd;stroke:black;stroke-width:3;stroke-linecap:butt;stroke-linejoin:miter;stroke-miterlimit:4;stroke-dasharray:none;stroke-opacity:1;display:inline"/>
    <path d="M771.09995 223.46692s13.78858 1.76777 15.55635 21.92031c1.76776 20.15254-.58062 36.84229-9.19239 49.85102-8.8824 13.41755-24.39519 28.28428-46.3155 32.88047-21.92031 4.59619-42.77996 5.65685-42.77996 5.65685" style="fill:none;fill-rule:evenodd;stroke:black;stroke-width:3;stroke-linecap:butt;stroke-linejoin:miter;stroke-miterlimit:4;stroke-dasharray:none;stroke-opacity:1"/>
    <path d="M770.92317 303.90031s5.7077 1.57366 12.55114 8.93351c5.48897 5.90317 4.44607 17.19911 3.73897 23.91663-.70711 6.71751-.20343 21.77386-14.69912 30.25914s-32.17336 12.02082-50.91169 10.25305c-18.73833-1.76777-26.5165-5.65685-26.5165-5.65685" style="fill:none;fill-rule:evenodd;stroke:black;stroke-width:3;stroke-linecap:butt;stroke-linejoin:miter;stroke-miterlimit:4;stroke-dasharray:none;stroke-opacity:1"/>
    <path d="M771.4535 368.42381s9.89949 7.07106 7.77817 18.38477-5.65685 21.92031-20.50609 29.69849c-14.84925 7.77817-54.44723 2.82842-69.29647-4.94975-14.84924-7.77817-18.38477-12.02082-18.38477-12.02082" style="fill:none;fill-rule:evenodd;stroke:black;stroke-width:3;stroke-linecap:butt;stroke-linejoin:miter;stroke-miterlimit:4;stroke-dasharray:none;stroke-opacity:1;display:inline"/>
    <path d="M733.62329 420.39615s2.19361 11.96919-9.19239 21.56676c-4.65089 3.92037-24.74874 18.38478-40.30509 3.53554-17.39441-16.60375-17.32411-21.21321-17.32411-21.21321" style="fill:none;fill-rule:evenodd;stroke:black;stroke-width:3;stroke-linecap:butt;stroke-linejoin:miter;stroke-miterlimit:4;stroke-dasharray:none;stroke-opacity:1"/>
    <path d="M710.64232 447.97332s4.94974 13.08147-8.13173 23.33452c-13.08148 10.25305-22.98097 12.72792-36.06245 10.25305-13.08147-2.47487-25.45584-19.44544-25.45584-19.44544" style="fill:none;fill-rule:evenodd;stroke:black;stroke-width:3;stroke-linecap:butt;stroke-linejoin:miter;stroke-miterlimit:4;stroke-dasharray:none;stroke-opacity:1"/>
    <path d="M683.06515 481.56089s3.53554 17.67767-10.6066 33.23402c-14.14214 15.55635-28.99138 16.97056-40.30509 10.6066-11.31371-6.36396-26.87005-31.1127-26.87005-31.1127" style="fill:none;fill-rule:evenodd;stroke:black;stroke-width:3;stroke-linecap:butt;stroke-linejoin:miter;stroke-miterlimit:4;stroke-dasharray:none;stroke-opacity:1"/>
    <path d="M639.22453 527.52283S636.3961 548.73604 616.59711 555.1c-19.79899 6.36396-33.94112-4.94975-43.84062-18.38478-9.89949-13.43503-11.31371-28.28427-11.31371-28.28427" style="fill:none;fill-rule:evenodd;stroke:black;stroke-width:3;stroke-linecap:butt;stroke-linejoin:miter;stroke-miterlimit:4;stroke-dasharray:none;stroke-opacity:1"/>
    <path d="M592.55548 552.97868s-13.53916 23.08184-36.76955 21.92031c-14.14213-.70711-31.81981-9.1924-34.64824-33.94113-2.82842-24.74874 9.8995-37.47665 9.8995-37.47665" style="fill:none;fill-rule:evenodd;stroke:black;stroke-width:3;stroke-linecap:butt;stroke-linejoin:miter;stroke-miterlimit:4;stroke-dasharray:none;stroke-opacity:1"/>
    <path d="M529.62298 560.04974s-11.31371 9.8995-24.04163 9.19239c-12.72792-.7071-33.23402-15.55635-33.94113-36.06244-.7071-20.5061 20.5061-36.06245 20.5061-36.06245s34.64823-21.2132 38.89087-24.74874c4.24264-3.53553 14.14214-12.02081 15.55635-28.99137" style="fill:none;fill-rule:evenodd;stroke:black;stroke-width:3;stroke-linecap:butt;stroke-linejoin:miter;stroke-miterlimit:4;stroke-dasharray:none;stroke-opacity:1"/>
    <path d="M486.48947 502.06699s-14.84925 14.14213-18.73834 27.22361c-3.88908 13.08147-10.25304 10.25305-10.25304 10.25305s-6.36396-1.41422-6.71752-33.23402c-.35355-31.81981 9.54595-41.7193 25.10229-56.21499 15.55635-14.49569 24.74874-22.98097 24.74874-22.98097s-7.77817 10.96015-24.04163 7.77817c-16.26345-3.18198-23.68808-14.84924-24.74874-23.68807-1.06066-8.83884 2.12132-20.85965 2.12132-20.85965s7.42463 10.25304 19.09189 8.48528c11.66726-1.76777 44.90128-21.21321 54.80077-29.34493 9.8995-8.13173 53.38656-46.66905 53.38656-46.66905s13.78859 1.41421 24.74874 39.95153" style="fill:none;fill-rule:evenodd;stroke:black;stroke-width:3;stroke-linecap:butt;stroke-linejoin:miter;stroke-miterlimit:4;stroke-dasharray:none;stroke-opacity:1"/>
    <path d="M535.98694 181.04051s6.36396 16.26346 44.54773 28.99138c38.18376 12.72792 52.75658 31.17526 56.56854 47.37615 2.82843 12.02082 2.47488 48.43682.35356 56.21499-2.12132 7.77818-16.61702 37.83021-21.56676 37.83021 0 0 9.60999-24.81396-.39001-36.81396s-29-15.5-32-18-9.5-8-9.5-8 26 27.5 33.5 44 12 49 6.5 58-22 35.5-22 35.5-5 20.5-12 25.5-15.5 16-15.5 16l-3.5 5" style="fill:none;fill-rule:evenodd;stroke:black;stroke-width:3;stroke-linecap:butt;stroke-linejoin:miter;stroke-miterlimit:4;stroke-dasharray:none;stroke-opacity:1"/>
    <path d="M565.5 346.63928s14 18 18.5 29 10 27 8.5 38.5-3.5 23.5-3.5 23.5" style="fill:none;fill-rule:evenodd;stroke:black;stroke-width:3;stroke-linecap:butt;stroke-linejoin:miter;stroke-miterlimit:4;stroke-dasharray:none;stroke-opacity:1"/>
    <path d="M452.54834 522.57308s-31.1127 14.84925-36.06245 33.94113c-4.94974 19.09188-12.72792 29.69849-2.82842 46.66905 9.89949 16.97056 28.99138 12.72792 43.13351 0" style="fill:none;fill-rule:evenodd;stroke:black;stroke-width:3;stroke-linecap:butt;stroke-linejoin:miter;stroke-miterlimit:4;stroke-dasharray:none;stroke-opacity:1"/>
    <path d="M487.90368 560.75685s-16.97056 9.19239-18.38478 49.49748c-1.41421 40.30508 15.55635 49.49747 24.04163 49.49747 8.48529 0 24.74874-9.19238 33.94113-21.2132 9.19239-12.02081 10.6066-15.55635 10.6066-15.55635" style="fill:none;fill-rule:evenodd;stroke:black;stroke-width:3;stroke-linecap:butt;stroke-linejoin:miter;stroke-miterlimit:4;stroke-dasharray:none;stroke-opacity:1"/>
    <path d="M548.00776 573.48477s-12.37437 14.49569-10.96016 37.83021c1.41421 23.33453 8.83884 37.12311 15.2028 44.90129 6.36396 7.77817 30.88557 20.67163 38.18376 14.84924 12.25796-9.77922 19.44544-19.35705 19.44544-19.35705" style="fill:none;fill-rule:evenodd;stroke:black;stroke-width:3;stroke-linecap:butt;stroke-linejoin:miter;stroke-miterlimit:4;stroke-dasharray:none;stroke-opacity:1;display:inline"/>
    <path d="M480.83261 132.95725s.35356-7.07107-2.82843-10.25305c-3.18198-3.18198-9.54594-10.25305-9.54594-10.25305l4.5962-3.18198s-8.83884-10.606601-10.6066-14.142135c-1.76777-3.535534-5.30331-18.031223-3.88909-20.152544 1.41421-2.12132 3.18198 2.121321 4.59619 6.010408 1.41422 3.889087 6.36396 16.970563 10.6066 20.506101 4.24264 3.53553 14.14214 11.3137 14.14214 11.3137s2.12132 14.84925.35355 16.97057c-1.76776 2.12132-6.71751 3.53553-7.42462 3.18198z" style="fill:black;fill-opacity:1;fill-rule:evenodd;stroke:none;stroke-width:1px;stroke-linecap:butt;stroke-linejoin:miter;stroke-opacity:1;display:inline"/>
    <path d="M539.87603 147.09938s-23.68808.70711-29.69849-9.89949" style="fill:none;fill-rule:evenodd;stroke:black;stroke-width:3;stroke-linecap:butt;stroke-linejoin:miter;stroke-miterlimit:4;stroke-dasharray:none;stroke-opacity:1;display:inline"/>
    <path d="M569.22096 205.43569s26.87006 7.42462 57.6292 2.82843c.70711 0 6.36396-4.94975 1.76777-12.02082" style="fill:none;fill-rule:evenodd;stroke:black;stroke-width:3;stroke-linecap:butt;stroke-linejoin:miter;stroke-miterlimit:4;stroke-dasharray:none;stroke-opacity:1"/>
    <path d="M709.75 144.38928s4.5-20 14.25-41.25" style="fill:none;fill-rule:evenodd;stroke:black;stroke-width:3;stroke-linecap:butt;stroke-linejoin:miter;stroke-miterlimit:4;stroke-dasharray:none;stroke-opacity:1;display:inline"/>
    <path d="M639.75 222.63928s81.75-85.5 88.75-102.75" style="fill:none;fill-rule:evenodd;stroke:black;stroke-width:3;stroke-linecap:butt;stroke-linejoin:miter;stroke-miterlimit:4;stroke-dasharray:none;stroke-opacity:1;display:inline"/>
    <path d="m660 200.13928 16-40.75" style="fill:none;fill-rule:evenodd;stroke:black;stroke-width:3;stroke-linecap:butt;stroke-linejoin:miter;stroke-miterlimit:4;stroke-dasharray:none;stroke-opacity:1;display:inline"/>
    <path d="m633.5 245.88928 4.75-19.25 5.5-6.5-13.5-15.75-5.25 3.25 10 11.5-4.5 24 3 2.75z" style="fill:black;fill-opacity:1;fill-rule:evenodd;stroke:none;stroke-width:1px;stroke-linecap:butt;stroke-linejoin:miter;stroke-opacity:1;display:inline"/>
    <path d="M508.05622 569.24213s-1.06066 49.49748-13.78858 67.5287" style="fill:none;fill-rule:evenodd;stroke:black;stroke-width:3;stroke-linecap:butt;stroke-linejoin:miter;stroke-miterlimit:4;stroke-dasharray:none;stroke-opacity:1"/>
    <path d="M508.05622 576.66675s-13.78858.70711-20.15254 13.78859" style="fill:none;fill-rule:evenodd;stroke:black;stroke-width:3;stroke-linecap:butt;stroke-linejoin:miter;stroke-miterlimit:4;stroke-dasharray:none;stroke-opacity:1"/>
    <path d="M514.06663 569.24213s9.19239 14.14214 9.19239 24.39519" style="fill:none;fill-rule:evenodd;stroke:black;stroke-width:3;stroke-linecap:butt;stroke-linejoin:miter;stroke-miterlimit:4;stroke-dasharray:none;stroke-opacity:1"/>
    <path d="M506.28846 592.93021s-12.72793 3.18198-19.09189 18.38478" style="fill:none;fill-rule:evenodd;stroke:black;stroke-width:3;stroke-linecap:butt;stroke-linejoin:miter;stroke-miterlimit:4;stroke-dasharray:none;stroke-opacity:1"/>
    <path d="M502.75292 611.66854s8.83884 10.96015 4.94975 22.62742" style="fill:none;fill-rule:evenodd;stroke:black;stroke-width:3;stroke-linecap:butt;stroke-linejoin:miter;stroke-miterlimit:4;stroke-dasharray:none;stroke-opacity:1"/>
    <path d="M425.5 580.63928s26-25.5 33-40.5" style="fill:none;fill-rule:evenodd;stroke:black;stroke-width:3;stroke-linecap:butt;stroke-linejoin:miter;stroke-miterlimit:4;stroke-dasharray:none;stroke-opacity:1"/>
    <path d="M461.5 540.13928s1.5 23 0 30.5" style="fill:none;fill-rule:evenodd;stroke:black;stroke-width:3;stroke-linecap:butt;stroke-linejoin:miter;stroke-miterlimit:4;stroke-dasharray:none;stroke-opacity:1"/>
    <path d="M441.5 562.63928s4.5 19 .5 26.5" style="fill:none;fill-rule:evenodd;stroke:black;stroke-width:3;stroke-linecap:butt;stroke-linejoin:miter;stroke-miterlimit:4;stroke-dasharray:none;stroke-opacity:1"/>
    <path d="M466 498.63928s23-21 38-24 32.5-28.5 37-42.5" style="fill:none;fill-rule:evenodd;stroke:black;stroke-width:3;stroke-linecap:butt;stroke-linejoin:miter;stroke-miterlimit:4;stroke-dasharray:none;stroke-opacity:1"/>
    <path d="M492 545.13928s11.5-29 23.5-39.5" style="fill:none;fill-rule:evenodd;stroke:black;stroke-width:3;stroke-linecap:butt;stroke-linejoin:miter;stroke-miterlimit:4;stroke-dasharray:none;stroke-opacity:1"/>
    <path d="M541.5 564.13928c1-16.5 11-17.5 11-17.5l.5-33s-10.5 8.5-11.5 13.5" style="fill:none;fill-rule:evenodd;stroke:black;stroke-width:3;stroke-linecap:butt;stroke-linejoin:miter;stroke-miterlimit:4;stroke-dasharray:none;stroke-opacity:1"/>
    <path d="m587.5 503.13928 22 50.5" style="fill:none;fill-rule:evenodd;stroke:black;stroke-width:3;stroke-linecap:butt;stroke-linejoin:miter;stroke-miterlimit:4;stroke-dasharray:none;stroke-opacity:1"/>
    <path d="M596 522.63928s-9 13.5-9.5 24" style="fill:none;fill-rule:evenodd;stroke:black;stroke-width:3;stroke-linecap:butt;stroke-linejoin:miter;stroke-miterlimit:4;stroke-dasharray:none;stroke-opacity:1"/>
    <path d="m574.5 570.13928-.5 75" style="fill:none;fill-rule:evenodd;stroke:black;stroke-width:3;stroke-linecap:butt;stroke-linejoin:miter;stroke-miterlimit:4;stroke-dasharray:none;stroke-opacity:1"/>
    <path d="M571 572.13928s-12 14.5-14.5 23" style="fill:none;fill-rule:evenodd;stroke:black;stroke-width:3;stroke-linecap:butt;stroke-linejoin:miter;stroke-miterlimit:4;stroke-dasharray:none;stroke-opacity:1"/>
    <path d="m584.5 562.63928 15.5 29" style="fill:none;fill-rule:evenodd;stroke:black;stroke-width:3;stroke-linecap:butt;stroke-linejoin:miter;stroke-miterlimit:4;stroke-dasharray:none;stroke-opacity:1"/>
    <path d="M574.5 582.13928s10.5 13 12 19 5.5 11.5 16 16" style="fill:none;fill-rule:evenodd;stroke:black;stroke-width:3;stroke-linecap:butt;stroke-linejoin:miter;stroke-miterlimit:4;stroke-dasharray:none;stroke-opacity:1"/>
    <path d="M574 604.63928s-9.5 3.5-14 20.5" style="fill:none;fill-rule:evenodd;stroke:black;stroke-width:3;stroke-linecap:butt;stroke-linejoin:miter;stroke-miterlimit:4;stroke-dasharray:none;stroke-opacity:1"/>
    <path d="M573.5 624.13928s15 18 15.5 22" style="fill:none;fill-rule:evenodd;stroke:black;stroke-width:3;stroke-linecap:butt;stroke-linejoin:miter;stroke-miterlimit:4;stroke-dasharray:none;stroke-opacity:1"/>
    <path d="M658 637.63928c-5-14-9-96-9-96s-23 22-27 42" style="fill:none;fill-rule:evenodd;stroke:black;stroke-width:3;stroke-linecap:butt;stroke-linejoin:miter;stroke-miterlimit:4;stroke-dasharray:none;stroke-opacity:1"/>
    <path d="M651 569.13928s-17 19.5-18.5 32" style="fill:none;fill-rule:evenodd;stroke:black;stroke-width:3;stroke-linecap:butt;stroke-linejoin:miter;stroke-miterlimit:4;stroke-dasharray:none;stroke-opacity:1"/>
    <path d="M619.5 616.63928s-7.5-24-2.5-43.5 5-14 3-20.5" style="fill:none;fill-rule:evenodd;stroke:black;stroke-width:3;stroke-linecap:butt;stroke-linejoin:miter;stroke-miterlimit:4;stroke-dasharray:none;stroke-opacity:1"/>
    <path d="M653.5 601.13928s-5 5-6.5 8" style="fill:none;fill-rule:evenodd;stroke:black;stroke-width:3;stroke-linecap:butt;stroke-linejoin:miter;stroke-miterlimit:4;stroke-dasharray:none;stroke-opacity:1"/>
    <path d="m662 597.63928 16.5 15" style="fill:none;fill-rule:evenodd;stroke:black;stroke-width:3;stroke-linecap:butt;stroke-linejoin:miter;stroke-miterlimit:4;stroke-dasharray:none;stroke-opacity:1"/>
    <path d="M633 484.13928s11 18 23.5 27" style="fill:none;fill-rule:evenodd;stroke:black;stroke-width:3;stroke-linecap:butt;stroke-linejoin:miter;stroke-miterlimit:4;stroke-dasharray:none;stroke-opacity:1"/>
    <path d="m640.5 495.13928-.5 20.5" style="fill:none;fill-rule:evenodd;stroke:black;stroke-width:3;stroke-linecap:butt;stroke-linejoin:miter;stroke-miterlimit:4;stroke-dasharray:none;stroke-opacity:1"/>
    <path d="M704 589.63928s-33-33-36-70" style="fill:none;fill-rule:evenodd;stroke:black;stroke-width:3;stroke-linecap:butt;stroke-linejoin:miter;stroke-miterlimit:4;stroke-dasharray:none;stroke-opacity:1"/>
    <path d="M683.5 500.63928s45.5 56 55.5 79.5" style="fill:none;fill-rule:evenodd;stroke:black;stroke-width:3;stroke-linecap:butt;stroke-linejoin:miter;stroke-miterlimit:4;stroke-dasharray:none;stroke-opacity:1"/>
    <path d="M696.5 505.13928c21.5 5 21.5 6.5 21.5 6.5" style="fill:none;fill-rule:evenodd;stroke:black;stroke-width:3;stroke-linecap:butt;stroke-linejoin:miter;stroke-miterlimit:4;stroke-dasharray:none;stroke-opacity:1"/>
    <path d="M690 507.63928s-1.5 17-1.5 24.5" style="fill:none;fill-rule:evenodd;stroke:black;stroke-width:3;stroke-linecap:butt;stroke-linejoin:miter;stroke-miterlimit:4;stroke-dasharray:none;stroke-opacity:1"/>
    <path d="M700 522.13928s-1.5 34.5 2.5 45" style="fill:none;fill-rule:evenodd;stroke:black;stroke-width:3;stroke-linecap:butt;stroke-linejoin:miter;stroke-miterlimit:4;stroke-dasharray:none;stroke-opacity:1"/>
    <path d="M728.5 532.63928c11 4.5 11.5 4.5 11.5 4.5" style="fill:none;fill-rule:evenodd;stroke:black;stroke-width:3;stroke-linecap:butt;stroke-linejoin:miter;stroke-miterlimit:4;stroke-dasharray:none;stroke-opacity:1"/>
    <path d="M718.5 549.13928s.5 19.5 2 24.5" style="fill:none;fill-rule:evenodd;stroke:black;stroke-width:3;stroke-linecap:butt;stroke-linejoin:miter;stroke-miterlimit:4;stroke-dasharray:none;stroke-opacity:1"/>
    <path d="M737.5 500.13928s-39.5-26-44.5-24c0 0-25.5-10.5-35.5-26.5" style="fill:none;fill-rule:evenodd;stroke:black;stroke-width:3;stroke-linecap:butt;stroke-linejoin:miter;stroke-miterlimit:4;stroke-dasharray:none;stroke-opacity:1"/>
    <path d="M733.5 431.63928s83.5 31 143.5 23" style="fill:none;fill-rule:evenodd;stroke:black;stroke-width:3;stroke-linecap:butt;stroke-linejoin:miter;stroke-miterlimit:4;stroke-dasharray:none;stroke-opacity:1"/>
    <path d="M786.5 435.63928s22-16 55.5-14" style="fill:none;fill-rule:evenodd;stroke:black;stroke-width:3;stroke-linecap:butt;stroke-linejoin:miter;stroke-miterlimit:4;stroke-dasharray:none;stroke-opacity:1"/>
    <path d="m732 436.13928 3 28.5" style="fill:none;fill-rule:evenodd;stroke:black;stroke-width:3;stroke-linecap:butt;stroke-linejoin:miter;stroke-miterlimit:4;stroke-dasharray:none;stroke-opacity:1"/>
    <path d="m779.5 454.13928 18 28.5" style="fill:none;fill-rule:evenodd;stroke:black;stroke-width:3;stroke-linecap:butt;stroke-linejoin:miter;stroke-miterlimit:4;stroke-dasharray:none;stroke-opacity:1"/>
    <path d="M812 452.13928s-11.5-3 21 33" style="fill:none;fill-rule:evenodd;stroke:black;stroke-width:3;stroke-linecap:butt;stroke-linejoin:miter;stroke-miterlimit:4;stroke-dasharray:none;stroke-opacity:1"/>
    <path d="M675.5 414.63928s25.5 16.5 37.5 17.5" style="fill:none;fill-rule:evenodd;stroke:black;stroke-width:3;stroke-linecap:butt;stroke-linejoin:miter;stroke-miterlimit:4;stroke-dasharray:none;stroke-opacity:1"/>
    <path d="M358.50314 604.59747s10.6066 33.23402 39.59798 43.13352c28.99138 9.89949 31.1127 4.24264 41.7193 7.07106 10.6066 2.82843 42.42641 24.04163 42.42641 24.04163" style="fill:none;fill-rule:evenodd;stroke:black;stroke-width:3;stroke-linecap:butt;stroke-linejoin:miter;stroke-miterlimit:4;stroke-dasharray:none;stroke-opacity:1;display:inline"/>
    <path d="M321.73359 584.09137s9.89949 2.82843 14.84924 14.84925c4.94975 12.02081 9.19239 12.72792 16.26345 12.02081 7.07107-.7071 9.19239-13.43503 15.55635-13.43503 6.36396 0 12.02082 11.31371 23.33453 9.8995 11.31371-1.41421 21.2132-7.77818 21.2132-7.77818" style="fill:none;fill-rule:evenodd;stroke:black;stroke-width:3;stroke-linecap:butt;stroke-linejoin:miter;stroke-miterlimit:4;stroke-dasharray:none;stroke-opacity:1;display:inline"/>
    <path d="m288.49957 582.67716 24.74873 1.41421" style="fill:none;fill-rule:evenodd;stroke:black;stroke-width:3;stroke-linecap:butt;stroke-linejoin:miter;stroke-miterlimit:4;stroke-dasharray:none;stroke-opacity:1;display:inline"/>
    <path d="M417.193 557.22132s-21.2132 8.48528-26.87006 9.89949c-5.65685 1.41422-44.54772-7.07107-49.49747-38.89087" style="fill:none;fill-rule:evenodd;stroke:black;stroke-width:3;stroke-linecap:butt;stroke-linejoin:miter;stroke-miterlimit:4;stroke-dasharray:none;stroke-opacity:1;display:inline"/>
    <path d="m350.72496 548.02893-36.06244 2.12132" style="fill:none;fill-rule:evenodd;stroke:black;stroke-width:3;stroke-linecap:butt;stroke-linejoin:miter;stroke-miterlimit:4;stroke-dasharray:none;stroke-opacity:1;display:inline"/>
    <path d="M701 252.13928s52-42.5 63-86.5" style="fill:none;fill-rule:evenodd;stroke:black;stroke-width:3;stroke-linecap:butt;stroke-linejoin:miter;stroke-miterlimit:4;stroke-dasharray:none;stroke-opacity:1"/>
    <path d="M785 234.63928s103.5-43 161.5-139.999999" style="fill:none;fill-rule:evenodd;stroke:black;stroke-width:3;stroke-linecap:butt;stroke-linejoin:miter;stroke-miterlimit:4;stroke-dasharray:none;stroke-opacity:1"/>
    <path d="m813.5 199.63928-17 29.5 41-3" style="fill:none;fill-rule:evenodd;stroke:black;stroke-width:3;stroke-linecap:butt;stroke-linejoin:miter;stroke-miterlimit:4;stroke-dasharray:none;stroke-opacity:1"/>
    <path d="M839.5 183.13928s8-16.5 11-19" style="fill:none;fill-rule:evenodd;stroke:black;stroke-width:3;stroke-linecap:butt;stroke-linejoin:miter;stroke-miterlimit:4;stroke-dasharray:none;stroke-opacity:1"/>
    <path d="m867 165.13928-20.5 32s26.5 2 34.5-5" style="fill:none;fill-rule:evenodd;stroke:black;stroke-width:3;stroke-linecap:butt;stroke-linejoin:miter;stroke-miterlimit:4;stroke-dasharray:none;stroke-opacity:1"/>
    <path d="m888 155.13928 9.5-17.5" style="fill:none;fill-rule:evenodd;stroke:black;stroke-width:3;stroke-linecap:butt;stroke-linejoin:miter;stroke-miterlimit:4;stroke-dasharray:none;stroke-opacity:1"/>
    <path d="M883.5 171.13928s19.5 4.5 30.5-5.5" style="fill:none;fill-rule:evenodd;stroke:black;stroke-width:3;stroke-linecap:butt;stroke-linejoin:miter;stroke-miterlimit:4;stroke-dasharray:none;stroke-opacity:1"/>
    <path d="m907 344.63928 19.5 1" style="fill:none;fill-rule:evenodd;stroke:black;stroke-width:3;stroke-linecap:butt;stroke-linejoin:miter;stroke-miterlimit:4;stroke-dasharray:none;stroke-opacity:1"/>
    <path d="M700 306.13928s44-22 53.5-23c.5-4.5-.5-7.5-.5-7.5l17 5" style="fill:none;fill-rule:evenodd;stroke:black;stroke-width:3;stroke-linecap:butt;stroke-linejoin:miter;stroke-miterlimit:4;stroke-dasharray:none;stroke-opacity:1"/>
    <path d="m746.5 306.63928-23-11" style="fill:none;fill-rule:evenodd;stroke:black;stroke-width:3;stroke-linecap:butt;stroke-linejoin:miter;stroke-miterlimit:4;stroke-dasharray:none;stroke-opacity:1"/>
    <path d="m703 315.13928 33.5 11.5" style="fill:none;fill-rule:evenodd;stroke:black;stroke-width:3;stroke-linecap:butt;stroke-linejoin:miter;stroke-miterlimit:4;stroke-dasharray:none;stroke-opacity:1"/>
    <path d="M702 351.63928s55-5 67-12" style="fill:none;fill-rule:evenodd;stroke:black;stroke-width:3;stroke-linecap:butt;stroke-linejoin:miter;stroke-miterlimit:4;stroke-dasharray:none;stroke-opacity:1"/>
    <path d="M729 348.63928s13.5 13 21.5 15.5" style="fill:none;fill-rule:evenodd;stroke:black;stroke-width:3;stroke-linecap:butt;stroke-linejoin:miter;stroke-miterlimit:4;stroke-dasharray:none;stroke-opacity:1"/>
    <path d="m700.5 356.63928 20.5 11" style="fill:none;fill-rule:evenodd;stroke:black;stroke-width:3;stroke-linecap:butt;stroke-linejoin:miter;stroke-miterlimit:4;stroke-dasharray:none;stroke-opacity:1"/>
    <path d="M739.5 402.13928c-15.5 1.5-46.5-8-46.5-8l12.5-4.5" style="fill:none;fill-rule:evenodd;stroke:black;stroke-width:3;stroke-linecap:butt;stroke-linejoin:miter;stroke-miterlimit:4;stroke-dasharray:none;stroke-opacity:1"/>
    <path d="M781.5 288.63928c.16667 0 .33333 0 0 0z" style="fill:none;fill-rule:evenodd;stroke:black;stroke-width:1px;stroke-linecap:butt;stroke-linejoin:miter;stroke-opacity:1"/>
    <path d="M782.5 287.63928s85.5 8 149.5-45" style="fill:none;fill-rule:evenodd;stroke:black;stroke-width:3;stroke-linecap:butt;stroke-linejoin:miter;stroke-miterlimit:4;stroke-dasharray:none;stroke-opacity:1"/>
    <path d="M801 288.63928s20.5 11 40.5 12.5" style="fill:none;fill-rule:evenodd;stroke:black;stroke-width:3;stroke-linecap:butt;stroke-linejoin:miter;stroke-miterlimit:4;stroke-dasharray:none;stroke-opacity:1"/>
    <path d="M814.5 288.63928s-3-8.5 24-27" style="fill:none;fill-rule:evenodd;stroke:black;stroke-width:3;stroke-linecap:butt;stroke-linejoin:miter;stroke-miterlimit:4;stroke-dasharray:none;stroke-opacity:1"/>
    <path d="M859 278.63928s-3.5-6.5 17-20" style="fill:none;fill-rule:evenodd;stroke:black;stroke-width:3;stroke-linecap:butt;stroke-linejoin:miter;stroke-miterlimit:4;stroke-dasharray:none;stroke-opacity:1"/>
    <path d="M849 281.13928s38 15 54.5 12" style="fill:none;fill-rule:evenodd;stroke:black;stroke-width:3;stroke-linecap:butt;stroke-linejoin:miter;stroke-miterlimit:4;stroke-dasharray:none;stroke-opacity:1"/>
    <path d="m881 273.13928 16 2" style="fill:none;fill-rule:evenodd;stroke:black;stroke-width:3;stroke-linecap:butt;stroke-linejoin:miter;stroke-miterlimit:4;stroke-dasharray:none;stroke-opacity:1"/>
    <path d="M907 269.13928c2 0 26 2 30 0" style="fill:none;fill-rule:evenodd;stroke:black;stroke-width:3;stroke-linecap:butt;stroke-linejoin:miter;stroke-miterlimit:4;stroke-dasharray:none;stroke-opacity:1"/>
    <path d="M782.5 358.13928s47 12.5 100 1.5" style="fill:none;fill-rule:evenodd;stroke:black;stroke-width:3;stroke-linecap:butt;stroke-linejoin:miter;stroke-miterlimit:4;stroke-dasharray:none;stroke-opacity:1"/>
    <path d="M806.5 363.13928s7 18.5 19 24.5" style="fill:none;fill-rule:evenodd;stroke:black;stroke-width:3;stroke-linecap:butt;stroke-linejoin:miter;stroke-miterlimit:4;stroke-dasharray:none;stroke-opacity:1"/>
    <path d="M839 364.13928s6.5 12 27 21" style="fill:none;fill-rule:evenodd;stroke:black;stroke-width:3;stroke-linecap:butt;stroke-linejoin:miter;stroke-miterlimit:4;stroke-dasharray:none;stroke-opacity:1"/>
    <path d="M880 359.63928s13 13.5 28 13.5" style="fill:none;fill-rule:evenodd;stroke:black;stroke-width:3;stroke-linecap:butt;stroke-linejoin:miter;stroke-miterlimit:4;stroke-dasharray:none;stroke-opacity:1"/>
  </g>
</svg>