<?xml version="1.0" encoding="utf-8"?>
<!-- Generator: Adobe Illustrator 15.0.0, SVG Export Plug-In  -->
<!DOCTYPE svg PUBLIC "-//W3C//DTD SVG 1.1//EN" "http://www.w3.org/Graphics/SVG/1.1/DTD/svg11.dtd" [
	<!ENTITY ns_flows "http://ns.adobe.com/Flows/1.0/">
]>
<svg version="1.1"
	 xmlns="http://www.w3.org/2000/svg" xmlns:xlink="http://www.w3.org/1999/xlink" xmlns:a="http://ns.adobe.com/AdobeSVGViewerExtensions/3.0/"
	 x="0px" y="0px" width="524px" height="659px" viewBox="132.396 -0.5 524 659" enable-background="new 132.396 -0.5 524 659"
	 xml:space="preserve">
<defs>
</defs>
<linearGradient id="SVGID_3_" gradientUnits="userSpaceOnUse" x1="170.1851" y1="515.3037" x2="225.0794" y2="536.3757">
	<stop  offset="0" style="stop-color:#8B5E3C"/>
	<stop  offset="0.497" style="stop-color:#FDC060"/>
</linearGradient>
<path display="none" fill="url(#SVGID_3_)" stroke="#000000" stroke-width="3" stroke-miterlimit="10" d="M241.489,493.628l-72,70
	c0,0-13.53,0.171-11-15c2.529-15.171,23-55,23-55s1-8,21-9S241.489,493.628,241.489,493.628z"/>
<linearGradient id="SVGID_4_" gradientUnits="userSpaceOnUse" x1="563.3257" y1="536.376" x2="618.22" y2="515.304">
	<stop  offset="0.503" style="stop-color:#FDC060"/>
	<stop  offset="1" style="stop-color:#8B5E3C"/>
</linearGradient>
<path display="none" fill="url(#SVGID_4_)" stroke="#000000" stroke-width="3" stroke-miterlimit="10" d="M546.917,493.628l72,70
	c0,0,13.529,0.171,11-15s-23-55-23-55s-1-8-21-9S546.917,493.628,546.917,493.628z"/>
<linearGradient id="SVGID_5_" gradientUnits="userSpaceOnUse" x1="133.8965" y1="461.1279" x2="239.4888" y2="461.1279">
	<stop  offset="0" style="stop-color:#BCBEC0"/>
	<stop  offset="0.3333" style="stop-color:#E6E7E8"/>
</linearGradient>
<path display="none" fill="url(#SVGID_5_)" stroke="#000000" stroke-width="3" stroke-miterlimit="10" d="M134.489,456.628
	c0-18,7.316-28,35-28s51,8,51,8l19,57c0,0-71.883-16.141-90.941-9.07S134.489,456.628,134.489,456.628z"/>
<linearGradient id="SVGID_6_" gradientUnits="userSpaceOnUse" x1="548.9165" y1="461.1279" x2="654.5083" y2="461.1279">
	<stop  offset="0.6316" style="stop-color:#E6E7E8"/>
	<stop  offset="0.6867" style="stop-color:#DBDCDD"/>
	<stop  offset="0.7932" style="stop-color:#CACBCD"/>
	<stop  offset="0.8984" style="stop-color:#BFC1C3"/>
	<stop  offset="1" style="stop-color:#BCBEC0"/>
</linearGradient>
<path display="none" fill="url(#SVGID_6_)" stroke="#000000" stroke-width="3" stroke-miterlimit="10" d="M653.917,456.628
	c0-18-7.316-28-35-28s-51,8-51,8l-19,57c0,0,71.883-16.141,90.941-9.07S653.917,456.628,653.917,456.628z"/>
<path display="none" fill="#FBB040" stroke="#000000" stroke-width="3" stroke-miterlimit="10" d="M134.489,456.628c0,0,8,6,23,6
	c9.731,10.067,11,32,11,58.345c-25-1.345-34-19.345-34-48.345S134.489,456.628,134.489,456.628z"/>
<path display="none" fill="#FBB040" stroke="#000000" stroke-width="3" stroke-miterlimit="10" d="M653.917,456.628c0,0-8,6-23,6
	c-9.731,10.067-11,32-11,58.345c25-1.345,34-19.345,34-48.345S653.917,456.628,653.917,456.628z"/>
<g>
	<defs>
		<path id="SVGID_2_" d="M393.759,3.5H142.739c0,0,0,138.937,0,258.714c0,161.081,140,299,251.714,341
			c118.286-39,251.714-175.92,251.714-337c0-119.778,0-262.714,0-262.714H393.759z"/>
	</defs>
	<linearGradient id="SVGID_7_" gradientUnits="userSpaceOnUse" x1="142.7388" y1="303.3569" x2="646.1665" y2="303.3569">
		<stop  offset="0" style="stop-color:#F9ED32"/>
		<stop  offset="1" style="stop-color:#FBB040"/>
	</linearGradient>
	<use xlink:href="#SVGID_2_"  overflow="visible" fill="url(#SVGID_7_)"/>
	<clipPath id="SVGID_8_">
		<use xlink:href="#SVGID_2_"  overflow="visible"/>
	</clipPath>
	<g clip-path="url(#SVGID_8_)">
		<radialGradient id="SVGID_9_" cx="431.9897" cy="51.3828" r="10.7892" gradientUnits="userSpaceOnUse">
			<stop  offset="0" style="stop-color:#262262"/>
			<stop  offset="1" style="stop-color:#2E3192"/>
		</radialGradient>
		<path fill="url(#SVGID_9_)" stroke="#FFF200" stroke-width="2" stroke-miterlimit="10" d="M418.411,57.061
			c1.842,2.105,8.081-5.205,11.3-4.52c3.219,0.685,15.202,1.096,16.093-0.479c0.891-1.575-1.438-7.19-5.479-6.711
			c-4.04,0.479-11.299,1.438-15.066,3.287C421.493,50.487,416.493,54.87,418.411,57.061z"/>
		<radialGradient id="SVGID_10_" cx="430.3794" cy="47.3984" r="3.1132" gradientUnits="userSpaceOnUse">
			<stop  offset="0" style="stop-color:#262262"/>
			<stop  offset="1" style="stop-color:#2E3192"/>
		</radialGradient>
		<path fill="url(#SVGID_10_)" stroke="#FFF200" stroke-width="2" stroke-miterlimit="10" d="M427.702,46.469
			c0,0,3.104,4.931,4.565,4.383c1.461-0.547,0.548-6.757,0-6.939C431.719,43.73,427.702,46.469,427.702,46.469z"/>
		<radialGradient id="SVGID_11_" cx="553.3179" cy="135.9512" r="35.8631" gradientUnits="userSpaceOnUse">
			<stop  offset="0" style="stop-color:#262262"/>
			<stop  offset="1" style="stop-color:#2E3192"/>
		</radialGradient>
		<path fill="url(#SVGID_11_)" stroke="#FFF200" stroke-width="2" stroke-miterlimit="10" d="M550.513,122.667
			c-0.28,8.224,6.71,16.025,6.163,17.532c-0.548,1.506-9.861,22.325-14.655,24.927c-4.794,2.603-9.313,2.466-11.231,5.341
			c-1.917,2.877-4.245,6.3-2.191,6.986c2.055,0.685,10.188,2.329,13.654,2.329s26.066-36.296,30.723-38.898s2.74-40.13,5.205-42.048
			s-2.604-6.848-5.342-6.711C570.099,92.261,551.471,94.452,550.513,122.667z"/>
		<radialGradient id="SVGID_12_" cx="447.8091" cy="130.6523" r="29.1256" gradientUnits="userSpaceOnUse">
			<stop  offset="0" style="stop-color:#262262"/>
			<stop  offset="1" style="stop-color:#2E3192"/>
		</radialGradient>
		<path fill="url(#SVGID_12_)" stroke="#FFF200" stroke-width="2" stroke-miterlimit="10" d="M451.625,106.642
			c-9.725,5.616-21.777,5.067-27.256,13.97c-5.479,8.902-0.411,13.422-4.245,19.038c-3.836,5.615-5.616,8.629-3.699,10.683
			c1.918,2.054,2.466,6.437,3.836,6.026c1.369-0.411,1.917-4.657,3.834-4.383c1.918,0.274,4.521-0.411,4.521-1.096
			s0.418-14.115,2.469-19.316c2.051-5.201-1.099-9.583,33.005-8.077c27.667-0.411,10.272-5.479,12.601-9.176
			C479.017,110.614,461.349,101.026,451.625,106.642z"/>
		<radialGradient id="SVGID_13_" cx="521.8042" cy="103.4189" r="95.1802" gradientUnits="userSpaceOnUse">
			<stop  offset="0" style="stop-color:#262262"/>
			<stop  offset="1" style="stop-color:#2E3192"/>
		</radialGradient>
		<path fill="url(#SVGID_13_)" stroke="#FFF200" stroke-width="2" stroke-miterlimit="10" d="M625.021,135.404
			c-3.286-5.752-6.643-8.766-9.655-16.162c-3.014-7.396-4.862-28.215-8.698-34.515c-0.564-0.928-1.07-1.825-1.576-2.7
			c10.051,0.129,25.666-12.076,15.41-31.952c-22.051-37.528-57.662-21.641-57.524-18.901c0.137,2.739,4.479,1.521,10.409,1.095
			c27.803-1.917,38.075,18.217,38.897,26.982c0.822,8.766-6.848,12.327-10.684,12.327c-3.834,0-12.041-2.017-12.041-2.017l0,0
			c-1.293-0.51-2.706-1.025-4.258-1.544c-16.367-5.479-88.205,5.684-97.86-2.876c-9.656-8.561-1.917-41.363-22.667-45.678
			c-20.751-4.314-21.789,4.913-29.459,7.652s-16.836,5.839-17.658,7.483c-0.82,1.644,1.918,2.739,1.645,4.109
			c-0.274,1.37-1.164,6.643,5.752,8.766c6.917,2.124,17.669-2.654,17.669,1.043c0,3.698-16.71,3.066-15.203,6.969
			s9.725-2.055,19.448,1.986c9.725,4.041,1.37,35.474,7.945,47.253c4.126,7.394,8.796,15.111,22.744,17.8
			c0.461,9.901,2.205,51.63-1.014,53.239c-3.652,1.826-14.929,6.438-12.92,11.962c4.519,2.098,9.496-0.686,11.733-0.822
			s12.601-4.611,12.646-8.629c0.047-4.018,1.781-10.409,3.379-12.464c1.391-1.787,6.097-31.113,4.381-42.526
			c5.281-0.355,11.311-1.127,18.219-2.398c44.65-8.218,48.484-26.023,59.99-22.736c3.219,6.3,1.301,15.545,15.888,27.05
			c14.587,11.505,18.97,8.012,20.683,11.847c1.711,3.835,0.753,25.133-0.891,26.366c-4.247,0.274-15.136,4.314-8.834,7.875
			c6.299,3.561,15.888,2.465,19.174,0C623.378,168.824,628.309,141.157,625.021,135.404z"/>
		<path fill="none" stroke="#FFF200" stroke-width="2" stroke-miterlimit="10" d="M494.631,119.517
			c4.429,5.798-1.553,44.24-3.15,46.294c-1.598,2.055-3.332,8.446-3.379,12.464c-0.045,4.018-10.408,8.492-12.646,8.629
			s-7.215,2.92-11.733,0.822c-2.009-5.524,9.268-10.136,12.92-11.962c3.652-1.826,0.914-55.333,0.914-55.333
			s-26.663-27.027,2.557-36.889"/>
		<path fill="none" stroke="#FFF200" stroke-width="2" stroke-miterlimit="10" d="M457.514,28.024
			c-1.232,0.958-1.781,12.601,2.602,13.286c0.822,2.602,0.138,4.645-0.547,6.089c-0.686,1.444-4.246,17.332,1.096,22.673
			c5.342,5.342,7.67,7.396,9.313,6.711c1.644-0.685,0-3.972,2.739-6.3s5.89-5.342,6.574-7.67c0.685-2.328,1.369-19.448,0-22.873
			s-2.896-12.875-4.402-14.107"/>
		<path fill="#FFF200" stroke="#FFF200" stroke-width="2" stroke-miterlimit="10" d="M437.153,31.312
			c-1.37-0.296,4.714-2.739,8.52-1.278c3.807,1.461,3.076,2.921,3.533,2.465c0.456-0.457-1.826,3.013-6.027,2.831
			c-4.199-0.182-5.844-1.187-6.025-1.461c-0.184-0.274,1.004-0.457,1.004-1.004S438.522,31.608,437.153,31.312z"/>
		<path d="M441.307,31.654c0,0.252,1.027,0.525,1.096,0.914c0.068,0.388-1.004,0.708-0.867,1.072
			c0.137,0.365,1.574,1.393,2.465,0.753s1.324-1.05,1.004-1.757c-0.318-0.708-1.393-1.644-2.305-1.484
			C441.786,31.312,441.307,31.266,441.307,31.654z"/>
		<path fill="#FFF200" stroke="#FFF200" stroke-width="2" stroke-miterlimit="10" d="M419.264,38.173c0,0,5.311-0.903,4.009-1.382
			c-1.302-0.48-3.702-0.118-4.009,0.342V38.173z"/>
	</g>
	<g clip-path="url(#SVGID_8_)">
		<radialGradient id="SVGID_14_" cx="178.9175" cy="51.3828" r="10.7889" gradientUnits="userSpaceOnUse">
			<stop  offset="0" style="stop-color:#262262"/>
			<stop  offset="1" style="stop-color:#2E3192"/>
		</radialGradient>
		<path fill="url(#SVGID_14_)" stroke="#FFF200" stroke-width="2" stroke-miterlimit="10" d="M165.338,57.061
			c1.842,2.105,8.081-5.205,11.3-4.52c3.219,0.685,15.202,1.096,16.093-0.479c0.891-1.575-1.438-7.19-5.479-6.711
			c-4.04,0.479-11.299,1.438-15.066,3.287C168.42,50.487,163.42,54.87,165.338,57.061z"/>
		<radialGradient id="SVGID_15_" cx="177.3066" cy="47.3984" r="3.1134" gradientUnits="userSpaceOnUse">
			<stop  offset="0" style="stop-color:#262262"/>
			<stop  offset="1" style="stop-color:#2E3192"/>
		</radialGradient>
		<path fill="url(#SVGID_15_)" stroke="#FFF200" stroke-width="2" stroke-miterlimit="10" d="M174.629,46.469
			c0,0,3.104,4.931,4.565,4.383c1.461-0.547,0.548-6.757,0-6.939C178.647,43.73,174.629,46.469,174.629,46.469z"/>
		<radialGradient id="SVGID_16_" cx="300.2456" cy="135.9512" r="35.8631" gradientUnits="userSpaceOnUse">
			<stop  offset="0" style="stop-color:#262262"/>
			<stop  offset="1" style="stop-color:#2E3192"/>
		</radialGradient>
		<path fill="url(#SVGID_16_)" stroke="#FFF200" stroke-width="2" stroke-miterlimit="10" d="M297.441,122.667
			c-0.28,8.224,6.71,16.025,6.163,17.532c-0.548,1.506-9.861,22.325-14.655,24.927c-4.794,2.603-9.313,2.466-11.231,5.341
			c-1.917,2.877-4.245,6.3-2.191,6.986c2.055,0.685,10.188,2.329,13.654,2.329s26.066-36.296,30.723-38.898s2.74-40.13,5.205-42.048
			s-2.604-6.848-5.342-6.711C317.027,92.261,298.399,94.452,297.441,122.667z"/>
		<radialGradient id="SVGID_17_" cx="194.7363" cy="130.6523" r="29.1256" gradientUnits="userSpaceOnUse">
			<stop  offset="0" style="stop-color:#262262"/>
			<stop  offset="1" style="stop-color:#2E3192"/>
		</radialGradient>
		<path fill="url(#SVGID_17_)" stroke="#FFF200" stroke-width="2" stroke-miterlimit="10" d="M198.552,106.642
			c-9.725,5.616-21.777,5.067-27.256,13.97c-5.479,8.902-0.411,13.422-4.245,19.038c-3.836,5.615-5.616,8.629-3.699,10.683
			c1.918,2.054,2.466,6.437,3.836,6.026c1.369-0.411,1.917-4.657,3.834-4.383c1.918,0.274,4.521-0.411,4.521-1.096
			s0.418-14.115,2.469-19.316c2.051-5.201-1.099-9.583,33.005-8.077c27.667-0.411,10.272-5.479,12.601-9.176
			C225.945,110.614,208.277,101.026,198.552,106.642z"/>
		<radialGradient id="SVGID_18_" cx="268.7319" cy="103.4189" r="95.18" gradientUnits="userSpaceOnUse">
			<stop  offset="0" style="stop-color:#262262"/>
			<stop  offset="1" style="stop-color:#2E3192"/>
		</radialGradient>
		<path fill="url(#SVGID_18_)" stroke="#FFF200" stroke-width="2" stroke-miterlimit="10" d="M371.949,135.404
			c-3.286-5.752-6.643-8.766-9.655-16.162c-3.014-7.396-4.862-28.215-8.698-34.515c-0.564-0.928-1.07-1.825-1.576-2.7
			c10.051,0.129,25.666-12.076,15.41-31.952c-22.051-37.528-57.662-21.641-57.524-18.901c0.137,2.739,4.479,1.521,10.409,1.095
			c27.803-1.917,38.075,18.217,38.897,26.982c0.822,8.766-6.848,12.327-10.684,12.327c-3.834,0-12.041-2.017-12.041-2.017l0,0
			c-1.293-0.51-2.706-1.025-4.258-1.544c-16.367-5.479-88.205,5.684-97.86-2.876c-9.656-8.561-1.917-41.363-22.667-45.678
			c-20.751-4.314-21.789,4.913-29.459,7.652s-16.836,5.839-17.658,7.483c-0.82,1.644,1.918,2.739,1.645,4.109
			c-0.274,1.37-1.164,6.643,5.752,8.766c6.917,2.124,17.669-2.654,17.669,1.043c0,3.698-16.71,3.066-15.203,6.969
			s9.725-2.055,19.448,1.986c9.725,4.041,1.37,35.474,7.945,47.253c4.126,7.394,8.796,15.111,22.744,17.8
			c0.461,9.901,2.205,51.63-1.014,53.239c-3.652,1.826-14.929,6.438-12.92,11.962c4.519,2.098,9.496-0.686,11.733-0.822
			s12.601-4.611,12.646-8.629c0.047-4.018,1.781-10.409,3.379-12.464c1.391-1.787,6.097-31.113,4.381-42.526
			c5.281-0.355,11.311-1.127,18.219-2.398c44.65-8.218,48.484-26.023,59.99-22.736c3.219,6.3,1.301,15.545,15.888,27.05
			c14.587,11.505,18.97,8.012,20.683,11.847c1.711,3.835,0.753,25.133-0.891,26.366c-4.247,0.274-15.136,4.314-8.834,7.875
			c6.299,3.561,15.888,2.465,19.174,0C370.306,168.824,375.237,141.157,371.949,135.404z"/>
		<path fill="none" stroke="#FFF200" stroke-width="2" stroke-miterlimit="10" d="M241.559,119.517
			c4.429,5.798-1.553,44.24-3.15,46.294c-1.598,2.055-3.332,8.446-3.379,12.464c-0.045,4.018-10.408,8.492-12.646,8.629
			s-7.215,2.92-11.733,0.822c-2.009-5.524,9.268-10.136,12.92-11.962c3.652-1.826,0.914-55.333,0.914-55.333
			s-26.663-27.027,2.557-36.889"/>
		<path fill="none" stroke="#FFF200" stroke-width="2" stroke-miterlimit="10" d="M204.442,28.024
			c-1.232,0.958-1.781,12.601,2.602,13.286c0.822,2.602,0.138,4.645-0.547,6.089c-0.686,1.444-4.246,17.332,1.096,22.673
			c5.342,5.342,7.67,7.396,9.313,6.711c1.644-0.685,0-3.972,2.739-6.3s5.89-5.342,6.574-7.67c0.685-2.328,1.369-19.448,0-22.873
			s-2.896-12.875-4.402-14.107"/>
		<path fill="#FFF200" stroke="#FFF200" stroke-width="2" stroke-miterlimit="10" d="M184.081,31.312
			c-1.37-0.296,4.714-2.739,8.52-1.278c3.807,1.461,3.076,2.921,3.533,2.465c0.456-0.457-1.826,3.013-6.027,2.831
			c-4.199-0.182-5.844-1.187-6.025-1.461c-0.184-0.274,1.004-0.457,1.004-1.004S185.45,31.608,184.081,31.312z"/>
		<path d="M188.235,31.654c0,0.252,1.027,0.525,1.096,0.914c0.068,0.388-1.004,0.708-0.867,1.072
			c0.137,0.365,1.574,1.393,2.465,0.753s1.324-1.05,1.004-1.757c-0.318-0.708-1.393-1.644-2.305-1.484
			C188.713,31.312,188.235,31.266,188.235,31.654z"/>
		<path fill="#FFF200" stroke="#FFF200" stroke-width="2" stroke-miterlimit="10" d="M166.192,38.173c0,0,5.311-0.903,4.009-1.382
			c-1.302-0.48-3.702-0.118-4.009,0.342V38.173z"/>
	</g>
	<radialGradient id="SVGID_19_" cx="394.4517" cy="400.5459" r="327.2119" gradientUnits="userSpaceOnUse">
		<stop  offset="0" style="stop-color:#262262"/>
		<stop  offset="1" style="stop-color:#2E3192"/>
	</radialGradient>
	<polygon clip-path="url(#SVGID_8_)" fill="url(#SVGID_19_)" stroke="#FFF200" stroke-width="2" stroke-miterlimit="10" points="
		787.543,544.544 394.454,156.387 1.361,544.544 85.908,644.706 394.454,340.035 702.999,644.706 	"/>
	<g clip-path="url(#SVGID_8_)">
		<path fill="#E8CE55" d="M329.999,233.455v6.965c6.975,0.089,11.371,1.46,12.852,9.425v81.935l12.105-17.315h-4.56v-5.334
			c5.654-0.011,10.438,0.01,16.093,0v5.334h-5.39l8.928,17.315l8.927-17.315h-5.38v-5.334h17.202v5.334h-5.418l8.845,17.315
			l8.845-17.315h-5.418v-5.334h16.914v5.334h-5.417l8.955,17.315l8.928-17.315h-5.39v-5.334c5.655,0.01,10.709-0.011,16.363,0v5.334
			h-4.533l12.078,17.315v-81.935c1.48-7.965,5.904-9.335,12.88-9.425v-6.965H329.999z M349.207,241.277h16.915v16.114h-16.915
			V241.277z M373.574,241.277h16.897v16.114h-16.897V241.277z M397.934,241.277h16.888v16.114h-16.888V241.277z M422.284,241.277
			h16.887v16.114h-16.887V241.277z M349.207,263.306h16.915v16.085h-16.915V263.306z M373.574,263.306h16.897v16.085h-16.897
			V263.306z M397.934,263.306h16.888v16.085h-16.888V263.306z M422.284,263.306h16.887v16.085h-16.887V263.306z M349.207,285.305
			h16.915v16.114h-16.915V285.305z M373.574,285.305h16.897v16.114h-16.897V285.305z M397.934,285.305h16.888v16.114h-16.888
			V285.305z M422.284,285.305h16.887v16.114h-16.887V285.305z"/>
		<path fill="none" stroke="#806829" stroke-width="0.7928" d="M329.999,233.455v6.965c6.975,0.089,11.371,1.46,12.852,9.425v81.935
			l12.105-17.315h-4.56v-5.334c5.654-0.011,10.438,0.01,16.093,0v5.334h-5.39l8.928,17.315l8.927-17.315h-5.38v-5.334h17.202v5.334
			h-5.418l8.845,17.315l8.845-17.315h-5.418v-5.334h16.914v5.334h-5.417l8.955,17.315l8.928-17.315h-5.39v-5.334
			c5.655,0.01,10.709-0.011,16.363,0v5.334h-4.533l12.078,17.315v-81.935c1.48-7.965,5.904-9.335,12.88-9.425v-6.965H329.999z
			 M349.207,241.277h16.915v16.114h-16.915V241.277z M373.574,241.277h16.897v16.114h-16.897V241.277z M397.934,241.277h16.888
			v16.114h-16.888V241.277z M422.284,241.277h16.887v16.114h-16.887V241.277z M349.207,263.306h16.915v16.085h-16.915V263.306z
			 M373.574,263.306h16.897v16.085h-16.897V263.306z M397.934,263.306h16.888v16.085h-16.888V263.306z M422.284,263.306h16.887
			v16.085h-16.887V263.306z M349.207,285.305h16.915v16.114h-16.915V285.305z M373.574,285.305h16.897v16.114h-16.897V285.305z
			 M397.934,285.305h16.888v16.114h-16.888V285.305z M422.284,285.305h16.887v16.114h-16.887V285.305z"/>
		<path fill="#FFF0A7" d="M332.078,235.528v2.985c2.767,0.164,5.352,0.552,7.518,1.907c2.707,1.694,4.503,4.714,5.307,9.038
			c0.021,0.128,0.03,0.258,0.027,0.387v75.371l6.053-8.679h-0.58c-1.086,0.001-2.074-0.987-2.073-2.074v-5.333
			c-0.001-1.086,0.987-2.074,2.073-2.073c5.662-0.011,10.431,0.01,16.078,0c1.086-0.001,2.074,0.987,2.073,2.073v5.333
			c0.001,1.086-0.987,2.075-2.073,2.074h-1.99l5.528,10.724l5.527-10.724h-1.99c-1.085,0.001-2.074-0.987-2.072-2.074v-5.333
			c-0.001-1.086,0.987-2.074,2.072-2.073h17.227c1.086-0.001,2.074,0.987,2.072,2.073v5.333c0.002,1.086-0.986,2.075-2.072,2.074
			h-2.018l5.444,10.696l5.445-10.696h-2.018c-1.087,0.001-2.074-0.987-2.073-2.074v-5.333c-0.001-1.086,0.986-2.074,2.073-2.073
			h16.825c1.086-0.001,2.523,0.496,2.074,2.073v5.333c0,1.086-0.988,2.075-2.074,2.074h-2.018L418,327.261l5.527-10.724h-1.991
			c-1.085,0.001-2.073-0.987-2.071-2.074v-5.333c-0.002-1.086,0.986-2.074,2.071-2.073c5.648,0.01,10.79-0.011,16.452,0
			c1.085-0.001,2.074,0.987,2.072,2.073v5.333c0.002,1.086-0.987,2.075-2.072,2.074h-0.581l6.054,8.651v-75.343
			c-0.004-0.129,0.006-0.259,0.027-0.387c0.804-4.325,2.621-7.345,5.334-9.038c2.171-1.354,4.749-1.744,7.518-1.907v-2.985H332.078
			L332.078,235.528z M349.075,239.204h0.139h16.915c1.085-0.001,2.074,0.987,2.072,2.073v16.114
			c0.001,1.085-0.987,2.074-2.072,2.072h-16.915c-1.086,0.002-2.074-0.986-2.073-2.072v-16.114
			C347.136,240.236,348.037,239.272,349.075,239.204z M373.452,239.204h0.139h16.888c1.085-0.001,2.073,0.987,2.072,2.073v16.114
			c0.001,1.085-0.987,2.074-2.072,2.072H373.59c-1.086,0.002-2.074-0.986-2.072-2.072v-16.114
			C371.514,240.236,372.414,239.272,373.452,239.204z M397.801,239.204h0.139h16.887c1.086-0.001,2.075,0.987,2.073,2.073v16.114
			c0.002,1.085-0.987,2.074-2.073,2.072H397.94c-1.086,0.002-2.074-0.986-2.072-2.072v-16.114
			C395.864,240.236,396.763,239.272,397.801,239.204z M422.152,239.204h0.138h16.888c1.086-0.001,2.073,0.987,2.072,2.073v16.114
			c0.001,1.085-0.986,2.074-2.072,2.072H422.29c-1.086,0.002-2.074-0.986-2.072-2.072v-16.114
			C420.213,240.236,421.112,239.272,422.152,239.204z M349.075,261.232h0.139h16.915c1.085-0.001,2.074,0.987,2.072,2.074v16.085
			c0.001,1.086-0.987,2.074-2.072,2.073h-16.915c-1.086,0.001-2.074-0.986-2.073-2.073v-16.085
			C347.136,262.264,348.037,261.3,349.075,261.232z M373.452,261.232h0.139h16.888c1.085-0.001,2.073,0.987,2.072,2.074v16.085
			c0.001,1.086-0.987,2.074-2.072,2.073H373.59c-1.086,0.001-2.074-0.986-2.072-2.073v-16.085
			C371.514,262.264,372.414,261.3,373.452,261.232z M397.801,261.232h0.139h16.887c1.086-0.001,2.075,0.987,2.073,2.074v16.085
			c0.002,1.086-0.987,2.074-2.073,2.073H397.94c-1.086,0.001-2.074-0.986-2.072-2.073v-16.085
			C395.864,262.264,396.763,261.3,397.801,261.232z M422.152,261.232h0.138h16.888c1.086-0.001,2.073,0.987,2.072,2.074v16.085
			c0.001,1.086-0.986,2.074-2.072,2.073H422.29c-1.086,0.001-2.074-0.986-2.072-2.073v-16.085
			C420.213,262.264,421.112,261.3,422.152,261.232z M349.075,283.232h0.139h16.915c1.085-0.001,2.074,0.987,2.072,2.073v16.113
			c0.001,1.086-0.987,2.075-2.072,2.074h-16.915c-1.086,0.001-2.074-0.987-2.073-2.074v-16.113
			C347.136,284.265,348.037,283.301,349.075,283.232z M373.452,283.232h0.139h16.888c1.085-0.001,2.073,0.987,2.072,2.073v16.113
			c0.001,1.086-0.987,2.075-2.072,2.074H373.59c-1.086,0.001-2.074-0.987-2.072-2.074v-16.113
			C371.514,284.265,372.414,283.301,373.452,283.232z M397.801,283.232h0.139h16.887c1.086-0.001,2.075,0.987,2.073,2.073v16.113
			c0.002,1.086-0.987,2.075-2.073,2.074H397.94c-1.086,0.001-2.074-0.987-2.072-2.074v-16.113
			C395.864,284.265,396.763,283.301,397.801,283.232z M422.152,283.232h0.138h16.888c1.086-0.001,2.073,0.987,2.072,2.073v16.113
			c0.001,1.086-0.986,2.075-2.072,2.074H422.29c-1.086,0.001-2.074-0.987-2.072-2.074v-16.113
			C420.213,284.265,421.112,283.301,422.152,283.232z"/>
		<ellipse fill="#FEE470" cx="418.496" cy="238.005" rx="2.652" ry="2.696"/>
		<path fill="#F2C716" d="M416.256,239.435l0.504,0.635l0.973,0.542l0.84,0.038l0.897-0.094l0.952-0.747l0.411-0.635l0.262-0.99
			v-1.028l-0.411-0.579l-0.598-0.691l-0.747-0.299c0,0,0.388,0.688,0.485,1.009c0.094,0.309,0.1,0.711,0.037,1.028
			c-0.06,0.306-0.216,0.69-0.41,0.934c-0.216,0.27-0.624,0.598-0.935,0.747c-0.348,0.167-0.792,0.213-1.177,0.225
			C417.014,239.538,416.257,239.435,416.256,239.435L416.256,239.435z"/>
		<path fill="#FFF0A7" d="M418.965,236.716c0,0.778-0.652,1.411-1.457,1.411c-0.806,0-1.458-0.632-1.458-1.411
			c0-0.4,0.322-0.387,0.599-0.644c0.263-0.243,0.711-0.692,1.103-0.692C418.555,235.38,418.965,235.938,418.965,236.716z"/>
		<ellipse fill="none" stroke="#806829" stroke-width="2.7732" cx="418.496" cy="238.005" rx="2.652" ry="2.696"/>
		<ellipse fill="#FEE470" cx="418.496" cy="260.29" rx="2.652" ry="2.695"/>
		<path fill="#F2C716" d="M416.256,261.719l0.504,0.636l0.973,0.542l0.84,0.037l0.897-0.094l0.952-0.747l0.411-0.635l0.262-0.99
			v-1.028l-0.411-0.58l-0.598-0.691l-0.747-0.299c0,0,0.388,0.687,0.485,1.009c0.094,0.309,0.1,0.71,0.037,1.027
			c-0.06,0.306-0.216,0.691-0.41,0.935c-0.216,0.269-0.624,0.597-0.935,0.747c-0.348,0.167-0.792,0.213-1.177,0.225
			C417.014,261.823,416.257,261.719,416.256,261.719L416.256,261.719z"/>
		<path fill="#FFF0A7" d="M418.965,259c0,0.779-0.652,1.411-1.457,1.411s-1.458-0.632-1.458-1.411c0-0.399,0.322-0.388,0.599-0.644
			c0.263-0.243,0.711-0.691,1.103-0.691C418.555,257.666,418.965,258.222,418.965,259z"/>
		<ellipse fill="none" stroke="#806829" stroke-width="2.7732" cx="418.496" cy="260.29" rx="2.652" ry="2.695"/>
		<ellipse fill="#FEE470" cx="418.496" cy="282.369" rx="2.652" ry="2.696"/>
		<path fill="#F2C716" d="M416.256,283.799l0.504,0.635l0.973,0.542l0.84,0.038l0.897-0.094l0.952-0.747l0.411-0.635l0.262-0.99
			v-1.028l-0.411-0.579l-0.598-0.692l-0.747-0.299c0,0,0.388,0.688,0.485,1.009c0.094,0.31,0.1,0.711,0.037,1.028
			c-0.06,0.306-0.216,0.691-0.41,0.934c-0.216,0.271-0.624,0.598-0.935,0.748c-0.348,0.167-0.792,0.212-1.177,0.224
			C417.014,283.901,416.257,283.799,416.256,283.799L416.256,283.799z"/>
		<path fill="#FFF0A7" d="M418.965,281.081c0,0.778-0.652,1.41-1.457,1.41s-1.458-0.631-1.458-1.41c0-0.4,0.322-0.387,0.599-0.645
			c0.263-0.243,0.711-0.691,1.103-0.691C418.555,279.745,418.965,280.301,418.965,281.081z"/>
		<ellipse fill="none" stroke="#806829" stroke-width="2.7732" cx="418.496" cy="282.369" rx="2.652" ry="2.696"/>
		<ellipse fill="#FEE470" cx="418.496" cy="304.514" rx="2.652" ry="2.695"/>
		<path fill="#F2C716" d="M416.256,305.943l0.504,0.636l0.973,0.542l0.84,0.037l0.897-0.093l0.952-0.747l0.411-0.636l0.262-0.99
			v-1.027l-0.411-0.579l-0.598-0.692l-0.747-0.298c0,0,0.388,0.687,0.485,1.008c0.094,0.309,0.1,0.711,0.037,1.028
			c-0.06,0.306-0.216,0.69-0.41,0.934c-0.216,0.27-0.624,0.598-0.935,0.747c-0.348,0.167-0.792,0.212-1.177,0.225
			C417.014,306.047,416.257,305.943,416.256,305.943L416.256,305.943z"/>
		<path fill="#FFF0A7" d="M418.965,303.225c0,0.779-0.652,1.411-1.457,1.411c-0.806,0-1.458-0.632-1.458-1.411
			c0-0.399,0.322-0.387,0.599-0.645c0.263-0.242,0.711-0.691,1.103-0.691C418.555,301.889,418.965,302.447,418.965,303.225z"/>
		<ellipse fill="none" stroke="#806829" stroke-width="2.7732" cx="418.496" cy="304.514" rx="2.652" ry="2.695"/>
		<ellipse fill="#FEE470" cx="441.575" cy="238.005" rx="2.652" ry="2.696"/>
		<path fill="#F2C716" d="M439.335,239.435l0.504,0.635l0.972,0.542l0.841,0.038l0.897-0.094l0.952-0.747l0.411-0.635l0.262-0.99
			v-1.028l-0.41-0.579l-0.599-0.691l-0.748-0.299c0,0,0.39,0.688,0.487,1.009c0.093,0.309,0.099,0.711,0.037,1.028
			c-0.061,0.306-0.217,0.69-0.412,0.934c-0.215,0.27-0.623,0.598-0.934,0.747c-0.347,0.167-0.792,0.213-1.177,0.225
			C440.093,239.538,439.335,239.435,439.335,239.435L439.335,239.435z"/>
		<path fill="#FFF0A7" d="M442.044,236.716c0,0.778-0.652,1.411-1.458,1.411c-0.804,0-1.456-0.632-1.456-1.411
			c0-0.4,0.321-0.387,0.598-0.644c0.263-0.243,0.711-0.692,1.103-0.692C441.635,235.38,442.044,235.938,442.044,236.716z"/>
		<ellipse fill="none" stroke="#806829" stroke-width="2.7732" cx="441.575" cy="238.005" rx="2.652" ry="2.696"/>
		<ellipse fill="#FEE470" cx="441.575" cy="260.29" rx="2.652" ry="2.695"/>
		<path fill="#F2C716" d="M439.335,261.719l0.504,0.636l0.972,0.542l0.841,0.037l0.897-0.094l0.952-0.747l0.411-0.635l0.262-0.99
			v-1.028l-0.41-0.58l-0.599-0.691l-0.748-0.299c0,0,0.39,0.687,0.487,1.009c0.093,0.309,0.099,0.71,0.037,1.027
			c-0.061,0.306-0.217,0.691-0.412,0.935c-0.215,0.269-0.623,0.597-0.934,0.747c-0.347,0.167-0.791,0.213-1.177,0.225
			C440.093,261.823,439.335,261.719,439.335,261.719z"/>
		<path fill="#FFF0A7" d="M442.045,259c0,0.779-0.653,1.411-1.459,1.411c-0.804,0-1.456-0.632-1.456-1.411
			c0-0.399,0.322-0.388,0.598-0.644c0.263-0.243,0.711-0.691,1.103-0.691C441.635,257.666,442.045,258.222,442.045,259z"/>
		<ellipse fill="none" stroke="#806829" stroke-width="2.7732" cx="441.575" cy="260.29" rx="2.652" ry="2.695"/>
		<ellipse fill="#FEE470" cx="441.575" cy="282.369" rx="2.652" ry="2.696"/>
		<path fill="#F2C716" d="M439.335,283.799l0.504,0.635l0.972,0.542l0.841,0.038l0.897-0.094l0.952-0.747l0.411-0.635l0.262-0.99
			v-1.028l-0.41-0.579l-0.599-0.692l-0.748-0.299c0,0,0.39,0.688,0.487,1.009c0.093,0.31,0.099,0.711,0.037,1.028
			c-0.061,0.306-0.217,0.691-0.412,0.934c-0.215,0.271-0.623,0.598-0.934,0.748c-0.347,0.167-0.791,0.212-1.177,0.224
			C440.093,283.901,439.335,283.799,439.335,283.799z"/>
		<path fill="#FFF0A7" d="M442.045,281.081c0,0.778-0.653,1.41-1.459,1.41c-0.804,0-1.456-0.631-1.456-1.41
			c0-0.4,0.322-0.387,0.598-0.645c0.263-0.243,0.711-0.691,1.103-0.691C441.635,279.745,442.045,280.301,442.045,281.081z"/>
		<ellipse fill="none" stroke="#806829" stroke-width="2.7732" cx="441.575" cy="282.369" rx="2.652" ry="2.696"/>
		<ellipse fill="#FEE470" cx="441.575" cy="304.514" rx="2.652" ry="2.695"/>
		<path fill="#F2C716" d="M439.335,305.943l0.504,0.636l0.972,0.542l0.841,0.037l0.897-0.093l0.952-0.747l0.411-0.636l0.262-0.99
			v-1.027l-0.41-0.579l-0.599-0.692l-0.748-0.298c0,0,0.39,0.687,0.487,1.008c0.093,0.309,0.099,0.711,0.037,1.028
			c-0.061,0.306-0.217,0.69-0.412,0.934c-0.215,0.27-0.623,0.598-0.934,0.747c-0.347,0.167-0.792,0.212-1.177,0.225
			C440.093,306.047,439.335,305.943,439.335,305.943z"/>
		<path fill="#FFF0A7" d="M442.044,303.225c0,0.779-0.652,1.411-1.458,1.411c-0.804,0-1.456-0.632-1.456-1.411
			c0-0.399,0.321-0.387,0.598-0.645c0.263-0.242,0.711-0.691,1.103-0.691C441.635,301.889,442.044,302.447,442.044,303.225z"/>
		<ellipse fill="none" stroke="#806829" stroke-width="2.7732" cx="441.575" cy="304.514" rx="2.652" ry="2.695"/>
		<ellipse fill="#FEE470" cx="346.831" cy="238.005" rx="2.652" ry="2.696"/>
		<path fill="#F2C716" d="M344.591,239.435l0.504,0.635l0.972,0.542l0.841,0.038l0.896-0.094l0.953-0.747l0.41-0.635l0.262-0.99
			v-1.028l-0.411-0.579l-0.598-0.691l-0.747-0.299c0,0,0.389,0.688,0.485,1.009c0.094,0.309,0.101,0.711,0.038,1.028
			c-0.061,0.306-0.217,0.69-0.411,0.934c-0.215,0.27-0.623,0.598-0.935,0.747c-0.347,0.167-0.792,0.213-1.177,0.225
			C345.348,239.538,344.591,239.435,344.591,239.435L344.591,239.435z"/>
		<path fill="#FFF0A7" d="M347.299,236.716c0,0.778-0.652,1.411-1.457,1.411c-0.804,0-1.457-0.632-1.457-1.411
			c0-0.4,0.321-0.387,0.598-0.644c0.263-0.243,0.711-0.692,1.103-0.692C346.889,235.38,347.299,235.938,347.299,236.716z"/>
		<ellipse fill="none" stroke="#806829" stroke-width="2.7732" cx="346.831" cy="238.005" rx="2.652" ry="2.696"/>
		<ellipse fill="#FEE470" cx="346.831" cy="260.29" rx="2.652" ry="2.695"/>
		<path fill="#F2C716" d="M344.591,261.719l0.504,0.636l0.972,0.542l0.841,0.037l0.896-0.094l0.953-0.747l0.411-0.635l0.261-0.99
			v-1.028l-0.411-0.58l-0.598-0.691l-0.747-0.299c0,0,0.389,0.687,0.485,1.009c0.094,0.309,0.101,0.71,0.038,1.027
			c-0.061,0.306-0.217,0.691-0.411,0.935c-0.215,0.269-0.623,0.597-0.935,0.747c-0.347,0.167-0.792,0.213-1.177,0.225
			C345.348,261.823,344.591,261.719,344.591,261.719z"/>
		<path fill="#FFF0A7" d="M347.299,259c0,0.779-0.652,1.411-1.457,1.411c-0.804,0-1.457-0.632-1.457-1.411
			c0-0.399,0.321-0.388,0.599-0.644c0.262-0.243,0.71-0.691,1.102-0.691C346.89,257.666,347.299,258.222,347.299,259z"/>
		<ellipse fill="none" stroke="#806829" stroke-width="2.7732" cx="346.831" cy="260.29" rx="2.652" ry="2.695"/>
		<ellipse fill="#FEE470" cx="346.831" cy="282.369" rx="2.652" ry="2.696"/>
		<path fill="#F2C716" d="M344.591,283.799l0.504,0.635l0.972,0.542l0.841,0.038l0.896-0.094l0.953-0.747l0.411-0.635l0.261-0.99
			v-1.028l-0.411-0.579l-0.598-0.692l-0.747-0.299c0,0,0.389,0.688,0.485,1.009c0.094,0.31,0.101,0.711,0.038,1.028
			c-0.061,0.306-0.217,0.691-0.411,0.934c-0.215,0.271-0.623,0.598-0.935,0.748c-0.347,0.167-0.792,0.212-1.177,0.224
			C345.348,283.901,344.591,283.799,344.591,283.799z"/>
		<path fill="#FFF0A7" d="M347.299,281.081c0,0.778-0.652,1.41-1.457,1.41c-0.804,0-1.457-0.631-1.457-1.41
			c0-0.4,0.321-0.387,0.599-0.645c0.262-0.243,0.71-0.691,1.102-0.691C346.89,279.745,347.299,280.301,347.299,281.081z"/>
		<ellipse fill="none" stroke="#806829" stroke-width="2.7732" cx="346.831" cy="282.369" rx="2.652" ry="2.696"/>
		<ellipse fill="#FEE470" cx="346.831" cy="304.514" rx="2.652" ry="2.695"/>
		<path fill="#F2C716" d="M344.591,305.943l0.504,0.636l0.972,0.542l0.841,0.037l0.896-0.093l0.953-0.747l0.41-0.636l0.262-0.99
			v-1.027l-0.411-0.579l-0.598-0.692l-0.747-0.298c0,0,0.389,0.687,0.485,1.008c0.094,0.309,0.101,0.711,0.038,1.028
			c-0.061,0.306-0.217,0.69-0.411,0.934c-0.215,0.27-0.623,0.598-0.935,0.747c-0.347,0.167-0.792,0.212-1.177,0.225
			C345.348,306.047,344.591,305.943,344.591,305.943z"/>
		<path fill="#FFF0A7" d="M347.299,303.225c0,0.779-0.652,1.411-1.457,1.411c-0.804,0-1.457-0.632-1.457-1.411
			c0-0.399,0.321-0.387,0.598-0.645c0.263-0.242,0.711-0.691,1.103-0.691C346.889,301.889,347.299,302.447,347.299,303.225z"/>
		<ellipse fill="none" stroke="#806829" stroke-width="2.7732" cx="346.831" cy="304.514" rx="2.652" ry="2.695"/>
		<ellipse fill="#FEE470" cx="369.91" cy="238.005" rx="2.652" ry="2.696"/>
		<path fill="#F2C716" d="M367.67,239.435l0.504,0.635l0.972,0.542l0.841,0.038l0.896-0.094l0.953-0.747l0.411-0.635l0.262-0.99
			v-1.028l-0.411-0.579l-0.598-0.691l-0.748-0.299c0,0,0.389,0.688,0.486,1.009c0.094,0.309,0.1,0.711,0.037,1.028
			c-0.061,0.306-0.217,0.69-0.411,0.934c-0.215,0.27-0.623,0.598-0.934,0.747c-0.348,0.167-0.792,0.213-1.177,0.225
			C368.427,239.538,367.67,239.435,367.67,239.435L367.67,239.435z"/>
		<path fill="#FFF0A7" d="M370.379,236.716c0,0.778-0.653,1.411-1.457,1.411c-0.805,0-1.458-0.632-1.458-1.411
			c0-0.4,0.322-0.387,0.599-0.644c0.262-0.243,0.711-0.692,1.102-0.692C369.969,235.38,370.379,235.938,370.379,236.716z"/>
		<ellipse fill="none" stroke="#806829" stroke-width="2.7732" cx="369.91" cy="238.005" rx="2.652" ry="2.696"/>
		<ellipse fill="#FEE470" cx="369.91" cy="260.29" rx="2.652" ry="2.695"/>
		<path fill="#F2C716" d="M367.67,261.719l0.504,0.636l0.972,0.542l0.841,0.037l0.896-0.094l0.953-0.747l0.411-0.635l0.262-0.99
			v-1.028l-0.411-0.58l-0.598-0.691l-0.748-0.299c0,0,0.389,0.687,0.486,1.009c0.094,0.309,0.1,0.71,0.037,1.027
			c-0.061,0.306-0.217,0.691-0.411,0.935c-0.215,0.269-0.623,0.597-0.934,0.747c-0.348,0.167-0.792,0.213-1.177,0.225
			C368.427,261.823,367.67,261.719,367.67,261.719z"/>
		<path fill="#FFF0A7" d="M370.379,259c0,0.779-0.653,1.411-1.457,1.411c-0.805,0-1.458-0.632-1.458-1.411
			c0-0.399,0.322-0.388,0.599-0.644c0.262-0.243,0.711-0.691,1.102-0.691C369.969,257.666,370.379,258.222,370.379,259z"/>
		<ellipse fill="none" stroke="#806829" stroke-width="2.7732" cx="369.91" cy="260.29" rx="2.652" ry="2.695"/>
		<ellipse fill="#FEE470" cx="369.91" cy="282.369" rx="2.652" ry="2.696"/>
		<path fill="#F2C716" d="M367.67,283.799l0.504,0.635l0.972,0.542l0.841,0.038l0.896-0.094l0.953-0.747l0.411-0.635l0.262-0.99
			v-1.028l-0.411-0.579l-0.598-0.692l-0.748-0.299c0,0,0.389,0.688,0.486,1.009c0.094,0.31,0.1,0.711,0.037,1.028
			c-0.061,0.306-0.217,0.691-0.411,0.934c-0.215,0.271-0.623,0.598-0.934,0.748c-0.348,0.167-0.792,0.212-1.177,0.224
			C368.427,283.901,367.67,283.799,367.67,283.799z"/>
		<path fill="#FFF0A7" d="M370.379,281.081c0,0.778-0.653,1.41-1.457,1.41c-0.805,0-1.458-0.631-1.458-1.41
			c0-0.4,0.322-0.387,0.599-0.645c0.262-0.243,0.711-0.691,1.102-0.691C369.969,279.745,370.379,280.301,370.379,281.081z"/>
		<ellipse fill="none" stroke="#806829" stroke-width="2.7732" cx="369.91" cy="282.369" rx="2.652" ry="2.696"/>
		<ellipse fill="#FEE470" cx="369.91" cy="304.514" rx="2.652" ry="2.695"/>
		<path fill="#F2C716" d="M367.67,305.943l0.504,0.636l0.972,0.542l0.841,0.037l0.896-0.093l0.953-0.747l0.411-0.636l0.262-0.99
			v-1.027l-0.411-0.579l-0.598-0.692l-0.748-0.298c0,0,0.389,0.687,0.486,1.008c0.094,0.309,0.1,0.711,0.037,1.028
			c-0.061,0.306-0.217,0.69-0.411,0.934c-0.215,0.27-0.623,0.598-0.934,0.747c-0.348,0.167-0.792,0.212-1.177,0.225
			C368.427,306.047,367.67,305.943,367.67,305.943z"/>
		<path fill="#FFF0A7" d="M370.379,303.225c0,0.779-0.653,1.411-1.457,1.411c-0.805,0-1.458-0.632-1.458-1.411
			c0-0.399,0.322-0.387,0.599-0.645c0.262-0.242,0.711-0.691,1.102-0.691C369.969,301.889,370.379,302.447,370.379,303.225z"/>
		<ellipse fill="none" stroke="#806829" stroke-width="2.7732" cx="369.91" cy="304.514" rx="2.652" ry="2.695"/>
		<ellipse fill="#FEE470" cx="394.263" cy="238.005" rx="2.652" ry="2.696"/>
		<path fill="#F2C716" d="M392.023,239.435l0.505,0.635l0.971,0.542l0.842,0.038l0.896-0.094l0.954-0.747l0.41-0.635l0.262-0.99
			v-1.028l-0.41-0.579l-0.599-0.691l-0.747-0.299c0,0,0.388,0.688,0.485,1.009c0.094,0.309,0.1,0.711,0.037,1.028
			c-0.06,0.306-0.217,0.69-0.41,0.934c-0.216,0.27-0.623,0.598-0.935,0.747c-0.348,0.167-0.792,0.213-1.178,0.225
			C392.781,239.538,392.023,239.435,392.023,239.435L392.023,239.435z"/>
		<path fill="#FFF0A7" d="M394.732,236.716c0,0.778-0.652,1.411-1.457,1.411s-1.458-0.632-1.458-1.411c0-0.4,0.322-0.387,0.6-0.644
			c0.261-0.243,0.71-0.692,1.102-0.692C394.322,235.38,394.732,235.938,394.732,236.716z"/>
		<ellipse fill="none" stroke="#806829" stroke-width="2.7732" cx="394.263" cy="238.005" rx="2.652" ry="2.696"/>
		<ellipse fill="#FEE470" cx="394.263" cy="260.29" rx="2.652" ry="2.695"/>
		<path fill="#F2C716" d="M392.023,261.719l0.505,0.636l0.971,0.542l0.842,0.037l0.896-0.094l0.954-0.747l0.41-0.635l0.262-0.99
			v-1.028l-0.41-0.58l-0.599-0.691l-0.747-0.299c0,0,0.388,0.687,0.485,1.009c0.094,0.309,0.101,0.71,0.038,1.027
			c-0.061,0.306-0.218,0.691-0.411,0.935c-0.216,0.269-0.623,0.597-0.935,0.747c-0.348,0.167-0.792,0.213-1.178,0.225
			C392.781,261.823,392.023,261.719,392.023,261.719z"/>
		<path fill="#FFF0A7" d="M394.732,259c0,0.779-0.652,1.411-1.457,1.411s-1.458-0.632-1.458-1.411c0-0.399,0.322-0.388,0.6-0.644
			c0.261-0.243,0.71-0.691,1.102-0.691C394.322,257.666,394.732,258.222,394.732,259z"/>
		<ellipse fill="none" stroke="#806829" stroke-width="2.7732" cx="394.263" cy="260.29" rx="2.652" ry="2.695"/>
		<ellipse fill="#FEE470" cx="394.263" cy="282.369" rx="2.652" ry="2.696"/>
		<path fill="#F2C716" d="M392.023,283.799l0.505,0.635l0.971,0.542l0.842,0.038l0.896-0.094l0.954-0.747l0.41-0.635l0.262-0.99
			v-1.028l-0.41-0.579l-0.599-0.692l-0.747-0.299c0,0,0.388,0.688,0.485,1.009c0.094,0.31,0.101,0.711,0.038,1.028
			c-0.061,0.306-0.218,0.691-0.411,0.934c-0.216,0.271-0.623,0.598-0.935,0.748c-0.348,0.167-0.792,0.212-1.178,0.224
			C392.781,283.901,392.023,283.799,392.023,283.799z"/>
		<path fill="#FFF0A7" d="M394.732,281.081c0,0.778-0.652,1.41-1.457,1.41s-1.458-0.631-1.458-1.41c0-0.4,0.322-0.387,0.6-0.645
			c0.261-0.243,0.71-0.691,1.102-0.691C394.322,279.745,394.732,280.301,394.732,281.081z"/>
		<ellipse fill="none" stroke="#806829" stroke-width="2.7732" cx="394.263" cy="282.369" rx="2.652" ry="2.696"/>
		<ellipse fill="#FEE470" cx="394.263" cy="304.514" rx="2.652" ry="2.695"/>
		<path fill="#F2C716" d="M392.023,305.943l0.505,0.636l0.971,0.542l0.842,0.037l0.896-0.093l0.954-0.747l0.41-0.636l0.262-0.99
			v-1.027l-0.41-0.579l-0.599-0.692l-0.747-0.298c0,0,0.388,0.687,0.485,1.008c0.094,0.309,0.1,0.711,0.037,1.028
			c-0.06,0.306-0.217,0.69-0.41,0.934c-0.216,0.27-0.623,0.598-0.935,0.747c-0.348,0.167-0.792,0.212-1.178,0.225
			C392.781,306.047,392.023,305.943,392.023,305.943z"/>
		<path fill="#FFF0A7" d="M394.732,303.225c0,0.779-0.652,1.411-1.457,1.411s-1.458-0.632-1.458-1.411
			c0-0.399,0.322-0.387,0.6-0.645c0.261-0.242,0.71-0.691,1.102-0.691C394.322,301.889,394.732,302.447,394.732,303.225z"/>
		<ellipse fill="none" stroke="#806829" stroke-width="2.7732" cx="394.263" cy="304.514" rx="2.652" ry="2.695"/>
		<path fill="#E8CE55" d="M462.294,255.813c-1.891,0-3.399,1.537-3.399,3.427v8.458c0,1.89,1.509,3.426,3.399,3.426h2.708
			c1.892,0,3.429-1.537,3.429-3.426v-8.458c0-1.89-1.537-3.427-3.429-3.427H462.294z M462.516,259.489h2.267
			c0.441,0,0.663,0.222,0.663,0.608v6.744c0,0.386-0.222,0.608-0.663,0.608h-2.267c-0.444,0-0.663-0.213-0.663-0.608v-6.744
			C461.853,259.702,462.072,259.489,462.516,259.489z"/>
		<path fill="none" stroke="#806829" stroke-width="0.7928" d="M462.294,255.813c-1.891,0-3.399,1.537-3.399,3.427v8.458
			c0,1.89,1.509,3.426,3.399,3.426h2.708c1.892,0,3.429-1.537,3.429-3.426v-8.458c0-1.89-1.537-3.427-3.429-3.427H462.294z
			 M462.516,259.489h2.267c0.441,0,0.663,0.222,0.663,0.608v6.744c0,0.386-0.222,0.608-0.663,0.608h-2.267
			c-0.444,0-0.663-0.213-0.663-0.608v-6.744C461.853,259.702,462.072,259.489,462.516,259.489z"/>
		<path fill="#FFF0A7" d="M462.636,256.792c-1.656,0-3.004,1.458-3.004,3.245v6.866c0,1.786,1.348,3.245,3.004,3.245h2.038
			c1.657,0,3.004-1.457,3.004-3.245v-6.866c0-1.789-1.347-3.245-3.004-3.245H462.636z M462.636,258.051h2.038
			c1.039,0,1.851,0.874,1.851,1.985v6.866c0,1.111-0.812,1.985-1.851,1.985h-2.038c-1.038,0-1.851-0.87-1.851-1.985v-6.866
			C460.786,258.921,461.598,258.051,462.636,258.051z"/>
		<path fill="#E8CE55" d="M462.096,316.656c-5.293,0-9.555,4.283-9.555,9.559c0,5.275,4.262,9.55,9.555,9.55
			c5.294,0,9.555-4.275,9.554-9.55C471.65,320.938,467.389,316.656,462.096,316.656z M462.096,320.775
			c3.111,0,5.441,2.445,5.441,5.439c0,2.994-2.325,5.43-5.441,5.43c-3.115,0-5.434-2.436-5.434-5.43
			C456.663,323.22,458.984,320.775,462.096,320.775z"/>
		<path fill="none" stroke="#806829" stroke-width="2.8072" d="M462.096,316.656c-5.293,0-9.555,4.283-9.555,9.559
			c0,5.275,4.262,9.55,9.555,9.55c5.294,0,9.555-4.275,9.554-9.55C471.65,320.938,467.389,316.656,462.096,316.656z
			 M462.096,320.775c3.111,0,5.441,2.445,5.441,5.439c0,2.994-2.325,5.43-5.441,5.43c-3.115,0-5.434-2.436-5.434-5.43
			C456.663,323.22,458.984,320.775,462.096,320.775z"/>
		<path fill="#FFF0A7" d="M462.101,317.834c-4.576,0-8.243,3.749-8.243,8.375c0,4.627,3.666,8.376,8.243,8.376
			s8.235-3.749,8.235-8.376C470.336,321.583,466.677,317.834,462.101,317.834z M462.101,319.529c3.757,0,6.635,3.006,6.635,6.681
			c0,3.677-2.874,6.683-6.635,6.683c-3.762,0-6.644-3.006-6.644-6.683C455.458,322.534,458.342,319.529,462.101,319.529z"/>
		<path fill="#E8CE55" d="M452.187,243.205c-1.533,1.106-1.857,3.235-0.751,4.769l4.948,6.858c1.107,1.533,3.229,1.896,4.763,0.79
			l2.196-1.585c1.533-1.107,1.881-3.251,0.774-4.785l-4.95-6.858c-1.106-1.534-3.251-1.88-4.784-0.773L452.187,243.205z
			 M454.518,246.056l1.837-1.326c0.358-0.258,0.668-0.208,0.894,0.105l3.946,5.469c0.227,0.313,0.177,0.623-0.182,0.881
			l-1.838,1.326c-0.36,0.261-0.662,0.215-0.894-0.104l-3.946-5.469C454.104,246.617,454.157,246.316,454.518,246.056z"/>
		<path fill="none" stroke="#806829" stroke-width="0.7928" d="M452.187,243.205c-1.533,1.106-1.857,3.235-0.751,4.769l4.948,6.858
			c1.107,1.533,3.229,1.896,4.763,0.79l2.196-1.585c1.533-1.107,1.881-3.251,0.774-4.785l-4.95-6.858
			c-1.106-1.534-3.251-1.88-4.784-0.773L452.187,243.205z M454.518,246.056l1.837-1.326c0.358-0.258,0.668-0.208,0.894,0.105
			l3.946,5.469c0.227,0.313,0.177,0.623-0.182,0.881l-1.838,1.326c-0.36,0.261-0.662,0.215-0.894-0.104l-3.946-5.469
			C454.104,246.617,454.157,246.316,454.518,246.056z"/>
		<path fill="#FFF0A7" d="M453.037,243.798c-1.343,0.969-1.582,2.94-0.537,4.389l4.017,5.567c1.046,1.449,2.993,1.843,4.336,0.874
			l1.652-1.193c1.343-0.969,1.584-2.939,0.536-4.389l-4.018-5.567c-1.047-1.451-2.991-1.843-4.334-0.874L453.037,243.798z
			 M453.774,244.82l1.652-1.192c0.843-0.608,2.012-0.375,2.662,0.526l4.018,5.567c0.65,0.902,0.503,2.084-0.339,2.692l-1.653,1.193
			c-0.843,0.607-2.009,0.377-2.661-0.527l-4.019-5.566C452.783,246.608,452.931,245.428,453.774,244.82z"/>
		<path fill="#E8CE55" d="M461.56,271.539c-1.577-1.042-3.683-0.591-4.725,0.987l-4.661,7.058c-1.041,1.577-0.629,3.691,0.948,4.733
			l2.261,1.493c1.577,1.042,3.706,0.606,4.748-0.972l4.661-7.058c1.042-1.578,0.606-3.707-0.972-4.749L461.56,271.539z
			 M459.719,274.728l1.892,1.249c0.368,0.244,0.432,0.551,0.218,0.873l-3.716,5.628c-0.213,0.322-0.52,0.386-0.889,0.142
			l-1.891-1.249c-0.371-0.245-0.437-0.544-0.219-0.873l3.716-5.628C459.048,274.541,459.348,274.483,459.719,274.728z"/>
		<path fill="none" stroke="#806829" stroke-width="0.7928" d="M461.56,271.539c-1.577-1.042-3.683-0.591-4.725,0.987l-4.661,7.058
			c-1.041,1.577-0.629,3.691,0.948,4.733l2.261,1.493c1.577,1.042,3.706,0.606,4.748-0.972l4.661-7.058
			c1.042-1.578,0.606-3.707-0.972-4.749L461.56,271.539z M459.719,274.728l1.892,1.249c0.368,0.244,0.432,0.551,0.218,0.873
			l-3.716,5.628c-0.213,0.322-0.52,0.386-0.889,0.142l-1.891-1.249c-0.371-0.245-0.437-0.544-0.219-0.873l3.716-5.628
			C459.048,274.541,459.348,274.483,459.719,274.728z"/>
		<path fill="#FFF0A7" d="M461.306,272.543c-1.382-0.912-3.311-0.438-4.294,1.052l-3.783,5.729
			c-0.985,1.491-0.664,3.451,0.718,4.364l1.701,1.123c1.382,0.912,3.31,0.439,4.295-1.053l3.782-5.729
			c0.986-1.492,0.664-3.45-0.718-4.363L461.306,272.543z M460.612,273.595l1.7,1.123c0.868,0.572,1.063,1.748,0.451,2.676
			l-3.782,5.729c-0.613,0.928-1.771,1.208-2.639,0.637l-1.701-1.124c-0.866-0.572-1.064-1.746-0.45-2.675l3.783-5.729
			C458.588,273.301,459.745,273.022,460.612,273.595z"/>
		<path fill="#E8CE55" d="M452.939,285.935c-1.873-0.264-3.581,1.048-3.844,2.92l-1.178,8.375c-0.264,1.872,1.017,3.604,2.89,3.867
			l2.682,0.377c1.872,0.263,3.607-1.044,3.871-2.916l1.178-8.375c0.264-1.872-1.045-3.608-2.916-3.871L452.939,285.935z
			 M452.646,289.604l2.244,0.316c0.438,0.062,0.626,0.313,0.572,0.695l-0.939,6.678c-0.054,0.383-0.304,0.571-0.741,0.51
			l-2.244-0.316c-0.44-0.062-0.628-0.303-0.572-0.694l0.939-6.678C451.959,289.724,452.206,289.543,452.646,289.604z"/>
		<path fill="none" stroke="#806829" stroke-width="0.7928" d="M452.939,285.935c-1.873-0.264-3.581,1.048-3.844,2.92l-1.178,8.375
			c-0.264,1.872,1.017,3.604,2.89,3.867l2.682,0.377c1.872,0.263,3.607-1.044,3.871-2.916l1.178-8.375
			c0.264-1.872-1.045-3.608-2.916-3.871L452.939,285.935z M452.646,289.604l2.244,0.316c0.438,0.062,0.626,0.313,0.572,0.695
			l-0.939,6.678c-0.054,0.383-0.304,0.571-0.741,0.51l-2.244-0.316c-0.44-0.062-0.628-0.303-0.572-0.694l0.939-6.678
			C451.959,289.724,452.206,289.543,452.646,289.604z"/>
		<path fill="#FFF0A7" d="M453.141,286.95c-1.641-0.229-3.178,1.027-3.427,2.795l-0.956,6.798c-0.248,1.769,0.883,3.401,2.522,3.632
			l2.018,0.283c1.641,0.231,3.178-1.024,3.428-2.795l0.956-6.798c0.249-1.771-0.883-3.401-2.523-3.631L453.141,286.95z
			 M452.965,288.198l2.018,0.284c1.029,0.145,1.711,1.122,1.557,2.223l-0.956,6.798c-0.154,1.101-1.08,1.853-2.109,1.708
			l-2.018-0.283c-1.029-0.145-1.711-1.119-1.557-2.223l0.956-6.799C451.012,288.802,451.936,288.054,452.965,288.198z"/>
		<path fill="#E8CE55" d="M450.446,302.948c-1.707,0.813-2.407,2.85-1.594,4.556l3.641,7.634c0.814,1.707,2.837,2.444,4.544,1.63
			l2.445-1.165c1.706-0.815,2.432-2.863,1.618-4.569l-3.642-7.634c-0.813-1.707-2.861-2.433-4.568-1.618L450.446,302.948z
			 M452.228,306.171l2.045-0.976c0.398-0.189,0.694-0.085,0.86,0.263l2.903,6.087c0.166,0.349,0.062,0.645-0.337,0.835l-2.046,0.975
			c-0.401,0.191-0.69,0.093-0.861-0.264l-2.901-6.086C451.72,306.648,451.826,306.362,452.228,306.171z"/>
		<path fill="none" stroke="#806829" stroke-width="0.7928" d="M450.446,302.948c-1.707,0.813-2.407,2.85-1.594,4.556l3.641,7.634
			c0.814,1.707,2.837,2.444,4.544,1.63l2.445-1.165c1.706-0.815,2.432-2.863,1.618-4.569l-3.642-7.634
			c-0.813-1.707-2.861-2.433-4.568-1.618L450.446,302.948z M452.228,306.171l2.045-0.976c0.398-0.189,0.694-0.085,0.86,0.263
			l2.903,6.087c0.166,0.349,0.062,0.645-0.337,0.835l-2.046,0.975c-0.401,0.191-0.69,0.093-0.861-0.264l-2.901-6.086
			C451.72,306.648,451.826,306.362,452.228,306.171z"/>
		<path fill="#FFF0A7" d="M451.174,303.684c-1.494,0.713-2.083,2.609-1.314,4.222l2.955,6.196c0.771,1.613,2.614,2.349,4.108,1.636
			l1.84-0.877c1.495-0.713,2.084-2.608,1.314-4.222l-2.956-6.196c-0.77-1.615-2.612-2.349-4.107-1.636L451.174,303.684z
			 M451.716,304.821l1.84-0.877c0.938-0.448,2.047-0.009,2.525,0.994l2.954,6.196c0.479,1.004,0.122,2.141-0.815,2.588l-1.839,0.877
			c-0.938,0.448-2.044,0.012-2.524-0.994l-2.956-6.197C450.421,306.403,450.779,305.269,451.716,304.821z"/>
		<path fill="#E8CE55" d="M448.454,235.328l0.111-0.077c0.734-0.512,1.745-0.33,2.257,0.405l6.522,9.373
			c0.512,0.735,0.329,1.746-0.405,2.257l-0.11,0.078c-0.735,0.511-1.746,0.33-2.258-0.405l-6.522-9.374
			C447.537,236.85,447.718,235.839,448.454,235.328z"/>
		<path fill="none" stroke="#806829" stroke-width="2.0464" d="M448.454,235.328l0.111-0.077c0.734-0.512,1.745-0.33,2.257,0.405
			l6.522,9.373c0.512,0.735,0.329,1.746-0.405,2.257l-0.11,0.078c-0.735,0.511-1.746,0.33-2.258-0.405l-6.522-9.374
			C447.537,236.85,447.718,235.839,448.454,235.328z"/>
		<path fill="#FFF0A7" d="M448.915,235.986c-0.387,0.269-0.478,0.758-0.212,1.14l6.525,9.378c0.266,0.381,0.755,0.466,1.142,0.197
			l0.106-0.073c0.386-0.269,0.477-0.757,0.211-1.139l-6.524-9.378c-0.266-0.381-0.756-0.466-1.143-0.197L448.915,235.986z"/>
		<path fill="#E8CE55" d="M459.197,248.68l0.126-0.049c0.836-0.324,1.774,0.091,2.098,0.926l4.123,10.65
			c0.324,0.835-0.092,1.774-0.927,2.098l-0.126,0.049c-0.836,0.323-1.774-0.092-2.098-0.928l-4.123-10.648
			C457.947,249.942,458.362,249.002,459.197,248.68z"/>
		<path fill="none" stroke="#806829" stroke-width="2.0464" d="M459.197,248.68l0.126-0.049c0.836-0.324,1.774,0.091,2.098,0.926
			l4.123,10.65c0.324,0.835-0.092,1.774-0.927,2.098l-0.126,0.049c-0.836,0.323-1.774-0.092-2.098-0.928l-4.123-10.648
			C457.947,249.942,458.362,249.002,459.197,248.68z"/>
		<path fill="#FFF0A7" d="M459.49,249.428c-0.439,0.17-0.643,0.624-0.475,1.056l4.124,10.655c0.168,0.433,0.623,0.631,1.063,0.462
			l0.12-0.047c0.438-0.169,0.642-0.624,0.475-1.057l-4.125-10.654c-0.167-0.433-0.623-0.631-1.063-0.461L459.49,249.428z"/>
		<path fill="#E8CE55" d="M464.03,264.463l0.128,0.042c0.851,0.282,1.312,1.198,1.03,2.049l-3.586,10.841
			c-0.281,0.851-1.199,1.311-2.049,1.03l-0.128-0.042c-0.851-0.281-1.313-1.199-1.03-2.048l3.585-10.841
			C462.262,264.643,463.179,264.181,464.03,264.463z"/>
		<path fill="none" stroke="#806829" stroke-width="2.0464" d="M464.03,264.463l0.128,0.042c0.851,0.282,1.312,1.198,1.03,2.049
			l-3.586,10.841c-0.281,0.851-1.199,1.311-2.049,1.03l-0.128-0.042c-0.851-0.281-1.313-1.199-1.03-2.048l3.585-10.841
			C462.262,264.643,463.179,264.181,464.03,264.463z"/>
		<path fill="#FFF0A7" d="M463.779,265.226c-0.446-0.148-0.892,0.073-1.038,0.514l-3.588,10.847
			c-0.146,0.441,0.08,0.884,0.527,1.032l0.122,0.041c0.446,0.148,0.893-0.073,1.038-0.515l3.588-10.846
			c0.146-0.441-0.08-0.884-0.527-1.032L463.779,265.226z"/>
		<path fill="#E8CE55" d="M457.325,278.599l0.129,0.042c0.85,0.281,1.311,1.198,1.03,2.049l-3.587,10.841
			c-0.281,0.851-1.198,1.312-2.049,1.031l-0.127-0.043c-0.852-0.281-1.313-1.199-1.03-2.048l3.585-10.842
			C455.557,278.778,456.474,278.317,457.325,278.599z"/>
		<path fill="none" stroke="#806829" stroke-width="2.0464" d="M457.325,278.599l0.129,0.042c0.85,0.281,1.311,1.198,1.03,2.049
			l-3.587,10.841c-0.281,0.851-1.198,1.312-2.049,1.031l-0.127-0.043c-0.852-0.281-1.313-1.199-1.03-2.048l3.585-10.842
			C455.557,278.778,456.474,278.317,457.325,278.599z"/>
		<path fill="#FFF0A7" d="M457.075,279.362c-0.447-0.147-0.893,0.073-1.038,0.515l-3.589,10.846
			c-0.146,0.441,0.081,0.884,0.527,1.032l0.122,0.041c0.447,0.148,0.894-0.073,1.039-0.514l3.588-10.847
			c0.145-0.441-0.08-0.884-0.527-1.032L457.075,279.362z"/>
		<path fill="#E8CE55" d="M452.179,294.594l0.135-0.014c0.891-0.093,1.688,0.553,1.78,1.445l1.184,11.357
			c0.093,0.89-0.555,1.688-1.445,1.781l-0.135,0.014c-0.891,0.093-1.688-0.554-1.781-1.444l-1.183-11.358
			C450.641,295.484,451.289,294.687,452.179,294.594z"/>
		<path fill="none" stroke="#806829" stroke-width="2.0464" d="M452.179,294.594l0.135-0.014c0.891-0.093,1.688,0.553,1.78,1.445
			l1.184,11.357c0.093,0.89-0.555,1.688-1.445,1.781l-0.135,0.014c-0.891,0.093-1.688-0.554-1.781-1.444l-1.183-11.358
			C450.641,295.484,451.289,294.687,452.179,294.594z"/>
		<path fill="#FFF0A7" d="M452.265,295.394c-0.469,0.048-0.784,0.433-0.735,0.895l1.183,11.363c0.048,0.462,0.437,0.773,0.905,0.724
			l0.127-0.013c0.469-0.049,0.784-0.433,0.735-0.896l-1.183-11.364c-0.049-0.461-0.437-0.772-0.905-0.724L452.265,295.394z"/>
		<path fill="#E8CE55" d="M455.501,310.536l0.125-0.054c0.823-0.351,1.775,0.032,2.127,0.856l4.479,10.505
			c0.351,0.824-0.032,1.776-0.855,2.127l-0.125,0.053c-0.824,0.351-1.776-0.032-2.128-0.855l-4.478-10.505
			C454.294,311.84,454.678,310.888,455.501,310.536z"/>
		<path fill="none" stroke="#806829" stroke-width="2.0464" d="M455.501,310.536l0.125-0.054c0.823-0.351,1.775,0.032,2.127,0.856
			l4.479,10.505c0.351,0.824-0.032,1.776-0.855,2.127l-0.125,0.053c-0.824,0.351-1.776-0.032-2.128-0.855l-4.478-10.505
			C454.294,311.84,454.678,310.888,455.501,310.536z"/>
		<path fill="#FFF0A7" d="M455.819,311.275c-0.433,0.184-0.621,0.645-0.438,1.071l4.48,10.511c0.182,0.427,0.645,0.609,1.077,0.426
			l0.118-0.051c0.433-0.186,0.621-0.645,0.439-1.072l-4.481-10.51c-0.182-0.427-0.645-0.61-1.077-0.425L455.819,311.275z"/>
		<path fill="#E8CE55" d="M326.111,255.813c1.891,0,3.399,1.537,3.399,3.427v8.458c0,1.89-1.509,3.426-3.399,3.426h-2.709
			c-1.891,0-3.427-1.537-3.427-3.426v-8.458c0-1.89,1.536-3.427,3.427-3.427H326.111z M325.889,259.489h-2.267
			c-0.441,0-0.663,0.222-0.663,0.608v6.744c0,0.386,0.222,0.608,0.663,0.608h2.267c0.444,0,0.664-0.213,0.664-0.608v-6.744
			C326.553,259.702,326.333,259.489,325.889,259.489z"/>
		<path fill="none" stroke="#806829" stroke-width="0.7928" d="M326.111,255.813c1.891,0,3.399,1.537,3.399,3.427v8.458
			c0,1.89-1.509,3.426-3.399,3.426h-2.709c-1.891,0-3.427-1.537-3.427-3.426v-8.458c0-1.89,1.536-3.427,3.427-3.427H326.111z
			 M325.889,259.489h-2.267c-0.441,0-0.663,0.222-0.663,0.608v6.744c0,0.386,0.222,0.608,0.663,0.608h2.267
			c0.444,0,0.664-0.213,0.664-0.608v-6.744C326.553,259.702,326.333,259.489,325.889,259.489z"/>
		<path fill="#FFF0A7" d="M325.769,256.792c1.656,0,3.004,1.458,3.004,3.245v6.866c0,1.786-1.348,3.245-3.004,3.245h-2.038
			c-1.656,0-3.004-1.457-3.004-3.245v-6.866c0-1.789,1.348-3.245,3.004-3.245H325.769z M325.769,258.051h-2.038
			c-1.039,0-1.851,0.874-1.851,1.985v6.866c0,1.111,0.812,1.985,1.851,1.985h2.038c1.039,0,1.851-0.87,1.851-1.985v-6.866
			C327.62,258.921,326.808,258.051,325.769,258.051z"/>
		<path fill="#E8CE55" d="M326.309,316.656c5.293,0,9.555,4.283,9.555,9.559c0,5.275-4.261,9.55-9.555,9.55s-9.555-4.275-9.555-9.55
			C316.754,320.938,321.016,316.656,326.309,316.656z M326.309,320.775c-3.111,0-5.44,2.445-5.44,5.439
			c0,2.994,2.324,5.43,5.44,5.43s5.433-2.436,5.433-5.43C331.742,323.22,329.421,320.775,326.309,320.775z"/>
		<path fill="none" stroke="#806829" stroke-width="2.8072" d="M326.309,316.656c5.293,0,9.555,4.283,9.555,9.559
			c0,5.275-4.261,9.55-9.555,9.55s-9.555-4.275-9.555-9.55C316.754,320.938,321.016,316.656,326.309,316.656z M326.309,320.775
			c-3.111,0-5.44,2.445-5.44,5.439c0,2.994,2.324,5.43,5.44,5.43s5.433-2.436,5.433-5.43
			C331.742,323.22,329.421,320.775,326.309,320.775z"/>
		<path fill="#FFF0A7" d="M326.304,317.834c4.576,0,8.243,3.749,8.243,8.375c0,4.627-3.666,8.376-8.243,8.376
			c-4.576,0-8.235-3.749-8.235-8.376C318.069,321.583,321.728,317.834,326.304,317.834z M326.304,319.529
			c-3.757,0-6.635,3.006-6.635,6.681c0,3.677,2.874,6.683,6.635,6.683c3.762,0,6.644-3.006,6.644-6.683
			C332.948,322.534,330.062,319.529,326.304,319.529z"/>
		<path fill="#E8CE55" d="M336.218,243.205c1.533,1.106,1.857,3.235,0.751,4.769l-4.949,6.858c-1.106,1.533-3.229,1.896-4.762,0.79
			l-2.196-1.585c-1.533-1.107-1.881-3.251-0.773-4.785l4.949-6.858c1.106-1.534,3.251-1.88,4.784-0.773L336.218,243.205z
			 M333.888,246.056l-1.838-1.326c-0.358-0.258-0.668-0.208-0.894,0.105l-3.946,5.469c-0.227,0.313-0.177,0.623,0.182,0.881
			l1.838,1.326c0.36,0.261,0.663,0.215,0.894-0.104l3.946-5.469C334.301,246.617,334.249,246.316,333.888,246.056z"/>
		<path fill="none" stroke="#806829" stroke-width="0.7928" d="M336.218,243.205c1.533,1.106,1.857,3.235,0.751,4.769l-4.949,6.858
			c-1.106,1.533-3.229,1.896-4.762,0.79l-2.196-1.585c-1.533-1.107-1.881-3.251-0.773-4.785l4.949-6.858
			c1.106-1.534,3.251-1.88,4.784-0.773L336.218,243.205z M333.888,246.056l-1.838-1.326c-0.358-0.258-0.668-0.208-0.894,0.105
			l-3.946,5.469c-0.227,0.313-0.177,0.623,0.182,0.881l1.838,1.326c0.36,0.261,0.663,0.215,0.894-0.104l3.946-5.469
			C334.301,246.617,334.249,246.316,333.888,246.056z"/>
		<path fill="#FFF0A7" d="M335.37,243.798c1.343,0.969,1.582,2.94,0.536,4.389l-4.018,5.567c-1.045,1.449-2.991,1.843-4.334,0.874
			l-1.653-1.193c-1.343-0.969-1.583-2.939-0.536-4.389l4.018-5.567c1.046-1.451,2.991-1.843,4.334-0.874L335.37,243.798z
			 M334.631,244.82l-1.652-1.192c-0.843-0.608-2.012-0.375-2.662,0.526l-4.018,5.567c-0.65,0.902-0.503,2.084,0.339,2.692
			l1.653,1.193c0.843,0.607,2.01,0.377,2.662-0.527l4.018-5.566C335.624,246.608,335.474,245.428,334.631,244.82z"/>
		<path fill="#E8CE55" d="M326.845,271.539c1.578-1.042,3.683-0.591,4.726,0.987l4.66,7.058c1.042,1.577,0.629,3.691-0.949,4.733
			l-2.26,1.493c-1.578,1.042-3.707,0.606-4.748-0.972l-4.661-7.058c-1.042-1.578-0.605-3.707,0.972-4.749L326.845,271.539z
			 M328.686,274.728l-1.892,1.249c-0.368,0.244-0.431,0.551-0.218,0.873l3.716,5.628c0.213,0.322,0.52,0.386,0.889,0.142
			l1.891-1.249c0.371-0.245,0.437-0.544,0.219-0.873l-3.716-5.628C329.357,274.541,329.057,274.483,328.686,274.728z"/>
		<path fill="none" stroke="#806829" stroke-width="0.7928" d="M326.845,271.539c1.578-1.042,3.683-0.591,4.726,0.987l4.66,7.058
			c1.042,1.577,0.629,3.691-0.949,4.733l-2.26,1.493c-1.578,1.042-3.707,0.606-4.748-0.972l-4.661-7.058
			c-1.042-1.578-0.605-3.707,0.972-4.749L326.845,271.539z M328.686,274.728l-1.892,1.249c-0.368,0.244-0.431,0.551-0.218,0.873
			l3.716,5.628c0.213,0.322,0.52,0.386,0.889,0.142l1.891-1.249c0.371-0.245,0.437-0.544,0.219-0.873l-3.716-5.628
			C329.357,274.541,329.057,274.483,328.686,274.728z"/>
		<path fill="#FFF0A7" d="M327.099,272.543c1.382-0.912,3.31-0.438,4.295,1.052l3.782,5.729c0.984,1.491,0.664,3.451-0.718,4.364
			l-1.701,1.123c-1.382,0.912-3.309,0.439-4.295-1.053l-3.782-5.729c-0.986-1.492-0.664-3.45,0.718-4.363L327.099,272.543z
			 M327.793,273.595l-1.7,1.123c-0.867,0.572-1.063,1.748-0.451,2.676l3.783,5.729c0.612,0.928,1.771,1.208,2.638,0.637l1.7-1.124
			c0.867-0.572,1.065-1.746,0.451-2.675l-3.783-5.729C329.817,273.301,328.661,273.022,327.793,273.595z"/>
		<path fill="#E8CE55" d="M335.466,285.935c1.873-0.264,3.581,1.048,3.844,2.92l1.178,8.375c0.264,1.872-1.017,3.604-2.889,3.867
			l-2.683,0.377c-1.872,0.263-3.607-1.044-3.871-2.916l-1.178-8.375c-0.263-1.872,1.044-3.608,2.916-3.871L335.466,285.935z
			 M335.759,289.604l-2.244,0.316c-0.438,0.062-0.626,0.313-0.572,0.695l0.939,6.678c0.054,0.383,0.304,0.571,0.741,0.51
			l2.244-0.316c0.44-0.062,0.628-0.303,0.572-0.694l-0.939-6.678C336.446,289.724,336.2,289.543,335.759,289.604z"/>
		<path fill="none" stroke="#806829" stroke-width="0.7928" d="M335.466,285.935c1.873-0.264,3.581,1.048,3.844,2.92l1.178,8.375
			c0.264,1.872-1.017,3.604-2.889,3.867l-2.683,0.377c-1.872,0.263-3.607-1.044-3.871-2.916l-1.178-8.375
			c-0.263-1.872,1.044-3.608,2.916-3.871L335.466,285.935z M335.759,289.604l-2.244,0.316c-0.438,0.062-0.626,0.313-0.572,0.695
			l0.939,6.678c0.054,0.383,0.304,0.571,0.741,0.51l2.244-0.316c0.44-0.062,0.628-0.303,0.572-0.694l-0.939-6.678
			C336.446,289.724,336.2,289.543,335.759,289.604z"/>
		<path fill="#FFF0A7" d="M335.265,286.95c1.64-0.229,3.177,1.027,3.426,2.795l0.956,6.798c0.249,1.769-0.883,3.401-2.522,3.632
			l-2.019,0.283c-1.64,0.231-3.177-1.024-3.426-2.795l-0.956-6.798c-0.249-1.771,0.882-3.401,2.522-3.631L335.265,286.95z
			 M335.44,288.198l-2.019,0.284c-1.028,0.145-1.71,1.122-1.556,2.223l0.956,6.798c0.155,1.101,1.08,1.853,2.108,1.708l2.019-0.283
			c1.029-0.145,1.712-1.119,1.556-2.223l-0.955-6.799C337.394,288.802,336.469,288.054,335.44,288.198z"/>
		<path fill="#E8CE55" d="M337.96,302.948c1.706,0.813,2.407,2.85,1.593,4.556l-3.641,7.634c-0.813,1.707-2.837,2.444-4.544,1.63
			l-2.445-1.165c-1.706-0.815-2.432-2.863-1.617-4.569l3.641-7.634c0.813-1.707,2.861-2.433,4.568-1.618L337.96,302.948z
			 M336.178,306.171l-2.046-0.976c-0.398-0.189-0.694-0.085-0.86,0.263l-2.902,6.087c-0.167,0.349-0.063,0.645,0.337,0.835
			l2.045,0.975c0.401,0.191,0.69,0.093,0.86-0.264l2.903-6.086C336.685,306.648,336.58,306.362,336.178,306.171z"/>
		<path fill="none" stroke="#806829" stroke-width="0.7928" d="M337.96,302.948c1.706,0.813,2.407,2.85,1.593,4.556l-3.641,7.634
			c-0.813,1.707-2.837,2.444-4.544,1.63l-2.445-1.165c-1.706-0.815-2.432-2.863-1.617-4.569l3.641-7.634
			c0.813-1.707,2.861-2.433,4.568-1.618L337.96,302.948z M336.178,306.171l-2.046-0.976c-0.398-0.189-0.694-0.085-0.86,0.263
			l-2.902,6.087c-0.167,0.349-0.063,0.645,0.337,0.835l2.045,0.975c0.401,0.191,0.69,0.093,0.86-0.264l2.903-6.086
			C336.685,306.648,336.58,306.362,336.178,306.171z"/>
		<path fill="#FFF0A7" d="M337.231,303.684c1.494,0.713,2.083,2.609,1.314,4.222l-2.956,6.196c-0.769,1.613-2.612,2.349-4.107,1.636
			l-1.84-0.877c-1.495-0.713-2.084-2.608-1.314-4.222l2.956-6.196c0.77-1.615,2.612-2.349,4.107-1.636L337.231,303.684z
			 M336.688,304.821l-1.839-0.877c-0.938-0.448-2.046-0.009-2.524,0.994l-2.956,6.196c-0.479,1.004-0.122,2.141,0.816,2.588
			l1.84,0.877c0.938,0.448,2.044,0.012,2.524-0.994l2.955-6.197C337.984,306.403,337.625,305.269,336.688,304.821z"/>
		<path fill="#E8CE55" d="M339.952,235.328l-0.111-0.077c-0.734-0.512-1.745-0.33-2.257,0.405l-6.522,9.373
			c-0.511,0.735-0.33,1.746,0.405,2.257l0.111,0.078c0.735,0.511,1.745,0.33,2.257-0.405l6.522-9.374
			C340.869,236.85,340.687,235.839,339.952,235.328z"/>
		<path fill="none" stroke="#806829" stroke-width="2.0464" d="M339.952,235.328l-0.111-0.077c-0.734-0.512-1.745-0.33-2.257,0.405
			l-6.522,9.373c-0.511,0.735-0.33,1.746,0.405,2.257l0.111,0.078c0.735,0.511,1.745,0.33,2.257-0.405l6.522-9.374
			C340.869,236.85,340.687,235.839,339.952,235.328z"/>
		<path fill="#FFF0A7" d="M339.491,235.986c0.387,0.269,0.478,0.758,0.212,1.14l-6.525,9.378c-0.266,0.381-0.755,0.466-1.142,0.197
			l-0.105-0.073c-0.387-0.269-0.478-0.757-0.212-1.139l6.525-9.378c0.266-0.381,0.755-0.466,1.142-0.197L339.491,235.986z"/>
		<path fill="#E8CE55" d="M329.208,248.68l-0.126-0.049c-0.835-0.324-1.774,0.091-2.098,0.926l-4.123,10.65
			c-0.323,0.835,0.092,1.774,0.927,2.098l0.126,0.049c0.836,0.323,1.774-0.092,2.099-0.928l4.122-10.648
			C330.458,249.942,330.043,249.002,329.208,248.68z"/>
		<path fill="none" stroke="#806829" stroke-width="2.0464" d="M329.208,248.68l-0.126-0.049c-0.835-0.324-1.774,0.091-2.098,0.926
			l-4.123,10.65c-0.323,0.835,0.092,1.774,0.927,2.098l0.126,0.049c0.836,0.323,1.774-0.092,2.099-0.928l4.122-10.648
			C330.458,249.942,330.043,249.002,329.208,248.68z"/>
		<path fill="#FFF0A7" d="M328.917,249.428c0.438,0.17,0.643,0.624,0.475,1.056l-4.125,10.655c-0.168,0.433-0.623,0.631-1.063,0.462
			l-0.12-0.047c-0.438-0.169-0.643-0.624-0.475-1.057l4.125-10.654c0.167-0.433,0.623-0.631,1.063-0.461L328.917,249.428z"/>
		<path fill="#E8CE55" d="M324.376,264.463l-0.129,0.042c-0.85,0.282-1.312,1.198-1.03,2.049l3.586,10.841
			c0.281,0.851,1.199,1.311,2.049,1.03l0.128-0.042c0.851-0.281,1.313-1.199,1.031-2.048l-3.586-10.841
			C326.144,264.643,325.227,264.181,324.376,264.463z"/>
		<path fill="none" stroke="#806829" stroke-width="2.0464" d="M324.376,264.463l-0.129,0.042c-0.85,0.282-1.312,1.198-1.03,2.049
			l3.586,10.841c0.281,0.851,1.199,1.311,2.049,1.03l0.128-0.042c0.851-0.281,1.313-1.199,1.031-2.048l-3.586-10.841
			C326.144,264.643,325.227,264.181,324.376,264.463z"/>
		<path fill="#FFF0A7" d="M324.626,265.226c0.447-0.148,0.893,0.073,1.038,0.514l3.588,10.847c0.146,0.441-0.08,0.884-0.527,1.032
			l-0.121,0.041c-0.447,0.148-0.894-0.073-1.039-0.515l-3.588-10.846c-0.146-0.441,0.08-0.884,0.527-1.032L324.626,265.226z"/>
		<path fill="#E8CE55" d="M331.081,278.599l-0.128,0.042c-0.851,0.281-1.312,1.198-1.03,2.049l3.586,10.841
			c0.281,0.851,1.198,1.312,2.049,1.031l0.128-0.043c0.851-0.281,1.312-1.199,1.03-2.048l-3.586-10.842
			C332.848,278.778,331.931,278.317,331.081,278.599z"/>
		<path fill="none" stroke="#806829" stroke-width="2.0464" d="M331.081,278.599l-0.128,0.042c-0.851,0.281-1.312,1.198-1.03,2.049
			l3.586,10.841c0.281,0.851,1.198,1.312,2.049,1.031l0.128-0.043c0.851-0.281,1.312-1.199,1.03-2.048l-3.586-10.842
			C332.848,278.778,331.931,278.317,331.081,278.599z"/>
		<path fill="#FFF0A7" d="M331.332,279.362c0.446-0.147,0.892,0.073,1.038,0.515l3.588,10.846c0.146,0.441-0.08,0.884-0.527,1.032
			l-0.122,0.041c-0.447,0.148-0.893-0.073-1.038-0.514l-3.588-10.847c-0.146-0.441,0.08-0.884,0.527-1.032L331.332,279.362z"/>
		<path fill="#E8CE55" d="M336.226,294.594l-0.134-0.014c-0.891-0.093-1.688,0.553-1.781,1.445l-1.183,11.357
			c-0.093,0.89,0.554,1.688,1.444,1.781l0.135,0.014c0.891,0.093,1.688-0.554,1.78-1.444l1.184-11.358
			C337.764,295.484,337.117,294.687,336.226,294.594z"/>
		<path fill="none" stroke="#806829" stroke-width="2.0464" d="M336.226,294.594l-0.134-0.014c-0.891-0.093-1.688,0.553-1.781,1.445
			l-1.183,11.357c-0.093,0.89,0.554,1.688,1.444,1.781l0.135,0.014c0.891,0.093,1.688-0.554,1.78-1.444l1.184-11.358
			C337.764,295.484,337.117,294.687,336.226,294.594z"/>
		<path fill="#FFF0A7" d="M336.141,295.394c0.468,0.048,0.783,0.433,0.735,0.895l-1.184,11.363
			c-0.048,0.462-0.437,0.773-0.904,0.724l-0.128-0.013c-0.469-0.049-0.784-0.433-0.736-0.896l1.185-11.364
			c0.048-0.461,0.436-0.772,0.904-0.724L336.141,295.394z"/>
		<path fill="#E8CE55" d="M332.904,310.536l-0.125-0.054c-0.823-0.351-1.775,0.032-2.127,0.856l-4.479,10.505
			c-0.351,0.824,0.032,1.776,0.855,2.127l0.125,0.053c0.823,0.351,1.776-0.032,2.128-0.855l4.478-10.505
			C334.111,311.84,333.728,310.888,332.904,310.536z"/>
		<path fill="none" stroke="#806829" stroke-width="2.0464" d="M332.904,310.536l-0.125-0.054c-0.823-0.351-1.775,0.032-2.127,0.856
			l-4.479,10.505c-0.351,0.824,0.032,1.776,0.855,2.127l0.125,0.053c0.823,0.351,1.776-0.032,2.128-0.855l4.478-10.505
			C334.111,311.84,333.728,310.888,332.904,310.536z"/>
		<path fill="#FFF0A7" d="M332.586,311.275c0.433,0.184,0.621,0.645,0.439,1.071l-4.48,10.511c-0.183,0.427-0.645,0.609-1.078,0.426
			l-0.118-0.051c-0.433-0.186-0.621-0.645-0.439-1.072l4.48-10.51c0.183-0.427,0.645-0.61,1.078-0.425L332.586,311.275z"/>
	</g>
	<g clip-path="url(#SVGID_8_)">
		<radialGradient id="SVGID_20_" cx="394.2026" cy="419.8838" r="19.3379" gradientUnits="userSpaceOnUse">
			<stop  offset="0" style="stop-color:#262262"/>
			<stop  offset="1" style="stop-color:#2E3192"/>
		</radialGradient>
		<path fill="url(#SVGID_20_)" stroke="#FFF200" stroke-width="2" stroke-miterlimit="10" d="M394.205,400.547
			c-10.682,0-19.34,8.657-19.34,19.338c0,10.68,8.658,19.337,19.34,19.337c10.678,0,19.336-8.657,19.336-19.337
			C413.541,409.204,404.882,400.547,394.205,400.547z M394.205,429.718c-5.432,0-9.833-4.402-9.833-9.833
			c0-5.432,4.401-9.833,9.833-9.833c5.431,0,9.833,4.401,9.833,9.833C404.038,425.315,399.635,429.718,394.205,429.718z"/>
		<radialGradient id="SVGID_21_" cx="394.2017" cy="470.3193" r="50.412" gradientUnits="userSpaceOnUse">
			<stop  offset="0" style="stop-color:#262262"/>
			<stop  offset="1" style="stop-color:#2E3192"/>
		</radialGradient>
		<path fill="url(#SVGID_21_)" stroke="#FFF200" stroke-width="2" stroke-miterlimit="10" d="M450.004,514.69
			c0,0-14.258-60.719-19.912-66.373c-5.653-5.653-11.799-22.37-31.711-22.37c-1.625,0-6.737,0-8.358,0
			c-19.912,0-26.058,16.717-31.711,22.37c-5.654,5.654-19.912,66.373-19.912,66.373H450.004z"/>
		<radialGradient id="SVGID_22_" cx="394.2017" cy="523.54" r="48.4005" gradientUnits="userSpaceOnUse">
			<stop  offset="0" style="stop-color:#262262"/>
			<stop  offset="1" style="stop-color:#2E3192"/>
		</radialGradient>
		<path fill="url(#SVGID_22_)" stroke="#FFF200" stroke-width="2" stroke-miterlimit="10" d="M394.736,504.124v-0.004
			c-0.181,0-0.354,0.002-0.534,0.002c-0.18,0-0.356-0.002-0.537-0.002v0.004c-42.693,0.079-65.098,4.886-65.098,38.837h62.689h5.892
			h62.689C459.837,509.01,437.433,504.203,394.736,504.124z"/>
		<radialGradient id="SVGID_23_" cx="394.2017" cy="542.96" r="47.569" gradientUnits="userSpaceOnUse">
			<stop  offset="0" style="stop-color:#262262"/>
			<stop  offset="1" style="stop-color:#2E3192"/>
		</radialGradient>
		<path fill="url(#SVGID_23_)" stroke="#FFF200" stroke-width="2" stroke-miterlimit="10" d="M459.837,542.961
			c0,8.146-29.388,14.749-65.636,14.749c-35.708,0-64.755-6.406-65.615-14.387c-0.014-0.121-0.02-0.242-0.02-0.362
			c0-8.147,29.386-14.75,65.635-14.75C430.45,528.211,459.837,534.813,459.837,542.961z"/>
		<radialGradient id="SVGID_24_" cx="394.2017" cy="557.875" r="8.1649" gradientUnits="userSpaceOnUse">
			<stop  offset="0" style="stop-color:#262262"/>
			<stop  offset="1" style="stop-color:#2E3192"/>
		</radialGradient>
		
			<ellipse fill="url(#SVGID_24_)" stroke="#FFF200" stroke-width="2" stroke-miterlimit="10" cx="394.202" cy="557.875" rx="6.556" ry="9.505"/>
	</g>
	<use xlink:href="#SVGID_2_"  overflow="visible" fill="none" stroke="#000000" stroke-width="7" stroke-miterlimit="10"/>
</g>
<radialGradient id="SVGID_25_" cx="394.2026" cy="575.5225" r="180.5935" gradientUnits="userSpaceOnUse">
	<stop  offset="0.6316" style="stop-color:#FFFFFF"/>
	<stop  offset="0.7049" style="stop-color:#F4F5F5"/>
	<stop  offset="0.8549" style="stop-color:#EAEBEB"/>
	<stop  offset="1" style="stop-color:#E6E7E8"/>
</radialGradient>
<path display="none" fill="url(#SVGID_25_)" stroke="#000000" stroke-width="3" stroke-miterlimit="10" d="M606.917,493.628
	c0,0-35,101-212.714,101s-212.714-101-212.714-101s-32,43-29,61s64.428,102.788,241.714,102.788s238.714-84.788,241.714-102.788
	S606.917,493.628,606.917,493.628z"/>
<g display="none">
	<path fill="none" d="M152.489,554.628c3,18,64.428,102.788,241.714,102.788s238.714-84.788,241.714-102.788"/>
	<path display="inline" d="M190.566,557.796l1.968-0.403l1.307,1.382l10.12-7.123c-0.281-0.464-0.494-0.771-0.636-0.922
		c-1.142-1.208-2.714-1.67-4.716-1.386c-2.002,0.285-3.851,1.229-5.546,2.831l-0.217,0.205l-3.55-0.805
		c6.417-5.409,12.402-5.177,17.956,0.697l0.579,0.612l-11.74,8.269l6.607,6.987l5.268-3.715c3.463-2.445,6.696-3.861,9.698-4.247
		c3.002-0.386,5.338,0.304,7.009,2.07c0.657,0.695,1.113,1.437,1.369,2.225l-3.231,1.21c0.174-1.638-0.038-2.773-0.638-3.408
		c-0.757-0.8-1.822-1.005-3.195-0.614c-1.374,0.391-3.327,1.461-5.86,3.213l-13.311,9.153c-2.855,1.971-4.686,3.337-5.492,4.099
		c-1.064,1.007-1.197,1.933-0.397,2.778c0.35,0.37,0.906,0.845,1.669,1.425l-1.116,0.776l-6.788-4.415l13.603-9.559l-6.606-6.987
		l-2.102,1.473c-3.333,2.336-6.61,3.646-9.833,3.935c-3.223,0.287-5.727-0.514-7.511-2.4c-1.321-1.397-1.842-3.128-1.563-5.193
		l3.732-0.525c-1.02,2.337-0.874,4.2,0.44,5.59c1.892,2,5.343,1.24,10.353-2.281l4.235-2.975L190.566,557.796z"/>
	<path display="inline" d="M211.704,597.266l4.582-4.81c-4.404,2.253-7.684,2.618-9.839,1.095c-1.502-1.061-2.191-2.624-2.069-4.688
		c0.123-2.064,1.034-4.299,2.733-6.703c1.059-1.499,3.043-3.763,5.954-6.793c2.911-3.029,5.764-5.803,8.561-8.32
		c-0.367-0.398-0.635-0.658-0.805-0.778c-1.4-0.989-3.049-1.131-4.947-0.426c-1.898,0.706-3.565,2.075-5.002,4.107l-3.639-0.089
		c5.208-6.579,11.071-7.565,17.588-2.961l0.917,0.647c-3.12,2.777-6.236,5.783-9.349,9.019c-3.113,3.234-5.281,5.718-6.504,7.448
		c-1.33,1.882-2.099,3.547-2.307,4.993c-0.208,1.447,0.176,2.516,1.152,3.205c1.026,0.726,2.467,0.838,4.323,0.337
		c1.855-0.501,3.911-1.564,6.168-3.192l15.008-15.81l3.197,1.605l-4.92,4.91l-10.637,11.191c-1.948,2.055-3.16,3.419-3.636,4.093
		c-0.887,1.255-0.766,2.281,0.363,3.078c0.399,0.282,0.949,0.584,1.651,0.905l-0.954,0.998L211.704,597.266z"/>
	<path display="inline" d="M221.815,600.879l3.374-1.85c-0.086,2.582,0.712,4.281,2.395,5.098c1.103,0.535,2.391,0.369,3.862-0.498
		c1.471-0.867,2.874-2.282,4.207-4.244l11.497-16.954c-0.427-0.333-0.734-0.545-0.921-0.636c-1.542-0.748-3.193-0.62-4.951,0.385
		c-1.758,1.006-3.18,2.628-4.266,4.868l-3.605,0.504c1.928-3.476,4.317-5.747,7.168-6.815c2.851-1.068,5.87-0.829,9.058,0.718
		l1.136,0.551c-1.468,7.431-3.493,14.82-6.075,22.168l19.061-15.87l3.234,0.976l-4.055,5.646l-9.894,14.576
		c-0.873,1.301-1.511,2.366-1.915,3.198c-0.546,1.126-0.319,1.932,0.681,2.417c0.496,0.24,1.193,0.492,2.094,0.755l-0.778,1.141
		l-7.84-1.479l15.756-23.235l-19.798,16.39l-1.593-0.394l0.27-0.557c2.427-5.005,4.548-11.651,6.363-19.941l-4.949,7.275
		c-6.089,8.983-11.49,12.332-16.202,10.047C223.483,604.32,222.379,602.906,221.815,600.879z"/>
	<path display="inline" d="M255.798,617.014l2.912-2.09c0.281,2.282,1.181,3.676,2.7,4.181c1.449,0.482,3.087,0.108,4.914-1.12
		c1.827-1.229,4.328-3.654,7.503-7.275l11.39-12.961c-1.017-0.533-1.909-0.928-2.678-1.184c-2.061-0.686-3.885-0.508-5.474,0.532
		c-1.588,1.039-2.819,2.87-3.69,5.491l-3.553,1.002c1.032-2.478,2.249-4.406,3.649-5.787c1.552-1.539,3.095-2.489,4.627-2.851
		c1.533-0.36,3.545-0.254,6.037,0.32c0.497,0.12,1.251,0.288,2.263,0.505l3.266,0.253l-2.052,6.812l-3.799,14.286
		c-0.885,3.321-1.32,5.558-1.304,6.711c0.016,1.153,0.492,1.886,1.429,2.197c0.167,0.056,0.758,0.207,1.771,0.453l-0.637,1.272
		l-7.3-0.719l2.713-10.184l-8.06-2.681c-2.788,3.181-5.123,5.278-7.004,6.294c-1.882,1.016-3.784,1.204-5.707,0.564
		C257.891,620.431,256.585,619.09,255.798,617.014z M273.561,612.892l7.321,2.436l4.116-15.536L273.561,612.892z"/>
	<path display="inline" d="M286.731,626.848l2.844-2.565c0.529,2.534,1.697,3.999,3.504,4.396c1.208,0.265,2.425-0.192,3.652-1.373
		c1.227-1.18,2.261-2.886,3.102-5.119l7.217-19.148c-0.494-0.224-0.847-0.36-1.06-0.406c-1.665-0.365-3.234,0.146-4.709,1.533
		s-2.479,3.298-3.012,5.729l-3.388,1.332c1.01-3.638,2.762-6.363,5.256-8.175c2.493-1.813,5.272-2.383,8.337-1.71l1.461,0.32
		c0.241,3.897,0.758,8.11,1.551,12.64l0.9,5.134c0.639,3.534,1.054,6.37,1.245,8.509l4.394-11.662
		c1.51-4.023,3.261-7.008,5.251-8.952s4.041-2.685,6.152-2.222c0.751,0.165,1.444,0.521,2.08,1.067l-1.713,2.573
		c-0.69-1.17-1.451-1.847-2.283-2.029c-2.192-0.481-4.237,1.809-6.134,6.868l-5.727,15.192l-2.069,6.013l-2.15,0.489
		c-0.021-1.649-0.443-4.815-1.267-9.496l-1.746-9.864c-0.464-2.636-0.813-4.977-1.044-7.022l-2.917,7.771
		c-1.854,4.909-3.944,8.535-6.272,10.879c-2.328,2.344-4.735,3.243-7.222,2.697C289.219,629.862,287.808,628.73,286.731,626.848z"/>
	<path display="inline" d="M319.142,635.598l2.777-2.779l1.033,0.154c1.171,0.174,2.115-0.221,2.832-1.186s1.524-2.955,2.425-5.971
		l5.078-16.848l-4.178-0.622l2.7-2.791l10.036,1.495l-2.809,2.774l-2.513-0.374l-4.399,14.618c-1.349,4.474-3.59,7.671-6.723,9.592
		l5.965,1.104l-2.685,2.793L319.142,635.598z"/>
	<path display="inline" d="M355.738,638.195l2.369-3.01c0.951,2.407,2.35,3.652,4.198,3.737c1.235,0.056,2.357-0.602,3.367-1.973
		c1.009-1.37,1.738-3.228,2.188-5.571l3.865-20.094c-0.524-0.138-0.895-0.212-1.113-0.222c-1.702-0.078-3.163,0.692-4.38,2.31
		c-1.218,1.618-1.883,3.67-1.997,6.157l-3.113,1.887c0.379-3.756,1.644-6.738,3.794-8.947c2.149-2.209,4.792-3.242,7.927-3.099
		l1.495,0.067c0.898,3.801,2.122,7.865,3.672,12.193l1.757,4.907c1.229,3.375,2.119,6.1,2.67,8.175l2.352-12.238
		c0.807-4.222,2.025-7.459,3.658-9.713c1.631-2.254,3.526-3.331,5.686-3.232c0.769,0.034,1.512,0.269,2.23,0.699l-1.252,2.827
		c-0.879-1.037-1.744-1.575-2.595-1.614c-2.242-0.102-3.869,2.501-4.881,7.809l-3.067,15.944l-1.02,6.276l-2.036,0.847
		c-0.3-1.622-1.253-4.671-2.859-9.144l-3.393-9.426c-0.905-2.519-1.645-4.767-2.22-6.744l-1.558,8.153
		c-0.994,5.152-2.44,9.08-4.336,11.785c-1.897,2.704-4.117,3.998-6.66,3.883C358.7,640.744,357.118,639.868,355.738,638.195z"/>
	<path display="inline" d="M389.1,641.48l2.307-3.18l1.045-0.011c1.185-0.011,2.055-0.549,2.61-1.614s1.043-3.158,1.46-6.277
		l2.373-17.436l-4.224,0.041l2.229-3.18l10.146-0.098l-2.338,3.181l-2.541,0.024l-2.052,15.128
		c-0.632,4.63-2.344,8.139-5.137,10.526l6.064,0.155l-2.214,3.18L389.1,641.48z"/>
	<path display="inline" d="M402.91,641.451l2.096-3.237l0.903-0.033c1.235-0.046,2.12-0.569,2.655-1.571s0.958-2.918,1.27-5.748
		l1.187-10.976c0.348-3.244,1.324-5.946,2.929-8.104c1.605-2.159,3.477-3.278,5.616-3.357c0.955-0.035,2.078,0.394,3.369,1.285
		l-0.583,5.338l-0.996,0.037c0.018-0.37,0.021-0.677,0.013-0.919c-0.098-2.644-1.144-3.929-3.137-3.855
		c-1.963,0.072-3.191,2.417-3.687,7.033l-1.071,9.861c-0.317,2.958-0.828,5.24-1.533,6.847s-1.84,3.05-3.404,4.332l8.714-0.129
		c2.503-0.093,4.675-0.97,6.516-2.633l-0.174,1.608c-1.39,1.816-2.44,2.983-3.154,3.501s-1.673,0.798-2.878,0.843L402.91,641.451z"
		/>
	<path display="inline" d="M446.437,637.124l1.666-3.174c1.274,1.914,2.704,2.757,4.287,2.527c1.512-0.219,2.809-1.286,3.892-3.204
		c1.082-1.917,2.23-5.206,3.446-9.866l4.372-16.691c-1.147-0.021-2.122,0.026-2.924,0.143c-2.149,0.311-3.701,1.287-4.655,2.929
		s-1.233,3.829-0.838,6.563l-2.727,2.488c-0.188-2.677,0.035-4.946,0.669-6.809c0.697-2.071,1.65-3.612,2.858-4.622
		c1.208-1.009,3.055-1.815,5.54-2.42c0.497-0.115,1.247-0.303,2.249-0.563l3.033-1.237l1.219,7.008l3.008,14.474
		c0.696,3.365,1.311,5.561,1.842,6.584c0.531,1.022,1.285,1.464,2.263,1.322c0.175-0.025,0.771-0.154,1.786-0.388l0.001,1.423
		l-6.848,2.63l-2.139-10.32l-8.407,1.217c-1.066,4.093-2.213,7.015-3.44,8.766c-1.227,1.752-2.843,2.772-4.848,3.063
		C449.839,639.24,448.072,638.626,446.437,637.124z M460.468,625.478l7.636-1.104l-3.284-15.733L460.468,625.478z"/>
	<path display="inline" d="M478.329,634.058l1.473-3.563l0.883-0.197c1.206-0.27,1.981-0.945,2.326-2.027
		c0.344-1.082,0.412-3.043,0.204-5.883l-0.827-11.009c-0.247-3.254,0.223-6.088,1.408-8.502c1.187-2.415,2.823-3.854,4.913-4.321
		c0.933-0.208,2.115,0.009,3.547,0.651l0.396,5.355l-0.974,0.218c-0.051-0.368-0.102-0.67-0.154-0.906
		c-0.576-2.582-1.838-3.656-3.785-3.222c-1.917,0.428-2.699,2.956-2.348,7.585l0.738,9.893c0.225,2.967,0.137,5.304-0.265,7.012
		c-0.401,1.707-1.255,3.333-2.561,4.878l8.545-1.71c2.444-0.545,4.421-1.803,5.93-3.771l0.12,1.612
		c-1.035,2.039-1.857,3.377-2.465,4.016c-0.608,0.639-1.501,1.089-2.677,1.352L478.329,634.058z"/>
	<path display="inline" d="M499.268,629.282l1.396-3.673l1.005-0.282c1.141-0.32,1.84-1.067,2.099-2.241
		c0.258-1.173,0.181-3.32-0.231-6.44l-2.266-17.449l-4.066,1.143l1.321-3.651l9.768-2.746l-1.426,3.682l-2.446,0.688l1.973,15.139
		c0.601,4.633-0.135,8.468-2.207,11.503l5.895-1.436l-1.306,3.647L499.268,629.282z"/>
	<path display="inline" d="M515.301,624.747l1.138-3.758l0.251-0.087c1.492-0.518,2.373-1.298,2.645-2.34
		c0.271-1.041,0.114-3.071-0.471-6.088l-3.708-19.342c-2.021,0.702-3.398,2.012-4.13,3.929c-0.731,1.918-0.683,4.073,0.147,6.465
		l0.153,0.443l-2.199,2.887c-1.167-4.157-1.043-7.573,0.372-10.247c1.415-2.675,4.174-4.724,8.277-6.146l8.658-3.004l0.669,6.159
		l-0.928,0.322c-0.104-0.552-0.228-1.035-0.372-1.452c-0.368-1.062-1.066-1.64-2.095-1.735c-1.028-0.095-2.716,0.265-5.062,1.079
		l-0.457,0.158l2.433,12.526l6.567-2.278l-0.782,2.597c-2.363,0.384-3.948,0.716-4.753,0.995l-0.736,0.255l0.445,2.281
		c0.504,2.562,0.652,4.679,0.446,6.351c-0.206,1.673-0.841,3.482-1.902,5.43l7.2-2.07l1.567-0.476c1.6-0.555,2.838-1.82,3.715-3.796
		l0.324,1.694c-0.903,3.009-2.121,4.778-3.652,5.31l-0.684,0.215L515.301,624.747z"/>
	<path display="inline" d="M535.193,615.879l0.683-3.769c1.968,1.682,3.788,2.127,5.46,1.336c1.117-0.528,1.802-1.635,2.051-3.318
		c0.25-1.684,0.025-3.666-0.675-5.948l-5.994-19.564c-0.528,0.124-0.891,0.232-1.088,0.325c-1.541,0.729-2.47,2.093-2.788,4.093
		c-0.319,2,0.054,4.125,1.118,6.375l-1.867,3.125c-1.424-3.496-1.703-6.724-0.838-9.683c0.865-2.958,2.716-5.108,5.553-6.45
		l1.353-0.64c2.573,2.938,5.559,5.956,8.955,9.055l3.851,3.513c2.667,2.405,4.729,4.396,6.188,5.973l-3.653-11.915
		c-1.264-4.107-1.703-7.539-1.316-10.295c0.387-2.755,1.557-4.595,3.51-5.519c0.695-0.329,1.462-0.471,2.299-0.427l0.217,3.084
		c-1.262-0.505-2.277-0.575-3.048-0.211c-2.028,0.96-2.247,4.021-0.655,9.186l4.756,15.524l2.038,6.022l-1.402,1.702
		c-1.025-1.293-3.295-3.54-6.809-6.741l-7.411-6.738c-1.979-1.803-3.686-3.442-5.12-4.92l2.441,7.933
		c1.534,5.019,2.097,9.167,1.688,12.444c-0.409,3.278-1.765,5.461-4.066,6.549C539.004,616.744,537.195,616.711,535.193,615.879z"/>
	<path display="inline" d="M585.458,591.197l-2.894-5.979c0.563,4.915-0.248,8.113-2.431,9.597c-1.521,1.033-3.227,1.13-5.117,0.29
		c-1.89-0.841-3.661-2.479-5.316-4.914c-1.031-1.519-2.454-4.172-4.268-7.961c-1.814-3.789-3.409-7.436-4.783-10.938
		c-0.503,0.204-0.84,0.364-1.012,0.481c-1.418,0.963-2.13,2.457-2.137,4.482c-0.006,2.024,0.69,4.066,2.089,6.126l-1.361,3.376
		c-4.33-7.188-3.195-13.023,3.406-17.508l0.928-0.631c1.504,3.896,3.224,7.87,5.159,11.921s3.499,6.953,4.689,8.706
		c1.295,1.906,2.583,3.211,3.865,3.914c1.281,0.703,2.416,0.719,3.404,0.047c1.04-0.706,1.651-2.016,1.835-3.929
		c0.183-1.912-0.092-4.211-0.822-6.896l-9.531-19.604l2.627-2.43l2.869,6.332l6.741,13.89c1.239,2.546,2.092,4.16,2.555,4.843
		c0.863,1.271,1.866,1.518,3.01,0.741c0.404-0.274,0.88-0.684,1.427-1.228l0.601,1.243L585.458,591.197z"/>
	<path display="inline" d="M592.775,583.184l-0.762-3.771c2.439,0.851,4.3,0.595,5.579-0.77c0.839-0.894,1.063-2.173,0.674-3.836
		c-0.391-1.662-1.324-3.422-2.801-5.278l-12.766-16.02c-0.446,0.309-0.74,0.539-0.882,0.69c-1.174,1.25-1.542,2.863-1.105,4.841
		c0.438,1.978,1.563,3.817,3.378,5.521l-0.591,3.592c-2.744-2.875-4.202-5.832-4.374-8.872c-0.172-3.039,0.955-5.851,3.38-8.435
		l0.863-0.92c6.658,3.611,13.11,7.743,19.357,12.395l-9.48-22.919l1.894-2.797l4.184,5.551l10.974,13.782
		c0.981,1.22,1.81,2.146,2.483,2.779c0.913,0.856,1.749,0.879,2.511,0.068c0.376-0.401,0.824-0.992,1.343-1.774l0.857,1.082
		l-3.744,7.046l-17.496-21.955l9.758,23.777l-0.85,1.404l-0.451-0.424c-4.056-3.806-9.771-7.809-17.146-12.008l5.474,6.89
		c6.766,8.486,8.356,14.639,4.772,18.457C596.557,582.615,594.879,583.249,592.775,583.184z"/>
</g>
</svg>
