<?xml version="1.0" encoding="UTF-8"?>
<!DOCTYPE svg PUBLIC "-//W3C//DTD SVG 1.1//EN" "http://www.w3.org/Graphics/SVG/1.1/DTD/svg11.dtd">
<svg height="659" viewBox="44.081 0 524 659" width="524" xmlns="http://www.w3.org/2000/svg" xmlns:xlink="http://www.w3.org/1999/xlink">
 <defs>
  <linearGradient id="a" x1="309.32" x2="302.61" xlink:href="#G" y1="36.97" y2="58.95"/>
  <linearGradient id="b" x1="472.61" x2="480.33" xlink:href="#G" y1="137.6" y2="162.84"/>
  <linearGradient id="c" gradientUnits="userSpaceOnUse">
   <stop offset=".6316" stop-color="#fff"/>
   <stop offset=".7305" stop-color="#fafafa"/>
   <stop offset="1" stop-color="#f6f6f6"/>
  </linearGradient>
  <linearGradient id="d" x1="468.46" x2="478.65" xlink:href="#P" y1="132.84" y2="132.84"/>
  <linearGradient id="e" x1="464.5" x2="482.6" xlink:href="#C" y1="97.14" y2="97.14"/>
  <linearGradient id="f" x1="466.5" x2="478.4" xlink:href="#C" y1="48.7" y2="87.64"/>
  <linearGradient id="g" x1="473.55" x2="529.69" xlink:href="#C" y1="61.65" y2="61.65"/>
  <linearGradient id="h" x1="417.42" x2="473.55" xlink:href="#C" y1="61.65" y2="61.65"/>
  <linearGradient id="i" x1="417.44" x2="529.67" xlink:href="#C" y1="101.54" y2="101.54"/>
  <linearGradient id="j" x1="476.99" x2="470.27" xlink:href="#G" y1="36.97" y2="58.95"/>
  <linearGradient id="k" gradientTransform="matrix(-1 0 0 1 562.2 0)" x1="55.8" x2="64.74" xlink:href="#G" y1="33.14" y2="62.41"/>
  <linearGradient id="l" x1="440.7" x2="449.65" xlink:href="#G" y1="33.14" y2="62.41"/>
  <linearGradient id="m" x1="475.58" x2="502.03" xlink:href="#C" y1="46.29" y2="46.29"/>
  <linearGradient id="n" x1="445.07" x2="471.52" xlink:href="#C" y1="46.29" y2="46.29"/>
  <linearGradient id="o" x1="459.72" x2="487.39" xlink:href="#C" y1="51.5" y2="51.5"/>
  <linearGradient id="p" x1="137.28" x2="144.99" xlink:href="#G" y1="137.6" y2="162.84"/>
  <linearGradient id="q" x1="133.12" x2="143.32" xlink:href="#P" y1="132.84" y2="132.84"/>
  <linearGradient id="r" x1="129.17" x2="147.27" xlink:href="#C" y1="97.14" y2="97.14"/>
  <linearGradient id="s" x1="131.16" x2="143.07" xlink:href="#C" y1="48.7" y2="87.64"/>
  <linearGradient id="t" x1="138.22" x2="194.36" xlink:href="#C" y1="61.65" y2="61.65"/>
  <linearGradient id="u" x1="82.08" x2="138.22" xlink:href="#C" y1="61.65" y2="61.65"/>
  <linearGradient id="v" x1="82.11" x2="194.33" xlink:href="#C" y1="101.54" y2="101.54"/>
  <linearGradient id="w" x1="141.66" x2="134.94" xlink:href="#G" y1="36.97" y2="58.95"/>
  <linearGradient id="x" gradientTransform="matrix(-1 0 0 1 562.2 0)" x1="391.13" x2="400.08" xlink:href="#G" y1="33.14" y2="62.41"/>
  <linearGradient id="y" x1="105.37" x2="114.32" xlink:href="#G" y1="33.14" y2="62.41"/>
  <linearGradient id="z" x1="140.25" x2="166.7" xlink:href="#C" y1="46.29" y2="46.29"/>
  <linearGradient id="A" x1="109.74" x2="136.19" xlink:href="#C" y1="46.29" y2="46.29"/>
  <linearGradient id="B" gradientUnits="userSpaceOnUse" x1="305.89" x2="305.89" y1="171.29" y2="3.5">
   <stop offset="0"/>
   <stop offset="1" stop-color="#414042"/>
  </linearGradient>
  <linearGradient id="C" gradientUnits="userSpaceOnUse">
   <stop offset="0" stop-color="#bcbec0"/>
   <stop offset="1" stop-color="#fff"/>
  </linearGradient>
  <linearGradient id="D" x1="292.05" x2="319.72" xlink:href="#C" y1="51.5" y2="51.5"/>
  <linearGradient id="E" x1="277.41" x2="303.86" xlink:href="#C" y1="46.29" y2="46.29"/>
  <linearGradient id="F" x1="307.92" x2="334.37" xlink:href="#C" y1="46.29" y2="46.29"/>
  <linearGradient id="G" gradientUnits="userSpaceOnUse">
   <stop offset="0" stop-color="#f9ed32"/>
   <stop offset="1" stop-color="#fbb040"/>
  </linearGradient>
  <linearGradient id="H" x1="273.04" x2="281.98" xlink:href="#G" y1="33.14" y2="62.41"/>
  <linearGradient id="I" gradientTransform="matrix(-1 0 0 1 562.2 0)" x1="223.46" x2="232.41" xlink:href="#G" y1="33.14" y2="62.41"/>
  <linearGradient id="J" x1="124.39" x2="152.05" xlink:href="#C" y1="51.5" y2="51.5"/>
  <linearGradient id="K" x1="249.77" x2="362" xlink:href="#C" y1="101.54" y2="101.54"/>
  <linearGradient id="L" x1="249.75" x2="305.89" xlink:href="#C" y1="61.65" y2="61.65"/>
  <linearGradient id="M" x1="305.89" x2="362.02" xlink:href="#C" y1="61.65" y2="61.65"/>
  <linearGradient id="N" x1="298.83" x2="310.73" xlink:href="#C" y1="48.7" y2="87.64"/>
  <linearGradient id="O" x1="296.83" x2="314.94" xlink:href="#C" y1="97.14" y2="97.14"/>
  <linearGradient id="P" gradientUnits="userSpaceOnUse">
   <stop offset="0" stop-color="#bcbec0"/>
   <stop offset="1" stop-color="#e6e7e8"/>
  </linearGradient>
  <linearGradient id="Q" x1="300.79" x2="310.98" xlink:href="#P" y1="132.84" y2="132.84"/>
  <linearGradient id="R" x1="304.94" x2="312.66" xlink:href="#G" y1="137.6" y2="162.84"/>
  <radialGradient id="S" cx="460.15" cy="331.43" gradientTransform="matrix(.70711 .70711 -.70711 .70711 367.82 -154.42)" r="36.05" xlink:href="#c"/>
  <radialGradient id="T" cx="460.15" cy="619.83" gradientTransform="matrix(.70711 .70711 -.70711 .70711 367.82 -154.42)" r="36.05" xlink:href="#c"/>
  <radialGradient id="U" cx="315.95" cy="331.43" gradientTransform="matrix(.70711 .70711 -.70711 .70711 367.82 -154.42)" r="36.05" xlink:href="#c"/>
  <radialGradient id="V" cx="243.85" cy="259.33" gradientTransform="matrix(.70711 .70711 -.70711 .70711 367.82 -154.42)" r="36.05" xlink:href="#c"/>
  <radialGradient id="W" cx="171.75" cy="331.43" gradientTransform="matrix(.70711 .70711 -.70711 .70711 367.82 -154.42)" r="36.05" xlink:href="#c"/>
  <radialGradient id="X" cx="27.55" cy="475.63" gradientTransform="matrix(.70711 .70711 -.70711 .70711 367.82 -154.42)" r="36.05" xlink:href="#c"/>
  <radialGradient id="Y" cx="460.15" cy="187.23" gradientTransform="matrix(.70711 .70711 -.70711 .70711 367.82 -154.42)" r="36.05" xlink:href="#c"/>
  <radialGradient id="Z" cx="388.05" cy="115.14" gradientTransform="matrix(.70711 .70711 -.70711 .70711 367.82 -154.42)" r="36.05" xlink:href="#c"/>
  <radialGradient id="aa" cx="315.95" cy="187.23" gradientTransform="matrix(.70711 .70711 -.70711 .70711 367.82 -154.42)" r="36.05" xlink:href="#c"/>
  <radialGradient id="ab" cx="532.25" cy="547.73" gradientTransform="matrix(.70711 .70711 -.70711 .70711 367.82 -154.42)" r="36.05" xlink:href="#c"/>
  <radialGradient id="ac" cx="532.25" cy="259.33" gradientTransform="matrix(.70711 .70711 -.70711 .70711 367.82 -154.42)" r="36.05" xlink:href="#c"/>
  <radialGradient id="ad" cx="532.24" cy="403.53" gradientTransform="matrix(.70711 .70711 -.70711 .70711 367.82 -154.42)" r="36.05" xlink:href="#c"/>
  <radialGradient id="ae" cx="388.05" cy="259.33" gradientTransform="matrix(.70711 .70711 -.70711 .70711 367.82 -154.42)" r="36.05" xlink:href="#c"/>
  <radialGradient id="af" cx="388.05" cy="547.73" gradientTransform="matrix(.70711 .70711 -.70711 .70711 367.82 -154.42)" r="36.05" xlink:href="#c"/>
  <radialGradient id="ag" cx="315.95" cy="619.83" gradientTransform="matrix(.70711 .70711 -.70711 .70711 367.82 -154.42)" r="36.05" xlink:href="#c"/>
  <radialGradient id="ah" cx="243.85" cy="547.73" gradientTransform="matrix(.70711 .70711 -.70711 .70711 367.82 -154.42)" r="36.05" xlink:href="#c"/>
  <radialGradient id="ai" cx="171.75" cy="619.83" gradientTransform="matrix(.70711 .70711 -.70711 .70711 367.82 -154.42)" r="36.05" xlink:href="#c"/>
  <radialGradient id="aj" cx="99.65" cy="547.73" gradientTransform="matrix(.70711 .70711 -.70711 .70711 367.82 -154.42)" r="36.05" xlink:href="#c"/>
  <radialGradient id="ak" cx="460.15" cy="475.63" gradientTransform="matrix(.70711 .70711 -.70711 .70711 367.82 -154.42)" r="36.05" xlink:href="#c"/>
  <radialGradient id="al" cx="388.05" cy="403.53" gradientTransform="matrix(.70711 .70711 -.70711 .70711 367.82 -154.42)" r="36.05" xlink:href="#c"/>
  <radialGradient id="am" cx="315.95" cy="475.63" gradientTransform="matrix(.70711 .70711 -.70711 .70711 367.82 -154.42)" r="36.05" xlink:href="#c"/>
  <radialGradient id="an" cx="243.85" cy="403.53" gradientTransform="matrix(.70711 .70711 -.70711 .70711 367.82 -154.42)" r="36.05" xlink:href="#c"/>
  <radialGradient id="ao" cx="171.75" cy="475.63" gradientTransform="matrix(.70711 .70711 -.70711 .70711 367.82 -154.42)" r="36.05" xlink:href="#c"/>
  <radialGradient id="ap" cx="99.65" cy="403.53" gradientTransform="matrix(.70711 .70711 -.70711 .70711 367.82 -154.42)" r="36.05" xlink:href="#c"/>
  <clipPath id="aq">
   <use xlink:href="#ar"/>
  </clipPath>
  <path id="ar" d="m305.19 3.5h-251.02v258.71c0 161.08 140 299 251.71 341 118.29-39 251.71-175.92 251.71-337v-262.71h-252.41z"/>
 </defs>
 <g clip-path="url(#aq)">
  <use xlink:href="#ar"/>
  <path d="m152.94 252.37-50.98-50.98 50.98-50.98 50.98 50.98z" fill="url(#ap)"/>
  <path d="m152.94 354.33-50.98-50.98 50.98-50.98 50.98 50.98z" fill="url(#ao)"/>
  <path d="m254.9 354.33-50.98-50.98 50.98-50.98 50.99 50.98z" fill="url(#an)"/>
  <path d="m254.9 456.29-50.98-50.98 50.98-50.98 50.99 50.98z" fill="url(#am)"/>
  <path d="m356.87 456.29-50.98-50.98 50.98-50.98 50.98 50.98z" fill="url(#al)"/>
  <path d="m356.87 558.26-50.98-50.99 50.98-50.98 50.98 50.98z" fill="url(#ak)"/>
  <path d="m50.981 354.33-50.981-50.98 50.981-50.98 50.979 50.98z" fill="url(#aj)"/>
  <path d="m50.981 456.29-50.981-50.98 50.981-50.98 50.979 50.98z" fill="url(#ai)"/>
  <path d="m152.94 456.29-50.98-50.98 50.98-50.98 50.98 50.98z" fill="url(#ah)"/>
  <path d="m152.94 558.26-50.98-50.99 50.98-50.98 50.98 50.98z" fill="url(#ag)"/>
  <path d="m254.9 558.26-50.98-50.99 50.98-50.98 50.99 50.98z" fill="url(#af)"/>
  <path d="m254.9 660.22-50.98-50.98 50.98-50.98 50.99 50.98z" fill="url(#T)"/>
  <path d="m458.83 558.26-50.98-50.98 50.98-50.99 50.98 50.99z" fill="url(#ad)"/>
  <path d="m560.79 456.29-50.98-50.98 50.98-50.98 50.98 50.98z" fill="url(#ac)"/>
  <path d="m356.87 660.22-50.98-50.98 50.98-50.98 50.98 50.98z" fill="url(#ab)"/>
  <path d="m458.83 252.37-50.98-50.98 50.98-50.98 50.98 50.98z" fill="url(#aa)"/>
  <path d="m560.79 252.37-50.98-50.98 50.98-50.98 50.98 50.98z" fill="url(#Z)"/>
  <path d="m560.79 354.33-50.98-50.98 50.98-50.98 50.98 50.98z" fill="url(#Y)"/>
  <path d="m50.98 252.37-50.98-50.98 50.98-50.98 50.98 50.98z" fill="url(#X)"/>
  <path d="m254.9 252.37-50.98-50.98 50.98-50.98 50.99 50.98z" fill="url(#W)"/>
  <path d="m356.87 252.37-50.98-50.98 50.98-50.98 50.98 50.98z" fill="url(#V)"/>
  <path d="m356.87 354.33-50.98-50.98 50.98-50.98 50.98 50.98z" fill="url(#U)"/>
  <path d="m458.83 354.33-50.98-50.98 50.98-50.98 50.98 50.98z" fill="url(#ae)"/>
  <path d="m458.83 456.29-50.98-50.98 50.98-50.98 50.98 50.98z" fill="url(#S)"/>
  <path d="m569.6 222.53c-.865-1.729-10.238-32.719-10.396-32.213-.156-.506-9.531 30.484-10.395 32.213-1 2 6.75-2.5 7.25-4.75s2.854 18.297 3.145 17.788c.293.509 2.646-20.038 3.146-17.788s8.25 6.75 7.25 4.75z" stroke="#000"/>
  <circle cx="550.44" cy="183.15" r="6.38" stroke="#000"/>
  <circle cx="559.21" cy="171.4" r="6.38" stroke="#000"/>
  <circle cx="568.44" cy="183.15" r="6.38" stroke="#000"/>
  <path d="m468.18 224.94c-.865-1.729-10.238-32.719-10.396-32.213-.156-.506-9.531 30.484-10.395 32.213-1 2 6.75-2.5 7.25-4.75s2.854 18.297 3.145 17.788c.293.509 2.646-20.038 3.146-17.788s8.25 6.75 7.25 4.75z" stroke="#000"/>
  <circle cx="449.02" cy="185.56" r="6.38" stroke="#000"/>
  <circle cx="457.78" cy="173.81" r="6.38" stroke="#000"/>
  <circle cx="467.02" cy="185.56" r="6.38" stroke="#000"/>
  <path d="m366.76 224.94c-.863-1.729-10.238-32.719-10.395-32.213-.158-.506-9.531 30.484-10.396 32.213-1 2 6.75-2.5 7.25-4.75s2.854 18.297 3.146 17.788c.291.509 2.645-20.038 3.145-17.788s8.25 6.75 7.25 4.75z" stroke="#000"/>
  <circle cx="347.6" cy="185.56" r="6.38" stroke="#000"/>
  <circle cx="356.36" cy="173.81" r="6.38" stroke="#000"/>
  <circle cx="365.6" cy="185.56" r="6.38" stroke="#000"/>
  <path d="m265.33 224.94c-.864-1.729-10.238-32.719-10.396-32.213-.157-.506-9.531 30.484-10.396 32.213-1 2 6.75-2.5 7.25-4.75s2.854 18.297 3.146 17.788c.292.509 2.646-20.038 3.146-17.788s8.25 6.75 7.25 4.75z" stroke="#000"/>
  <circle cx="246.17" cy="185.56" r="6.38" stroke="#000"/>
  <circle cx="254.94" cy="173.81" r="6.38" stroke="#000"/>
  <circle cx="264.18" cy="185.56" r="6.38" stroke="#000"/>
  <path d="m163.91 224.94c-.864-1.729-10.238-32.719-10.396-32.213-.157-.506-9.531 30.484-10.396 32.213-1 2 6.75-2.5 7.25-4.75s2.854 18.297 3.146 17.788c.292.509 2.646-20.038 3.146-17.788s8.25 6.75 7.25 4.75z" stroke="#000"/>
  <circle cx="144.75" cy="185.56" r="6.38" stroke="#000"/>
  <circle cx="153.52" cy="173.81" r="6.38" stroke="#000"/>
  <circle cx="162.75" cy="185.56" r="6.38" stroke="#000"/>
  <path d="m62.488 225.17c-.864-1.729-10.238-32.719-10.396-32.213-.157-.506-9.531 30.484-10.396 32.213-1 2 6.75-2.5 7.25-4.75s2.854 18.297 3.146 17.788c.292.509 2.646-20.038 3.146-17.788s8.25 6.75 7.25 4.75z" stroke="#000"/>
  <circle cx="43.33" cy="185.8" r="6.38" stroke="#000"/>
  <circle cx="52.09" cy="174.04" r="6.38" stroke="#000"/>
  <circle cx="61.33" cy="185.8" r="6.38" stroke="#000"/>
  <path d="m569.6 323.77c-.865-1.729-10.238-32.719-10.396-32.213-.156-.506-9.531 30.484-10.395 32.213-1 2 6.75-2.5 7.25-4.75s2.854 18.297 3.145 17.788c.293.509 2.646-20.038 3.146-17.788s8.25 6.75 7.25 4.75z" stroke="#000"/>
  <circle cx="550.44" cy="284.4" r="6.38" stroke="#000"/>
  <circle cx="559.21" cy="272.65" r="6.38" stroke="#000"/>
  <circle cx="568.44" cy="284.4" r="6.38" stroke="#000"/>
  <path d="m468.18 326.18c-.865-1.729-10.238-32.719-10.396-32.213-.156-.506-9.531 30.484-10.395 32.213-1 2 6.75-2.5 7.25-4.75s2.854 18.297 3.145 17.788c.293.509 2.646-20.038 3.146-17.788s8.25 6.75 7.25 4.75z" stroke="#000"/>
  <circle cx="449.02" cy="286.81" r="6.38" stroke="#000"/>
  <circle cx="457.78" cy="275.06" r="6.38" stroke="#000"/>
  <circle cx="467.02" cy="286.81" r="6.38" stroke="#000"/>
  <path d="m366.76 326.18c-.863-1.729-10.238-32.719-10.395-32.213-.158-.506-9.531 30.484-10.396 32.213-1 2 6.75-2.5 7.25-4.75s2.854 18.297 3.146 17.788c.291.509 2.645-20.038 3.145-17.788s8.25 6.75 7.25 4.75z" stroke="#000"/>
  <circle cx="347.6" cy="286.81" r="6.38" stroke="#000"/>
  <circle cx="356.36" cy="275.06" r="6.38" stroke="#000"/>
  <circle cx="365.6" cy="286.81" r="6.38" stroke="#000"/>
  <path d="m265.33 326.18c-.864-1.729-10.238-32.719-10.396-32.213-.157-.506-9.531 30.484-10.396 32.213-1 2 6.75-2.5 7.25-4.75s2.854 18.297 3.146 17.788c.292.509 2.646-20.038 3.146-17.788s8.25 6.75 7.25 4.75z" stroke="#000"/>
  <circle cx="246.17" cy="286.81" r="6.38" stroke="#000"/>
  <circle cx="254.94" cy="275.06" r="6.38" stroke="#000"/>
  <circle cx="264.18" cy="286.81" r="6.38" stroke="#000"/>
  <path d="m163.91 326.18c-.864-1.729-10.238-32.719-10.396-32.213-.157-.506-9.531 30.484-10.396 32.213-1 2 6.75-2.5 7.25-4.75s2.854 18.297 3.146 17.788c.292.509 2.646-20.038 3.146-17.788s8.25 6.75 7.25 4.75z" stroke="#000"/>
  <circle cx="144.75" cy="286.81" r="6.38" stroke="#000"/>
  <circle cx="153.52" cy="275.06" r="6.38" stroke="#000"/>
  <circle cx="162.75" cy="286.81" r="6.38" stroke="#000"/>
  <path d="m62.488 326.42c-.864-1.729-10.238-32.719-10.396-32.213-.157-.506-9.531 30.484-10.396 32.213-1 2 6.75-2.5 7.25-4.75s2.854 18.297 3.146 17.788c.292.509 2.646-20.038 3.146-17.788s8.25 6.75 7.25 4.75z" stroke="#000"/>
  <circle cx="43.33" cy="287.04" r="6.38" stroke="#000"/>
  <circle cx="52.09" cy="275.29" r="6.38" stroke="#000"/>
  <circle cx="61.33" cy="287.04" r="6.38" stroke="#000"/>
  <path d="m569.6 425.02c-.865-1.729-10.238-32.719-10.396-32.213-.156-.506-9.531 30.484-10.395 32.213-1 2 6.75-2.5 7.25-4.75s2.854 18.297 3.145 17.788c.293.509 2.646-20.038 3.146-17.788s8.25 6.75 7.25 4.75z" stroke="#000"/>
  <circle cx="550.44" cy="385.64" r="6.38" stroke="#000"/>
  <circle cx="559.21" cy="373.89" r="6.38" stroke="#000"/>
  <circle cx="568.44" cy="385.64" r="6.38" stroke="#000"/>
  <path d="m468.18 427.42c-.865-1.729-10.238-32.719-10.396-32.213-.156-.506-9.531 30.484-10.395 32.213-1 2 6.75-2.5 7.25-4.75s2.854 18.297 3.145 17.789c.293.508 2.646-20.039 3.146-17.789s8.25 6.75 7.25 4.75z" stroke="#000"/>
  <circle cx="449.02" cy="388.05" r="6.38" stroke="#000"/>
  <circle cx="457.78" cy="376.3" r="6.38" stroke="#000"/>
  <circle cx="467.02" cy="388.05" r="6.38" stroke="#000"/>
  <path d="m366.76 427.42c-.863-1.729-10.238-32.719-10.395-32.213-.158-.506-9.531 30.484-10.396 32.213-1 2 6.75-2.5 7.25-4.75s2.854 18.297 3.146 17.789c.291.508 2.645-20.039 3.145-17.789s8.25 6.75 7.25 4.75z" stroke="#000"/>
  <circle cx="347.6" cy="388.05" r="6.38" stroke="#000"/>
  <circle cx="356.36" cy="376.3" r="6.38" stroke="#000"/>
  <circle cx="365.6" cy="388.05" r="6.38" stroke="#000"/>
  <path d="m265.33 427.42c-.864-1.729-10.238-32.719-10.396-32.213-.157-.506-9.531 30.484-10.396 32.213-1 2 6.75-2.5 7.25-4.75s2.854 18.297 3.146 17.789c.292.508 2.646-20.039 3.146-17.789s8.25 6.75 7.25 4.75z" stroke="#000"/>
  <circle cx="246.17" cy="388.05" r="6.38" stroke="#000"/>
  <circle cx="254.94" cy="376.3" r="6.38" stroke="#000"/>
  <circle cx="264.18" cy="388.05" r="6.38" stroke="#000"/>
  <path d="m163.91 427.42c-.864-1.729-10.238-32.719-10.396-32.213-.157-.506-9.531 30.484-10.396 32.213-1 2 6.75-2.5 7.25-4.75s2.854 18.297 3.146 17.789c.292.508 2.646-20.039 3.146-17.789s8.25 6.75 7.25 4.75z" stroke="#000"/>
  <circle cx="144.75" cy="388.05" r="6.38" stroke="#000"/>
  <circle cx="153.52" cy="376.3" r="6.38" stroke="#000"/>
  <circle cx="162.75" cy="388.05" r="6.38" stroke="#000"/>
  <path d="m62.488 427.66c-.864-1.729-10.238-32.719-10.396-32.213-.157-.506-9.531 30.484-10.396 32.213-1 2 6.75-2.5 7.25-4.75s2.854 18.297 3.146 17.788c.292.509 2.646-20.038 3.146-17.788s8.25 6.75 7.25 4.75z" stroke="#000"/>
  <circle cx="43.33" cy="388.28" r="6.38" stroke="#000"/>
  <circle cx="52.09" cy="376.53" r="6.38" stroke="#000"/>
  <circle cx="61.33" cy="388.28" r="6.38" stroke="#000"/>
  <path d="m569.6 526.26c-.865-1.729-10.238-32.719-10.396-32.213-.156-.506-9.531 30.484-10.395 32.213-1 2 6.75-2.5 7.25-4.75s2.854 18.297 3.145 17.788c.293.509 2.646-20.038 3.146-17.788s8.25 6.75 7.25 4.75z" stroke="#000"/>
  <circle cx="550.44" cy="486.89" r="6.38" stroke="#000"/>
  <circle cx="559.21" cy="475.14" r="6.38" stroke="#000"/>
  <circle cx="568.44" cy="486.89" r="6.38" stroke="#000"/>
  <path d="m468.18 528.67c-.865-1.729-10.238-32.719-10.396-32.213-.156-.506-9.531 30.484-10.395 32.213-1 2 6.75-2.5 7.25-4.75s2.854 18.297 3.145 17.789c.293.508 2.646-20.039 3.146-17.789s8.25 6.75 7.25 4.75z" stroke="#000"/>
  <circle cx="449.02" cy="489.29" r="6.38" stroke="#000"/>
  <circle cx="457.78" cy="477.54" r="6.38" stroke="#000"/>
  <circle cx="467.02" cy="489.29" r="6.38" stroke="#000"/>
  <path d="m366.76 528.67c-.863-1.729-10.238-32.719-10.395-32.213-.158-.506-9.531 30.484-10.396 32.213-1 2 6.75-2.5 7.25-4.75s2.854 18.297 3.146 17.789c.291.508 2.645-20.039 3.145-17.789s8.25 6.75 7.25 4.75z" stroke="#000"/>
  <circle cx="347.6" cy="489.29" r="6.38" stroke="#000"/>
  <circle cx="356.36" cy="477.54" r="6.38" stroke="#000"/>
  <circle cx="365.6" cy="489.29" r="6.38" stroke="#000"/>
  <path d="m265.33 528.67c-.864-1.729-10.238-32.719-10.396-32.213-.157-.506-9.531 30.484-10.396 32.213-1 2 6.75-2.5 7.25-4.75s2.854 18.297 3.146 17.789c.292.508 2.646-20.039 3.146-17.789s8.25 6.75 7.25 4.75z" stroke="#000"/>
  <circle cx="246.17" cy="489.29" r="6.38" stroke="#000"/>
  <circle cx="254.94" cy="477.54" r="6.38" stroke="#000"/>
  <circle cx="264.18" cy="489.29" r="6.38" stroke="#000"/>
  <path d="m163.91 528.67c-.864-1.729-10.238-32.719-10.396-32.213-.157-.506-9.531 30.484-10.396 32.213-1 2 6.75-2.5 7.25-4.75s2.854 18.297 3.146 17.789c.292.508 2.646-20.039 3.146-17.789s8.25 6.75 7.25 4.75z" stroke="#000"/>
  <circle cx="144.75" cy="489.29" r="6.38" stroke="#000"/>
  <circle cx="153.52" cy="477.54" r="6.38" stroke="#000"/>
  <circle cx="162.75" cy="489.29" r="6.38" stroke="#000"/>
  <path d="m62.488 528.9c-.864-1.729-10.238-32.719-10.396-32.213-.157-.506-9.531 30.484-10.396 32.213-1 2 6.75-2.5 7.25-4.75s2.854 18.297 3.146 17.788c.292.509 2.646-20.038 3.146-17.788s8.25 6.75 7.25 4.75z" stroke="#000"/>
  <circle cx="43.33" cy="489.53" r="6.38" stroke="#000"/>
  <circle cx="52.09" cy="477.78" r="6.38" stroke="#000"/>
  <circle cx="61.33" cy="489.53" r="6.38" stroke="#000"/>
  <path d="m54.17 3.5h503.43v167.79h-503.43z" fill="url(#B)"/>
  <path d="m305.89 28.545c0 5.667-13.833 15.375-13.833 24.375s13.833 21.542 13.833 21.542 13.834-12.542 13.834-21.542-13.834-18.709-13.834-24.375z" fill="url(#D)" stroke="#000" stroke-width=".271"/>
  <path d="m281.86 27.69c-1.906-3.25-2.565-2.375-2.565-2.375s.16 5.264-.488 8.554c-.649 3.29-1.785 8.009-1.271 17.009 1.612 3.25 26.174 16.5 26.174 16.5s1.32-10.25-3.959-20.063c-5.279-9.812-15.984-16.375-17.891-19.625z" fill="url(#E)" stroke="#000" stroke-width=".271"/>
  <path d="m332.96 33.869c-.648-3.29-.488-8.554-.488-8.554s-.659-.875-2.565 2.375-12.611 9.813-17.891 19.625-3.959 20.063-3.959 20.063 24.563-13.25 26.175-16.5c.513-9-.623-13.719-1.272-17.009z" fill="url(#F)" stroke="#000" stroke-width=".271"/>
  <path d="m284.69 58.294s1.564-9.583-5.376-17.083-9.873-4.583-9.873-4.583-.489 1.083-1.467 1.083-.978-3 0-3 .879 1.333 1.955 1c1.075-.333 6.062-.083 9.874 4.667s7.332 12.333 6.061 18.5c-1.27 6.167-1.174-.584-1.174-.584z" fill="url(#H)" stroke="#000" stroke-width=".271"/>
  <path d="m327.08 58.294s-1.563-9.583 5.378-17.083 9.873-4.583 9.873-4.583.488 1.083 1.467 1.083c.978 0 .978-3 0-3-.979 0-.88 1.333-1.955 1-1.077-.333-6.063-.083-9.875 4.667s-7.332 12.333-6.061 18.5 1.173-.584 1.173-.584z" fill="url(#I)" stroke="#000" stroke-width=".271"/>
  <path d="m306.87 37.128c0-1.438-.984-1.031-.984-1.031s-.984-.406-.984 1.031.733 2.906.733 7.438-.733 15.086-.733 15.086h1.968s-.733-10.555-.733-15.086.733-6.001.733-7.438z" fill="url(#a)" stroke="#000" stroke-width=".271"/>
  <path d="m337.56 58.294c-23.072 0-31.675 13.833-31.675 13.833s-8.603-13.833-31.674-13.833-24.439 13.667-24.439 13.667 3.716-8 10.949-8c7.234 0 19.942 35.75 22.68 51.333s9.19 29.5 22.484 29.5c13.295 0 19.747-13.917 22.485-29.5s15.445-51.333 22.68-51.333 10.949 8 10.949 8-1.368-13.667-24.439-13.667z" fill="url(#K)" stroke="#000" stroke-width=".271"/>
  <path d="m281.25 49.794c-14.077-3.5-32.261 12.417-31.479 22.5 0 0 1.966-11.479 20.363-13.167 18.398-1.688 34.805 9.585 35.75 14.875.001-7.546-10.557-20.708-24.634-24.208z" fill="url(#L)" stroke="#000" stroke-width=".271"/>
  <path d="m330.52 49.794c-14.077 3.5-24.636 16.662-24.636 24.208.945-5.29 17.353-16.563 35.751-14.875s20.364 13.167 20.364 13.167c.782-10.083-17.401-26-31.479-22.5z" fill="url(#M)" stroke="#000" stroke-width=".271"/>
  <path d="m337.56 58.294c-22.999 0-31.617 13.742-31.673 13.83-.001.008-.001.016-.002.023-.001-.008-.001-.016-.002-.023-.056-.087-8.674-13.83-31.672-13.83-23.071 0-24.439 13.667-24.439 13.667s.059-.126.176-.346c.757-2.483 4.489-11.047 20.188-12.487 18.398-1.688 34.805 9.585 35.75 14.875.945-5.29 17.353-16.563 35.751-14.875 15.698 1.44 19.431 10.004 20.188 12.487.116.22.175.346.175.346s-1.369-13.667-24.44-13.667z" fill="url(#N)"/>
  <path d="m305.89 52.331c0 7.266-9.052 20.5-9.052 45.375s9.052 44.25 9.052 44.25 9.052-19.375 9.052-44.25-9.052-38.109-9.052-45.375z" fill="url(#O)" stroke="#000" stroke-width=".271"/>
  <path d="m307.31 134.96c-1.085-.111-1.416-11.237-1.416-11.237s-.352 11.125-1.437 11.237c-1.208.124-3.538-7.448-3.672-7.887 2.437 9.182 5.098 14.887 5.098 14.887s2.661-5.705 5.099-14.887c-.135.439-2.465 8.011-3.672 7.887z" fill="url(#Q)"/>
  <path d="m310.76 158.95c-3.691 0-3.551-3.989-3.551-3.989 0-6.48 2.374-9.803 3.197-10.76 2.442-.667 4.604-1.875 6.512-3.515-.442.306-4.465 2.754-7.681 2.754-2.533 0-3.183-1.594-3.349-2.371-.166.777-.815 2.371-3.349 2.371-3.216 0-7.238-2.448-7.68-2.754 1.906 1.64 4.067 2.848 6.51 3.515.823.957 3.199 4.28 3.199 10.761h.001c.013 1.067.316 5.864 6.23 5.864h8.459v-1.875c.002-.001-3.416-.001-8.498-.001z" fill="url(#R)"/>
  <path d="m138.22 28.545c0 5.667-13.832 15.375-13.832 24.375s13.832 21.542 13.832 21.542 13.834-12.542 13.834-21.542-13.834-18.709-13.834-24.375z" fill="url(#J)" stroke="#000" stroke-width=".271"/>
  <path d="m114.2 27.69c-1.906-3.25-2.566-2.375-2.566-2.375s.16 5.264-.488 8.554c-.649 3.29-1.784 8.009-1.271 17.009 1.613 3.25 26.174 16.5 26.174 16.5s1.32-10.25-3.959-20.063c-5.278-9.812-15.983-16.375-17.89-19.625z" fill="url(#A)" stroke="#000" stroke-width=".271"/>
  <path d="m165.3 33.869c-.648-3.29-.488-8.554-.488-8.554s-.659-.875-2.565 2.375-12.611 9.813-17.891 19.625-3.959 20.063-3.959 20.063 24.563-13.25 26.175-16.5c.513-9-.623-13.719-1.272-17.009z" fill="url(#z)" stroke="#000" stroke-width=".271"/>
  <path d="m117.03 58.294s1.563-9.583-5.377-17.083c-6.939-7.5-9.873-4.583-9.873-4.583s-.488 1.083-1.466 1.083c-.979 0-.979-3 0-3 .978 0 .879 1.333 1.954 1 1.076-.333 6.062-.083 9.874 4.667 3.813 4.75 7.332 12.333 6.061 18.5-1.27 6.167-1.173-.584-1.173-.584z" fill="url(#y)" stroke="#000" stroke-width=".271"/>
  <path d="m159.41 58.294s-1.563-9.583 5.378-17.083 9.873-4.583 9.873-4.583.488 1.083 1.467 1.083c.978 0 .978-3 0-3-.979 0-.88 1.333-1.955 1-1.077-.333-6.063-.083-9.875 4.667s-7.332 12.333-6.061 18.5 1.173-.584 1.173-.584z" fill="url(#x)" stroke="#000" stroke-width=".271"/>
  <path d="m139.2 37.128c0-1.438-.984-1.031-.984-1.031s-.984-.406-.984 1.031.733 2.906.733 7.438-.733 15.086-.733 15.086h1.968s-.733-10.555-.733-15.086.733-6.001.733-7.438z" fill="url(#w)" stroke="#000" stroke-width=".271"/>
  <path d="m169.89 58.294c-23.072 0-31.675 13.833-31.675 13.833s-8.603-13.833-31.673-13.833c-23.072 0-24.439 13.667-24.439 13.667s3.715-8 10.948-8c7.234 0 19.943 35.75 22.68 51.333s9.19 29.5 22.484 29.5c13.295 0 19.747-13.917 22.485-29.5s15.445-51.333 22.68-51.333 10.949 8 10.949 8-1.368-13.667-24.439-13.667z" fill="url(#v)" stroke="#000" stroke-width=".271"/>
  <path d="m113.58 49.794c-14.078-3.5-32.262 12.417-31.479 22.5 0 0 1.966-11.479 20.363-13.167s34.804 9.585 35.749 14.875c.001-7.546-10.557-20.708-24.633-24.208z" fill="url(#u)" stroke="#000" stroke-width=".271"/>
  <path d="m162.85 49.794c-14.077 3.5-24.636 16.662-24.636 24.208.945-5.29 17.353-16.563 35.751-14.875 18.397 1.688 20.363 13.167 20.363 13.167.783-10.083-17.4-26-31.478-22.5z" fill="url(#t)" stroke="#000" stroke-width=".271"/>
  <path d="m169.89 58.294c-22.999 0-31.617 13.742-31.673 13.83-.001.008-.001.016-.002.023-.001-.008-.001-.016-.002-.023-.056-.087-8.674-13.83-31.671-13.83-23.072 0-24.439 13.667-24.439 13.667s.058-.126.175-.346c.758-2.483 4.49-11.047 20.188-12.487 18.397-1.688 34.804 9.585 35.749 14.875.945-5.29 17.353-16.563 35.751-14.875 15.698 1.44 19.431 10.004 20.188 12.487.116.22.175.346.175.346s-1.368-13.667-24.439-13.667z" fill="url(#s)"/>
  <path d="m138.22 52.331c0 7.266-9.052 20.5-9.052 45.375s9.052 44.25 9.052 44.25 9.052-19.375 9.052-44.25-9.052-38.109-9.052-45.375z" fill="url(#r)" stroke="#000" stroke-width=".271"/>
  <path d="m139.65 134.96c-1.085-.111-1.416-11.237-1.416-11.237s-.352 11.125-1.437 11.237c-1.208.124-3.538-7.448-3.672-7.887 2.437 9.182 5.098 14.887 5.098 14.887s2.661-5.705 5.099-14.887c-.135.439-2.465 8.011-3.672 7.887z" fill="url(#q)"/>
  <path d="m143.09 158.95c-3.691 0-3.551-3.989-3.551-3.989 0-6.48 2.374-9.803 3.197-10.76 2.442-.667 4.604-1.875 6.512-3.515-.442.306-4.465 2.754-7.681 2.754-2.533 0-3.183-1.594-3.349-2.371-.166.777-.815 2.371-3.349 2.371-3.216 0-7.238-2.448-7.679-2.754 1.905 1.64 4.066 2.848 6.509 3.515.823.957 3.199 4.28 3.199 10.761h.001c.013 1.067.316 5.864 6.23 5.864h8.459v-1.875c.002-.001-3.416-.001-8.498-.001z" fill="url(#p)"/>
  <path d="m473.55 28.545c0 5.667-13.833 15.375-13.833 24.375s13.833 21.542 13.833 21.542 13.834-12.542 13.834-21.542-13.834-18.709-13.834-24.375z" fill="url(#o)" stroke="#000" stroke-width=".271"/>
  <path d="m449.53 27.69c-1.906-3.25-2.565-2.375-2.565-2.375s.16 5.264-.488 8.554c-.649 3.29-1.784 8.009-1.271 17.009 1.612 3.25 26.174 16.5 26.174 16.5s1.32-10.25-3.959-20.063c-5.279-9.812-15.984-16.375-17.891-19.625z" fill="url(#n)" stroke="#000" stroke-width=".271"/>
  <path d="m500.63 33.869c-.648-3.29-.488-8.554-.488-8.554s-.659-.875-2.565 2.375-12.611 9.813-17.891 19.625-3.959 20.063-3.959 20.063 24.563-13.25 26.175-16.5c.513-9-.623-13.719-1.272-17.009z" fill="url(#m)" stroke="#000" stroke-width=".271"/>
  <path d="m452.36 58.294s1.563-9.583-5.377-17.083c-6.939-7.5-9.873-4.583-9.873-4.583s-.488 1.083-1.467 1.083c-.978 0-.978-3 0-3 .979 0 .879 1.333 1.955 1s6.062-.083 9.874 4.667c3.813 4.75 7.332 12.333 6.061 18.5-1.27 6.167-1.173-.584-1.173-.584z" fill="url(#l)" stroke="#000" stroke-width=".271"/>
  <path d="m494.74 58.294s-1.563-9.583 5.378-17.083 9.873-4.583 9.873-4.583.488 1.083 1.467 1.083c.978 0 .978-3 0-3-.979 0-.88 1.333-1.955 1-1.077-.333-6.063-.083-9.875 4.667s-7.332 12.333-6.061 18.5 1.173-.584 1.173-.584z" fill="url(#k)" stroke="#000" stroke-width=".271"/>
  <path d="m474.54 37.128c0-1.438-.984-1.031-.984-1.031s-.984-.406-.984 1.031.733 2.906.733 7.438-.733 15.086-.733 15.086h1.968s-.733-10.555-.733-15.086.733-6.001.733-7.438z" fill="url(#j)" stroke="#000" stroke-width=".271"/>
  <path d="m505.23 58.294c-23.072 0-31.675 13.833-31.675 13.833s-8.603-13.833-31.673-13.833c-23.072 0-24.439 13.667-24.439 13.667s3.715-8 10.948-8c7.234 0 19.942 35.75 22.68 51.333s9.19 29.5 22.484 29.5c13.295 0 19.747-13.917 22.485-29.5s15.445-51.333 22.68-51.333 10.949 8 10.949 8-1.368-13.667-24.439-13.667z" fill="url(#i)" stroke="#000" stroke-width=".271"/>
  <path d="m448.92 49.794c-14.078-3.5-32.262 12.417-31.479 22.5 0 0 1.965-11.479 20.363-13.167 18.397-1.688 34.804 9.585 35.749 14.875.001-7.546-10.557-20.708-24.633-24.208z" fill="url(#h)" stroke="#000" stroke-width=".271"/>
  <path d="m498.19 49.794c-14.077 3.5-24.636 16.662-24.636 24.208.945-5.29 17.353-16.563 35.751-14.875 18.397 1.688 20.363 13.167 20.363 13.167.783-10.083-17.4-26-31.478-22.5z" fill="url(#g)" stroke="#000" stroke-width=".271"/>
  <path d="m505.23 58.294c-22.999 0-31.617 13.742-31.673 13.83-.001.008-.001.016-.002.023-.001-.008-.001-.016-.002-.023-.056-.087-8.674-13.83-31.671-13.83-23.072 0-24.439 13.667-24.439 13.667s.058-.126.175-.346c.757-2.483 4.489-11.047 20.188-12.487 18.397-1.688 34.804 9.585 35.749 14.875.945-5.29 17.353-16.563 35.751-14.875 15.698 1.44 19.431 10.004 20.188 12.487.116.22.175.346.175.346s-1.368-13.667-24.439-13.667z" fill="url(#f)"/>
  <path d="m473.55 52.331c0 7.266-9.052 20.5-9.052 45.375s9.052 44.25 9.052 44.25 9.052-19.375 9.052-44.25-9.052-38.109-9.052-45.375z" fill="url(#e)" stroke="#000" stroke-width=".271"/>
  <path d="m474.98 134.96c-1.085-.111-1.416-11.237-1.416-11.237s-.352 11.125-1.437 11.237c-1.208.124-3.538-7.448-3.672-7.887 2.437 9.182 5.098 14.887 5.098 14.887s2.661-5.705 5.099-14.887c-.134.439-2.464 8.011-3.672 7.887z" fill="url(#d)"/>
  <path d="m478.42 158.95c-3.691 0-3.551-3.989-3.551-3.989 0-6.48 2.374-9.803 3.197-10.76 2.442-.667 4.604-1.875 6.512-3.515-.442.306-4.465 2.754-7.681 2.754-2.533 0-3.183-1.594-3.349-2.371-.166.777-.815 2.371-3.349 2.371-3.216 0-7.238-2.448-7.68-2.754 1.906 1.64 4.067 2.848 6.51 3.515.823.957 3.199 4.28 3.199 10.761h.001c.013 1.067.316 5.864 6.23 5.864h8.459v-1.875c.002-.001-3.416-.001-8.498-.001z" fill="url(#b)"/>
 </g>
 <use fill="none" stroke="#000" stroke-width="7" xlink:href="#ar"/>
</svg>
