<svg xmlns="http://www.w3.org/2000/svg" xmlns:xlink="http://www.w3.org/1999/xlink" width="320.001" height="384.775" viewBox="0 0 84.667 101.805" fill-rule="evenodd" image-rendering="optimizeQuality" shape-rendering="geometricPrecision" xmlns:v="https://vecta.io/nano"><style><![CDATA[.AL{stroke:#000}.AM{stroke-width:.546}.AN{fill:none}.AO{fill:#d09c32}.AP{stroke-linecap:round}.AQ{stroke-linejoin:round}]]></style><defs><linearGradient id="A" x1="104.456" x2="120.397" y1="177.807" y2="177.807" xlink:href="#AO"><stop offset="0" stop-color="#d09c32"/><stop offset=".502" stop-color="#feca7b"/><stop offset=".522" stop-color="#f8c575"/><stop offset=".6" stop-color="#e9b55c"/><stop offset=".69" stop-color="#dea948"/><stop offset=".78" stop-color="#d6a23b"/><stop offset=".871" stop-color="#d29d34"/><stop offset="1" stop-color="#d09c32"/></linearGradient><linearGradient id="B" xlink:href="#AO"><stop offset="0" stop-color="#d09c32"/><stop offset=".129" stop-color="#d29d34"/><stop offset=".22" stop-color="#d6a23b"/><stop offset=".31" stop-color="#dea948"/><stop offset=".4" stop-color="#e9b55c"/><stop offset=".478" stop-color="#f8c575"/><stop offset=".502" stop-color="#feca7b"/><stop offset=".522" stop-color="#f8c575"/><stop offset=".6" stop-color="#e9b55c"/><stop offset=".69" stop-color="#dea948"/><stop offset=".78" stop-color="#d6a23b"/><stop offset=".871" stop-color="#d29d34"/><stop offset="1" stop-color="#d09c32"/></linearGradient><linearGradient id="C" x1="58.491" x2="68.206" y1="158.635" y2="158.635" xlink:href="#B"/><linearGradient id="D" x1="59.178" x2="68.563" y1="145.072" y2="145.072" xlink:href="#B"/><linearGradient id="E" xlink:href="#AO"><stop offset="0" stop-color="#d09c32"/><stop offset=".502" stop-color="#feca7b"/><stop offset=".522" stop-color="#f8c575"/><stop offset=".6" stop-color="#e9b55c"/><stop offset=".69" stop-color="#dea948"/><stop offset=".78" stop-color="#d6a23b"/><stop offset=".871" stop-color="#d29d34"/><stop offset="1" stop-color="#d09c32"/></linearGradient><linearGradient id="F" x1="75.679" x2="91.622" y1="83.205" y2="83.205" xlink:href="#E"/><linearGradient id="G" x1="94.631" x2="130.221" y1="185.821" y2="185.821" xlink:href="#E"/><linearGradient id="H" x1="96.276" x2="128.576" y1="198.077" y2="198.077" xlink:href="#E"/><linearGradient id="I" x1="67.5" x2="99.801" y1="103.475" y2="103.475" xlink:href="#E"/><linearGradient id="J" x1="122.064" x2="157.653" y1="91.219" y2="91.219" xlink:href="#E"/><linearGradient id="K" x1="131.887" x2="147.83" y1="83.205" y2="83.205" xlink:href="#E"/><linearGradient id="L" xlink:href="#AO"><stop offset="0" stop-color="#d09c32"/><stop offset=".129" stop-color="#d29d34"/><stop offset=".22" stop-color="#d6a23b"/><stop offset=".31" stop-color="#dea948"/><stop offset=".4" stop-color="#e9b55c"/><stop offset=".478" stop-color="#f8c575"/><stop offset=".502" stop-color="#feca7b"/><stop offset=".522" stop-color="#f8c575"/><stop offset=".6" stop-color="#e9b55c"/><stop offset=".69" stop-color="#dea948"/><stop offset=".78" stop-color="#d6a23b"/><stop offset=".871" stop-color="#d29d34"/><stop offset="1" stop-color="#d09c32"/></linearGradient><linearGradient id="M" x1="58.453" x2="68.166" y1="117.228" y2="117.228" xlink:href="#L"/><linearGradient id="N" x1="59.136" x2="68.525" y1="130.794" y2="130.794" xlink:href="#L"/><linearGradient id="O" x1="59.152" x2="67.43" y1="138.053" y2="138.053" xlink:href="#L"/><linearGradient id="P" x1="65.863" x2="100.65" y1="99.206" y2="99.206" xlink:href="#L"/><linearGradient id="Q" x1="68.196" x2="111.99" y1="135.709" y2="135.709" xlink:href="#L"/><linearGradient id="R" x1="94.36" x2="129.147" y1="192.889" y2="192.889" xlink:href="#L"/><linearGradient id="S" x1="111.784" x2="155.577" y1="135.709" y2="135.709" xlink:href="#L"/><linearGradient id="T" x1="121.525" x2="156.312" y1="99.206" y2="99.206" xlink:href="#L"/><linearGradient id="U" x1="65.54" x2="158.171" y1="137.522" y2="137.522" xlink:href="#AO"><stop offset="0" stop-color="#ed1f24"/><stop offset=".09" stop-color="#ee2525"/><stop offset=".169" stop-color="#ee3428"/><stop offset=".239" stop-color="#ef4730"/><stop offset=".302" stop-color="#f15e3e"/><stop offset=".361" stop-color="#f47852"/><stop offset=".431" stop-color="#f6936c"/><stop offset=".49" stop-color="#fab58e"/><stop offset=".502" stop-color="#fbbf99"/><stop offset=".51" stop-color="#fab58e"/><stop offset=".569" stop-color="#f6936c"/><stop offset=".639" stop-color="#f47852"/><stop offset=".702" stop-color="#f15e3e"/><stop offset=".761" stop-color="#ef4730"/><stop offset=".831" stop-color="#ee3428"/><stop offset=".91" stop-color="#ee2525"/><stop offset="1" stop-color="#ed1f24"/></linearGradient><linearGradient id="V" xlink:href="#AO"><stop offset="0" stop-color="#d09c32"/><stop offset=".502" stop-color="#feca7b"/><stop offset=".522" stop-color="#f8c575"/><stop offset=".6" stop-color="#e9b55c"/><stop offset=".69" stop-color="#dea948"/><stop offset=".78" stop-color="#d6a23b"/><stop offset=".871" stop-color="#d29d34"/><stop offset="1" stop-color="#d09c32"/></linearGradient><linearGradient id="W" x1="101.445" x2="101.493" y1="91.626" y2="91.626" xlink:href="#V"/><linearGradient id="X" x1="65.808" x2="65.856" y1="91.626" y2="91.626" xlink:href="#V"/><linearGradient id="Y" x1="101.446" x2="101.493" y1="91.626" y2="91.626" xlink:href="#V"/><linearGradient id="Z" x1="94.584" x2="94.631" y1="186.228" y2="186.228" xlink:href="#AO"><stop offset="0" stop-color="#d09c32"/><stop offset=".502" stop-color="#feca7b"/><stop offset=".522" stop-color="#f8c575"/><stop offset=".6" stop-color="#e9b55c"/><stop offset=".69" stop-color="#dea948"/><stop offset=".78" stop-color="#d6a23b"/><stop offset=".871" stop-color="#d29d34"/><stop offset="1" stop-color="#d09c32"/></linearGradient><linearGradient id="a" x1="101.444" x2="101.492" y1="91.626" y2="91.626" xlink:href="#AO"><stop offset="0" stop-color="#d09c32"/><stop offset=".502" stop-color="#feca7b"/><stop offset=".522" stop-color="#f8c575"/><stop offset=".6" stop-color="#e9b55c"/><stop offset=".69" stop-color="#dea948"/><stop offset=".78" stop-color="#d6a23b"/><stop offset=".871" stop-color="#d29d34"/><stop offset="1" stop-color="#d09c32"/></linearGradient><linearGradient id="b" xlink:href="#AO"><stop offset="0" stop-color="#d09c32"/><stop offset=".22" stop-color="#d7a23c"/><stop offset=".639" stop-color="#e9b55c"/><stop offset="1" stop-color="#feca7b"/></linearGradient><linearGradient id="c" x1="151.44" x2="165.513" y1="82.395" y2="87.672" xlink:href="#b"/><linearGradient id="d" x1="124.023" x2="138.064" y1="177.083" y2="182.189" xlink:href="#b"/><linearGradient id="e" xlink:href="#AO"><stop offset="0" stop-color="#feca7b"/><stop offset=".361" stop-color="#e9b55c"/><stop offset=".78" stop-color="#d7a23c"/><stop offset="1" stop-color="#d09c32"/></linearGradient><linearGradient id="f" x1="57.75" x2="71.824" y1="87.672" y2="82.395" xlink:href="#e"/><linearGradient id="g" x1="86.526" x2="100.599" y1="182.275" y2="176.997" xlink:href="#AO"><stop offset="0" stop-color="#feca7b"/><stop offset=".361" stop-color="#e9b55c"/><stop offset=".78" stop-color="#d7a23c"/><stop offset="1" stop-color="#d09c32"/></linearGradient><radialGradient id="h" cx="82.996" cy="85.488" r="1.861" fx="82.996" fy="85.488" xlink:href="#AO"><stop offset="0" stop-color="#feca7b"/><stop offset="1" stop-color="#d09c32"/></radialGradient><radialGradient id="i" cx="111.604" cy="179.171" xlink:href="#h" fx="111.604" fy="179.171" gradientTransform="matrix(1.0098094,0,0,1.0098094,-0.42316758,-2.2184783)"/><radialGradient id="j" cx="138.845" xlink:href="#h" fx="138.845" gradientTransform="matrix(1.0098094,0,0,1.0098094,-0.42316758,-2.2184783)"/><radialGradient id="k" cx="149.142" cy="86.29" r="1.835" fx="149.142" fy="86.29" xlink:href="#AO"><stop offset="0" stop-color="#feca7b"/><stop offset=".361" stop-color="#e9b55c"/><stop offset=".78" stop-color="#d7a23c"/><stop offset="1" stop-color="#d09c32"/></radialGradient><radialGradient id="l" cx="72.69" xlink:href="#k" fx="72.69" gradientTransform="matrix(1.0098094,0,0,1.0098094,-0.42316758,-2.2184783)"/><radialGradient id="m" cx="93.594" xlink:href="#k" fx="93.594" gradientTransform="matrix(1.0098094,0,0,1.0098094,-0.42316758,-2.2184783)"/><radialGradient id="n" cx="128.505" xlink:href="#k" fx="128.505" gradientTransform="matrix(1.0098094,0,0,1.0098094,-0.42316758,-2.2184783)"/><radialGradient id="o" cx="83.049" cy="104.798" r="7.498" fx="83.049" fy="104.798" xlink:href="#AO"><stop offset="0" stop-color="#feca7b"/><stop offset=".18" stop-color="#f7c473"/><stop offset=".502" stop-color="#e9b65d"/><stop offset=".902" stop-color="#d5a13a"/><stop offset="1" stop-color="#d09c32"/></radialGradient><radialGradient id="p" cx="111.753" cy="198.482" xlink:href="#o" fx="111.753" fy="198.482" gradientTransform="matrix(1.0098094,0,0,1.0098094,-0.42316758,-2.2184783)"/><radialGradient id="q" cx="138.919" xlink:href="#o" fx="138.919" gradientTransform="matrix(1.0098094,0,0,1.0098094,-0.42316758,-2.2184783)"/><radialGradient id="r" cx="131.655" cy="182.584" r="1.605" xlink:href="#h" fx="131.655" fy="182.584" gradientTransform="matrix(1.0098094,0,0,1.0098094,-0.42316758,-2.2184783)"/><radialGradient id="s" cx="62.604" cy="88.947" r="1.605" xlink:href="#h" fx="62.604" fy="88.947" gradientTransform="matrix(1.0098094,0,0,1.0098094,-0.42316758,-2.2184783)"/><radialGradient id="t" cx="158.956" cy="88.947" r="1.605" xlink:href="#h" fx="158.956" fy="88.947" gradientTransform="matrix(1.0098094,0,0,1.0098094,-0.42316758,-2.2184783)"/><radialGradient id="u" cx="91.202" cy="182.584" r="1.605" xlink:href="#h" fx="91.202" fy="182.584" gradientTransform="matrix(1.0098094,0,0,1.0098094,-0.42316758,-2.2184783)"/><radialGradient id="v" cx="103.395" cy="88.947" r="1.605" xlink:href="#h" fx="103.395" fy="88.947" gradientTransform="matrix(1.0098094,0,0,1.0098094,-0.42316758,-2.2184783)"/><radialGradient id="w" cx="118.47" cy="88.947" r="1.605" xlink:href="#h" fx="118.47" fy="88.947" gradientTransform="matrix(1.0098094,0,0,1.0098094,-0.42316758,-2.2184783)"/><linearGradient xlink:href="#V" id="x" x1="65.808" y1="91.626" x2="65.856" y2="91.626"/><linearGradient xlink:href="#E" id="y" x1="65.856" y1="91.219" x2="101.445" y2="91.219"/><radialGradient xlink:href="#h" id="z" gradientTransform="matrix(1.0098094,0,0,1.0098094,-0.42316758,-2.2184783)"/><radialGradient xlink:href="#k" id="AA" cx="93.594" fx="93.594" gradientTransform="matrix(1.0098094,0,0,1.0098094,-0.42316758,-2.2184783)"/><linearGradient xlink:href="#b" id="AB" x1="95.231" y1="82.395" x2="109.305" y2="87.672"/><linearGradient xlink:href="#E" id="AC" x1="67.5" y1="103.475" x2="99.801" y2="103.475"/><radialGradient xlink:href="#o" id="AD" gradientTransform="matrix(1.0098094,0,0,1.0098094,-0.42316758,-2.2184783)"/><radialGradient xlink:href="#k" id="AE" cx="128.505" fx="128.505" gradientTransform="matrix(1.0098094,0,0,1.0098094,-0.42316758,-2.2184783)"/><radialGradient xlink:href="#k" id="AF" gradientTransform="matrix(1.0098094,0,0,1.0098094,-0.42316758,-2.2184783)"/><linearGradient xlink:href="#e" id="AG" x1="113.975" y1="87.587" x2="128.016" y2="82.481"/><linearGradient xlink:href="#L" id="AH" x1="58.442" y1="124.616" x2="68.179" y2="124.616"/><linearGradient xlink:href="#B" id="AI" x1="58.479" y1="151.25" x2="68.219" y2="151.25"/><path id="AJ" d="M110.479 65.638H43.412v69.123c0 43.037 37.405 79.886 67.253 91.108 31.603-10.42 67.252-47.002 67.252-90.039V65.638h-67.437z"/><path id="AK" d="M65.856 91.759l-.028-.264c-.011.004-.02.113.028.264z"/><path id="AL" d="M101.473 91.495c-.008-.003-.017.096-.028.264.048-.151.039-.26.028-.264z"/><path id="AM" d="M137.368 111.451c-5.232 0-8.28-1.219-12.904-1.219-4.269 0-11.524 1.732-12.608 1.997-1.084-.265-8.339-1.997-12.609-1.997-4.623 0-7.671 1.219-12.904 1.219s-9.968-1.473-9.968-1.473v44.301c15.759.556 21.427-.358 25.375-.206 3.533.136 10.036 3.163 10.105 3.066.069.097 6.573-2.93 10.105-3.066 3.948-.152 9.616.762 25.375.206v-44.301c0 0-4.735 1.473-9.968 1.473z"/><path id="AN" d="M108.318 124.297v.23h-3.65v-.23h.232c.203 0 .366-.043.489-.131.089-.058.158-.158.206-.299.038-.1.057-.361.057-.784v-5.552c0-.431-.019-.701-.057-.809a.59.59 0 0 0-.229-.283c-.115-.081-.27-.121-.466-.121h-.232v-.23h3.65v.23h-.232c-.203 0-.366.043-.489.131-.089.058-.16.158-.211.299-.038.1-.057.361-.057.784v5.552c0 .432.02.701.059.809s.117.202.232.283.27.122.466.122h.231 0z"/><linearGradient id="AO" gradientUnits="userSpaceOnUse"/></defs><g transform="matrix(.626926 0 0 .626926 -27.044897 -40.979174)"><use xlink:href="#AJ" fill="#002147"/><path d="M94.79 93.033c-5.233-.406-11.14-.379-11.14-.379s-5.907-.028-11.14.379-6.504 2.923-6.504 2.923l-.019-.636c-.198.384-.168.636-.168.636v.813c0-2.062 7.983-3.734 17.831-3.734 9.125 0 16.643 1.436 17.7 3.287-.008-.093-.04-.281-.157-.53-.388-.566-1.981-2.415-6.402-2.759z" class="AO"/><g class="AL AM"><use xlink:href="#AK" fill="url(#x)"/><use xlink:href="#AL" fill="url(#W)"/><path d="M96.656 92.197c-4.877-1.422-2.133-5.436-2.133-5.436l-1.575-.28s-.254 4.242-3.512 4.242-5.785-.254-5.785-1.575c0 1.321-2.528 1.575-5.785 1.575s-3.512-4.242-3.512-4.242l-1.575.28s2.743 4.013-2.134 5.436c-3.783 1.103-4.626.084-4.789-.438l.15 4.197s1.272-2.517 6.504-2.923 11.14-.379 11.14-.379 5.907-.028 11.14.379 6.504 2.923 6.504 2.923l.15-4.197c-.164.522-1.006 1.541-4.789.438z" fill="url(#y)"/></g><path d="M79.793 92.697l3.858-.043s-1.594-.007-3.858.043z"/><path d="M74.512 91.177c-.248 2.069-4.832 1.927-5.515 2.359s-2.104.354-2.677.966-.314 1.454-.314 1.454 1.272-2.517 6.504-2.923l7.282-.336c-2.359-.086-4.982-.43-5.28-1.519zm9.139 1.477a43.54 43.54 0 0 0 3.858.043l-3.858-.043z"/><path d="M100.981 94.502c-.573-.612-1.994-.533-2.677-.966s-5.267-.29-5.515-2.359c-.298 1.089-2.921 1.433-5.28 1.519l7.282.336c5.233.406 6.504 2.923 6.504 2.923s.259-.843-.314-1.454z"/><g class="AL AM"><path d="M87.918 84.78s2.743-.915 2.54-2.439-3.962 0-3.962 0 2.744-2.337 2.388-3.454-3.505 0-3.505 0 .711-3.962-1.728-3.962-1.727 3.962-1.727 3.962-3.149-1.118-3.505 0 2.388 3.454 2.388 3.454-3.76-1.524-3.962 0 2.54 2.439 2.54 2.439-3.704 1.071-2.891 2.697 3.806.351 3.806.351-1.016 3.251.406 3.455 2.946-1.321 2.946-1.321 1.524 1.524 2.947 1.321.406-3.455.406-3.455 2.993 1.274 3.806-.351-2.892-2.697-2.892-2.697z" fill="url(#F)"/><circle cx="83.65" cy="84.221" r="1.88" fill="url(#z)"/><path d="M83.65 77.414v3.505m2.439 4.877l3.404 1.371m-8.224-1.371l-3.404 1.371" class="AN AP"/><path d="M83.65 89.961v-2.794" class="AN"/><circle cx="73.135" cy="85.034" r="1.93" fill="url(#l)"/><circle cx="94.167" cy="85.034" r="1.93" fill="url(#AA)"/><path d="M63.279 81.82s1.981-2.832 3.404-1.257-1.793 4.689-1.793 4.689 3.216-2.962 4.486-1.387-1.524 2.845-1.524 2.845 3.623-.346 3.455 2.489-3.356.802-3.356.802.827 1.856-.277 2.578-2.7-.119-2.7-.119-5.006-13.978-6.873-13.375c4.239-2.32 5.179 2.735 5.179 2.735z" fill="url(#f)"/><path d="M64.196 87.119c.545 1.104.467 2.255-.174 2.572s-1.603-.321-2.149-1.425-.467-2.256.175-2.572 1.603.321 2.148 1.425z" fill="url(#s)"/><path d="M65.54 87.998l3.429.567" class="AN AP"/><path d="M103.776 81.82s-1.981-2.832-3.404-1.257 1.793 4.689 1.793 4.689-3.216-2.962-4.486-1.387 1.524 2.845 1.524 2.845-3.623-.346-3.455 2.489 3.356.802 3.356.802-.827 1.856.277 2.578 2.7-.119 2.7-.119 5.006-13.978 6.873-13.375c-4.239-2.32-5.179 2.735-5.179 2.735z" fill="url(#AB)"/><path d="M102.859 87.119c-.545 1.104-.467 2.255.174 2.572s1.603-.321 2.149-1.425.467-2.256-.175-2.572-1.603.321-2.148 1.425z" fill="url(#v)"/><path d="M101.515 87.998l-3.429.567" class="AN AP"/></g><path d="M99.19 103.819c-1.613-2.029-8.967-3.114-15.933-3.114s-14.32 1.085-15.933 3.114l-1.371-5.469c-.004-.018-.011-.036-.02-.053-.047-.094-.07-.183-.07-.271 0-1.624 7.143-3.433 17.393-3.433s17.393 1.809 17.393 3.433a.6.6 0 0 1-.07.27c-.008.017-.015.035-.02.054l-1.371 5.469z" fill="url(#P)" transform="matrix(1.009809 0 0 1.009809 -.423168 -2.218478)"/><path d="M83.651 93.569c4.727 0 9.166.384 12.499 1.082 3.795.795 4.798 1.732 4.798 2.117a.35.35 0 0 1-.042.154.54.54 0 0 0-.04.108l-1.274 5.081c-2.228-1.913-9.119-2.905-15.941-2.905s-13.713.993-15.941 2.905l-1.274-5.081a.53.53 0 0 0-.04-.107c-.029-.058-.043-.108-.043-.155 0-.385 1.003-1.323 4.798-2.117 3.333-.698 7.772-1.082 12.5-1.082m0-.534c-9.848 0-17.831 1.672-17.831 3.734 0 .132.034.263.098.392l1.583 6.314c0-2.062 7.231-3.734 16.15-3.734s16.15 1.672 16.15 3.734l1.583-6.314c.064-.129.098-.26.098-.392 0-2.062-7.983-3.734-17.831-3.734z"/><g class="AL AM AO AQ"><ellipse cx="76.375" cy="96.617" rx="1.814" ry="1.829"/><ellipse cx="91.311" cy="96.617" rx="1.814" ry="1.829"/></g><path d="M83.651 93.035v6.706" class="AL AM AN AQ"/><path d="M83.435 98.364l-3.829-1.786 3.829-1.786 3.829 1.786zM69.658 99.92l-3.509-.179 2.604-2.786 3.509.178zm28.052 0l3.508-.179-2.604-2.786-3.509.178z" class="AO AL AM AQ"/><ellipse cx="83.65" cy="103.475" rx="16.15" ry="3.734" fill="url(#AC)" class="AL AM"/><ellipse cx="83.65" cy="103.475" rx="12.966" ry="2.226"/><ellipse cx="83.65" cy="103.742" rx="10.516" ry="1.676" fill="url(#AD)"/><path d="M150.999 93.033c-5.232-.406-11.14-.379-11.14-.379s-5.907-.028-11.14.379-6.505 2.923-6.505 2.923l-.019-.636c-.198.384-.168.636-.168.636v.813c0-2.062 7.984-3.734 17.832-3.734 9.125 0 16.643 1.436 17.7 3.287-.008-.093-.041-.281-.158-.53-.388-.566-1.982-2.415-6.403-2.759z" class="AO"/><g class="AL AM"><use xlink:href="#AK" x="56.208" fill="url(#X)"/><use xlink:href="#AL" x="56.209" fill="url(#a)"/><path d="M152.865 92.197c-4.877-1.422-2.134-5.436-2.134-5.436l-1.575-.28s-.254 4.242-3.512 4.242-5.786-.254-5.786-1.575c0 1.321-2.528 1.575-5.785 1.575s-3.512-4.242-3.512-4.242l-1.575.28s2.743 4.013-2.134 5.436c-3.783 1.103-4.626.084-4.789-.438l.15 4.197s1.272-2.517 6.505-2.923 11.14-.379 11.14-.379 5.908-.028 11.14.379 6.505 2.923 6.505 2.923l.15-4.197c-.164.522-1.006 1.541-4.789.438z" fill="url(#J)"/></g><path d="M136.001 92.697l3.858-.043s-1.594-.007-3.858.043z"/><path d="M130.721 91.177c-.248 2.069-4.832 1.927-5.515 2.359s-2.104.354-2.677.966-.315 1.454-.315 1.454 1.272-2.517 6.505-2.923l7.282-.336c-2.359-.086-4.982-.43-5.28-1.519zm9.139 1.477a43.43 43.43 0 0 0 3.858.043l-3.858-.043z"/><path d="M157.189 94.502c-.573-.612-1.993-.533-2.677-.966s-5.267-.29-5.515-2.359c-.298 1.089-2.921 1.433-5.28 1.519l7.282.336c5.233.406 6.505 2.923 6.505 2.923s.259-.843-.314-1.454z"/><g class="AL AM"><path d="M144.126 84.78s2.743-.915 2.54-2.439-3.963 0-3.963 0 2.744-2.337 2.388-3.454-3.505 0-3.505 0 .711-3.962-1.728-3.962-1.727 3.962-1.727 3.962-3.149-1.118-3.505 0 2.388 3.454 2.388 3.454-3.76-1.524-3.963 0 2.54 2.439 2.54 2.439-3.704 1.071-2.891 2.697 3.806.351 3.806.351-1.016 3.251.406 3.455 2.946-1.321 2.946-1.321 1.524 1.524 2.947 1.321.406-3.455.406-3.455 2.993 1.274 3.806-.351-2.891-2.697-2.891-2.697z" fill="url(#K)"/><circle cx="139.859" cy="84.221" r="1.88" fill="url(#j)"/><path d="M139.859 77.414v3.505m2.438 4.877l3.404 1.371m-8.224-1.371l-3.404 1.371" class="AN AP"/><path d="M139.859 89.961v-2.794" class="AN"/><circle cx="129.342" cy="85.034" r="1.931" fill="url(#AE)"/><circle cx="150.375" cy="85.034" r="1.931" fill="url(#AF)"/><path d="M119.488 81.82s1.981-2.832 3.403-1.257-1.793 4.689-1.793 4.689 3.216-2.962 4.486-1.387-1.524 2.845-1.524 2.845 3.623-.346 3.455 2.489-3.356.802-3.356.802.827 1.856-.278 2.578-2.7-.119-2.7-.119-5.006-13.978-6.873-13.375c4.239-2.32 5.179 2.735 5.179 2.735z" fill="url(#AG)"/><path d="M120.405 87.119c.545 1.104.467 2.255-.175 2.572s-1.603-.321-2.148-1.425-.467-2.256.175-2.572 1.603.321 2.148 1.425z" fill="url(#w)"/><path d="M121.748 87.998l3.429.567" class="AN AP"/><path d="M159.984 81.82s-1.981-2.832-3.403-1.257 1.793 4.689 1.793 4.689-3.216-2.962-4.486-1.387 1.524 2.845 1.524 2.845-3.623-.346-3.455 2.489 3.356.802 3.356.802-.827 1.856.278 2.578 2.7-.119 2.7-.119 5.006-13.978 6.873-13.375c-4.24-2.32-5.18 2.735-5.18 2.735z" fill="url(#c)"/><path d="M159.067 87.119c-.545 1.104-.467 2.255.175 2.572s1.603-.321 2.148-1.425.467-2.256-.175-2.572-1.603.321-2.148 1.425z" fill="url(#t)"/><path d="M157.724 87.998l-3.429.567" class="AN AP"/></g><path d="M154.852 103.819c-1.613-2.029-8.967-3.114-15.933-3.114s-14.32 1.085-15.933 3.114l-1.371-5.469c-.005-.018-.011-.036-.019-.053-.047-.095-.07-.184-.07-.271 0-1.624 7.144-3.433 17.394-3.433s17.393 1.809 17.393 3.433c0 .088-.023.177-.07.27-.009.017-.015.035-.02.054l-1.371 5.469z" fill="url(#T)" transform="matrix(1.009809 0 0 1.009809 -.423168 -2.218478)"/><path d="M139.859 93.569c4.727 0 9.166.384 12.499 1.082 3.795.795 4.798 1.732 4.798 2.117a.35.35 0 0 1-.042.154.52.52 0 0 0-.04.108l-1.274 5.081c-2.228-1.913-9.119-2.905-15.941-2.905s-13.713.993-15.941 2.905l-1.274-5.081a.52.52 0 0 0-.039-.107c-.029-.058-.043-.109-.043-.156 0-.385 1.003-1.323 4.798-2.117 3.333-.698 7.772-1.082 12.499-1.082m0-.534c-9.848 0-17.832 1.672-17.832 3.734a.88.88 0 0 0 .098.392l1.583 6.314c0-2.062 7.231-3.734 16.15-3.734s16.15 1.672 16.15 3.734l1.583-6.314c.064-.129.098-.26.098-.392 0-2.062-7.983-3.734-17.831-3.734z"/><g class="AL AM AO AQ"><ellipse cx="132.584" cy="96.617" rx="1.814" ry="1.829"/><ellipse cx="147.52" cy="96.617" rx="1.814" ry="1.829"/></g><path d="M139.86 93.035v6.706" class="AL AM AN AQ"/><path d="M139.643 98.364l-3.83-1.786 3.83-1.786 3.829 1.786zm-13.776 1.556l-3.509-.179 2.604-2.786 3.508.178zm28.051 0l3.509-.179-2.604-2.786-3.508.178z" class="AO AL AM AQ"/><ellipse cx="139.859" cy="103.475" rx="16.15" ry="3.734" fill="url(#I)" class="AL AM"/><ellipse cx="139.859" cy="103.475" rx="12.966" ry="2.226"/><ellipse cx="139.859" cy="103.742" rx="10.516" ry="1.676" fill="url(#q)"/><path d="M123.566 187.636c-5.232-.406-11.14-.379-11.14-.379s-5.907-.028-11.14.379-6.504 2.923-6.504 2.923l-.019-.637c-.198.384-.168.637-.168.637v.812c0-2.062 7.983-3.734 17.831-3.734 9.125 0 16.643 1.436 17.7 3.287a1.61 1.61 0 0 0-.158-.53c-.388-.565-1.981-2.415-6.403-2.758z" class="AO"/><g class="AL AM"><path d="M94.631 186.361l-.028-.264c-.011.004-.02.114.028.264z" fill="url(#Z)"/><use xlink:href="#AL" x="28.775" y="94.602" fill="url(#Y)"/><path d="M125.431 186.799c-4.877-1.422-2.134-5.436-2.134-5.436l-1.575-.28s-.254 4.242-3.512 4.242-5.785-.254-5.785-1.575c0 1.321-2.528 1.575-5.785 1.575s-3.512-4.242-3.512-4.242l-1.575.28s2.743 4.013-2.134 5.436c-3.783 1.103-4.626.084-4.789-.438l.15 4.197s1.272-2.517 6.504-2.923 11.14-.379 11.14-.379 5.907-.028 11.14.379 6.505 2.923 6.505 2.923l.15-4.197c-.164.521-1.006 1.541-4.789.438z" fill="url(#G)"/></g><path d="M108.569 187.299l3.858-.042s-1.594-.007-3.858.042z"/><path d="M103.288 185.78c-.248 2.069-4.832 1.927-5.515 2.359s-2.104.354-2.677.966-.314 1.454-.314 1.454 1.272-2.517 6.504-2.923l7.282-.337c-2.359-.085-4.982-.43-5.28-1.519zm9.138 1.476a43.23 43.23 0 0 0 3.858.042l-3.858-.042z"/><path d="M129.756 189.104c-.573-.612-1.993-.533-2.677-.966s-5.267-.29-5.515-2.359c-.298 1.089-2.921 1.433-5.28 1.519l7.282.337c5.233.406 6.505 2.923 6.505 2.923s.259-.843-.314-1.455z"/><g class="AL AM"><path d="M116.694 179.382s2.743-.915 2.54-2.439-3.962 0-3.962 0 2.744-2.337 2.388-3.455-3.505 0-3.505 0 .711-3.962-1.728-3.962-1.727 3.962-1.727 3.962-3.15-1.118-3.505 0 2.388 3.455 2.388 3.455-3.76-1.524-3.962 0 2.54 2.439 2.54 2.439-3.704 1.071-2.891 2.697 3.806.351 3.806.351-1.016 3.252.406 3.455 2.946-1.321 2.946-1.321 1.524 1.524 2.947 1.321.406-3.455.406-3.455 2.993 1.274 3.806-.351-2.892-2.697-2.892-2.697z" fill="url(#A)"/><circle cx="112.426" cy="178.823" r="1.88" fill="url(#i)"/><path d="M112.426 172.016v3.505m2.439 4.877l3.403 1.371m-8.223-1.371l-3.404 1.371" class="AN AP"/><path d="M112.426 184.564v-2.794" class="AN"/><circle cx="101.91" cy="179.636" r="1.93" fill="url(#m)"/><circle cx="122.942" cy="179.636" r="1.931" fill="url(#n)"/><path d="M92.055 176.423s1.981-2.832 3.404-1.257-1.793 4.689-1.793 4.689 3.216-2.962 4.486-1.387-1.524 2.845-1.524 2.845 3.624-.346 3.455 2.489-3.356.802-3.356.802.827 1.856-.277 2.578-2.7-.119-2.7-.119-5.006-13.977-6.873-13.375c4.239-2.32 5.179 2.735 5.179 2.735z" fill="url(#g)"/><path d="M92.971 181.721c.545 1.104.467 2.255-.174 2.572s-1.603-.321-2.149-1.425-.467-2.255.175-2.572 1.603.321 2.148 1.425z" fill="url(#u)"/><path d="M94.315 182.6l3.429.567" class="AN AP"/><path d="M132.552 176.423s-1.981-2.832-3.403-1.257 1.793 4.689 1.793 4.689-3.216-2.962-4.486-1.387 1.524 2.845 1.524 2.845-3.623-.346-3.455 2.489 3.356.802 3.356.802-.827 1.856.278 2.578 2.7-.119 2.7-.119 5.006-13.977 6.873-13.375c-4.24-2.32-5.18 2.735-5.18 2.735z" fill="url(#d)"/><path d="M131.635 181.721c-.545 1.104-.467 2.255.175 2.572s1.603-.321 2.148-1.425.467-2.255-.175-2.572-1.603.321-2.148 1.425z" fill="url(#r)"/><path d="M130.291 182.6l-3.428.567" class="AN AP"/></g><path d="M127.686 197.502c-1.613-2.029-8.966-3.114-15.933-3.114s-14.32 1.085-15.933 3.114l-1.371-5.469c-.005-.018-.011-.036-.02-.053-.047-.094-.07-.183-.07-.271 0-1.624 7.143-3.433 17.393-3.433s17.393 1.809 17.393 3.433a.6.6 0 0 1-.07.27c-.008.017-.015.035-.02.053l-1.371 5.469z" fill="url(#R)" transform="matrix(1.009809 0 0 1.009809 -.423168 -2.218478)"/><path d="M112.426 188.172c4.727 0 9.166.384 12.499 1.082 3.795.795 4.798 1.732 4.798 2.117a.35.35 0 0 1-.042.154.52.52 0 0 0-.04.108l-1.274 5.081c-2.228-1.913-9.119-2.905-15.941-2.905s-13.713.993-15.941 2.905l-1.274-5.081c-.009-.037-.022-.073-.04-.107-.029-.058-.043-.108-.043-.155 0-.385 1.003-1.323 4.798-2.117 3.333-.698 7.772-1.082 12.5-1.082m0-.534c-9.848 0-17.831 1.671-17.831 3.734a.88.88 0 0 0 .098.392l1.583 6.314c0-2.062 7.231-3.734 16.15-3.734s16.15 1.672 16.15 3.734l1.583-6.314c.064-.129.098-.26.098-.392 0-2.062-7.983-3.734-17.831-3.734z"/><g class="AL AM AO AQ"><ellipse cx="105.151" cy="191.219" rx="1.814" ry="1.829"/><ellipse cx="120.086" cy="191.219" rx="1.814" ry="1.829"/></g><path d="M112.426 187.637v6.706" class="AL AM AN AQ"/><path d="M112.21 192.967l-3.829-1.786 3.829-1.785 3.83 1.785zm-13.777 1.555l-3.509-.179 2.604-2.786 3.509.179zm28.053 0l3.508-.179-2.603-2.786-3.509.179z" class="AO AL AM AQ"/><ellipse cx="112.426" cy="198.077" rx="16.15" ry="3.734" fill="url(#H)" class="AL AM"/><ellipse cx="112.426" cy="198.077" rx="12.966" ry="2.226"/><ellipse cx="112.426" cy="198.345" rx="10.516" ry="1.676" fill="url(#p)"/><g class="AL"><g class="AM"><path d="M67.43 139.319c-2.475.375-5.912.702-8.278.793v-4.119l8.278.796v2.53z" fill="url(#O)"/><path d="M68.275 133.389c-2.486-.745-6.489-1.12-9.139-.886l.278-3.79c2.739-.513 6.734-.059 9.112 1.125l-.251 3.552z" fill="url(#N)"/><path d="M67.092 128.046c-2.712-1.761-6.405-2.896-8.651-2.575l1.035-4.046c2.607-.241 6.317 1.204 8.703 3.505l-1.087 3.116z" fill="url(#AH)"/><path d="M66.691 121.081c-2.661-2.411-6.1-3.777-8.238-3.101l1.409-4.42c2.572-.187 6.033 1.799 8.304 4.964l-1.475 2.557z" fill="url(#M)"/><path d="M68.314 142.472c-2.469.75-6.472 1.13-9.136.902l.279 3.795c2.752.504 6.745.04 9.106-1.152l-.249-3.545z" fill="url(#D)"/><path d="M67.138 147.812c-2.701 1.769-6.396 2.916-8.658 2.608l1.041 4.045c2.62.224 6.328-1.236 8.698-3.548l-1.081-3.106z" fill="url(#AI)"/><path d="M66.738 154.771c-2.651 2.425-6.093 3.809-8.247 3.154l1.417 4.412c2.583.163 6.042-1.844 8.298-5.024l-1.468-2.542z" fill="url(#C)"/><g class="AO"><ellipse cx="57.585" cy="116.093" rx="2.939" ry="2.982"/><ellipse cx="57.585" cy="123.354" rx="2.939" ry="2.982"/><ellipse cx="57.585" cy="130.616" rx="2.939" ry="2.982"/><ellipse cx="57.585" cy="137.878" rx="2.939" ry="2.983"/><ellipse cx="57.585" cy="145.14" rx="2.939" ry="2.983"/><ellipse cx="57.585" cy="152.402" rx="2.939" ry="2.983"/><ellipse cx="57.585" cy="160.182" rx="2.939" ry="2.982"/></g><path d="M111.856 112.228H65.54v50.586h37.342c2.667 0 4.365-3.602 4.365-3.602s-.406.022 4.609.022l4.608-.022s1.698 3.602 4.365 3.602h37.342v-50.586h-46.316z" fill="url(#U)"/><path d="M106.351 161.44c-.281-.524-6.74-1.223-10.97-1.281s-10.302.291-27.185.078v-45.027l8.179-5.232v44.301h35.614v7.161h-5.639m0 0z" fill="url(#Q)"/><path d="M109.246 158.392c-.255-1.144-6.13-2.67-9.976-2.797s-9.369.635-24.724.171V111.45m33.481 48.041c-.262-.971-6.292-2.267-10.24-2.375s-9.616.54-25.375.146v-44.643m34.802 47.746c-.27-.707-6.471-1.649-10.531-1.727s-9.89.392-26.099.106V113.94" class="AN"/><path d="M117.423 161.44c.281-.524 6.74-1.223 10.97-1.281s10.302.291 27.184.078v-45.027l-8.179-5.232v44.301h-35.614v7.161h5.639m0 0z" fill="url(#S)"/><path d="M114.527 158.392c.255-1.144 6.13-2.67 9.977-2.797s9.369.635 24.723.171V111.45m-33.481 48.041c.262-.971 6.291-2.267 10.239-2.375s9.616.54 25.375.146v-44.643m-34.801 47.746c.269-.707 6.471-1.649 10.531-1.727s9.89.392 26.099.106V113.94" class="AN"/></g><use xlink:href="#AM" stroke-width=".534" fill="#fff"/></g><path d="M130.375 110.795l.606 43.555 9.822.088-1.271-43.067-2.164.081c-2.754 0-4.902-.336-6.994-.656zm-38.552.225c-1.638.235-3.381.431-5.48.431a31.69 31.69 0 0 1-3.111-.162l-.14 43.15a211.95 211.95 0 0 0 10.29-.108l-1.559-43.312zm24.579.224a107.02 107.02 0 0 0-4.545.986l-4.366-.95.911 44.53 3.455 1.331c.037.051 1.87-.762 4.104-1.566l.441-44.33z" fill="#f5f5f5"/><path d="M131.622 110.981l.71 43.406a212.91 212.91 0 0 0 7.747.056l-1.576-43.016-1.135.024c-2.213 0-4.03-.218-5.746-.47zm-40.977.195a34.71 34.71 0 0 1-4.302.274c-.797 0-1.571-.043-2.329-.101l.249 43.097 8.155-.086-1.774-43.184zm17.747.291l.659 44.59 2.806 1.081c.033.047 1.567-.621 3.512-1.344l-.371-44.268-3.141.701a122.35 122.35 0 0 0-3.464-.761z" fill="#ececec"/><g class="AL AM"><path d="M111.856 112.228v44.911" class="AN"/><ellipse rx="5.654" ry="3.035" cx="111.864" cy="160.256" fill="#ef3b39"/></g><path d="M78.827 124.527v-.23h.232c.203 0 .358-.038.466-.115a.67.67 0 0 0 .239-.314c.031-.087.046-.349.046-.784v-5.552c0-.431-.019-.701-.057-.809s-.114-.202-.229-.283-.27-.121-.466-.121h-.232v-.23h3.125c.834 0 1.505.137 2.013.411.621.336 1.092.845 1.413 1.525s.481 1.45.481 2.309a5.42 5.42 0 0 1-.237 1.64c-.158.5-.362.913-.613 1.239a3.12 3.12 0 0 1-.868.784c-.328.197-.729.35-1.202.457-.209.05-.539.075-.989.075h-3.125 0zm2.662-7.961v6.585c0 .349.014.562.041.641a.34.34 0 0 0 .139.181c.093.062.227.093.402.093.573 0 1.011-.237 1.313-.71.412-.639.618-1.631.618-2.975 0-1.083-.141-1.948-.422-2.595-.223-.506-.51-.851-.86-1.033-.247-.129-.657-.191-1.231-.187zm8.886-.597c1.112-.05 2.016.342 2.711 1.176s1.043 1.878 1.043 3.131c0 1.071-.259 2.013-.777 2.826-.686 1.079-1.656 1.618-2.909 1.618s-2.227-.515-2.914-1.543c-.542-.813-.814-1.778-.814-2.894 0-1.253.353-2.298 1.058-3.134s1.573-1.229 2.603-1.179zm.062.398c-.639 0-1.124.394-1.457 1.182-.271.647-.407 1.577-.407 2.789 0 1.44.209 2.504.628 3.193.292.481.7.722 1.225.722.353 0 .649-.104.885-.311.302-.266.537-.69.705-1.273s.252-1.343.252-2.281c0-1.116-.086-1.951-.257-2.505s-.39-.945-.656-1.173a1.37 1.37 0 0 0-.919-.343zm9.092 5.285l1.895-5.565h2.842v.23h-.227c-.206 0-.371.043-.494.131-.086.058-.154.156-.206.293-.038.1-.057.359-.057.778v5.565c0 .432.019.701.057.809s.115.202.232.283.273.122.468.122h.227v.23h-3.645v-.23h.227c.206 0 .371-.043.494-.131.086-.058.154-.158.206-.299.038-.1.057-.361.057-.784v-6.255l-2.677 7.699h-.123l-2.719-7.643v5.944l.026.765c.045.208.142.377.291.507s.384.196.703.196v.23h-2.389v-.23h.072a.93.93 0 0 0 .433-.09c.134-.064.235-.15.304-.258s.122-.259.16-.455a9.31 9.31 0 0 0 .01-.635v-5.34c0-.427-.019-.694-.057-.8s-.115-.199-.232-.28-.273-.121-.468-.121h-.221v-.23h2.852l1.961 5.564z"/><use xlink:href="#AN"/><path d="M85.703 127.974l3.444 5.235v-3.629c0-.506-.06-.849-.18-1.027-.165-.241-.441-.357-.829-.349v-.23h2.307v.23c-.295.046-.493.105-.595.177s-.18.191-.237.355-.085.445-.085.843v7.027h-.175l-4.721-7.027v5.365c0 .485.092.813.275.983a.9.9 0 0 0 .631.255h.165v.23h-2.476v-.23c.384-.004.652-.1.803-.286s.227-.504.227-.952v-5.956l-.149-.224c-.147-.224-.278-.371-.391-.442s-.276-.11-.489-.118v-.23h2.477zm17.557-.193l.057 2.813h-.211c-.1-.705-.344-1.273-.734-1.702s-.811-.644-1.264-.644c-.35 0-.627.113-.831.339a1.13 1.13 0 0 0-.306.781c0 .187.036.353.108.498.1.195.259.388.479.579.161.137.534.38 1.117.728.817.485 1.368.944 1.653 1.375a2.62 2.62 0 0 1 .422 1.481c0 .706-.227 1.312-.682 1.821a2.22 2.22 0 0 1-1.732.763c-.22 0-.427-.027-.623-.081s-.441-.156-.736-.305c-.165-.083-.301-.125-.407-.125-.089 0-.184.042-.283.125a.87.87 0 0 0-.242.38h-.19v-3.187h.19c.151.896.442 1.58.873 2.051s.895.706 1.393.706c.384 0 .691-.127.919-.38a1.28 1.28 0 0 0 .342-.884 1.35 1.35 0 0 0-.131-.579 1.77 1.77 0 0 0-.399-.532c-.178-.168-.494-.387-.947-.657-.635-.378-1.091-.699-1.37-.965a2.87 2.87 0 0 1-.641-.89 2.58 2.58 0 0 1-.224-1.083c0-.672.204-1.245.613-1.718a1.95 1.95 0 0 1 1.545-.71 2.2 2.2 0 0 1 .659.1c.161.05.358.142.59.277s.394.202.487.202.16-.033.211-.1.1-.226.144-.479h.154z"/><use xlink:href="#AN" x="-23.145" y="23.775"/><path d="M92.072 145.34l-.263 2.963H85.61v-.23h.232c.203 0 .366-.043.489-.131.089-.058.158-.158.206-.299.038-.1.057-.361.057-.784v-5.552c0-.431-.019-.701-.057-.809s-.114-.202-.229-.283-.27-.121-.466-.121h-.232v-.23h3.722v.23h-.304c-.203 0-.366.043-.489.131-.089.058-.16.158-.211.299-.038.1-.057.361-.057.784v5.378c0 .432.021.706.062.825a.45.45 0 0 0 .242.264c.086.037.293.056.623.056h.582c.371 0 .679-.079.927-.236s.461-.407.641-.747.351-.842.512-1.506h.211 0zm7.033 0l-.263 2.963h-6.199v-.23h.232c.203 0 .366-.043.489-.131.089-.058.158-.158.206-.299.038-.1.057-.361.057-.784v-5.552c0-.431-.019-.701-.057-.809s-.114-.202-.229-.283-.27-.121-.466-.121h-.232v-.23h3.722v.23h-.304c-.203 0-.366.043-.489.131-.089.058-.16.158-.211.299-.038.1-.057.361-.057.784v5.378c0 .432.021.706.062.825a.45.45 0 0 0 .242.264c.086.037.293.056.623.056h.582c.371 0 .679-.079.927-.236s.461-.407.641-.747.351-.842.512-1.506h.211 0zm6.915-5.478v.23c-.254.05-.481.214-.68.492-.144.208-.359.695-.644 1.463l-2.404 6.448h-.17l-2.394-6.71-.579-1.425c-.098-.141-.282-.23-.554-.268v-.23h3.347v.23h-.113c-.302 0-.508.046-.618.137-.079.062-.118.154-.118.274 0 .075.014.163.041.264s.12.374.278.818l1.488 4.201 1.38-3.741.304-.909a1.67 1.67 0 0 0 .057-.392.65.65 0 0 0-.083-.33.53.53 0 0 0-.242-.218c-.148-.071-.343-.106-.587-.106v-.23h2.291 0zm-7.528-11.903v.23c-.254.05-.481.214-.68.492-.144.208-.359.695-.644 1.463l-2.404 6.448h-.17l-2.394-6.71-.579-1.425c-.098-.141-.282-.23-.554-.268v-.23h3.347v.23h-.113c-.302 0-.508.046-.618.137-.079.062-.118.154-.118.274 0 .075.014.163.041.264s.12.374.278.818l1.488 4.201 1.38-3.741.304-.909a1.69 1.69 0 0 0 .057-.392.65.65 0 0 0-.083-.33.53.53 0 0 0-.242-.218c-.148-.071-.343-.106-.587-.106v-.23h2.291v-.001zm21.113-6.307l1.968-5.565h2.954v.23h-.236c-.214 0-.385.044-.513.131-.089.058-.16.156-.214.293-.039.1-.059.359-.059.778v5.565c0 .432.02.701.059.809s.119.202.241.283.283.122.486.122h.236v.23h-3.788v-.23h.235c.214 0 .385-.044.513-.131a.59.59 0 0 0 .214-.299c.04-.1.059-.361.059-.784v-6.255l-2.782 7.699h-.128l-2.825-7.643v5.944l.027.765a.9.9 0 0 0 .302.507c.155.131.398.196.73.196v.23h-2.482v-.23h.075c.161.004.31-.026.449-.09a.74.74 0 0 0 .316-.258c.072-.108.127-.259.166-.455a8.93 8.93 0 0 0 .011-.635v-5.34c0-.427-.019-.694-.059-.8s-.119-.199-.241-.28-.284-.121-.487-.121h-.23v-.23h2.964l2.038 5.564zm9.132 2.644v.23h-3.793v-.23h.24c.211 0 .38-.044.508-.131a.55.55 0 0 0 .214-.299c.04-.1.059-.361.059-.784v-5.552c0-.431-.019-.701-.059-.809a.59.59 0 0 0-.238-.283c-.119-.081-.281-.121-.484-.121h-.24v-.23h3.793v.23h-.241c-.21 0-.379.044-.508.131-.092.058-.165.158-.219.299-.039.1-.059.361-.059.784v5.552c0 .432.021.701.061.809a.61.61 0 0 0 .241.283c.119.081.281.122.484.122h.241 0zm2.98-8.209l3.579 5.235v-3.629c0-.506-.063-.849-.187-1.027-.171-.241-.458-.357-.862-.349v-.23h2.397v.23c-.307.046-.512.105-.618.177a.7.7 0 0 0-.246.355c-.059.164-.088.445-.088.843v7.027h-.182l-4.906-7.027v5.365c0 .485.095.813.286.983s.41.255.655.255h.171v.23h-2.573v-.23c.399-.004.678-.1.834-.286s.235-.504.235-.952v-5.956l-.155-.224c-.153-.224-.289-.371-.406-.442s-.287-.11-.508-.118v-.23h2.573zm9.742 6.037h-2.563l-.305.822c-.1.274-.15.5-.15.678 0 .236.082.411.246.523.096.067.333.116.712.149v.23h-2.413v-.23c.261-.046.474-.171.642-.377s.374-.63.62-1.273l2.595-6.735h.102l2.616 6.921c.25.656.455 1.068.615 1.239.121.129.292.203.513.224v.23h-3.509v-.23h.145c.281 0 .48-.046.594-.137.078-.066.117-.162.117-.286a.88.88 0 0 0-.032-.23 6.6 6.6 0 0 0-.161-.467l-.385-1.052zm-.182-.461l-1.081-2.907-1.113 2.907h2.193zm-15.116 6.311v2.284h-.193c-.114-.527-.24-.905-.38-1.136a1.54 1.54 0 0 0-.573-.551c-.135-.075-.373-.112-.711-.112h-.541v6.511c0 .432.021.701.061.809a.61.61 0 0 0 .241.283c.119.081.282.122.489.122h.24v.23h-3.798v-.23h.24c.211 0 .38-.044.508-.131.093-.058.166-.158.22-.299.039-.1.059-.361.059-.784v-6.511h-.524c-.489 0-.844.12-1.064.361-.31.336-.507.815-.589 1.438h-.203v-2.284h6.517 0zm4.408 8.21v.23h-3.793v-.23h.241c.211 0 .38-.044.508-.131a.55.55 0 0 0 .214-.299c.04-.1.059-.361.059-.784v-5.552c0-.431-.019-.701-.059-.809a.59.59 0 0 0-.238-.283c-.119-.081-.281-.121-.484-.121h-.24v-.23h3.793v.23h-.241c-.21 0-.379.044-.508.131-.092.058-.165.158-.219.299-.039.1-.059.361-.059.784v5.552c0 .432.021.701.061.809a.61.61 0 0 0 .241.283c.119.081.281.122.484.122h.241 0zm4.484-8.328c1.156-.05 2.095.342 2.817 1.176s1.083 1.878 1.083 3.131c0 1.071-.269 2.013-.808 2.826-.713 1.079-1.721 1.618-3.023 1.618s-2.314-.515-3.028-1.543c-.563-.813-.845-1.778-.845-2.894 0-1.253.366-2.298 1.099-3.134s1.634-1.229 2.704-1.179zm.064.399c-.663 0-1.168.394-1.514 1.182-.282.647-.423 1.577-.423 2.789 0 1.44.218 2.504.653 3.193.303.481.728.722 1.273.722.367 0 .674-.104.92-.311.314-.266.558-.69.733-1.273s.262-1.343.262-2.281c0-1.116-.089-1.951-.268-2.505s-.406-.945-.682-1.173a1.46 1.46 0 0 0-.955-.343zm-13.078 17.172l1.969-5.565h2.953v.23h-.235c-.214 0-.385.044-.513.131a.59.59 0 0 0-.214.293c-.04.1-.059.359-.059.778v5.565c0 .432.019.701.059.809s.119.202.24.283.283.122.487.122h.235v.23h-3.787v-.23h.235c.214 0 .385-.044.513-.131.089-.058.16-.158.214-.299.039-.1.059-.361.059-.784v-6.255l-2.782 7.699h-.128l-2.825-7.643v5.944l.027.765a.9.9 0 0 0 .302.507c.155.131.399.196.73.196v.23h-2.483v-.23h.075c.161.004.31-.026.449-.09a.74.74 0 0 0 .316-.258c.072-.108.127-.259.166-.455a9.31 9.31 0 0 0 .01-.635v-5.34c0-.427-.019-.694-.058-.8s-.119-.199-.241-.28-.283-.121-.487-.121h-.23v-.23H120l2.038 5.564zm8.105-5.08v3.436h.145c.46 0 .793-.168 1-.504s.339-.832.395-1.488h.203v4.419h-.204c-.043-.481-.132-.875-.27-1.182s-.297-.513-.479-.619-.446-.159-.792-.159v2.378c0 .465.017.749.05.853a.49.49 0 0 0 .19.255c.093.066.243.1.449.1h.434c.677 0 1.22-.183 1.629-.548s.701-.921.88-1.668h.198l-.326 2.683h-6.27v-.23h.24c.21 0 .38-.044.508-.131.093-.058.164-.158.214-.299.039-.1.059-.361.059-.784v-5.552l-.027-.703c-.036-.145-.101-.257-.198-.336-.136-.116-.321-.174-.556-.174h-.24v-.23h6.072v2.496h-.204c-.103-.61-.249-1.048-.436-1.313s-.452-.461-.794-.585c-.2-.075-.574-.112-1.124-.112h-.749zm8.88 5.552h-2.562l-.305.822c-.1.274-.15.5-.15.678 0 .236.082.411.246.523.096.067.333.116.711.149v.23h-2.412v-.23a1.03 1.03 0 0 0 .642-.377c.168-.205.375-.63.62-1.273l2.595-6.735h.102l2.617 6.921c.25.656.455 1.068.615 1.239.122.129.293.203.514.224v.23h-3.51v-.23h.145c.282 0 .48-.046.594-.137.078-.066.118-.162.118-.286a.88.88 0 0 0-.032-.23c-.007-.037-.061-.193-.16-.467l-.385-1.052zm-.182-.461l-1.081-2.907-1.113 2.907h2.193z"/><g class="AL AM AN"><use xlink:href="#AJ"/><use xlink:href="#AM"/></g></g></svg>